M48
; DRILL file {KiCad 9.0.7} date 2026-04-27T22:22:16-0400
; FORMAT={-:-/ absolute / metric / decimal}
; #@! TF.CreationDate,2026-04-27T22:22:16-04:00
; #@! TF.GenerationSoftware,Kicad,Pcbnew,9.0.7
; #@! TF.FileFunction,Plated,1,2,PTH
FMAT,2
METRIC
; #@! TA.AperFunction,Plated,PTH,ViaDrill
T1C0.300
; #@! TA.AperFunction,Plated,PTH,ComponentDrill
T2C0.750
; #@! TA.AperFunction,Plated,PTH,ComponentDrill
T3C0.800
; #@! TA.AperFunction,Plated,PTH,ComponentDrill
T4C0.900
; #@! TA.AperFunction,Plated,PTH,ComponentDrill
T5C0.950
; #@! TA.AperFunction,Plated,PTH,ComponentDrill
T6C1.000
; #@! TA.AperFunction,Plated,PTH,ComponentDrill
T7C1.100
%
G90
G05
T1
X127.5Y-84.0
X129.75Y-84.25
X132.0Y-97.25
X132.949Y-62.034
X133.551Y-62.636
X133.75Y-64.75
X143.996Y-70.004
X146.5Y-74.5
X151.5Y-77.5
X156.5Y-62.25
X161.75Y-61.5
X163.699Y-85.301
X164.301Y-84.699
X170.75Y-69.75
X171.489Y-69.444
X174.0Y-65.5
T2
X154.96Y-55.36
X156.23Y-55.36
X157.5Y-55.36
X160.73Y-55.36
X162.0Y-55.36
X163.27Y-55.36
T3
X169.26Y-74.0
X169.26Y-81.62
X171.8Y-74.0
X171.8Y-81.62
X174.34Y-74.0
X174.34Y-81.62
X176.88Y-74.0
X176.88Y-81.62
X179.42Y-74.0
X179.42Y-81.62
X181.96Y-74.0
X181.96Y-81.62
X184.5Y-74.0
X184.5Y-81.62
X187.04Y-74.0
X187.04Y-81.62
X189.58Y-74.0
X189.58Y-81.62
X194.38Y-61.42
X194.38Y-63.96
X194.38Y-66.5
X194.38Y-69.04
X194.38Y-71.58
X194.38Y-74.12
X194.38Y-76.66
X194.38Y-79.2
X202.0Y-61.42
X202.0Y-63.96
X202.0Y-66.5
X202.0Y-69.04
X202.0Y-71.58
X202.0Y-74.12
X202.0Y-76.66
X202.0Y-79.2
X205.502Y-61.42
X205.502Y-63.96
X205.502Y-66.5
X205.502Y-69.04
X205.502Y-71.58
X205.502Y-74.12
X205.502Y-76.66
X205.502Y-79.2
X205.502Y-81.74
X213.122Y-61.42
X213.122Y-63.96
X213.122Y-66.5
X213.122Y-69.04
X213.122Y-71.58
X213.122Y-74.12
X213.122Y-76.66
X213.122Y-79.2
X213.122Y-81.74
T4
X139.5Y-55.0
T5
X127.0Y-55.0
X129.5Y-55.0
X137.0Y-55.0
X146.5Y-55.0
X149.0Y-55.0
X169.5Y-55.0
X172.0Y-55.0
X174.5Y-55.0
X177.0Y-55.0
X179.5Y-55.0
X187.5Y-55.0
X190.0Y-55.0
T6
X123.117Y-92.306
X123.117Y-94.846
X123.117Y-97.386
X123.117Y-99.926
X123.117Y-102.466
X123.117Y-105.006
X123.117Y-107.546
X126.1Y-66.5
X126.1Y-81.74
X128.64Y-66.5
X128.64Y-81.74
X131.18Y-66.5
X131.18Y-81.74
X133.72Y-66.5
X133.72Y-81.74
X136.26Y-66.5
X136.26Y-81.74
X138.8Y-66.5
X138.8Y-81.74
X141.34Y-66.5
X141.34Y-81.74
X143.88Y-66.5
X143.88Y-81.74
X146.42Y-66.5
X146.42Y-81.74
X148.96Y-66.5
X148.96Y-81.74
X151.5Y-66.5
X151.5Y-81.74
X151.603Y-98.827
X151.603Y-101.367
X154.04Y-66.5
X154.04Y-81.74
X156.58Y-66.5
X156.58Y-81.74
X159.12Y-66.5
X159.12Y-81.74
X161.66Y-66.5
X161.66Y-81.74
X165.0Y-92.38
X165.0Y-94.92
X165.0Y-97.46
X165.0Y-100.0
X165.0Y-102.54
X165.0Y-105.08
X165.0Y-107.62
X193.375Y-98.739
X193.375Y-101.279
X208.7Y-101.0
X216.3Y-101.0
T7
X188.0Y-63.46
X188.0Y-66.0
X188.0Y-68.54
M30
