%TF.GenerationSoftware,KiCad,Pcbnew,9.0.7*%
%TF.CreationDate,2026-04-27T22:22:21-04:00*%
%TF.ProjectId,Hyundai_Dash_V1.1,4879756e-6461-4695-9f44-6173685f5631,rev?*%
%TF.SameCoordinates,Original*%
%TF.FileFunction,Copper,L1,Top*%
%TF.FilePolarity,Positive*%
%FSLAX46Y46*%
G04 Gerber Fmt 4.6, Leading zero omitted, Abs format (unit mm)*
G04 Created by KiCad (PCBNEW 9.0.7) date 2026-04-27 22:22:21*
%MOMM*%
%LPD*%
G01*
G04 APERTURE LIST*
G04 Aperture macros list*
%AMRoundRect*
0 Rectangle with rounded corners*
0 $1 Rounding radius*
0 $2 $3 $4 $5 $6 $7 $8 $9 X,Y pos of 4 corners*
0 Add a 4 corners polygon primitive as box body*
4,1,4,$2,$3,$4,$5,$6,$7,$8,$9,$2,$3,0*
0 Add four circle primitives for the rounded corners*
1,1,$1+$1,$2,$3*
1,1,$1+$1,$4,$5*
1,1,$1+$1,$6,$7*
1,1,$1+$1,$8,$9*
0 Add four rect primitives between the rounded corners*
20,1,$1+$1,$2,$3,$4,$5,0*
20,1,$1+$1,$4,$5,$6,$7,0*
20,1,$1+$1,$6,$7,$8,$9,0*
20,1,$1+$1,$8,$9,$2,$3,0*%
G04 Aperture macros list end*
%TA.AperFunction,ComponentPad*%
%ADD10R,1.700000X1.700000*%
%TD*%
%TA.AperFunction,ComponentPad*%
%ADD11C,1.700000*%
%TD*%
%TA.AperFunction,SMDPad,CuDef*%
%ADD12RoundRect,0.200000X-0.275000X0.200000X-0.275000X-0.200000X0.275000X-0.200000X0.275000X0.200000X0*%
%TD*%
%TA.AperFunction,ComponentPad*%
%ADD13RoundRect,0.250000X-0.600000X-0.750000X0.600000X-0.750000X0.600000X0.750000X-0.600000X0.750000X0*%
%TD*%
%TA.AperFunction,ComponentPad*%
%ADD14O,1.700000X2.000000*%
%TD*%
%TA.AperFunction,SMDPad,CuDef*%
%ADD15RoundRect,0.250000X-0.362500X-1.425000X0.362500X-1.425000X0.362500X1.425000X-0.362500X1.425000X0*%
%TD*%
%TA.AperFunction,SMDPad,CuDef*%
%ADD16RoundRect,0.225000X-0.225000X-0.250000X0.225000X-0.250000X0.225000X0.250000X-0.225000X0.250000X0*%
%TD*%
%TA.AperFunction,ComponentPad*%
%ADD17R,2.000000X1.905000*%
%TD*%
%TA.AperFunction,ComponentPad*%
%ADD18O,2.000000X1.905000*%
%TD*%
%TA.AperFunction,ComponentPad*%
%ADD19RoundRect,0.250000X-0.550000X-0.550000X0.550000X-0.550000X0.550000X0.550000X-0.550000X0.550000X0*%
%TD*%
%TA.AperFunction,ComponentPad*%
%ADD20C,1.600000*%
%TD*%
%TA.AperFunction,ComponentPad*%
%ADD21RoundRect,0.250000X0.550000X-0.550000X0.550000X0.550000X-0.550000X0.550000X-0.550000X-0.550000X0*%
%TD*%
%TA.AperFunction,ComponentPad*%
%ADD22R,1.600000X1.600000*%
%TD*%
%TA.AperFunction,ComponentPad*%
%ADD23O,1.600000X1.600000*%
%TD*%
%TA.AperFunction,ComponentPad*%
%ADD24R,1.050000X1.500000*%
%TD*%
%TA.AperFunction,ComponentPad*%
%ADD25O,1.050000X1.500000*%
%TD*%
%TA.AperFunction,ComponentPad*%
%ADD26RoundRect,0.250000X-0.600000X-0.725000X0.600000X-0.725000X0.600000X0.725000X-0.600000X0.725000X0*%
%TD*%
%TA.AperFunction,ComponentPad*%
%ADD27O,1.700000X1.950000*%
%TD*%
%TA.AperFunction,ComponentPad*%
%ADD28R,2.000000X2.000000*%
%TD*%
%TA.AperFunction,ComponentPad*%
%ADD29C,2.000000*%
%TD*%
%TA.AperFunction,SMDPad,CuDef*%
%ADD30RoundRect,0.200000X0.200000X0.275000X-0.200000X0.275000X-0.200000X-0.275000X0.200000X-0.275000X0*%
%TD*%
%TA.AperFunction,ComponentPad*%
%ADD31RoundRect,0.250000X0.550000X0.550000X-0.550000X0.550000X-0.550000X-0.550000X0.550000X-0.550000X0*%
%TD*%
%TA.AperFunction,ViaPad*%
%ADD32C,0.600000*%
%TD*%
%TA.AperFunction,Conductor*%
%ADD33C,0.200000*%
%TD*%
%TA.AperFunction,Conductor*%
%ADD34C,0.400000*%
%TD*%
G04 APERTURE END LIST*
D10*
%TO.P,J3,1,Pin_1*%
%TO.N,/C-CAN_P*%
X151603325Y-98827152D03*
D11*
%TO.P,J3,2,Pin_2*%
%TO.N,/C-CAN_N*%
X151603325Y-101367152D03*
%TD*%
D12*
%TO.P,R1,1*%
%TO.N,/12V*%
X191050000Y-65175000D03*
%TO.P,R1,2*%
%TO.N,Net-(Q1-G)*%
X191050000Y-66825000D03*
%TD*%
D13*
%TO.P,J7,1,Pin_1*%
%TO.N,/B-CAN_P*%
X146500000Y-55000000D03*
D14*
%TO.P,J7,2,Pin_2*%
%TO.N,/B-CAN_N*%
X149000000Y-55000000D03*
%TD*%
D15*
%TO.P,R7,1*%
%TO.N,Net-(U2-O4)*%
X218037500Y-70820000D03*
%TO.P,R7,2*%
%TO.N,Net-(J9-Pin_2)*%
X223962500Y-70820000D03*
%TD*%
D16*
%TO.P,C1,1*%
%TO.N,+5V*%
X194450000Y-83000000D03*
%TO.P,C1,2*%
%TO.N,GND*%
X196000000Y-83000000D03*
%TD*%
D17*
%TO.P,Q1,1,G*%
%TO.N,Net-(Q1-G)*%
X188000000Y-68540000D03*
D18*
%TO.P,Q1,2,D*%
%TO.N,Net-(J2-Pin_1)*%
X188000000Y-66000000D03*
%TO.P,Q1,3,S*%
%TO.N,/12V*%
X188000000Y-63460000D03*
%TD*%
D15*
%TO.P,R9,1*%
%TO.N,Net-(U2-O6)*%
X218037500Y-80640000D03*
%TO.P,R9,2*%
%TO.N,Net-(J9-Pin_2)*%
X223962500Y-80640000D03*
%TD*%
D10*
%TO.P,J6,1,Pin_1*%
%TO.N,/B-CAN_P*%
X193374731Y-98738587D03*
D11*
%TO.P,J6,2,Pin_2*%
%TO.N,/B-CAN_N*%
X193374731Y-101278587D03*
%TD*%
D15*
%TO.P,R4,1*%
%TO.N,Net-(U2-O1)*%
X218037500Y-56090000D03*
%TO.P,R4,2*%
%TO.N,Net-(J9-Pin_2)*%
X223962500Y-56090000D03*
%TD*%
D19*
%TO.P,U2,1,I1*%
%TO.N,Net-(U2-I1)*%
X205501824Y-61419772D03*
D20*
%TO.P,U2,2,I2*%
%TO.N,Net-(U2-I2)*%
X205501824Y-63959772D03*
%TO.P,U2,3,I3*%
%TO.N,Net-(U2-I3)*%
X205501824Y-66499772D03*
%TO.P,U2,4,I4*%
%TO.N,Net-(U2-I4)*%
X205501824Y-69039772D03*
%TO.P,U2,5,I5*%
%TO.N,Net-(U2-I5)*%
X205501824Y-71579772D03*
%TO.P,U2,6,I6*%
%TO.N,Net-(U2-I6)*%
X205501824Y-74119772D03*
%TO.P,U2,7,I7*%
%TO.N,Net-(U2-I7)*%
X205501824Y-76659772D03*
%TO.P,U2,8,I8*%
%TO.N,Net-(U2-I8)*%
X205501824Y-79199772D03*
%TO.P,U2,9,GND*%
%TO.N,GND*%
X205501824Y-81739772D03*
%TO.P,U2,10,COM*%
%TO.N,unconnected-(U2-COM-Pad10)*%
X213121824Y-81739772D03*
%TO.P,U2,11,O8*%
%TO.N,Net-(U2-O8)*%
X213121824Y-79199772D03*
%TO.P,U2,12,O7*%
%TO.N,Net-(U2-O7)*%
X213121824Y-76659772D03*
%TO.P,U2,13,O6*%
%TO.N,Net-(U2-O6)*%
X213121824Y-74119772D03*
%TO.P,U2,14,O5*%
%TO.N,Net-(U2-O5)*%
X213121824Y-71579772D03*
%TO.P,U2,15,O4*%
%TO.N,Net-(U2-O4)*%
X213121824Y-69039772D03*
%TO.P,U2,16,O3*%
%TO.N,Net-(U2-O3)*%
X213121824Y-66499772D03*
%TO.P,U2,17,O2*%
%TO.N,Net-(U2-O2)*%
X213121824Y-63959772D03*
%TO.P,U2,18,O1*%
%TO.N,Net-(U2-O1)*%
X213121824Y-61419772D03*
%TD*%
D15*
%TO.P,R10,1*%
%TO.N,Net-(U2-O7)*%
X218037500Y-85550000D03*
%TO.P,R10,2*%
%TO.N,Net-(J9-Pin_2)*%
X223962500Y-85550000D03*
%TD*%
D13*
%TO.P,J9,1,Pin_1*%
%TO.N,GND*%
X187500000Y-55000000D03*
D14*
%TO.P,J9,2,Pin_2*%
%TO.N,Net-(J9-Pin_2)*%
X190000000Y-55000000D03*
%TD*%
D13*
%TO.P,J1,1,Pin_1*%
%TO.N,/12V*%
X127000000Y-55000000D03*
D14*
%TO.P,J1,2,Pin_2*%
%TO.N,GND*%
X129500000Y-55000000D03*
%TD*%
D21*
%TO.P,U1,1,I1*%
%TO.N,Net-(A1-A4)*%
X169260000Y-81620000D03*
D20*
%TO.P,U1,2,I2*%
%TO.N,Net-(A1-A3)*%
X171800000Y-81620000D03*
%TO.P,U1,3,I3*%
%TO.N,Net-(A1-A2)*%
X174340000Y-81620000D03*
%TO.P,U1,4,I4*%
%TO.N,Net-(A1-A1)*%
X176880000Y-81620000D03*
%TO.P,U1,5,I5*%
%TO.N,Net-(A1-A0)*%
X179420000Y-81620000D03*
%TO.P,U1,6,I6*%
%TO.N,unconnected-(U1-I6-Pad6)*%
X181960000Y-81620000D03*
%TO.P,U1,7,I7*%
%TO.N,unconnected-(U1-I7-Pad7)*%
X184500000Y-81620000D03*
%TO.P,U1,8,I8*%
%TO.N,unconnected-(U1-I8-Pad8)*%
X187040000Y-81620000D03*
%TO.P,U1,9,GND*%
%TO.N,GND*%
X189580000Y-81620000D03*
%TO.P,U1,10,COM*%
%TO.N,unconnected-(U1-COM-Pad10)*%
X189580000Y-74000000D03*
%TO.P,U1,11,O8*%
%TO.N,unconnected-(U1-O8-Pad11)*%
X187040000Y-74000000D03*
%TO.P,U1,12,O7*%
%TO.N,unconnected-(U1-O7-Pad12)*%
X184500000Y-74000000D03*
%TO.P,U1,13,O6*%
%TO.N,unconnected-(U1-O6-Pad13)*%
X181960000Y-74000000D03*
%TO.P,U1,14,O5*%
%TO.N,Net-(J2-Pin_5)*%
X179420000Y-74000000D03*
%TO.P,U1,15,O4*%
%TO.N,Net-(J2-Pin_4)*%
X176880000Y-74000000D03*
%TO.P,U1,16,O3*%
%TO.N,Net-(Q3-G)*%
X174340000Y-74000000D03*
%TO.P,U1,17,O2*%
%TO.N,Net-(Q2-G)*%
X171800000Y-74000000D03*
%TO.P,U1,18,O1*%
%TO.N,Net-(Q1-G)*%
X169260000Y-74000000D03*
%TD*%
D15*
%TO.P,R8,1*%
%TO.N,Net-(U2-O5)*%
X218037500Y-75730000D03*
%TO.P,R8,2*%
%TO.N,Net-(J9-Pin_2)*%
X223962500Y-75730000D03*
%TD*%
D22*
%TO.P,A1,1,D1/TX*%
%TO.N,unconnected-(A1-D1{slash}TX-Pad1)*%
X161660000Y-66500000D03*
D23*
%TO.P,A1,2,D0/RX*%
%TO.N,unconnected-(A1-D0{slash}RX-Pad2)*%
X159120000Y-66500000D03*
%TO.P,A1,3,~{RESET}*%
%TO.N,unconnected-(A1-~{RESET}-Pad3)*%
X156580000Y-66500000D03*
%TO.P,A1,4,GND*%
%TO.N,GND*%
X154040000Y-66500000D03*
%TO.P,A1,5,D2*%
%TO.N,/CAN_INT*%
X151500000Y-66500000D03*
%TO.P,A1,6,D3*%
%TO.N,/Serial Data*%
X148960000Y-66500000D03*
%TO.P,A1,7,D4*%
%TO.N,/Latch Clock*%
X146420000Y-66500000D03*
%TO.P,A1,8,D5*%
%TO.N,/Shift Clock*%
X143880000Y-66500000D03*
%TO.P,A1,9,D6*%
%TO.N,/Master Reset*%
X141340000Y-66500000D03*
%TO.P,A1,10,D7*%
%TO.N,/CAN_CS_B*%
X138800000Y-66500000D03*
%TO.P,A1,11,D8*%
%TO.N,/CAN_CS_C*%
X136260000Y-66500000D03*
%TO.P,A1,12,D9*%
%TO.N,Net-(A1-D9)*%
X133720000Y-66500000D03*
%TO.P,A1,13,D10*%
%TO.N,unconnected-(A1-D10-Pad13)*%
X131180000Y-66500000D03*
%TO.P,A1,14,D11*%
%TO.N,/MOSI*%
X128640000Y-66500000D03*
%TO.P,A1,15,D12*%
%TO.N,/MISO*%
X126100000Y-66500000D03*
%TO.P,A1,16,D13*%
%TO.N,/SCK*%
X126100000Y-81740000D03*
%TO.P,A1,17,3V3*%
%TO.N,unconnected-(A1-3V3-Pad17)*%
X128640000Y-81740000D03*
%TO.P,A1,18,AREF*%
%TO.N,unconnected-(A1-AREF-Pad18)*%
X131180000Y-81740000D03*
%TO.P,A1,19,A0*%
%TO.N,Net-(A1-A0)*%
X133720000Y-81740000D03*
%TO.P,A1,20,A1*%
%TO.N,Net-(A1-A1)*%
X136260000Y-81740000D03*
%TO.P,A1,21,A2*%
%TO.N,Net-(A1-A2)*%
X138800000Y-81740000D03*
%TO.P,A1,22,A3*%
%TO.N,Net-(A1-A3)*%
X141340000Y-81740000D03*
%TO.P,A1,23,A4*%
%TO.N,Net-(A1-A4)*%
X143880000Y-81740000D03*
%TO.P,A1,24,A5*%
%TO.N,unconnected-(A1-A5-Pad24)*%
X146420000Y-81740000D03*
%TO.P,A1,25,A6*%
%TO.N,unconnected-(A1-A6-Pad25)*%
X148960000Y-81740000D03*
%TO.P,A1,26,A7*%
%TO.N,unconnected-(A1-A7-Pad26)*%
X151500000Y-81740000D03*
%TO.P,A1,27,+5V*%
%TO.N,+5V*%
X154040000Y-81740000D03*
%TO.P,A1,28,~{RESET}*%
%TO.N,unconnected-(A1-~{RESET}-Pad28)*%
X156580000Y-81740000D03*
%TO.P,A1,29,GND*%
%TO.N,GND*%
X159120000Y-81740000D03*
%TO.P,A1,30,VIN*%
%TO.N,unconnected-(A1-VIN-Pad30)*%
X161660000Y-81740000D03*
%TD*%
D10*
%TO.P,J8,1,Pin_1*%
%TO.N,+5V*%
X165000000Y-92380000D03*
D11*
%TO.P,J8,2,Pin_2*%
%TO.N,GND*%
X165000000Y-94920000D03*
%TO.P,J8,3,Pin_3*%
%TO.N,/CAN_CS_B*%
X165000000Y-97460000D03*
%TO.P,J8,4,Pin_4*%
%TO.N,/MISO*%
X165000000Y-100000000D03*
%TO.P,J8,5,Pin_5*%
%TO.N,/MOSI*%
X165000000Y-102540000D03*
%TO.P,J8,6,Pin_6*%
%TO.N,/SCK*%
X165000000Y-105080000D03*
%TO.P,J8,7,Pin_7*%
%TO.N,/CAN_INT*%
X165000000Y-107620000D03*
%TD*%
D15*
%TO.P,R11,1*%
%TO.N,Net-(U2-O8)*%
X218037500Y-90460000D03*
%TO.P,R11,2*%
%TO.N,Net-(J9-Pin_2)*%
X223962500Y-90460000D03*
%TD*%
D13*
%TO.P,J4,1,Pin_1*%
%TO.N,/C-CAN_P*%
X137000000Y-55000000D03*
D14*
%TO.P,J4,2,Pin_2*%
%TO.N,/C-CAN_N*%
X139500000Y-55000000D03*
%TD*%
D24*
%TO.P,Q2,1,D*%
%TO.N,Net-(J2-Pin_2)*%
X154960000Y-55360000D03*
D25*
%TO.P,Q2,2,G*%
%TO.N,Net-(Q2-G)*%
X156230000Y-55360000D03*
%TO.P,Q2,3,S*%
%TO.N,/12V*%
X157500000Y-55360000D03*
%TD*%
D10*
%TO.P,J5,1,Pin_1*%
%TO.N,+5V*%
X123116614Y-92306195D03*
D11*
%TO.P,J5,2,Pin_2*%
%TO.N,GND*%
X123116614Y-94846195D03*
%TO.P,J5,3,Pin_3*%
%TO.N,/CAN_CS_C*%
X123116614Y-97386195D03*
%TO.P,J5,4,Pin_4*%
%TO.N,/MISO*%
X123116614Y-99926195D03*
%TO.P,J5,5,Pin_5*%
%TO.N,/MOSI*%
X123116614Y-102466195D03*
%TO.P,J5,6,Pin_6*%
%TO.N,/SCK*%
X123116614Y-105006195D03*
%TO.P,J5,7,Pin_7*%
%TO.N,/CAN_INT*%
X123116614Y-107546195D03*
%TD*%
D26*
%TO.P,J2,1,Pin_1*%
%TO.N,Net-(J2-Pin_1)*%
X169500000Y-55000000D03*
D27*
%TO.P,J2,2,Pin_2*%
%TO.N,Net-(J2-Pin_2)*%
X172000000Y-55000000D03*
%TO.P,J2,3,Pin_3*%
%TO.N,Net-(J2-Pin_3)*%
X174500000Y-55000000D03*
%TO.P,J2,4,Pin_4*%
%TO.N,Net-(J2-Pin_4)*%
X177000000Y-55000000D03*
%TO.P,J2,5,Pin_5*%
%TO.N,Net-(J2-Pin_5)*%
X179500000Y-55000000D03*
%TD*%
D15*
%TO.P,R5,1*%
%TO.N,Net-(U2-O2)*%
X218037500Y-61000000D03*
%TO.P,R5,2*%
%TO.N,Net-(J9-Pin_2)*%
X223962500Y-61000000D03*
%TD*%
D24*
%TO.P,Q3,1,D*%
%TO.N,Net-(J2-Pin_3)*%
X160730000Y-55360000D03*
D25*
%TO.P,Q3,2,G*%
%TO.N,Net-(Q3-G)*%
X162000000Y-55360000D03*
%TO.P,Q3,3,S*%
%TO.N,/12V*%
X163270000Y-55360000D03*
%TD*%
D28*
%TO.P,BZ1,1,+*%
%TO.N,Net-(A1-D9)*%
X208700000Y-101000000D03*
D29*
%TO.P,BZ1,2,-*%
%TO.N,GND*%
X216300000Y-101000000D03*
%TD*%
D15*
%TO.P,R6,1*%
%TO.N,Net-(U2-O3)*%
X218037500Y-65910000D03*
%TO.P,R6,2*%
%TO.N,Net-(J9-Pin_2)*%
X223962500Y-65910000D03*
%TD*%
D30*
%TO.P,R2,1*%
%TO.N,/12V*%
X157055000Y-59500000D03*
%TO.P,R2,2*%
%TO.N,Net-(Q2-G)*%
X155405000Y-59500000D03*
%TD*%
D31*
%TO.P,U3,1,QB*%
%TO.N,Net-(U2-I7)*%
X202000000Y-79200000D03*
D20*
%TO.P,U3,2,QC*%
%TO.N,Net-(U2-I6)*%
X202000000Y-76660000D03*
%TO.P,U3,3,QD*%
%TO.N,Net-(U2-I5)*%
X202000000Y-74120000D03*
%TO.P,U3,4,QE*%
%TO.N,Net-(U2-I4)*%
X202000000Y-71580000D03*
%TO.P,U3,5,QF*%
%TO.N,Net-(U2-I3)*%
X202000000Y-69040000D03*
%TO.P,U3,6,QG*%
%TO.N,Net-(U2-I2)*%
X202000000Y-66500000D03*
%TO.P,U3,7,QH*%
%TO.N,Net-(U2-I1)*%
X202000000Y-63960000D03*
%TO.P,U3,8,GND*%
%TO.N,GND*%
X202000000Y-61420000D03*
%TO.P,U3,9,QH'*%
%TO.N,unconnected-(U3-QH'-Pad9)*%
X194380000Y-61420000D03*
%TO.P,U3,10,~{SRCLR}*%
%TO.N,/Master Reset*%
X194380000Y-63960000D03*
%TO.P,U3,11,SRCLK*%
%TO.N,/Shift Clock*%
X194380000Y-66500000D03*
%TO.P,U3,12,RCLK*%
%TO.N,/Latch Clock*%
X194380000Y-69040000D03*
%TO.P,U3,13,~{OE}*%
%TO.N,GND*%
X194380000Y-71580000D03*
%TO.P,U3,14,SER*%
%TO.N,/Serial Data*%
X194380000Y-74120000D03*
%TO.P,U3,15,QA*%
%TO.N,Net-(U2-I8)*%
X194380000Y-76660000D03*
%TO.P,U3,16,VCC*%
%TO.N,+5V*%
X194380000Y-79200000D03*
%TD*%
D30*
%TO.P,R3,1*%
%TO.N,/12V*%
X162825000Y-59500000D03*
%TO.P,R3,2*%
%TO.N,Net-(Q3-G)*%
X161175000Y-59500000D03*
%TD*%
D32*
%TO.N,/CAN_CS_C*%
X127500000Y-84000000D03*
%TO.N,/CAN_CS_B*%
X132000000Y-97250000D03*
X129750000Y-84250000D03*
%TO.N,/CAN_INT*%
X133750000Y-64750000D03*
%TO.N,/Latch Clock*%
X146500000Y-74500000D03*
%TO.N,/Serial Data*%
X151500000Y-77500000D03*
%TO.N,/Shift Clock*%
X143995735Y-70004265D03*
%TO.N,Net-(J2-Pin_1)*%
X174000000Y-65500000D03*
%TO.N,Net-(Q2-G)*%
X170750000Y-69750000D03*
X156500000Y-62250000D03*
%TO.N,Net-(Q3-G)*%
X161750000Y-61500000D03*
X171489106Y-69443852D03*
%TO.N,/C-CAN_P*%
X132949479Y-62034479D03*
%TO.N,/C-CAN_N*%
X133550521Y-62635521D03*
%TO.N,/B-CAN_N*%
X163699479Y-85300521D03*
%TO.N,/B-CAN_P*%
X164300521Y-84699479D03*
%TD*%
D33*
%TO.N,+5V*%
X123116614Y-92306195D02*
X123193805Y-92306195D01*
X164680000Y-92380000D02*
X165000000Y-92380000D01*
X154040000Y-81740000D02*
X155300000Y-83000000D01*
X155300000Y-83000000D02*
X164680000Y-92380000D01*
X194450000Y-83000000D02*
X155300000Y-83000000D01*
X194380000Y-79200000D02*
X194380000Y-82930000D01*
X155499772Y-83199772D02*
X154040000Y-81740000D01*
X194380000Y-82930000D02*
X194450000Y-83000000D01*
X123267610Y-92380000D02*
X165000000Y-92380000D01*
X123193805Y-92306195D02*
X123267610Y-92380000D01*
%TO.N,/MOSI*%
X165000000Y-102540000D02*
X123190419Y-102540000D01*
X123190419Y-102540000D02*
X123116614Y-102466195D01*
X121564614Y-100914195D02*
X123116614Y-102466195D01*
X121564614Y-69478336D02*
X121564614Y-100914195D01*
X125643950Y-65399000D02*
X121564614Y-69478336D01*
X127539000Y-65399000D02*
X125643950Y-65399000D01*
X128640000Y-66500000D02*
X127539000Y-65399000D01*
%TO.N,/CAN_CS_C*%
X136260000Y-66500000D02*
X127500000Y-75260000D01*
X127500000Y-75260000D02*
X127500000Y-84000000D01*
%TO.N,/Master Reset*%
X194380000Y-63960000D02*
X193000000Y-65340000D01*
X150840000Y-76000000D02*
X141340000Y-66500000D01*
X191826000Y-67688000D02*
X191826000Y-74174000D01*
X193000000Y-66514000D02*
X191826000Y-67688000D01*
X190000000Y-76000000D02*
X150840000Y-76000000D01*
X193000000Y-65340000D02*
X193000000Y-66514000D01*
X191826000Y-74174000D02*
X190000000Y-76000000D01*
%TO.N,Net-(A1-A0)*%
X136960000Y-78500000D02*
X176300000Y-78500000D01*
X133720000Y-81740000D02*
X136960000Y-78500000D01*
X176300000Y-78500000D02*
X179420000Y-81620000D01*
%TO.N,Net-(A1-A3)*%
X141340000Y-81740000D02*
X143080000Y-80000000D01*
X143080000Y-80000000D02*
X170180000Y-80000000D01*
X170180000Y-80000000D02*
X171800000Y-81620000D01*
%TO.N,/CAN_CS_B*%
X129750000Y-75550000D02*
X129750000Y-84250000D01*
X132210000Y-97460000D02*
X165000000Y-97460000D01*
X138800000Y-66500000D02*
X129750000Y-75550000D01*
X132000000Y-97250000D02*
X132210000Y-97460000D01*
%TO.N,/MISO*%
X123190419Y-100000000D02*
X123116614Y-99926195D01*
X121965614Y-98775195D02*
X123116614Y-99926195D01*
X165000000Y-100000000D02*
X123190419Y-100000000D01*
X121965614Y-70634386D02*
X121965614Y-98775195D01*
X126100000Y-66500000D02*
X121965614Y-70634386D01*
%TO.N,/CAN_INT*%
X119899000Y-104328581D02*
X123116614Y-107546195D01*
X119899000Y-70576850D02*
X119899000Y-104328581D01*
X165000000Y-107620000D02*
X123190419Y-107620000D01*
X133750000Y-64750000D02*
X125725850Y-64750000D01*
X125725850Y-64750000D02*
X119899000Y-70576850D01*
X123190419Y-107620000D02*
X123116614Y-107546195D01*
%TO.N,/Latch Clock*%
X148802000Y-76802000D02*
X146500000Y-74500000D01*
X194380000Y-69040000D02*
X192628000Y-70792000D01*
X192628000Y-74506200D02*
X190332200Y-76802000D01*
X192628000Y-70792000D02*
X192628000Y-74506200D01*
X190332200Y-76802000D02*
X148802000Y-76802000D01*
%TO.N,/SCK*%
X165000000Y-105080000D02*
X123190419Y-105080000D01*
X123190419Y-105080000D02*
X123116614Y-105006195D01*
%TO.N,Net-(A1-A1)*%
X139000000Y-79000000D02*
X174260000Y-79000000D01*
X174260000Y-79000000D02*
X176880000Y-81620000D01*
X136260000Y-81740000D02*
X139000000Y-79000000D01*
%TO.N,/Serial Data*%
X151500000Y-77500000D02*
X191000000Y-77500000D01*
X191000000Y-77500000D02*
X194380000Y-74120000D01*
%TO.N,/Shift Clock*%
X150392470Y-76401000D02*
X143995735Y-70004265D01*
X190166100Y-76401000D02*
X150392470Y-76401000D01*
X192227000Y-74340100D02*
X190166100Y-76401000D01*
X192227000Y-68653000D02*
X192227000Y-74340100D01*
X194380000Y-66500000D02*
X192227000Y-68653000D01*
%TO.N,Net-(A1-A2)*%
X141040000Y-79500000D02*
X172220000Y-79500000D01*
X138800000Y-81740000D02*
X141040000Y-79500000D01*
X172220000Y-79500000D02*
X174340000Y-81620000D01*
%TO.N,Net-(Q1-G)*%
X189715000Y-66825000D02*
X188000000Y-68540000D01*
X169260000Y-70240000D02*
X169260000Y-74000000D01*
X170960000Y-68540000D02*
X169260000Y-70240000D01*
X188000000Y-68540000D02*
X170960000Y-68540000D01*
X191050000Y-66825000D02*
X189715000Y-66825000D01*
D34*
%TO.N,Net-(J2-Pin_1)*%
X188000000Y-66000000D02*
X174500000Y-66000000D01*
X174500000Y-66000000D02*
X174000000Y-65500000D01*
D33*
%TO.N,Net-(J2-Pin_3)*%
X173224000Y-53724000D02*
X174500000Y-55000000D01*
X160730000Y-55360000D02*
X160730000Y-55135000D01*
X160730000Y-55135000D02*
X162141000Y-53724000D01*
X162141000Y-53724000D02*
X173224000Y-53724000D01*
D34*
%TO.N,Net-(U2-O1)*%
X218037500Y-56504096D02*
X218037500Y-56090000D01*
X213121824Y-61419772D02*
X218037500Y-56504096D01*
D33*
%TO.N,/12V*%
X162825000Y-61535000D02*
X164750000Y-63460000D01*
X157055000Y-61765000D02*
X158750000Y-63460000D01*
X191050000Y-65175000D02*
X189715000Y-65175000D01*
X162825000Y-55805000D02*
X163270000Y-55360000D01*
X157055000Y-55805000D02*
X157500000Y-55360000D01*
D34*
X158750000Y-63460000D02*
X128960000Y-63460000D01*
X128960000Y-63460000D02*
X127000000Y-61500000D01*
D33*
X189715000Y-65175000D02*
X188000000Y-63460000D01*
X162825000Y-59500000D02*
X162825000Y-61535000D01*
X157055000Y-59500000D02*
X157055000Y-55805000D01*
X162825000Y-59500000D02*
X162825000Y-55805000D01*
X157055000Y-59500000D02*
X157055000Y-61765000D01*
D34*
X127000000Y-61500000D02*
X127000000Y-55000000D01*
X164750000Y-63460000D02*
X158750000Y-63460000D01*
X188000000Y-63460000D02*
X164750000Y-63460000D01*
%TO.N,Net-(U2-O2)*%
X215077728Y-63959772D02*
X218037500Y-61000000D01*
X213121824Y-63959772D02*
X215077728Y-63959772D01*
%TO.N,Net-(U2-O3)*%
X213121824Y-66499772D02*
X217447728Y-66499772D01*
X217447728Y-66499772D02*
X218037500Y-65910000D01*
%TO.N,Net-(U2-O4)*%
X216257272Y-69039772D02*
X218037500Y-70820000D01*
X213121824Y-69039772D02*
X216257272Y-69039772D01*
%TO.N,Net-(U2-O5)*%
X213121824Y-71579772D02*
X217272052Y-75730000D01*
D33*
X217272052Y-75730000D02*
X218037500Y-75730000D01*
X213887272Y-71579772D02*
X213121824Y-71579772D01*
D34*
%TO.N,Net-(U2-O6)*%
X213121824Y-74119772D02*
X218037500Y-79035448D01*
X218037500Y-79035448D02*
X218037500Y-80640000D01*
%TO.N,Net-(U2-O7)*%
X213121824Y-76659772D02*
X214322824Y-77860772D01*
X214322824Y-77860772D02*
X214322824Y-81835324D01*
X214322824Y-81835324D02*
X218037500Y-85550000D01*
%TO.N,Net-(U2-O8)*%
X213121824Y-79199772D02*
X211920824Y-80400772D01*
X211920824Y-84343324D02*
X218037500Y-90460000D01*
X211920824Y-80400772D02*
X211920824Y-84343324D01*
D33*
%TO.N,Net-(U2-I7)*%
X202000000Y-79200000D02*
X202961596Y-79200000D01*
X202961596Y-79200000D02*
X205501824Y-76659772D01*
%TO.N,Net-(U2-I2)*%
X202000000Y-66500000D02*
X204540228Y-63959772D01*
X204540228Y-63959772D02*
X205501824Y-63959772D01*
%TO.N,Net-(U2-I8)*%
X194380000Y-76660000D02*
X198021000Y-80301000D01*
X204400596Y-80301000D02*
X205501824Y-79199772D01*
X198021000Y-80301000D02*
X204400596Y-80301000D01*
%TO.N,Net-(U2-I5)*%
X204540228Y-71579772D02*
X205501824Y-71579772D01*
X202000000Y-74120000D02*
X204540228Y-71579772D01*
%TO.N,Net-(U2-I6)*%
X202000000Y-76660000D02*
X204540228Y-74119772D01*
X204540228Y-74119772D02*
X205501824Y-74119772D01*
%TO.N,Net-(U2-I3)*%
X204540228Y-66499772D02*
X205501824Y-66499772D01*
X202000000Y-69040000D02*
X204540228Y-66499772D01*
%TO.N,Net-(U2-I4)*%
X204540228Y-69039772D02*
X205501824Y-69039772D01*
X202000000Y-71580000D02*
X204540228Y-69039772D01*
%TO.N,Net-(U2-I1)*%
X202000000Y-63960000D02*
X204540228Y-61419772D01*
X204540228Y-61419772D02*
X205501824Y-61419772D01*
D34*
%TO.N,Net-(J9-Pin_2)*%
X193000000Y-52000000D02*
X190000000Y-55000000D01*
X223962500Y-65910000D02*
X223962500Y-70820000D01*
X223962500Y-70820000D02*
X223962500Y-75730000D01*
X223962500Y-56090000D02*
X223962500Y-61000000D01*
X223962500Y-80640000D02*
X223962500Y-85550000D01*
X223962500Y-75730000D02*
X223962500Y-80640000D01*
X223962500Y-85550000D02*
X223962500Y-90460000D01*
X223962500Y-53962500D02*
X222000000Y-52000000D01*
X223962500Y-61000000D02*
X223962500Y-65910000D01*
X222000000Y-52000000D02*
X193000000Y-52000000D01*
X223962500Y-53962500D02*
X223962500Y-56090000D01*
D33*
%TO.N,Net-(A1-A4)*%
X144981000Y-80639000D02*
X168279000Y-80639000D01*
X143880000Y-81740000D02*
X144981000Y-80639000D01*
X168279000Y-80639000D02*
X169260000Y-81620000D01*
%TO.N,Net-(Q2-G)*%
X156230000Y-56520000D02*
X156230000Y-55360000D01*
X171800000Y-74000000D02*
X171800000Y-70800000D01*
X155405000Y-59500000D02*
X155405000Y-57345000D01*
X171800000Y-70800000D02*
X170750000Y-69750000D01*
X155405000Y-61155000D02*
X155405000Y-59500000D01*
X155405000Y-57345000D02*
X156230000Y-56520000D01*
X156500000Y-62250000D02*
X155405000Y-61155000D01*
%TO.N,Net-(Q3-G)*%
X161175000Y-59500000D02*
X161175000Y-57325000D01*
X174340000Y-72294746D02*
X171489106Y-69443852D01*
X161175000Y-60925000D02*
X161175000Y-59500000D01*
X162000000Y-56500000D02*
X162000000Y-55360000D01*
X174340000Y-74000000D02*
X174340000Y-72294746D01*
X161750000Y-61500000D02*
X161175000Y-60925000D01*
X161175000Y-57325000D02*
X162000000Y-56500000D01*
%TO.N,/C-CAN_P*%
X133232322Y-62034479D02*
X132949479Y-62034479D01*
X138025000Y-56175000D02*
X138025000Y-57241801D01*
X137000000Y-55150000D02*
X138025000Y-56175000D01*
X137000000Y-55000000D02*
X137000000Y-55150000D01*
X138025000Y-57241801D02*
X133232322Y-62034479D01*
%TO.N,/C-CAN_N*%
X138475000Y-57428199D02*
X133550521Y-62352678D01*
X139500000Y-55000000D02*
X139500000Y-55150000D01*
X133550521Y-62352678D02*
X133550521Y-62635521D01*
X138475000Y-56175000D02*
X138475000Y-57428199D01*
X139500000Y-55150000D02*
X138475000Y-56175000D01*
%TO.N,/B-CAN_N*%
X193374731Y-101278587D02*
X192099730Y-101278587D01*
X191054730Y-100233587D02*
X178915388Y-100233587D01*
X163982322Y-85300521D02*
X163699479Y-85300521D01*
X192099730Y-101278587D02*
X191054730Y-100233587D01*
X178915388Y-100233587D02*
X163982322Y-85300521D01*
%TO.N,/B-CAN_P*%
X192099730Y-98738587D02*
X191054730Y-99783587D01*
X179101786Y-99783587D02*
X164300521Y-84982322D01*
X193374731Y-98738587D02*
X192099730Y-98738587D01*
X191054730Y-99783587D02*
X179101786Y-99783587D01*
X164300521Y-84982322D02*
X164300521Y-84699479D01*
%TD*%
%TA.AperFunction,Conductor*%
%TO.N,GND*%
G36*
X163592540Y-93000185D02*
G01*
X163638295Y-93052989D01*
X163649501Y-93104500D01*
X163649501Y-93277876D01*
X163655908Y-93337483D01*
X163706202Y-93472328D01*
X163706206Y-93472335D01*
X163792452Y-93587544D01*
X163792455Y-93587547D01*
X163907664Y-93673793D01*
X163907671Y-93673797D01*
X163952618Y-93690561D01*
X164042517Y-93724091D01*
X164102127Y-93730500D01*
X164112685Y-93730499D01*
X164179723Y-93750179D01*
X164200372Y-93766818D01*
X164870591Y-94437037D01*
X164807007Y-94454075D01*
X164692993Y-94519901D01*
X164599901Y-94612993D01*
X164534075Y-94727007D01*
X164517037Y-94790591D01*
X163884728Y-94158282D01*
X163884727Y-94158282D01*
X163845380Y-94212439D01*
X163748904Y-94401782D01*
X163683242Y-94603869D01*
X163683242Y-94603872D01*
X163650000Y-94813753D01*
X163650000Y-95026246D01*
X163683242Y-95236127D01*
X163683242Y-95236130D01*
X163748904Y-95438217D01*
X163845375Y-95627550D01*
X163884728Y-95681716D01*
X164517037Y-95049408D01*
X164534075Y-95112993D01*
X164599901Y-95227007D01*
X164692993Y-95320099D01*
X164807007Y-95385925D01*
X164870590Y-95402962D01*
X164238282Y-96035269D01*
X164238282Y-96035270D01*
X164292452Y-96074626D01*
X164292451Y-96074626D01*
X164301495Y-96079234D01*
X164352292Y-96127208D01*
X164369087Y-96195029D01*
X164346550Y-96261164D01*
X164301499Y-96300202D01*
X164292182Y-96304949D01*
X164120213Y-96429890D01*
X163969890Y-96580213D01*
X163844948Y-96752184D01*
X163844947Y-96752185D01*
X163824765Y-96791795D01*
X163776791Y-96842591D01*
X163714281Y-96859500D01*
X132768109Y-96859500D01*
X132701070Y-96839815D01*
X132665007Y-96804391D01*
X132621789Y-96739710D01*
X132510292Y-96628213D01*
X132510288Y-96628210D01*
X132379185Y-96540609D01*
X132379172Y-96540602D01*
X132233501Y-96480264D01*
X132233489Y-96480261D01*
X132078845Y-96449500D01*
X132078842Y-96449500D01*
X131921158Y-96449500D01*
X131921155Y-96449500D01*
X131766510Y-96480261D01*
X131766498Y-96480264D01*
X131620827Y-96540602D01*
X131620814Y-96540609D01*
X131489711Y-96628210D01*
X131489707Y-96628213D01*
X131378213Y-96739707D01*
X131378210Y-96739711D01*
X131290609Y-96870814D01*
X131290602Y-96870827D01*
X131230264Y-97016498D01*
X131230261Y-97016510D01*
X131199500Y-97171153D01*
X131199500Y-97328846D01*
X131230261Y-97483489D01*
X131230264Y-97483501D01*
X131290602Y-97629172D01*
X131290609Y-97629185D01*
X131378210Y-97760288D01*
X131378213Y-97760292D01*
X131489707Y-97871786D01*
X131489711Y-97871789D01*
X131620814Y-97959390D01*
X131620827Y-97959397D01*
X131766498Y-98019735D01*
X131766503Y-98019737D01*
X131912672Y-98048812D01*
X131921153Y-98050499D01*
X131921156Y-98050500D01*
X132077296Y-98050500D01*
X132082943Y-98050629D01*
X132096391Y-98051242D01*
X132130943Y-98060501D01*
X132289057Y-98060501D01*
X132289061Y-98060500D01*
X150128825Y-98060500D01*
X150195864Y-98080185D01*
X150241619Y-98132989D01*
X150252825Y-98184500D01*
X150252826Y-99275500D01*
X150233141Y-99342539D01*
X150180338Y-99388294D01*
X150128826Y-99399500D01*
X124439938Y-99399500D01*
X124372899Y-99379815D01*
X124329453Y-99331795D01*
X124327015Y-99327011D01*
X124271665Y-99218379D01*
X124271663Y-99218376D01*
X124271662Y-99218374D01*
X124146723Y-99046408D01*
X123996400Y-98896085D01*
X123824434Y-98771146D01*
X123823729Y-98770786D01*
X123815668Y-98766680D01*
X123764873Y-98718707D01*
X123748077Y-98650887D01*
X123770613Y-98584751D01*
X123815668Y-98545710D01*
X123824430Y-98541246D01*
X123894815Y-98490109D01*
X123996400Y-98416304D01*
X123996402Y-98416301D01*
X123996406Y-98416299D01*
X124146718Y-98265987D01*
X124146720Y-98265983D01*
X124146723Y-98265981D01*
X124271662Y-98094015D01*
X124271661Y-98094015D01*
X124271665Y-98094011D01*
X124368171Y-97904607D01*
X124433860Y-97702438D01*
X124467114Y-97492482D01*
X124467114Y-97279908D01*
X124433860Y-97069952D01*
X124368171Y-96867783D01*
X124271665Y-96678379D01*
X124271663Y-96678376D01*
X124271662Y-96678374D01*
X124146723Y-96506408D01*
X123996400Y-96356085D01*
X123824431Y-96231144D01*
X123815118Y-96226399D01*
X123764321Y-96178425D01*
X123747526Y-96110604D01*
X123770063Y-96044469D01*
X123815121Y-96005427D01*
X123824169Y-96000817D01*
X123878330Y-95961465D01*
X123878331Y-95961465D01*
X123246023Y-95329157D01*
X123309607Y-95312120D01*
X123423621Y-95246294D01*
X123516713Y-95153202D01*
X123582539Y-95039188D01*
X123599576Y-94975604D01*
X124231884Y-95607912D01*
X124231884Y-95607911D01*
X124271236Y-95553749D01*
X124367709Y-95364412D01*
X124433371Y-95162325D01*
X124433371Y-95162322D01*
X124466614Y-94952441D01*
X124466614Y-94739948D01*
X124433371Y-94530067D01*
X124433371Y-94530064D01*
X124367709Y-94327977D01*
X124271238Y-94138644D01*
X124231884Y-94084477D01*
X124231883Y-94084477D01*
X123599576Y-94716785D01*
X123582539Y-94653202D01*
X123516713Y-94539188D01*
X123423621Y-94446096D01*
X123309607Y-94380270D01*
X123246021Y-94363231D01*
X123916241Y-93693013D01*
X123977564Y-93659528D01*
X124003922Y-93656694D01*
X124014485Y-93656694D01*
X124014486Y-93656694D01*
X124074097Y-93650286D01*
X124208945Y-93599991D01*
X124324160Y-93513741D01*
X124410410Y-93398526D01*
X124460705Y-93263678D01*
X124467114Y-93204068D01*
X124467114Y-93104500D01*
X124486799Y-93037461D01*
X124539603Y-92991706D01*
X124591114Y-92980500D01*
X163525501Y-92980500D01*
X163592540Y-93000185D01*
G37*
%TD.AperFunction*%
%TA.AperFunction,Conductor*%
G36*
X192998834Y-76452914D02*
G01*
X193054767Y-76494786D01*
X193079184Y-76560250D01*
X193079500Y-76569096D01*
X193079500Y-76762351D01*
X193111522Y-76964534D01*
X193174781Y-77159223D01*
X193237604Y-77282518D01*
X193267598Y-77341385D01*
X193267715Y-77341613D01*
X193388028Y-77507213D01*
X193532786Y-77651971D01*
X193664565Y-77747712D01*
X193698390Y-77772287D01*
X193789840Y-77818883D01*
X193791080Y-77819515D01*
X193841876Y-77867490D01*
X193858671Y-77935311D01*
X193836134Y-78001446D01*
X193791080Y-78040485D01*
X193698386Y-78087715D01*
X193532786Y-78208028D01*
X193388028Y-78352786D01*
X193267715Y-78518386D01*
X193174781Y-78700776D01*
X193111522Y-78895465D01*
X193079500Y-79097648D01*
X193079500Y-79302351D01*
X193111522Y-79504534D01*
X193174781Y-79699223D01*
X193201091Y-79750858D01*
X193267598Y-79881385D01*
X193267715Y-79881613D01*
X193388028Y-80047213D01*
X193388034Y-80047219D01*
X193532781Y-80191966D01*
X193698390Y-80312287D01*
X193711793Y-80319116D01*
X193762589Y-80367088D01*
X193779500Y-80429601D01*
X193779500Y-82118126D01*
X193772082Y-82143387D01*
X193768377Y-82169457D01*
X193761524Y-82179342D01*
X193759815Y-82185165D01*
X193749343Y-82199179D01*
X193746389Y-82202598D01*
X193652032Y-82296956D01*
X193619903Y-82349043D01*
X193613418Y-82356553D01*
X193592060Y-82370326D01*
X193573165Y-82387322D01*
X193561650Y-82389938D01*
X193554700Y-82394421D01*
X193541834Y-82394441D01*
X193519575Y-82399500D01*
X190844199Y-82399500D01*
X190777160Y-82379815D01*
X190731405Y-82327011D01*
X190721461Y-82257853D01*
X190733714Y-82219205D01*
X190784755Y-82119031D01*
X190847990Y-81924417D01*
X190880000Y-81722317D01*
X190880000Y-81517682D01*
X190847990Y-81315582D01*
X190784755Y-81120968D01*
X190691859Y-80938650D01*
X190659474Y-80894077D01*
X190659474Y-80894076D01*
X189980000Y-81573551D01*
X189980000Y-81567339D01*
X189952741Y-81465606D01*
X189900080Y-81374394D01*
X189825606Y-81299920D01*
X189734394Y-81247259D01*
X189632661Y-81220000D01*
X189626446Y-81220000D01*
X190305922Y-80540524D01*
X190305921Y-80540523D01*
X190261359Y-80508147D01*
X190261350Y-80508141D01*
X190079031Y-80415244D01*
X189884417Y-80352009D01*
X189682317Y-80320000D01*
X189477683Y-80320000D01*
X189275582Y-80352009D01*
X189080968Y-80415244D01*
X188898644Y-80508143D01*
X188854077Y-80540523D01*
X188854077Y-80540524D01*
X189533554Y-81220000D01*
X189527339Y-81220000D01*
X189425606Y-81247259D01*
X189334394Y-81299920D01*
X189259920Y-81374394D01*
X189207259Y-81465606D01*
X189180000Y-81567339D01*
X189180000Y-81573553D01*
X188500524Y-80894077D01*
X188500523Y-80894077D01*
X188468143Y-80938644D01*
X188420765Y-81031630D01*
X188372790Y-81082426D01*
X188304969Y-81099221D01*
X188238834Y-81076683D01*
X188199795Y-81031630D01*
X188190735Y-81013848D01*
X188152287Y-80938390D01*
X188152285Y-80938387D01*
X188152284Y-80938385D01*
X188031971Y-80772786D01*
X187887213Y-80628028D01*
X187721613Y-80507715D01*
X187721612Y-80507714D01*
X187721610Y-80507713D01*
X187650583Y-80471523D01*
X187539223Y-80414781D01*
X187344534Y-80351522D01*
X187169995Y-80323878D01*
X187142352Y-80319500D01*
X186937648Y-80319500D01*
X186913329Y-80323351D01*
X186735465Y-80351522D01*
X186540776Y-80414781D01*
X186358386Y-80507715D01*
X186192786Y-80628028D01*
X186048028Y-80772786D01*
X185927715Y-80938386D01*
X185880485Y-81031080D01*
X185832510Y-81081876D01*
X185764689Y-81098671D01*
X185698554Y-81076134D01*
X185659515Y-81031080D01*
X185650735Y-81013848D01*
X185612287Y-80938390D01*
X185580092Y-80894077D01*
X185491971Y-80772786D01*
X185347213Y-80628028D01*
X185181613Y-80507715D01*
X185181612Y-80507714D01*
X185181610Y-80507713D01*
X185110583Y-80471523D01*
X184999223Y-80414781D01*
X184804534Y-80351522D01*
X184629995Y-80323878D01*
X184602352Y-80319500D01*
X184397648Y-80319500D01*
X184373329Y-80323351D01*
X184195465Y-80351522D01*
X184000776Y-80414781D01*
X183818386Y-80507715D01*
X183652786Y-80628028D01*
X183508028Y-80772786D01*
X183387715Y-80938386D01*
X183340485Y-81031080D01*
X183292510Y-81081876D01*
X183224689Y-81098671D01*
X183158554Y-81076134D01*
X183119515Y-81031080D01*
X183110735Y-81013848D01*
X183072287Y-80938390D01*
X183040092Y-80894077D01*
X182951971Y-80772786D01*
X182807213Y-80628028D01*
X182641613Y-80507715D01*
X182641612Y-80507714D01*
X182641610Y-80507713D01*
X182570583Y-80471523D01*
X182459223Y-80414781D01*
X182264534Y-80351522D01*
X182089995Y-80323878D01*
X182062352Y-80319500D01*
X181857648Y-80319500D01*
X181833329Y-80323351D01*
X181655465Y-80351522D01*
X181460776Y-80414781D01*
X181278386Y-80507715D01*
X181112786Y-80628028D01*
X180968028Y-80772786D01*
X180847715Y-80938386D01*
X180800485Y-81031080D01*
X180752510Y-81081876D01*
X180684689Y-81098671D01*
X180618554Y-81076134D01*
X180579515Y-81031080D01*
X180570735Y-81013848D01*
X180532287Y-80938390D01*
X180500092Y-80894077D01*
X180411971Y-80772786D01*
X180267213Y-80628028D01*
X180101613Y-80507715D01*
X180101612Y-80507714D01*
X180101610Y-80507713D01*
X180030583Y-80471523D01*
X179919223Y-80414781D01*
X179724534Y-80351522D01*
X179549995Y-80323878D01*
X179522352Y-80319500D01*
X179317648Y-80319500D01*
X179279599Y-80325526D01*
X179115468Y-80351522D01*
X179109030Y-80353614D01*
X179101154Y-80356173D01*
X179031313Y-80358167D01*
X178975157Y-80325922D01*
X176961416Y-78312181D01*
X176927931Y-78250858D01*
X176932915Y-78181166D01*
X176974787Y-78125233D01*
X177040251Y-78100816D01*
X177049097Y-78100500D01*
X190913331Y-78100500D01*
X190913347Y-78100501D01*
X190920943Y-78100501D01*
X191079054Y-78100501D01*
X191079057Y-78100501D01*
X191231785Y-78059577D01*
X191301233Y-78019481D01*
X191368716Y-77980520D01*
X191480520Y-77868716D01*
X191480520Y-77868714D01*
X191490724Y-77858511D01*
X191490728Y-77858506D01*
X192867819Y-76481415D01*
X192929142Y-76447930D01*
X192998834Y-76452914D01*
G37*
%TD.AperFunction*%
%TA.AperFunction,Conductor*%
G36*
X186669975Y-64180185D02*
G01*
X186706726Y-64217735D01*
X186706919Y-64217596D01*
X186707866Y-64218899D01*
X186708669Y-64219720D01*
X186709781Y-64221536D01*
X186741021Y-64264534D01*
X186844214Y-64406566D01*
X187005934Y-64568286D01*
X187014487Y-64574500D01*
X187090438Y-64629682D01*
X187133103Y-64685013D01*
X187139082Y-64754626D01*
X187106476Y-64816421D01*
X187090438Y-64830318D01*
X187005932Y-64891715D01*
X186844216Y-65053431D01*
X186844216Y-65053432D01*
X186844214Y-65053434D01*
X186804414Y-65108214D01*
X186709781Y-65238463D01*
X186708669Y-65240280D01*
X186708065Y-65240826D01*
X186706919Y-65242404D01*
X186706587Y-65242163D01*
X186656862Y-65287160D01*
X186602936Y-65299500D01*
X174866259Y-65299500D01*
X174799220Y-65279815D01*
X174753465Y-65227011D01*
X174751698Y-65222952D01*
X174709397Y-65120827D01*
X174709390Y-65120814D01*
X174621789Y-64989711D01*
X174621786Y-64989707D01*
X174510292Y-64878213D01*
X174510288Y-64878210D01*
X174379185Y-64790609D01*
X174379172Y-64790602D01*
X174233501Y-64730264D01*
X174233489Y-64730261D01*
X174078845Y-64699500D01*
X174078842Y-64699500D01*
X173921158Y-64699500D01*
X173921155Y-64699500D01*
X173766510Y-64730261D01*
X173766498Y-64730264D01*
X173620827Y-64790602D01*
X173620814Y-64790609D01*
X173489711Y-64878210D01*
X173489707Y-64878213D01*
X173378213Y-64989707D01*
X173378210Y-64989711D01*
X173290609Y-65120814D01*
X173290602Y-65120827D01*
X173230264Y-65266498D01*
X173230261Y-65266510D01*
X173199500Y-65421153D01*
X173199500Y-65578846D01*
X173230261Y-65733489D01*
X173230264Y-65733501D01*
X173290602Y-65879172D01*
X173290609Y-65879185D01*
X173378210Y-66010288D01*
X173378213Y-66010292D01*
X173489707Y-66121786D01*
X173489711Y-66121789D01*
X173620814Y-66209390D01*
X173620827Y-66209397D01*
X173765185Y-66269191D01*
X173805414Y-66296071D01*
X174053453Y-66544111D01*
X174053454Y-66544112D01*
X174168192Y-66620777D01*
X174295667Y-66673578D01*
X174295672Y-66673580D01*
X174295676Y-66673580D01*
X174295677Y-66673581D01*
X174431003Y-66700500D01*
X174431006Y-66700500D01*
X174431007Y-66700500D01*
X186602936Y-66700500D01*
X186608325Y-66702082D01*
X186613833Y-66700980D01*
X186641480Y-66711818D01*
X186669975Y-66720185D01*
X186675029Y-66724969D01*
X186678883Y-66726480D01*
X186691503Y-66740563D01*
X186703423Y-66751847D01*
X186708239Y-66758508D01*
X186709783Y-66761538D01*
X186842694Y-66944474D01*
X186854296Y-66977232D01*
X186866005Y-67010046D01*
X186865970Y-67010192D01*
X186866021Y-67010334D01*
X186858061Y-67044207D01*
X186850180Y-67078100D01*
X186850072Y-67078204D01*
X186850038Y-67078351D01*
X186824912Y-67102656D01*
X186800074Y-67126795D01*
X186799858Y-67126891D01*
X186799820Y-67126929D01*
X186799738Y-67126945D01*
X186785541Y-67133308D01*
X186757670Y-67143703D01*
X186757664Y-67143706D01*
X186642455Y-67229952D01*
X186642452Y-67229955D01*
X186556206Y-67345164D01*
X186556202Y-67345171D01*
X186505908Y-67480017D01*
X186499501Y-67539616D01*
X186499500Y-67539635D01*
X186499500Y-67815500D01*
X186479815Y-67882539D01*
X186427011Y-67928294D01*
X186375500Y-67939500D01*
X171039057Y-67939500D01*
X170880943Y-67939500D01*
X170728215Y-67980423D01*
X170728214Y-67980423D01*
X170728212Y-67980424D01*
X170728209Y-67980425D01*
X170678096Y-68009359D01*
X170678095Y-68009360D01*
X170659988Y-68019814D01*
X170591285Y-68059479D01*
X170591282Y-68059481D01*
X168779481Y-69871282D01*
X168779479Y-69871285D01*
X168770283Y-69887213D01*
X168734537Y-69949128D01*
X168700423Y-70008215D01*
X168659499Y-70160943D01*
X168659499Y-70160945D01*
X168659499Y-70329046D01*
X168659500Y-70329059D01*
X168659500Y-72770397D01*
X168639815Y-72837436D01*
X168591800Y-72880879D01*
X168578389Y-72887712D01*
X168412786Y-73008028D01*
X168268028Y-73152786D01*
X168147715Y-73318386D01*
X168054781Y-73500776D01*
X167991522Y-73695465D01*
X167959500Y-73897648D01*
X167959500Y-74102351D01*
X167991522Y-74304534D01*
X168054781Y-74499223D01*
X168147715Y-74681613D01*
X168268028Y-74847213D01*
X168412786Y-74991971D01*
X168567749Y-75104556D01*
X168578390Y-75112287D01*
X168665042Y-75156438D01*
X168681874Y-75165015D01*
X168732670Y-75212990D01*
X168749465Y-75280811D01*
X168726927Y-75346946D01*
X168672212Y-75390397D01*
X168625579Y-75399500D01*
X151140097Y-75399500D01*
X151073058Y-75379815D01*
X151052416Y-75363181D01*
X143701416Y-68012181D01*
X143667931Y-67950858D01*
X143672915Y-67881166D01*
X143714787Y-67825233D01*
X143780251Y-67800816D01*
X143789097Y-67800500D01*
X143982351Y-67800500D01*
X143982352Y-67800500D01*
X144184534Y-67768477D01*
X144379219Y-67705220D01*
X144379667Y-67704992D01*
X144392747Y-67698327D01*
X144561610Y-67612287D01*
X144661634Y-67539616D01*
X144727213Y-67491971D01*
X144727215Y-67491968D01*
X144727219Y-67491966D01*
X144871966Y-67347219D01*
X144871968Y-67347215D01*
X144871971Y-67347213D01*
X144992284Y-67181614D01*
X144992286Y-67181611D01*
X144992287Y-67181610D01*
X145039516Y-67088917D01*
X145087489Y-67038123D01*
X145155310Y-67021328D01*
X145221445Y-67043865D01*
X145260483Y-67088917D01*
X145288399Y-67143704D01*
X145307715Y-67181614D01*
X145428028Y-67347213D01*
X145572786Y-67491971D01*
X145694596Y-67580469D01*
X145738390Y-67612287D01*
X145820906Y-67654331D01*
X145920776Y-67705218D01*
X145920778Y-67705218D01*
X145920781Y-67705220D01*
X146025137Y-67739127D01*
X146115465Y-67768477D01*
X146216557Y-67784488D01*
X146317648Y-67800500D01*
X146317649Y-67800500D01*
X146522351Y-67800500D01*
X146522352Y-67800500D01*
X146724534Y-67768477D01*
X146919219Y-67705220D01*
X146919667Y-67704992D01*
X146932747Y-67698327D01*
X147101610Y-67612287D01*
X147201634Y-67539616D01*
X147267213Y-67491971D01*
X147267215Y-67491968D01*
X147267219Y-67491966D01*
X147411966Y-67347219D01*
X147411968Y-67347215D01*
X147411971Y-67347213D01*
X147532284Y-67181614D01*
X147532286Y-67181611D01*
X147532287Y-67181610D01*
X147579516Y-67088917D01*
X147627489Y-67038123D01*
X147695310Y-67021328D01*
X147761445Y-67043865D01*
X147800483Y-67088917D01*
X147828399Y-67143704D01*
X147847715Y-67181614D01*
X147968028Y-67347213D01*
X148112786Y-67491971D01*
X148234596Y-67580469D01*
X148278390Y-67612287D01*
X148360906Y-67654331D01*
X148460776Y-67705218D01*
X148460778Y-67705218D01*
X148460781Y-67705220D01*
X148565137Y-67739127D01*
X148655465Y-67768477D01*
X148756557Y-67784488D01*
X148857648Y-67800500D01*
X148857649Y-67800500D01*
X149062351Y-67800500D01*
X149062352Y-67800500D01*
X149264534Y-67768477D01*
X149459219Y-67705220D01*
X149459667Y-67704992D01*
X149472747Y-67698327D01*
X149641610Y-67612287D01*
X149741634Y-67539616D01*
X149807213Y-67491971D01*
X149807215Y-67491968D01*
X149807219Y-67491966D01*
X149951966Y-67347219D01*
X149951968Y-67347215D01*
X149951971Y-67347213D01*
X150072284Y-67181614D01*
X150072286Y-67181611D01*
X150072287Y-67181610D01*
X150119516Y-67088917D01*
X150167489Y-67038123D01*
X150235310Y-67021328D01*
X150301445Y-67043865D01*
X150340483Y-67088917D01*
X150368399Y-67143704D01*
X150387715Y-67181614D01*
X150508028Y-67347213D01*
X150652786Y-67491971D01*
X150774596Y-67580469D01*
X150818390Y-67612287D01*
X150900906Y-67654331D01*
X151000776Y-67705218D01*
X151000778Y-67705218D01*
X151000781Y-67705220D01*
X151105137Y-67739127D01*
X151195465Y-67768477D01*
X151296557Y-67784488D01*
X151397648Y-67800500D01*
X151397649Y-67800500D01*
X151602351Y-67800500D01*
X151602352Y-67800500D01*
X151804534Y-67768477D01*
X151999219Y-67705220D01*
X151999667Y-67704992D01*
X152012747Y-67698327D01*
X152181610Y-67612287D01*
X152281634Y-67539616D01*
X152347213Y-67491971D01*
X152347215Y-67491968D01*
X152347219Y-67491966D01*
X152491966Y-67347219D01*
X152491968Y-67347215D01*
X152491971Y-67347213D01*
X152612284Y-67181614D01*
X152612286Y-67181611D01*
X152612287Y-67181610D01*
X152659795Y-67088369D01*
X152707770Y-67037574D01*
X152775591Y-67020779D01*
X152841725Y-67043316D01*
X152880765Y-67088370D01*
X152928140Y-67181349D01*
X153048417Y-67346894D01*
X153048417Y-67346895D01*
X153193104Y-67491582D01*
X153358650Y-67611859D01*
X153540968Y-67704754D01*
X153735578Y-67767988D01*
X153790000Y-67776607D01*
X153790000Y-66933012D01*
X153847007Y-66965925D01*
X153974174Y-67000000D01*
X154105826Y-67000000D01*
X154232993Y-66965925D01*
X154290000Y-66933012D01*
X154290000Y-67776606D01*
X154344421Y-67767988D01*
X154539031Y-67704754D01*
X154721349Y-67611859D01*
X154886894Y-67491582D01*
X154886895Y-67491582D01*
X155031582Y-67346895D01*
X155031582Y-67346894D01*
X155151861Y-67181347D01*
X155199234Y-67088371D01*
X155247208Y-67037575D01*
X155315028Y-67020779D01*
X155381164Y-67043316D01*
X155420203Y-67088369D01*
X155467713Y-67181611D01*
X155588028Y-67347213D01*
X155732786Y-67491971D01*
X155854596Y-67580469D01*
X155898390Y-67612287D01*
X155980906Y-67654331D01*
X156080776Y-67705218D01*
X156080778Y-67705218D01*
X156080781Y-67705220D01*
X156185137Y-67739127D01*
X156275465Y-67768477D01*
X156376557Y-67784488D01*
X156477648Y-67800500D01*
X156477649Y-67800500D01*
X156682351Y-67800500D01*
X156682352Y-67800500D01*
X156884534Y-67768477D01*
X157079219Y-67705220D01*
X157079667Y-67704992D01*
X157092747Y-67698327D01*
X157261610Y-67612287D01*
X157361634Y-67539616D01*
X157427213Y-67491971D01*
X157427215Y-67491968D01*
X157427219Y-67491966D01*
X157571966Y-67347219D01*
X157571968Y-67347215D01*
X157571971Y-67347213D01*
X157692284Y-67181614D01*
X157692286Y-67181611D01*
X157692287Y-67181610D01*
X157739516Y-67088917D01*
X157787489Y-67038123D01*
X157855310Y-67021328D01*
X157921445Y-67043865D01*
X157960483Y-67088917D01*
X157988399Y-67143704D01*
X158007715Y-67181614D01*
X158128028Y-67347213D01*
X158272786Y-67491971D01*
X158394596Y-67580469D01*
X158438390Y-67612287D01*
X158520906Y-67654331D01*
X158620776Y-67705218D01*
X158620778Y-67705218D01*
X158620781Y-67705220D01*
X158725137Y-67739127D01*
X158815465Y-67768477D01*
X158916557Y-67784488D01*
X159017648Y-67800500D01*
X159017649Y-67800500D01*
X159222351Y-67800500D01*
X159222352Y-67800500D01*
X159424534Y-67768477D01*
X159619219Y-67705220D01*
X159619667Y-67704992D01*
X159632747Y-67698327D01*
X159801610Y-67612287D01*
X159901634Y-67539616D01*
X159967213Y-67491971D01*
X159967215Y-67491968D01*
X159967219Y-67491966D01*
X160111966Y-67347219D01*
X160138330Y-67310930D01*
X160193658Y-67268265D01*
X160263271Y-67262284D01*
X160325067Y-67294889D01*
X160359426Y-67355726D01*
X160361938Y-67370559D01*
X160365907Y-67407480D01*
X160416202Y-67542328D01*
X160416206Y-67542335D01*
X160502452Y-67657544D01*
X160502455Y-67657547D01*
X160617664Y-67743793D01*
X160617671Y-67743797D01*
X160752517Y-67794091D01*
X160752516Y-67794091D01*
X160759444Y-67794835D01*
X160812127Y-67800500D01*
X162507872Y-67800499D01*
X162567483Y-67794091D01*
X162702331Y-67743796D01*
X162817546Y-67657546D01*
X162903796Y-67542331D01*
X162954091Y-67407483D01*
X162960500Y-67347873D01*
X162960499Y-65652128D01*
X162954091Y-65592517D01*
X162942776Y-65562181D01*
X162903797Y-65457671D01*
X162903793Y-65457664D01*
X162817547Y-65342455D01*
X162817544Y-65342452D01*
X162702335Y-65256206D01*
X162702328Y-65256202D01*
X162567482Y-65205908D01*
X162567483Y-65205908D01*
X162507883Y-65199501D01*
X162507881Y-65199500D01*
X162507873Y-65199500D01*
X162507864Y-65199500D01*
X160812129Y-65199500D01*
X160812123Y-65199501D01*
X160752516Y-65205908D01*
X160617671Y-65256202D01*
X160617664Y-65256206D01*
X160502455Y-65342452D01*
X160502452Y-65342455D01*
X160416206Y-65457664D01*
X160416202Y-65457671D01*
X160365908Y-65592516D01*
X160361939Y-65629440D01*
X160335201Y-65693991D01*
X160277809Y-65733839D01*
X160207983Y-65736332D01*
X160147895Y-65700679D01*
X160138332Y-65689070D01*
X160111967Y-65652782D01*
X159967213Y-65508028D01*
X159801613Y-65387715D01*
X159801612Y-65387714D01*
X159801610Y-65387713D01*
X159729196Y-65350816D01*
X159619223Y-65294781D01*
X159424534Y-65231522D01*
X159227693Y-65200346D01*
X159222352Y-65199500D01*
X159017648Y-65199500D01*
X159012307Y-65200346D01*
X158815465Y-65231522D01*
X158620776Y-65294781D01*
X158438386Y-65387715D01*
X158272786Y-65508028D01*
X158128028Y-65652786D01*
X158007715Y-65818386D01*
X157960485Y-65911080D01*
X157912510Y-65961876D01*
X157844689Y-65978671D01*
X157778554Y-65956134D01*
X157739515Y-65911080D01*
X157729792Y-65891998D01*
X157692287Y-65818390D01*
X157661126Y-65775500D01*
X157571971Y-65652786D01*
X157427213Y-65508028D01*
X157261613Y-65387715D01*
X157261612Y-65387714D01*
X157261610Y-65387713D01*
X157189196Y-65350816D01*
X157079223Y-65294781D01*
X156884534Y-65231522D01*
X156687693Y-65200346D01*
X156682352Y-65199500D01*
X156477648Y-65199500D01*
X156472307Y-65200346D01*
X156275465Y-65231522D01*
X156080776Y-65294781D01*
X155898386Y-65387715D01*
X155732786Y-65508028D01*
X155588028Y-65652786D01*
X155467713Y-65818388D01*
X155420203Y-65911630D01*
X155372228Y-65962426D01*
X155304407Y-65979220D01*
X155238272Y-65956682D01*
X155199234Y-65911628D01*
X155151861Y-65818652D01*
X155031582Y-65653105D01*
X155031582Y-65653104D01*
X154886895Y-65508417D01*
X154721349Y-65388140D01*
X154539029Y-65295244D01*
X154344413Y-65232009D01*
X154290000Y-65223390D01*
X154290000Y-66066988D01*
X154232993Y-66034075D01*
X154105826Y-66000000D01*
X153974174Y-66000000D01*
X153847007Y-66034075D01*
X153790000Y-66066988D01*
X153790000Y-65223390D01*
X153735586Y-65232009D01*
X153540970Y-65295244D01*
X153358650Y-65388140D01*
X153193105Y-65508417D01*
X153193104Y-65508417D01*
X153048417Y-65653104D01*
X153048417Y-65653105D01*
X152928140Y-65818650D01*
X152880765Y-65911629D01*
X152832790Y-65962425D01*
X152764969Y-65979220D01*
X152698834Y-65956682D01*
X152659795Y-65911629D01*
X152646556Y-65885646D01*
X152612287Y-65818390D01*
X152581126Y-65775500D01*
X152491971Y-65652786D01*
X152347213Y-65508028D01*
X152181613Y-65387715D01*
X152181612Y-65387714D01*
X152181610Y-65387713D01*
X152109196Y-65350816D01*
X151999223Y-65294781D01*
X151804534Y-65231522D01*
X151607693Y-65200346D01*
X151602352Y-65199500D01*
X151397648Y-65199500D01*
X151392307Y-65200346D01*
X151195465Y-65231522D01*
X151000776Y-65294781D01*
X150818386Y-65387715D01*
X150652786Y-65508028D01*
X150508028Y-65652786D01*
X150387715Y-65818386D01*
X150340485Y-65911080D01*
X150292510Y-65961876D01*
X150224689Y-65978671D01*
X150158554Y-65956134D01*
X150119515Y-65911080D01*
X150109792Y-65891998D01*
X150072287Y-65818390D01*
X150041126Y-65775500D01*
X149951971Y-65652786D01*
X149807213Y-65508028D01*
X149641613Y-65387715D01*
X149641612Y-65387714D01*
X149641610Y-65387713D01*
X149569196Y-65350816D01*
X149459223Y-65294781D01*
X149264534Y-65231522D01*
X149067693Y-65200346D01*
X149062352Y-65199500D01*
X148857648Y-65199500D01*
X148852307Y-65200346D01*
X148655465Y-65231522D01*
X148460776Y-65294781D01*
X148278386Y-65387715D01*
X148112786Y-65508028D01*
X147968028Y-65652786D01*
X147847715Y-65818386D01*
X147800485Y-65911080D01*
X147752510Y-65961876D01*
X147684689Y-65978671D01*
X147618554Y-65956134D01*
X147579515Y-65911080D01*
X147569792Y-65891998D01*
X147532287Y-65818390D01*
X147501126Y-65775500D01*
X147411971Y-65652786D01*
X147267213Y-65508028D01*
X147101613Y-65387715D01*
X147101612Y-65387714D01*
X147101610Y-65387713D01*
X147029196Y-65350816D01*
X146919223Y-65294781D01*
X146724534Y-65231522D01*
X146527693Y-65200346D01*
X146522352Y-65199500D01*
X146317648Y-65199500D01*
X146312307Y-65200346D01*
X146115465Y-65231522D01*
X145920776Y-65294781D01*
X145738386Y-65387715D01*
X145572786Y-65508028D01*
X145428028Y-65652786D01*
X145307715Y-65818386D01*
X145260485Y-65911080D01*
X145212510Y-65961876D01*
X145144689Y-65978671D01*
X145078554Y-65956134D01*
X145039515Y-65911080D01*
X145029792Y-65891998D01*
X144992287Y-65818390D01*
X144961126Y-65775500D01*
X144871971Y-65652786D01*
X144727213Y-65508028D01*
X144561613Y-65387715D01*
X144561612Y-65387714D01*
X144561610Y-65387713D01*
X144489196Y-65350816D01*
X144379223Y-65294781D01*
X144184534Y-65231522D01*
X143987693Y-65200346D01*
X143982352Y-65199500D01*
X143777648Y-65199500D01*
X143772307Y-65200346D01*
X143575465Y-65231522D01*
X143380776Y-65294781D01*
X143198386Y-65387715D01*
X143032786Y-65508028D01*
X142888028Y-65652786D01*
X142767715Y-65818386D01*
X142720485Y-65911080D01*
X142672510Y-65961876D01*
X142604689Y-65978671D01*
X142538554Y-65956134D01*
X142499515Y-65911080D01*
X142489792Y-65891998D01*
X142452287Y-65818390D01*
X142421126Y-65775500D01*
X142331971Y-65652786D01*
X142187213Y-65508028D01*
X142021613Y-65387715D01*
X142021612Y-65387714D01*
X142021610Y-65387713D01*
X141949196Y-65350816D01*
X141839223Y-65294781D01*
X141644534Y-65231522D01*
X141447693Y-65200346D01*
X141442352Y-65199500D01*
X141237648Y-65199500D01*
X141232307Y-65200346D01*
X141035465Y-65231522D01*
X140840776Y-65294781D01*
X140658386Y-65387715D01*
X140492786Y-65508028D01*
X140348028Y-65652786D01*
X140227715Y-65818386D01*
X140180485Y-65911080D01*
X140132510Y-65961876D01*
X140064689Y-65978671D01*
X139998554Y-65956134D01*
X139959515Y-65911080D01*
X139949792Y-65891998D01*
X139912287Y-65818390D01*
X139881126Y-65775500D01*
X139791971Y-65652786D01*
X139647213Y-65508028D01*
X139481613Y-65387715D01*
X139481612Y-65387714D01*
X139481610Y-65387713D01*
X139409196Y-65350816D01*
X139299223Y-65294781D01*
X139104534Y-65231522D01*
X138907693Y-65200346D01*
X138902352Y-65199500D01*
X138697648Y-65199500D01*
X138692307Y-65200346D01*
X138495465Y-65231522D01*
X138300776Y-65294781D01*
X138118386Y-65387715D01*
X137952786Y-65508028D01*
X137808028Y-65652786D01*
X137687715Y-65818386D01*
X137640485Y-65911080D01*
X137592510Y-65961876D01*
X137524689Y-65978671D01*
X137458554Y-65956134D01*
X137419515Y-65911080D01*
X137409792Y-65891998D01*
X137372287Y-65818390D01*
X137341126Y-65775500D01*
X137251971Y-65652786D01*
X137107213Y-65508028D01*
X136941613Y-65387715D01*
X136941612Y-65387714D01*
X136941610Y-65387713D01*
X136869196Y-65350816D01*
X136759223Y-65294781D01*
X136564534Y-65231522D01*
X136367693Y-65200346D01*
X136362352Y-65199500D01*
X136157648Y-65199500D01*
X136152307Y-65200346D01*
X135955465Y-65231522D01*
X135760776Y-65294781D01*
X135578386Y-65387715D01*
X135412786Y-65508028D01*
X135268028Y-65652786D01*
X135147715Y-65818386D01*
X135100485Y-65911080D01*
X135052510Y-65961876D01*
X134984689Y-65978671D01*
X134918554Y-65956134D01*
X134879515Y-65911080D01*
X134869792Y-65891998D01*
X134832287Y-65818390D01*
X134801126Y-65775500D01*
X134711971Y-65652786D01*
X134567217Y-65508032D01*
X134567212Y-65508028D01*
X134420672Y-65401561D01*
X134378006Y-65346231D01*
X134372027Y-65276618D01*
X134390455Y-65232353D01*
X134435312Y-65165220D01*
X134459389Y-65129187D01*
X134459390Y-65129184D01*
X134459394Y-65129179D01*
X134462854Y-65120827D01*
X134482959Y-65072287D01*
X134519737Y-64983497D01*
X134550500Y-64828842D01*
X134550500Y-64671158D01*
X134550500Y-64671155D01*
X134550499Y-64671153D01*
X134542250Y-64629682D01*
X134519737Y-64516503D01*
X134496011Y-64459223D01*
X134459397Y-64370827D01*
X134459393Y-64370820D01*
X134447748Y-64353392D01*
X134426870Y-64286715D01*
X134445354Y-64219334D01*
X134497332Y-64172644D01*
X134550850Y-64160500D01*
X158681007Y-64160500D01*
X164681007Y-64160500D01*
X186602936Y-64160500D01*
X186669975Y-64180185D01*
G37*
%TD.AperFunction*%
%TA.AperFunction,Conductor*%
G36*
X193980000Y-71632661D02*
G01*
X194007259Y-71734394D01*
X194059920Y-71825606D01*
X194134394Y-71900080D01*
X194225606Y-71952741D01*
X194327339Y-71980000D01*
X194333553Y-71980000D01*
X193654076Y-72659474D01*
X193698652Y-72691861D01*
X193791628Y-72739234D01*
X193842425Y-72787208D01*
X193859220Y-72855029D01*
X193836683Y-72921164D01*
X193791630Y-72960203D01*
X193698388Y-73007713D01*
X193532786Y-73128028D01*
X193532782Y-73128032D01*
X193440181Y-73220634D01*
X193378858Y-73254119D01*
X193309166Y-73249135D01*
X193253233Y-73207263D01*
X193228816Y-73141799D01*
X193228500Y-73132953D01*
X193228500Y-72429308D01*
X193248185Y-72362269D01*
X193264819Y-72341627D01*
X193980000Y-71626446D01*
X193980000Y-71632661D01*
G37*
%TD.AperFunction*%
%TA.AperFunction,Conductor*%
G36*
X226942539Y-50520185D02*
G01*
X226988294Y-50572989D01*
X226999500Y-50624500D01*
X226999500Y-113375500D01*
X226979815Y-113442539D01*
X226927011Y-113488294D01*
X226875500Y-113499500D01*
X119124500Y-113499500D01*
X119057461Y-113479815D01*
X119011706Y-113427011D01*
X119000500Y-113375500D01*
X119000500Y-104407635D01*
X119298498Y-104407635D01*
X119339422Y-104560364D01*
X119339424Y-104560367D01*
X119340109Y-104561553D01*
X119340120Y-104561594D01*
X119340129Y-104561589D01*
X119418475Y-104697290D01*
X119418481Y-104697298D01*
X119537349Y-104816166D01*
X119537355Y-104816171D01*
X121782855Y-107061671D01*
X121816340Y-107122994D01*
X121813106Y-107187668D01*
X121799367Y-107229952D01*
X121766114Y-107439908D01*
X121766114Y-107652481D01*
X121799367Y-107862434D01*
X121865058Y-108064609D01*
X121961565Y-108254015D01*
X122086504Y-108425981D01*
X122236827Y-108576304D01*
X122408793Y-108701243D01*
X122408795Y-108701244D01*
X122408798Y-108701246D01*
X122598202Y-108797752D01*
X122800371Y-108863441D01*
X123010327Y-108896695D01*
X123010328Y-108896695D01*
X123222900Y-108896695D01*
X123222901Y-108896695D01*
X123432857Y-108863441D01*
X123635026Y-108797752D01*
X123824430Y-108701246D01*
X123894815Y-108650109D01*
X123996400Y-108576304D01*
X123996402Y-108576301D01*
X123996406Y-108576299D01*
X124146718Y-108425987D01*
X124155878Y-108413378D01*
X124258876Y-108271615D01*
X124314205Y-108228949D01*
X124359194Y-108220500D01*
X163714281Y-108220500D01*
X163781320Y-108240185D01*
X163824765Y-108288205D01*
X163844947Y-108327814D01*
X163844948Y-108327815D01*
X163969890Y-108499786D01*
X164120213Y-108650109D01*
X164292179Y-108775048D01*
X164292181Y-108775049D01*
X164292184Y-108775051D01*
X164481588Y-108871557D01*
X164683757Y-108937246D01*
X164893713Y-108970500D01*
X164893714Y-108970500D01*
X165106286Y-108970500D01*
X165106287Y-108970500D01*
X165316243Y-108937246D01*
X165518412Y-108871557D01*
X165707816Y-108775051D01*
X165809405Y-108701243D01*
X165879786Y-108650109D01*
X165879788Y-108650106D01*
X165879792Y-108650104D01*
X166030104Y-108499792D01*
X166030106Y-108499788D01*
X166030109Y-108499786D01*
X166155048Y-108327820D01*
X166155047Y-108327820D01*
X166155051Y-108327816D01*
X166251557Y-108138412D01*
X166317246Y-107936243D01*
X166350500Y-107726287D01*
X166350500Y-107513713D01*
X166317246Y-107303757D01*
X166251557Y-107101588D01*
X166155051Y-106912184D01*
X166155049Y-106912181D01*
X166155048Y-106912179D01*
X166030109Y-106740213D01*
X165879786Y-106589890D01*
X165707820Y-106464951D01*
X165707115Y-106464591D01*
X165699054Y-106460485D01*
X165648259Y-106412512D01*
X165631463Y-106344692D01*
X165653999Y-106278556D01*
X165699054Y-106239515D01*
X165707816Y-106235051D01*
X165809405Y-106161243D01*
X165879786Y-106110109D01*
X165879788Y-106110106D01*
X165879792Y-106110104D01*
X166030104Y-105959792D01*
X166030106Y-105959788D01*
X166030109Y-105959786D01*
X166155048Y-105787820D01*
X166155047Y-105787820D01*
X166155051Y-105787816D01*
X166251557Y-105598412D01*
X166317246Y-105396243D01*
X166350500Y-105186287D01*
X166350500Y-104973713D01*
X166317246Y-104763757D01*
X166251557Y-104561588D01*
X166155051Y-104372184D01*
X166155049Y-104372181D01*
X166155048Y-104372179D01*
X166030109Y-104200213D01*
X165879786Y-104049890D01*
X165707820Y-103924951D01*
X165707115Y-103924591D01*
X165699054Y-103920485D01*
X165648259Y-103872512D01*
X165631463Y-103804692D01*
X165653999Y-103738556D01*
X165699054Y-103699515D01*
X165707816Y-103695051D01*
X165809405Y-103621243D01*
X165879786Y-103570109D01*
X165879788Y-103570106D01*
X165879792Y-103570104D01*
X166030104Y-103419792D01*
X166030106Y-103419788D01*
X166030109Y-103419786D01*
X166155048Y-103247820D01*
X166155047Y-103247820D01*
X166155051Y-103247816D01*
X166251557Y-103058412D01*
X166317246Y-102856243D01*
X166350500Y-102646287D01*
X166350500Y-102433713D01*
X166317246Y-102223757D01*
X166251557Y-102021588D01*
X166155051Y-101832184D01*
X166155049Y-101832181D01*
X166155048Y-101832179D01*
X166030109Y-101660213D01*
X165879786Y-101509890D01*
X165707820Y-101384951D01*
X165707115Y-101384591D01*
X165699054Y-101380485D01*
X165648259Y-101332512D01*
X165631463Y-101264692D01*
X165653999Y-101198556D01*
X165699054Y-101159515D01*
X165707816Y-101155051D01*
X165830625Y-101065826D01*
X165879786Y-101030109D01*
X165879788Y-101030106D01*
X165879792Y-101030104D01*
X166030104Y-100879792D01*
X166030106Y-100879788D01*
X166030109Y-100879786D01*
X166155048Y-100707820D01*
X166155047Y-100707820D01*
X166155051Y-100707816D01*
X166251557Y-100518412D01*
X166317246Y-100316243D01*
X166350500Y-100106287D01*
X166350500Y-99893713D01*
X166317246Y-99683757D01*
X166251557Y-99481588D01*
X166155051Y-99292184D01*
X166155049Y-99292181D01*
X166155048Y-99292179D01*
X166030109Y-99120213D01*
X165879786Y-98969890D01*
X165707820Y-98844951D01*
X165707115Y-98844591D01*
X165699054Y-98840485D01*
X165648259Y-98792512D01*
X165631463Y-98724692D01*
X165653999Y-98658556D01*
X165699054Y-98619515D01*
X165707816Y-98615051D01*
X165809405Y-98541243D01*
X165879786Y-98490109D01*
X165879788Y-98490106D01*
X165879792Y-98490104D01*
X166030104Y-98339792D01*
X166030106Y-98339788D01*
X166030109Y-98339786D01*
X166155048Y-98167820D01*
X166155047Y-98167820D01*
X166155051Y-98167816D01*
X166251557Y-97978412D01*
X166317246Y-97776243D01*
X166350500Y-97566287D01*
X166350500Y-97353713D01*
X166317246Y-97143757D01*
X166251557Y-96941588D01*
X166155051Y-96752184D01*
X166155049Y-96752181D01*
X166155048Y-96752179D01*
X166030109Y-96580213D01*
X165879786Y-96429890D01*
X165707817Y-96304949D01*
X165698504Y-96300204D01*
X165647707Y-96252230D01*
X165630912Y-96184409D01*
X165653449Y-96118274D01*
X165698507Y-96079232D01*
X165707555Y-96074622D01*
X165761716Y-96035270D01*
X165761717Y-96035270D01*
X165129408Y-95402962D01*
X165192993Y-95385925D01*
X165307007Y-95320099D01*
X165400099Y-95227007D01*
X165465925Y-95112993D01*
X165482962Y-95049408D01*
X166115270Y-95681717D01*
X166115270Y-95681716D01*
X166154622Y-95627554D01*
X166251095Y-95438217D01*
X166316757Y-95236130D01*
X166316757Y-95236127D01*
X166350000Y-95026246D01*
X166350000Y-94813753D01*
X166316757Y-94603872D01*
X166316757Y-94603869D01*
X166251095Y-94401782D01*
X166154624Y-94212449D01*
X166115270Y-94158282D01*
X166115269Y-94158282D01*
X165482962Y-94790590D01*
X165465925Y-94727007D01*
X165400099Y-94612993D01*
X165307007Y-94519901D01*
X165192993Y-94454075D01*
X165129409Y-94437037D01*
X165799627Y-93766818D01*
X165860950Y-93733333D01*
X165887307Y-93730499D01*
X165897872Y-93730499D01*
X165957483Y-93724091D01*
X166092331Y-93673796D01*
X166207546Y-93587546D01*
X166293796Y-93472331D01*
X166344091Y-93337483D01*
X166350500Y-93277873D01*
X166350499Y-91482128D01*
X166344091Y-91422517D01*
X166338797Y-91408324D01*
X166293797Y-91287671D01*
X166293793Y-91287664D01*
X166207547Y-91172455D01*
X166207544Y-91172452D01*
X166092335Y-91086206D01*
X166092328Y-91086202D01*
X165957482Y-91035908D01*
X165957483Y-91035908D01*
X165897883Y-91029501D01*
X165897881Y-91029500D01*
X165897873Y-91029500D01*
X165897865Y-91029500D01*
X164230097Y-91029500D01*
X164163058Y-91009815D01*
X164142416Y-90993181D01*
X158370909Y-85221674D01*
X162898979Y-85221674D01*
X162898979Y-85379367D01*
X162929740Y-85534010D01*
X162929743Y-85534022D01*
X162990081Y-85679693D01*
X162990088Y-85679706D01*
X163077689Y-85810809D01*
X163077692Y-85810813D01*
X163189186Y-85922307D01*
X163189190Y-85922310D01*
X163320293Y-86009911D01*
X163320306Y-86009918D01*
X163465977Y-86070256D01*
X163465982Y-86070258D01*
X163587442Y-86094418D01*
X163620632Y-86101020D01*
X163620635Y-86101021D01*
X163620637Y-86101021D01*
X163778322Y-86101021D01*
X163817944Y-86093139D01*
X163842819Y-86088191D01*
X163912411Y-86094418D01*
X163954693Y-86122127D01*
X178430527Y-100597961D01*
X178430537Y-100597972D01*
X178434867Y-100602302D01*
X178434868Y-100602303D01*
X178546672Y-100714107D01*
X178546674Y-100714108D01*
X178546678Y-100714111D01*
X178662180Y-100780795D01*
X178683604Y-100793164D01*
X178795407Y-100823121D01*
X178836330Y-100834087D01*
X178836331Y-100834087D01*
X190754633Y-100834087D01*
X190821672Y-100853772D01*
X190842314Y-100870406D01*
X191614869Y-101642961D01*
X191614879Y-101642972D01*
X191619209Y-101647302D01*
X191619210Y-101647303D01*
X191731014Y-101759107D01*
X191777878Y-101786163D01*
X191817825Y-101809226D01*
X191817827Y-101809228D01*
X191855881Y-101831198D01*
X191867945Y-101838164D01*
X192020673Y-101879087D01*
X192089012Y-101879087D01*
X192156051Y-101898772D01*
X192199496Y-101946792D01*
X192219678Y-101986401D01*
X192219679Y-101986402D01*
X192344621Y-102158373D01*
X192494944Y-102308696D01*
X192666910Y-102433635D01*
X192666912Y-102433636D01*
X192666915Y-102433638D01*
X192856319Y-102530144D01*
X193058488Y-102595833D01*
X193268444Y-102629087D01*
X193268445Y-102629087D01*
X193481017Y-102629087D01*
X193481018Y-102629087D01*
X193690974Y-102595833D01*
X193893143Y-102530144D01*
X194082547Y-102433638D01*
X194142470Y-102390102D01*
X194254517Y-102308696D01*
X194254519Y-102308693D01*
X194254523Y-102308691D01*
X194404835Y-102158379D01*
X194404837Y-102158375D01*
X194404840Y-102158373D01*
X194529779Y-101986407D01*
X194529778Y-101986407D01*
X194529782Y-101986403D01*
X194626288Y-101796999D01*
X194691977Y-101594830D01*
X194725231Y-101384874D01*
X194725231Y-101172300D01*
X194721062Y-101145980D01*
X194691977Y-100962347D01*
X194691977Y-100962344D01*
X194626288Y-100760175D01*
X194529782Y-100570771D01*
X194529780Y-100570768D01*
X194529779Y-100570766D01*
X194404840Y-100398800D01*
X194291300Y-100285260D01*
X194257815Y-100223937D01*
X194262799Y-100154245D01*
X194304671Y-100098312D01*
X194335646Y-100081397D01*
X194467062Y-100032383D01*
X194574259Y-99952135D01*
X207199500Y-99952135D01*
X207199500Y-102047870D01*
X207199501Y-102047876D01*
X207205908Y-102107483D01*
X207256202Y-102242328D01*
X207256206Y-102242335D01*
X207342452Y-102357544D01*
X207342455Y-102357547D01*
X207457664Y-102443793D01*
X207457671Y-102443797D01*
X207592517Y-102494091D01*
X207592516Y-102494091D01*
X207599444Y-102494835D01*
X207652127Y-102500500D01*
X209747872Y-102500499D01*
X209807483Y-102494091D01*
X209942331Y-102443796D01*
X210057546Y-102357546D01*
X210143796Y-102242331D01*
X210194091Y-102107483D01*
X210200500Y-102047873D01*
X210200499Y-100881947D01*
X214800000Y-100881947D01*
X214800000Y-101118052D01*
X214836934Y-101351247D01*
X214909897Y-101575802D01*
X215017087Y-101786174D01*
X215077338Y-101869104D01*
X215077340Y-101869105D01*
X215817037Y-101129408D01*
X215834075Y-101192993D01*
X215899901Y-101307007D01*
X215992993Y-101400099D01*
X216107007Y-101465925D01*
X216170590Y-101482962D01*
X215430893Y-102222658D01*
X215513828Y-102282914D01*
X215724197Y-102390102D01*
X215948752Y-102463065D01*
X215948751Y-102463065D01*
X216181948Y-102500000D01*
X216418052Y-102500000D01*
X216651247Y-102463065D01*
X216875802Y-102390102D01*
X217086163Y-102282918D01*
X217086169Y-102282914D01*
X217169104Y-102222658D01*
X217169105Y-102222658D01*
X216429408Y-101482962D01*
X216492993Y-101465925D01*
X216607007Y-101400099D01*
X216700099Y-101307007D01*
X216765925Y-101192993D01*
X216782962Y-101129408D01*
X217522658Y-101869105D01*
X217522658Y-101869104D01*
X217582914Y-101786169D01*
X217582918Y-101786163D01*
X217690102Y-101575802D01*
X217763065Y-101351247D01*
X217800000Y-101118052D01*
X217800000Y-100881947D01*
X217763065Y-100648752D01*
X217690102Y-100424197D01*
X217582914Y-100213828D01*
X217522658Y-100130894D01*
X217522658Y-100130893D01*
X216782962Y-100870590D01*
X216765925Y-100807007D01*
X216700099Y-100692993D01*
X216607007Y-100599901D01*
X216492993Y-100534075D01*
X216429409Y-100517037D01*
X217169105Y-99777340D01*
X217169104Y-99777338D01*
X217086174Y-99717087D01*
X216875802Y-99609897D01*
X216651247Y-99536934D01*
X216651248Y-99536934D01*
X216418052Y-99500000D01*
X216181948Y-99500000D01*
X215948752Y-99536934D01*
X215724197Y-99609897D01*
X215513830Y-99717084D01*
X215430894Y-99777340D01*
X216170591Y-100517037D01*
X216107007Y-100534075D01*
X215992993Y-100599901D01*
X215899901Y-100692993D01*
X215834075Y-100807007D01*
X215817037Y-100870591D01*
X215077340Y-100130894D01*
X215017084Y-100213830D01*
X214909897Y-100424197D01*
X214836934Y-100648752D01*
X214800000Y-100881947D01*
X210200499Y-100881947D01*
X210200499Y-99952128D01*
X210194091Y-99892517D01*
X210194090Y-99892514D01*
X210184922Y-99867931D01*
X210143797Y-99757671D01*
X210143793Y-99757664D01*
X210057547Y-99642455D01*
X210057544Y-99642452D01*
X209942335Y-99556206D01*
X209942328Y-99556202D01*
X209807482Y-99505908D01*
X209807483Y-99505908D01*
X209747883Y-99499501D01*
X209747881Y-99499500D01*
X209747873Y-99499500D01*
X209747864Y-99499500D01*
X207652129Y-99499500D01*
X207652123Y-99499501D01*
X207592516Y-99505908D01*
X207457671Y-99556202D01*
X207457664Y-99556206D01*
X207342455Y-99642452D01*
X207342452Y-99642455D01*
X207256206Y-99757664D01*
X207256202Y-99757671D01*
X207205908Y-99892517D01*
X207200144Y-99946133D01*
X207199501Y-99952123D01*
X207199500Y-99952135D01*
X194574259Y-99952135D01*
X194582277Y-99946133D01*
X194622414Y-99892517D01*
X194635906Y-99874495D01*
X194668524Y-99830922D01*
X194668523Y-99830922D01*
X194668527Y-99830918D01*
X194718822Y-99696070D01*
X194725231Y-99636460D01*
X194725230Y-97840715D01*
X194718822Y-97781104D01*
X194717007Y-97776239D01*
X194668528Y-97646258D01*
X194668524Y-97646251D01*
X194582278Y-97531042D01*
X194582275Y-97531039D01*
X194467066Y-97444793D01*
X194467059Y-97444789D01*
X194332213Y-97394495D01*
X194332214Y-97394495D01*
X194272614Y-97388088D01*
X194272612Y-97388087D01*
X194272604Y-97388087D01*
X194272595Y-97388087D01*
X192476860Y-97388087D01*
X192476854Y-97388088D01*
X192417247Y-97394495D01*
X192282402Y-97444789D01*
X192282395Y-97444793D01*
X192167186Y-97531039D01*
X192167183Y-97531042D01*
X192080937Y-97646251D01*
X192080933Y-97646258D01*
X192030639Y-97781104D01*
X192024232Y-97840703D01*
X192024232Y-97840710D01*
X192024231Y-97840722D01*
X192024231Y-98041985D01*
X192018473Y-98061592D01*
X192017594Y-98082008D01*
X192008829Y-98094434D01*
X192004546Y-98109024D01*
X191989103Y-98122404D01*
X191977325Y-98139106D01*
X191959437Y-98148111D01*
X191951742Y-98154779D01*
X191946840Y-98156892D01*
X191939733Y-98159774D01*
X191867945Y-98179010D01*
X191817825Y-98207947D01*
X191810393Y-98212237D01*
X191810390Y-98212239D01*
X191731015Y-98258066D01*
X191731012Y-98258068D01*
X191649295Y-98339786D01*
X191619210Y-98369871D01*
X191619208Y-98369873D01*
X191217936Y-98771146D01*
X190842314Y-99146768D01*
X190780991Y-99180253D01*
X190754633Y-99183087D01*
X179401884Y-99183087D01*
X179334845Y-99163402D01*
X179314203Y-99146768D01*
X165122127Y-84954693D01*
X165088642Y-84893370D01*
X165088191Y-84842819D01*
X165101021Y-84778322D01*
X165101021Y-84620634D01*
X165101020Y-84620632D01*
X165079071Y-84510288D01*
X165070258Y-84465982D01*
X165048031Y-84412320D01*
X211220323Y-84412320D01*
X211247242Y-84547646D01*
X211247245Y-84547656D01*
X211300046Y-84675131D01*
X211376711Y-84789869D01*
X211376712Y-84789870D01*
X216888181Y-90301338D01*
X216921666Y-90362661D01*
X216924500Y-90389019D01*
X216924500Y-91935001D01*
X216924501Y-91935018D01*
X216935000Y-92037796D01*
X216935001Y-92037799D01*
X216990185Y-92204331D01*
X216990186Y-92204334D01*
X217082288Y-92353656D01*
X217206344Y-92477712D01*
X217355666Y-92569814D01*
X217522203Y-92624999D01*
X217624991Y-92635500D01*
X218450008Y-92635499D01*
X218450016Y-92635498D01*
X218450019Y-92635498D01*
X218506302Y-92629748D01*
X218552797Y-92624999D01*
X218719334Y-92569814D01*
X218868656Y-92477712D01*
X218992712Y-92353656D01*
X219084814Y-92204334D01*
X219139999Y-92037797D01*
X219150500Y-91935009D01*
X219150499Y-88984992D01*
X219139999Y-88882203D01*
X219084814Y-88715666D01*
X218992712Y-88566344D01*
X218868656Y-88442288D01*
X218719334Y-88350186D01*
X218552797Y-88295001D01*
X218552795Y-88295000D01*
X218450010Y-88284500D01*
X217624998Y-88284500D01*
X217624980Y-88284501D01*
X217522203Y-88295000D01*
X217522200Y-88295001D01*
X217355668Y-88350185D01*
X217355663Y-88350187D01*
X217206339Y-88442291D01*
X217196069Y-88452561D01*
X217134743Y-88486042D01*
X217065052Y-88481053D01*
X217020712Y-88452555D01*
X212657643Y-84089486D01*
X212624158Y-84028163D01*
X212621324Y-84001805D01*
X212621324Y-83115247D01*
X212641009Y-83048208D01*
X212693813Y-83002453D01*
X212762971Y-82992509D01*
X212783644Y-82997317D01*
X212817282Y-83008247D01*
X212817285Y-83008247D01*
X212817290Y-83008249D01*
X213019472Y-83040272D01*
X213019473Y-83040272D01*
X213224175Y-83040272D01*
X213224176Y-83040272D01*
X213426358Y-83008249D01*
X213621043Y-82944992D01*
X213803434Y-82852059D01*
X213938519Y-82753915D01*
X213969037Y-82731743D01*
X213969039Y-82731740D01*
X213969043Y-82731738D01*
X214011131Y-82689650D01*
X214072454Y-82656165D01*
X214142146Y-82661149D01*
X214186493Y-82689650D01*
X216888181Y-85391338D01*
X216921666Y-85452661D01*
X216924500Y-85479019D01*
X216924500Y-87025001D01*
X216924501Y-87025018D01*
X216935000Y-87127796D01*
X216935001Y-87127799D01*
X216990185Y-87294331D01*
X216990186Y-87294334D01*
X217082288Y-87443656D01*
X217206344Y-87567712D01*
X217355666Y-87659814D01*
X217522203Y-87714999D01*
X217624991Y-87725500D01*
X218450008Y-87725499D01*
X218450016Y-87725498D01*
X218450019Y-87725498D01*
X218528245Y-87717507D01*
X218552797Y-87714999D01*
X218719334Y-87659814D01*
X218868656Y-87567712D01*
X218992712Y-87443656D01*
X219084814Y-87294334D01*
X219139999Y-87127797D01*
X219150500Y-87025009D01*
X219150499Y-84074992D01*
X219139999Y-83972203D01*
X219084814Y-83805666D01*
X218992712Y-83656344D01*
X218868656Y-83532288D01*
X218719334Y-83440186D01*
X218552797Y-83385001D01*
X218552795Y-83385000D01*
X218450010Y-83374500D01*
X217624998Y-83374500D01*
X217624980Y-83374501D01*
X217522203Y-83385000D01*
X217522200Y-83385001D01*
X217355668Y-83440185D01*
X217355663Y-83440187D01*
X217206339Y-83532291D01*
X217196069Y-83542561D01*
X217134743Y-83576042D01*
X217065052Y-83571053D01*
X217020712Y-83542555D01*
X215059643Y-81581486D01*
X215026158Y-81520163D01*
X215023324Y-81493805D01*
X215023324Y-77791776D01*
X215023323Y-77791774D01*
X214996406Y-77656451D01*
X214996404Y-77656447D01*
X214996404Y-77656444D01*
X214994549Y-77651966D01*
X214958141Y-77564069D01*
X214943599Y-77528961D01*
X214943598Y-77528959D01*
X214943597Y-77528957D01*
X214866939Y-77414231D01*
X214855208Y-77402500D01*
X214769366Y-77316658D01*
X214438629Y-76985921D01*
X214437560Y-76983964D01*
X214435641Y-76982828D01*
X214420897Y-76953448D01*
X214405144Y-76924598D01*
X214404989Y-76921748D01*
X214404303Y-76920380D01*
X214404142Y-76906096D01*
X214403007Y-76885110D01*
X214403340Y-76881974D01*
X214422324Y-76762124D01*
X214422324Y-76703706D01*
X214423021Y-76697161D01*
X214433946Y-76670708D01*
X214442009Y-76643252D01*
X214447114Y-76638827D01*
X214449694Y-76632583D01*
X214473187Y-76616235D01*
X214494813Y-76597497D01*
X214501499Y-76596535D01*
X214507046Y-76592676D01*
X214535646Y-76591625D01*
X214563971Y-76587553D01*
X214570117Y-76590359D01*
X214576868Y-76590112D01*
X214601492Y-76604688D01*
X214627527Y-76616578D01*
X214634005Y-76622610D01*
X216915413Y-78904018D01*
X216948898Y-78965341D01*
X216945439Y-79030701D01*
X216935001Y-79062202D01*
X216924500Y-79164983D01*
X216924500Y-82115001D01*
X216924501Y-82115018D01*
X216935000Y-82217796D01*
X216935001Y-82217799D01*
X216990185Y-82384331D01*
X216990187Y-82384336D01*
X216996420Y-82394441D01*
X217082288Y-82533656D01*
X217206344Y-82657712D01*
X217355666Y-82749814D01*
X217522203Y-82804999D01*
X217624991Y-82815500D01*
X218450008Y-82815499D01*
X218450016Y-82815498D01*
X218450019Y-82815498D01*
X218528245Y-82807507D01*
X218552797Y-82804999D01*
X218719334Y-82749814D01*
X218868656Y-82657712D01*
X218992712Y-82533656D01*
X219084814Y-82384334D01*
X219139999Y-82217797D01*
X219150500Y-82115009D01*
X219150499Y-79164992D01*
X219139999Y-79062203D01*
X219084814Y-78895666D01*
X218992712Y-78746344D01*
X218868656Y-78622288D01*
X218719334Y-78530186D01*
X218683036Y-78518158D01*
X218552798Y-78475001D01*
X218552790Y-78475000D01*
X218501912Y-78469802D01*
X218437220Y-78443405D01*
X218426834Y-78434125D01*
X218109889Y-78117180D01*
X218076404Y-78055857D01*
X218081388Y-77986165D01*
X218123260Y-77930232D01*
X218188724Y-77905815D01*
X218197570Y-77905499D01*
X218450002Y-77905499D01*
X218450008Y-77905499D01*
X218552797Y-77894999D01*
X218719334Y-77839814D01*
X218868656Y-77747712D01*
X218992712Y-77623656D01*
X219084814Y-77474334D01*
X219139999Y-77307797D01*
X219150500Y-77205009D01*
X219150499Y-74254992D01*
X219139999Y-74152203D01*
X219084814Y-73985666D01*
X218992712Y-73836344D01*
X218868656Y-73712288D01*
X218750245Y-73639252D01*
X218719336Y-73620187D01*
X218719331Y-73620185D01*
X218706946Y-73616081D01*
X218552797Y-73565001D01*
X218552795Y-73565000D01*
X218450010Y-73554500D01*
X217624998Y-73554500D01*
X217624980Y-73554501D01*
X217522203Y-73565000D01*
X217522200Y-73565001D01*
X217355668Y-73620185D01*
X217355663Y-73620187D01*
X217206342Y-73712289D01*
X217082289Y-73836342D01*
X216990187Y-73985663D01*
X216990186Y-73985666D01*
X216935990Y-74149218D01*
X216896217Y-74206662D01*
X216831701Y-74233485D01*
X216762925Y-74221170D01*
X216730603Y-74197894D01*
X214475389Y-71942680D01*
X214441904Y-71881357D01*
X214446304Y-71819824D01*
X214444745Y-71819407D01*
X214447294Y-71809895D01*
X214487772Y-71658829D01*
X214487772Y-71500715D01*
X214446849Y-71347988D01*
X214378091Y-71228895D01*
X214367549Y-71205216D01*
X214363031Y-71191312D01*
X214344786Y-71135156D01*
X214327046Y-71080557D01*
X214310832Y-71048735D01*
X214234111Y-70898162D01*
X214189884Y-70837288D01*
X214113795Y-70732558D01*
X213969037Y-70587800D01*
X213803438Y-70467487D01*
X213787560Y-70459397D01*
X213710741Y-70420255D01*
X213659947Y-70372283D01*
X213643152Y-70304462D01*
X213665689Y-70238327D01*
X213710741Y-70199288D01*
X213803434Y-70152059D01*
X213898334Y-70083111D01*
X213969037Y-70031743D01*
X213969039Y-70031740D01*
X213969043Y-70031738D01*
X214113790Y-69886991D01*
X214183249Y-69791387D01*
X214238579Y-69748721D01*
X214283568Y-69740272D01*
X215915753Y-69740272D01*
X215982792Y-69759957D01*
X216003434Y-69776591D01*
X216888181Y-70661338D01*
X216921666Y-70722661D01*
X216924500Y-70749019D01*
X216924500Y-72295001D01*
X216924501Y-72295018D01*
X216935000Y-72397796D01*
X216935001Y-72397799D01*
X216990185Y-72564331D01*
X216990187Y-72564336D01*
X217009004Y-72594843D01*
X217082288Y-72713656D01*
X217206344Y-72837712D01*
X217355666Y-72929814D01*
X217522203Y-72984999D01*
X217624991Y-72995500D01*
X218450008Y-72995499D01*
X218450016Y-72995498D01*
X218450019Y-72995498D01*
X218528245Y-72987507D01*
X218552797Y-72984999D01*
X218719334Y-72929814D01*
X218868656Y-72837712D01*
X218992712Y-72713656D01*
X219084814Y-72564334D01*
X219139999Y-72397797D01*
X219150500Y-72295009D01*
X219150499Y-69344992D01*
X219139999Y-69242203D01*
X219084814Y-69075666D01*
X218992712Y-68926344D01*
X218868656Y-68802288D01*
X218719334Y-68710186D01*
X218552797Y-68655001D01*
X218552795Y-68655000D01*
X218450010Y-68644500D01*
X217624998Y-68644500D01*
X217624980Y-68644501D01*
X217522203Y-68655000D01*
X217522200Y-68655001D01*
X217355668Y-68710185D01*
X217355663Y-68710187D01*
X217278100Y-68758029D01*
X217206344Y-68802288D01*
X217206342Y-68802289D01*
X217206337Y-68802293D01*
X217196072Y-68812558D01*
X217134748Y-68846041D01*
X217065057Y-68841054D01*
X217020713Y-68812555D01*
X216703818Y-68495660D01*
X216589079Y-68418994D01*
X216461604Y-68366193D01*
X216461594Y-68366190D01*
X216326268Y-68339272D01*
X216326266Y-68339272D01*
X216326265Y-68339272D01*
X214283568Y-68339272D01*
X214216529Y-68319587D01*
X214183249Y-68288156D01*
X214113793Y-68192556D01*
X213969037Y-68047800D01*
X213803438Y-67927487D01*
X213796830Y-67924120D01*
X213710741Y-67880255D01*
X213659947Y-67832283D01*
X213643152Y-67764462D01*
X213665689Y-67698327D01*
X213710741Y-67659288D01*
X213803434Y-67612059D01*
X213899402Y-67542335D01*
X213969037Y-67491743D01*
X213969039Y-67491740D01*
X213969043Y-67491738D01*
X214113790Y-67346991D01*
X214113861Y-67346894D01*
X214183249Y-67251388D01*
X214238579Y-67208721D01*
X214283568Y-67200272D01*
X216800501Y-67200272D01*
X216867540Y-67219957D01*
X216913295Y-67272761D01*
X216924501Y-67324272D01*
X216924501Y-67385018D01*
X216935000Y-67487796D01*
X216935001Y-67487799D01*
X216990185Y-67654331D01*
X216990187Y-67654336D01*
X216998909Y-67668477D01*
X217082288Y-67803656D01*
X217206344Y-67927712D01*
X217355666Y-68019814D01*
X217522203Y-68074999D01*
X217624991Y-68085500D01*
X218450008Y-68085499D01*
X218450016Y-68085498D01*
X218450019Y-68085498D01*
X218528245Y-68077507D01*
X218552797Y-68074999D01*
X218719334Y-68019814D01*
X218868656Y-67927712D01*
X218992712Y-67803656D01*
X219084814Y-67654334D01*
X219139999Y-67487797D01*
X219150500Y-67385009D01*
X219150499Y-64434992D01*
X219147595Y-64406568D01*
X219139999Y-64332203D01*
X219139998Y-64332200D01*
X219119215Y-64269481D01*
X219084814Y-64165666D01*
X218992712Y-64016344D01*
X218868656Y-63892288D01*
X218719430Y-63800245D01*
X218719336Y-63800187D01*
X218719331Y-63800185D01*
X218706946Y-63796081D01*
X218552797Y-63745001D01*
X218552795Y-63745000D01*
X218450010Y-63734500D01*
X217624998Y-63734500D01*
X217624980Y-63734501D01*
X217522203Y-63745000D01*
X217522200Y-63745001D01*
X217355668Y-63800185D01*
X217355663Y-63800187D01*
X217206342Y-63892289D01*
X217082289Y-64016342D01*
X216990187Y-64165663D01*
X216990185Y-64165668D01*
X216972393Y-64219361D01*
X216935001Y-64332203D01*
X216935001Y-64332204D01*
X216935000Y-64332204D01*
X216924500Y-64434983D01*
X216924500Y-65675272D01*
X216904815Y-65742311D01*
X216852011Y-65788066D01*
X216800500Y-65799272D01*
X214283568Y-65799272D01*
X214216529Y-65779587D01*
X214183249Y-65748156D01*
X214179002Y-65742311D01*
X214166593Y-65725230D01*
X214113793Y-65652556D01*
X213969037Y-65507800D01*
X213803438Y-65387487D01*
X213769481Y-65370185D01*
X213710741Y-65340255D01*
X213659947Y-65292283D01*
X213643152Y-65224462D01*
X213665689Y-65158327D01*
X213710741Y-65119288D01*
X213803434Y-65072059D01*
X213860936Y-65030282D01*
X213969037Y-64951743D01*
X213969039Y-64951740D01*
X213969043Y-64951738D01*
X214113790Y-64806991D01*
X214183249Y-64711387D01*
X214238579Y-64668721D01*
X214283568Y-64660272D01*
X215146724Y-64660272D01*
X215241687Y-64641382D01*
X215282056Y-64633352D01*
X215345797Y-64606949D01*
X215409535Y-64580549D01*
X215409536Y-64580548D01*
X215409539Y-64580547D01*
X215524271Y-64503886D01*
X217020713Y-63007442D01*
X217082036Y-62973958D01*
X217151727Y-62978942D01*
X217196075Y-63007443D01*
X217206344Y-63017712D01*
X217355666Y-63109814D01*
X217522203Y-63164999D01*
X217624991Y-63175500D01*
X218450008Y-63175499D01*
X218450016Y-63175498D01*
X218450019Y-63175498D01*
X218528245Y-63167507D01*
X218552797Y-63164999D01*
X218719334Y-63109814D01*
X218868656Y-63017712D01*
X218992712Y-62893656D01*
X219084814Y-62744334D01*
X219139999Y-62577797D01*
X219150500Y-62475009D01*
X219150499Y-59524992D01*
X219139999Y-59422203D01*
X219084814Y-59255666D01*
X218992712Y-59106344D01*
X218868656Y-58982288D01*
X218719334Y-58890186D01*
X218552797Y-58835001D01*
X218552795Y-58835000D01*
X218450010Y-58824500D01*
X217624998Y-58824500D01*
X217624980Y-58824501D01*
X217522203Y-58835000D01*
X217522200Y-58835001D01*
X217355668Y-58890185D01*
X217355663Y-58890187D01*
X217206342Y-58982289D01*
X217082289Y-59106342D01*
X216990187Y-59255663D01*
X216990186Y-59255666D01*
X216935001Y-59422203D01*
X216935001Y-59422204D01*
X216935000Y-59422204D01*
X216924500Y-59524983D01*
X216924500Y-61070980D01*
X216904815Y-61138019D01*
X216888181Y-61158661D01*
X214823890Y-63222953D01*
X214762567Y-63256438D01*
X214736209Y-63259272D01*
X214283568Y-63259272D01*
X214216529Y-63239587D01*
X214183249Y-63208156D01*
X214113793Y-63112556D01*
X213969037Y-62967800D01*
X213803438Y-62847487D01*
X213796830Y-62844120D01*
X213710741Y-62800255D01*
X213659947Y-62752283D01*
X213643152Y-62684462D01*
X213665689Y-62618327D01*
X213710741Y-62579288D01*
X213803434Y-62532059D01*
X213849664Y-62498471D01*
X213969037Y-62411743D01*
X213969039Y-62411740D01*
X213969043Y-62411738D01*
X214113790Y-62266991D01*
X214113792Y-62266987D01*
X214113795Y-62266985D01*
X214201751Y-62145922D01*
X214234111Y-62101382D01*
X214327044Y-61918991D01*
X214390301Y-61724306D01*
X214422324Y-61522124D01*
X214422324Y-61317420D01*
X214403837Y-61200701D01*
X214412791Y-61131408D01*
X214438626Y-61093625D01*
X217284138Y-58248113D01*
X217345459Y-58214630D01*
X217410818Y-58218089D01*
X217522203Y-58254999D01*
X217624991Y-58265500D01*
X218450008Y-58265499D01*
X218450016Y-58265498D01*
X218450019Y-58265498D01*
X218528245Y-58257507D01*
X218552797Y-58254999D01*
X218719334Y-58199814D01*
X218868656Y-58107712D01*
X218992712Y-57983656D01*
X219084814Y-57834334D01*
X219139999Y-57667797D01*
X219150500Y-57565009D01*
X219150499Y-54614992D01*
X219139999Y-54512203D01*
X219084814Y-54345666D01*
X218992712Y-54196344D01*
X218868656Y-54072288D01*
X218766798Y-54009462D01*
X218719336Y-53980187D01*
X218719331Y-53980185D01*
X218690209Y-53970535D01*
X218552797Y-53925001D01*
X218552795Y-53925000D01*
X218450010Y-53914500D01*
X217624998Y-53914500D01*
X217624980Y-53914501D01*
X217522203Y-53925000D01*
X217522200Y-53925001D01*
X217355668Y-53980185D01*
X217355663Y-53980187D01*
X217206342Y-54072289D01*
X217082289Y-54196342D01*
X216990187Y-54345663D01*
X216990185Y-54345668D01*
X216982895Y-54367669D01*
X216935001Y-54512203D01*
X216935001Y-54512204D01*
X216935000Y-54512204D01*
X216924500Y-54614983D01*
X216924500Y-56575076D01*
X216904815Y-56642115D01*
X216888181Y-56662757D01*
X213447971Y-60102966D01*
X213386648Y-60136451D01*
X213340892Y-60137758D01*
X213290470Y-60129772D01*
X213224176Y-60119272D01*
X213019472Y-60119272D01*
X213014876Y-60120000D01*
X212817289Y-60151294D01*
X212622600Y-60214553D01*
X212440210Y-60307487D01*
X212274610Y-60427800D01*
X212129852Y-60572558D01*
X212009539Y-60738158D01*
X211916605Y-60920548D01*
X211853346Y-61115237D01*
X211821324Y-61317420D01*
X211821324Y-61522123D01*
X211853346Y-61724306D01*
X211916605Y-61918995D01*
X211967959Y-62019781D01*
X212009525Y-62101359D01*
X212009539Y-62101385D01*
X212129852Y-62266985D01*
X212274610Y-62411743D01*
X212429573Y-62524328D01*
X212440214Y-62532059D01*
X212529976Y-62577795D01*
X212532904Y-62579287D01*
X212583700Y-62627262D01*
X212600495Y-62695083D01*
X212577958Y-62761218D01*
X212532904Y-62800257D01*
X212440210Y-62847487D01*
X212274610Y-62967800D01*
X212129852Y-63112558D01*
X212009539Y-63278158D01*
X211916605Y-63460548D01*
X211853346Y-63655237D01*
X211821324Y-63857420D01*
X211821324Y-64062123D01*
X211853346Y-64264306D01*
X211916605Y-64458995D01*
X211974015Y-64571666D01*
X212005444Y-64633350D01*
X212009539Y-64641385D01*
X212129852Y-64806985D01*
X212274610Y-64951743D01*
X212429573Y-65064328D01*
X212440214Y-65072059D01*
X212511172Y-65108214D01*
X212532904Y-65119287D01*
X212583700Y-65167262D01*
X212600495Y-65235083D01*
X212577958Y-65301218D01*
X212532904Y-65340257D01*
X212440210Y-65387487D01*
X212274610Y-65507800D01*
X212129852Y-65652558D01*
X212009539Y-65818158D01*
X211916605Y-66000548D01*
X211853346Y-66195237D01*
X211821324Y-66397420D01*
X211821324Y-66602123D01*
X211853346Y-66804306D01*
X211916605Y-66998995D01*
X211964712Y-67093409D01*
X212009520Y-67181349D01*
X212009539Y-67181385D01*
X212129852Y-67346985D01*
X212274610Y-67491743D01*
X212429573Y-67604328D01*
X212440214Y-67612059D01*
X212523183Y-67654334D01*
X212532904Y-67659287D01*
X212583700Y-67707262D01*
X212600495Y-67775083D01*
X212577958Y-67841218D01*
X212532904Y-67880257D01*
X212440210Y-67927487D01*
X212274610Y-68047800D01*
X212129852Y-68192558D01*
X212009539Y-68358158D01*
X211916605Y-68540548D01*
X211853346Y-68735237D01*
X211821324Y-68937420D01*
X211821324Y-69142123D01*
X211853346Y-69344306D01*
X211916605Y-69538995D01*
X212009539Y-69721385D01*
X212129852Y-69886985D01*
X212274610Y-70031743D01*
X212429573Y-70144328D01*
X212440214Y-70152059D01*
X212531664Y-70198655D01*
X212532904Y-70199287D01*
X212583700Y-70247262D01*
X212600495Y-70315083D01*
X212577958Y-70381218D01*
X212532904Y-70420257D01*
X212440210Y-70467487D01*
X212274610Y-70587800D01*
X212129852Y-70732558D01*
X212009539Y-70898158D01*
X211916605Y-71080548D01*
X211853346Y-71275237D01*
X211821324Y-71477420D01*
X211821324Y-71682123D01*
X211853346Y-71884306D01*
X211916605Y-72078995D01*
X211980515Y-72204425D01*
X212009520Y-72261349D01*
X212009539Y-72261385D01*
X212129852Y-72426985D01*
X212274610Y-72571743D01*
X212395364Y-72659474D01*
X212440214Y-72692059D01*
X212531664Y-72738655D01*
X212532904Y-72739287D01*
X212583700Y-72787262D01*
X212600495Y-72855083D01*
X212577958Y-72921218D01*
X212532904Y-72960257D01*
X212440210Y-73007487D01*
X212274610Y-73127800D01*
X212129852Y-73272558D01*
X212009539Y-73438158D01*
X211916605Y-73620548D01*
X211853346Y-73815237D01*
X211833437Y-73940941D01*
X211821324Y-74017420D01*
X211821324Y-74222124D01*
X211825702Y-74249767D01*
X211853346Y-74424306D01*
X211916605Y-74618995D01*
X211948512Y-74681614D01*
X211998377Y-74779480D01*
X212009539Y-74801385D01*
X212129852Y-74966985D01*
X212274610Y-75111743D01*
X212429573Y-75224328D01*
X212440214Y-75232059D01*
X212514161Y-75269737D01*
X212532904Y-75279287D01*
X212583700Y-75327262D01*
X212600495Y-75395083D01*
X212577958Y-75461218D01*
X212532904Y-75500257D01*
X212440210Y-75547487D01*
X212274610Y-75667800D01*
X212129852Y-75812558D01*
X212009539Y-75978158D01*
X211916605Y-76160548D01*
X211853346Y-76355237D01*
X211821324Y-76557420D01*
X211821324Y-76762123D01*
X211853346Y-76964306D01*
X211916605Y-77158995D01*
X211979544Y-77282518D01*
X211996939Y-77316658D01*
X212009539Y-77341385D01*
X212129852Y-77506985D01*
X212274610Y-77651743D01*
X212406703Y-77747712D01*
X212440214Y-77772059D01*
X212531664Y-77818655D01*
X212532904Y-77819287D01*
X212583700Y-77867262D01*
X212600495Y-77935083D01*
X212577958Y-78001218D01*
X212532904Y-78040257D01*
X212440210Y-78087487D01*
X212274610Y-78207800D01*
X212129852Y-78352558D01*
X212009539Y-78518158D01*
X211916605Y-78700548D01*
X211853346Y-78895237D01*
X211821324Y-79097420D01*
X211821324Y-79302123D01*
X211839810Y-79418840D01*
X211830855Y-79488134D01*
X211805018Y-79525919D01*
X211376711Y-79954226D01*
X211300046Y-80068964D01*
X211247245Y-80196439D01*
X211247242Y-80196451D01*
X211221403Y-80326349D01*
X211221399Y-80326372D01*
X211220678Y-80330001D01*
X211220324Y-80331779D01*
X211220324Y-84274330D01*
X211220324Y-84412318D01*
X211220324Y-84412320D01*
X211220323Y-84412320D01*
X165048031Y-84412320D01*
X165034306Y-84379185D01*
X165009918Y-84320306D01*
X165009911Y-84320293D01*
X164922310Y-84189190D01*
X164922307Y-84189186D01*
X164810813Y-84077692D01*
X164810809Y-84077689D01*
X164679706Y-83990088D01*
X164679693Y-83990081D01*
X164534022Y-83929743D01*
X164534010Y-83929740D01*
X164379366Y-83898979D01*
X164379363Y-83898979D01*
X164221679Y-83898979D01*
X164221676Y-83898979D01*
X164067031Y-83929740D01*
X164067019Y-83929743D01*
X163921348Y-83990081D01*
X163921335Y-83990088D01*
X163790232Y-84077689D01*
X163790228Y-84077692D01*
X163678734Y-84189186D01*
X163678731Y-84189190D01*
X163591130Y-84320293D01*
X163591125Y-84320302D01*
X163531459Y-84464351D01*
X163487618Y-84518754D01*
X163464351Y-84531459D01*
X163320302Y-84591125D01*
X163320293Y-84591130D01*
X163189190Y-84678731D01*
X163189186Y-84678734D01*
X163077692Y-84790228D01*
X163077689Y-84790232D01*
X162990088Y-84921335D01*
X162990081Y-84921348D01*
X162929743Y-85067019D01*
X162929740Y-85067031D01*
X162898979Y-85221674D01*
X158370909Y-85221674D01*
X156961416Y-83812181D01*
X156927931Y-83750858D01*
X156932915Y-83681166D01*
X156974787Y-83625233D01*
X157040251Y-83600816D01*
X157049097Y-83600500D01*
X193519575Y-83600500D01*
X193586614Y-83620185D01*
X193625113Y-83659402D01*
X193652031Y-83703043D01*
X193771955Y-83822967D01*
X193771959Y-83822970D01*
X193916294Y-83911998D01*
X193916297Y-83911999D01*
X193916303Y-83912003D01*
X194077292Y-83965349D01*
X194176655Y-83975500D01*
X194723344Y-83975499D01*
X194723352Y-83975498D01*
X194723355Y-83975498D01*
X194777760Y-83969940D01*
X194822708Y-83965349D01*
X194983697Y-83912003D01*
X195128044Y-83822968D01*
X195137668Y-83813343D01*
X195198987Y-83779856D01*
X195268679Y-83784835D01*
X195313034Y-83813339D01*
X195322267Y-83822572D01*
X195322271Y-83822575D01*
X195466507Y-83911542D01*
X195466518Y-83911547D01*
X195627393Y-83964855D01*
X195726683Y-83974999D01*
X196250000Y-83974999D01*
X196273308Y-83974999D01*
X196273322Y-83974998D01*
X196372607Y-83964855D01*
X196533481Y-83911547D01*
X196533492Y-83911542D01*
X196677728Y-83822575D01*
X196677732Y-83822572D01*
X196797572Y-83702732D01*
X196797575Y-83702728D01*
X196886542Y-83558492D01*
X196886547Y-83558481D01*
X196939855Y-83397606D01*
X196949999Y-83298322D01*
X196950000Y-83298309D01*
X196950000Y-83250000D01*
X196250000Y-83250000D01*
X196250000Y-83974999D01*
X195726683Y-83974999D01*
X195750000Y-83974998D01*
X195750000Y-82750000D01*
X196250000Y-82750000D01*
X196949999Y-82750000D01*
X196949999Y-82701692D01*
X196949998Y-82701677D01*
X196939855Y-82602392D01*
X196886547Y-82441518D01*
X196886542Y-82441507D01*
X196797575Y-82297271D01*
X196797572Y-82297267D01*
X196677732Y-82177427D01*
X196677728Y-82177424D01*
X196533492Y-82088457D01*
X196533481Y-82088452D01*
X196372606Y-82035144D01*
X196273322Y-82025000D01*
X196250000Y-82025000D01*
X196250000Y-82750000D01*
X195750000Y-82750000D01*
X195750000Y-82024999D01*
X195726693Y-82025000D01*
X195726674Y-82025001D01*
X195627392Y-82035144D01*
X195466518Y-82088452D01*
X195466507Y-82088457D01*
X195322271Y-82177424D01*
X195322265Y-82177428D01*
X195313031Y-82186663D01*
X195251707Y-82220146D01*
X195182015Y-82215159D01*
X195155638Y-82201525D01*
X195145952Y-82194940D01*
X195128044Y-82177032D01*
X195037080Y-82120924D01*
X195034785Y-82119364D01*
X195014280Y-82094425D01*
X194992678Y-82070408D01*
X194991969Y-82067290D01*
X194990411Y-82065395D01*
X194989204Y-82055121D01*
X194980500Y-82016818D01*
X194980500Y-80429601D01*
X195000185Y-80362562D01*
X195048206Y-80319116D01*
X195061610Y-80312287D01*
X195227219Y-80191966D01*
X195371966Y-80047219D01*
X195371968Y-80047215D01*
X195371971Y-80047213D01*
X195424732Y-79974590D01*
X195492287Y-79881610D01*
X195585220Y-79699219D01*
X195648477Y-79504534D01*
X195680500Y-79302352D01*
X195680500Y-79109098D01*
X195700185Y-79042059D01*
X195752989Y-78996304D01*
X195822147Y-78986360D01*
X195885703Y-79015385D01*
X195892181Y-79021417D01*
X197652284Y-80781520D01*
X197652286Y-80781521D01*
X197652290Y-80781524D01*
X197789209Y-80860573D01*
X197789216Y-80860577D01*
X197941943Y-80901501D01*
X197941945Y-80901501D01*
X198107654Y-80901501D01*
X198107670Y-80901500D01*
X204267571Y-80901500D01*
X204334610Y-80921185D01*
X204380365Y-80973989D01*
X204390309Y-81043147D01*
X204378056Y-81081795D01*
X204297068Y-81240740D01*
X204233833Y-81435354D01*
X204201824Y-81637454D01*
X204201824Y-81842089D01*
X204233833Y-82044189D01*
X204297068Y-82238803D01*
X204389965Y-82421122D01*
X204389971Y-82421131D01*
X204422347Y-82465693D01*
X204422348Y-82465694D01*
X205101824Y-81786218D01*
X205101824Y-81792433D01*
X205129083Y-81894166D01*
X205181744Y-81985378D01*
X205256218Y-82059852D01*
X205347430Y-82112513D01*
X205449163Y-82139772D01*
X205455377Y-82139772D01*
X204775900Y-82819246D01*
X204820474Y-82851631D01*
X205002792Y-82944527D01*
X205197406Y-83007762D01*
X205399507Y-83039772D01*
X205604141Y-83039772D01*
X205806241Y-83007762D01*
X206000855Y-82944527D01*
X206183173Y-82851631D01*
X206227745Y-82819246D01*
X205548271Y-82139772D01*
X205554485Y-82139772D01*
X205656218Y-82112513D01*
X205747430Y-82059852D01*
X205821904Y-81985378D01*
X205874565Y-81894166D01*
X205901824Y-81792433D01*
X205901824Y-81786219D01*
X206581298Y-82465693D01*
X206613683Y-82421121D01*
X206706579Y-82238803D01*
X206769814Y-82044189D01*
X206801824Y-81842089D01*
X206801824Y-81637454D01*
X206769814Y-81435354D01*
X206706579Y-81240740D01*
X206613683Y-81058422D01*
X206581298Y-81013849D01*
X206581298Y-81013848D01*
X205901824Y-81693323D01*
X205901824Y-81687111D01*
X205874565Y-81585378D01*
X205821904Y-81494166D01*
X205747430Y-81419692D01*
X205656218Y-81367031D01*
X205554485Y-81339772D01*
X205548270Y-81339772D01*
X206227746Y-80660296D01*
X206227745Y-80660295D01*
X206183183Y-80627919D01*
X206183174Y-80627913D01*
X206090193Y-80580537D01*
X206039397Y-80532562D01*
X206022602Y-80464741D01*
X206045139Y-80398607D01*
X206090194Y-80359567D01*
X206092948Y-80358164D01*
X206183434Y-80312059D01*
X206298012Y-80228814D01*
X206302762Y-80225363D01*
X206302764Y-80225362D01*
X206348729Y-80191966D01*
X206349043Y-80191738D01*
X206493790Y-80046991D01*
X206493792Y-80046987D01*
X206493795Y-80046985D01*
X206561187Y-79954226D01*
X206614111Y-79881382D01*
X206707044Y-79698991D01*
X206770301Y-79504306D01*
X206802324Y-79302124D01*
X206802324Y-79097420D01*
X206793556Y-79042059D01*
X206770301Y-78895237D01*
X206721922Y-78746342D01*
X206707044Y-78700553D01*
X206707042Y-78700550D01*
X206707042Y-78700548D01*
X206667165Y-78622287D01*
X206614111Y-78518162D01*
X206582753Y-78475001D01*
X206493795Y-78352558D01*
X206349037Y-78207800D01*
X206183438Y-78087487D01*
X206176830Y-78084120D01*
X206090741Y-78040255D01*
X206039947Y-77992283D01*
X206023152Y-77924462D01*
X206045689Y-77858327D01*
X206090741Y-77819288D01*
X206183434Y-77772059D01*
X206228490Y-77739324D01*
X206349037Y-77651743D01*
X206349039Y-77651740D01*
X206349043Y-77651738D01*
X206493790Y-77506991D01*
X206493792Y-77506987D01*
X206493795Y-77506985D01*
X206556151Y-77421158D01*
X206614111Y-77341382D01*
X206707044Y-77158991D01*
X206770301Y-76964306D01*
X206802324Y-76762124D01*
X206802324Y-76557420D01*
X206770301Y-76355238D01*
X206765433Y-76340257D01*
X206740951Y-76264909D01*
X206707044Y-76160553D01*
X206707042Y-76160550D01*
X206707042Y-76160548D01*
X206673327Y-76094379D01*
X206614111Y-75978162D01*
X206606380Y-75967521D01*
X206493795Y-75812558D01*
X206349037Y-75667800D01*
X206183438Y-75547487D01*
X206176830Y-75544120D01*
X206090741Y-75500255D01*
X206039947Y-75452283D01*
X206023152Y-75384462D01*
X206045689Y-75318327D01*
X206090741Y-75279288D01*
X206183434Y-75232059D01*
X206214630Y-75209394D01*
X206349037Y-75111743D01*
X206349039Y-75111740D01*
X206349043Y-75111738D01*
X206493790Y-74966991D01*
X206493792Y-74966987D01*
X206493795Y-74966985D01*
X206557584Y-74879185D01*
X206614111Y-74801382D01*
X206707044Y-74618991D01*
X206770301Y-74424306D01*
X206802324Y-74222124D01*
X206802324Y-74017420D01*
X206783354Y-73897648D01*
X206770301Y-73815237D01*
X206736851Y-73712289D01*
X206707044Y-73620553D01*
X206707042Y-73620550D01*
X206707042Y-73620548D01*
X206658441Y-73525165D01*
X206614111Y-73438162D01*
X206594435Y-73411080D01*
X206493795Y-73272558D01*
X206349037Y-73127800D01*
X206183438Y-73007487D01*
X206144225Y-72987507D01*
X206090741Y-72960255D01*
X206039947Y-72912283D01*
X206023152Y-72844462D01*
X206045689Y-72778327D01*
X206090741Y-72739288D01*
X206183434Y-72692059D01*
X206228284Y-72659474D01*
X206349037Y-72571743D01*
X206349039Y-72571740D01*
X206349043Y-72571738D01*
X206493790Y-72426991D01*
X206493792Y-72426987D01*
X206493795Y-72426985D01*
X206555810Y-72341627D01*
X206614111Y-72261382D01*
X206707044Y-72078991D01*
X206770301Y-71884306D01*
X206802324Y-71682124D01*
X206802324Y-71477420D01*
X206779671Y-71334394D01*
X206770301Y-71275237D01*
X206739356Y-71180000D01*
X206707044Y-71080553D01*
X206707042Y-71080550D01*
X206707042Y-71080548D01*
X206651732Y-70971998D01*
X206614111Y-70898162D01*
X206569884Y-70837288D01*
X206493795Y-70732558D01*
X206349037Y-70587800D01*
X206183438Y-70467487D01*
X206167560Y-70459397D01*
X206090741Y-70420255D01*
X206039947Y-70372283D01*
X206023152Y-70304462D01*
X206045689Y-70238327D01*
X206090741Y-70199288D01*
X206183434Y-70152059D01*
X206278334Y-70083111D01*
X206349037Y-70031743D01*
X206349039Y-70031740D01*
X206349043Y-70031738D01*
X206493790Y-69886991D01*
X206493792Y-69886987D01*
X206493795Y-69886985D01*
X206563249Y-69791388D01*
X206614111Y-69721382D01*
X206707044Y-69538991D01*
X206770301Y-69344306D01*
X206802324Y-69142124D01*
X206802324Y-68937420D01*
X206784982Y-68827930D01*
X206770301Y-68735237D01*
X206740818Y-68644500D01*
X206707044Y-68540553D01*
X206707042Y-68540550D01*
X206707042Y-68540548D01*
X206645108Y-68418997D01*
X206614111Y-68358162D01*
X206586085Y-68319587D01*
X206493795Y-68192558D01*
X206349037Y-68047800D01*
X206183438Y-67927487D01*
X206176830Y-67924120D01*
X206090741Y-67880255D01*
X206039947Y-67832283D01*
X206023152Y-67764462D01*
X206045689Y-67698327D01*
X206090741Y-67659288D01*
X206183434Y-67612059D01*
X206279402Y-67542335D01*
X206349037Y-67491743D01*
X206349039Y-67491740D01*
X206349043Y-67491738D01*
X206493790Y-67346991D01*
X206493792Y-67346987D01*
X206493795Y-67346985D01*
X206578821Y-67229955D01*
X206614111Y-67181382D01*
X206707044Y-66998991D01*
X206770301Y-66804306D01*
X206802324Y-66602124D01*
X206802324Y-66397420D01*
X206772543Y-66209394D01*
X206770301Y-66195237D01*
X206726173Y-66059427D01*
X206707044Y-66000553D01*
X206707042Y-66000550D01*
X206707042Y-66000548D01*
X206651732Y-65891998D01*
X206614111Y-65818162D01*
X206586085Y-65779587D01*
X206493795Y-65652558D01*
X206349037Y-65507800D01*
X206183438Y-65387487D01*
X206149481Y-65370185D01*
X206090741Y-65340255D01*
X206039947Y-65292283D01*
X206023152Y-65224462D01*
X206045689Y-65158327D01*
X206090741Y-65119288D01*
X206183434Y-65072059D01*
X206240936Y-65030282D01*
X206349037Y-64951743D01*
X206349039Y-64951740D01*
X206349043Y-64951738D01*
X206493790Y-64806991D01*
X206493792Y-64806987D01*
X206493795Y-64806985D01*
X206571886Y-64699500D01*
X206614111Y-64641382D01*
X206707044Y-64458991D01*
X206770301Y-64264306D01*
X206802324Y-64062124D01*
X206802324Y-63857420D01*
X206770301Y-63655238D01*
X206707044Y-63460553D01*
X206707042Y-63460550D01*
X206707042Y-63460548D01*
X206651732Y-63351998D01*
X206614111Y-63278162D01*
X206574000Y-63222953D01*
X206493795Y-63112558D01*
X206349043Y-62967806D01*
X206349035Y-62967800D01*
X206255371Y-62899750D01*
X206212706Y-62844421D01*
X206206727Y-62774808D01*
X206239332Y-62713012D01*
X206289250Y-62681727D01*
X206371158Y-62654586D01*
X206520480Y-62562484D01*
X206644536Y-62438428D01*
X206736638Y-62289106D01*
X206791823Y-62122569D01*
X206802324Y-62019781D01*
X206802323Y-60819764D01*
X206799344Y-60790606D01*
X206791823Y-60716975D01*
X206791822Y-60716972D01*
X206778891Y-60677948D01*
X206736638Y-60550438D01*
X206644536Y-60401116D01*
X206520480Y-60277060D01*
X206419509Y-60214781D01*
X206371160Y-60184959D01*
X206371155Y-60184957D01*
X206369686Y-60184470D01*
X206204621Y-60129773D01*
X206204619Y-60129772D01*
X206101834Y-60119272D01*
X204901822Y-60119272D01*
X204901805Y-60119273D01*
X204799027Y-60129772D01*
X204799024Y-60129773D01*
X204632492Y-60184957D01*
X204632487Y-60184959D01*
X204483166Y-60277061D01*
X204359113Y-60401114D01*
X204267011Y-60550435D01*
X204267009Y-60550440D01*
X204254853Y-60587125D01*
X204211825Y-60716975D01*
X204211825Y-60716976D01*
X204211824Y-60716976D01*
X204201324Y-60819755D01*
X204201324Y-60858078D01*
X204192679Y-60887518D01*
X204186156Y-60917505D01*
X204182401Y-60922520D01*
X204181639Y-60925117D01*
X204165005Y-60945759D01*
X204059706Y-61051058D01*
X203511681Y-61599082D01*
X203450358Y-61632567D01*
X203380666Y-61627583D01*
X203324733Y-61585711D01*
X203300316Y-61520247D01*
X203300000Y-61511401D01*
X203300000Y-61317682D01*
X203267990Y-61115582D01*
X203204755Y-60920968D01*
X203111859Y-60738650D01*
X203079474Y-60694077D01*
X203079474Y-60694076D01*
X202400000Y-61373553D01*
X202400000Y-61367339D01*
X202372741Y-61265606D01*
X202320080Y-61174394D01*
X202245606Y-61099920D01*
X202154394Y-61047259D01*
X202052661Y-61020000D01*
X202046446Y-61020000D01*
X202725922Y-60340524D01*
X202725921Y-60340523D01*
X202681359Y-60308147D01*
X202681350Y-60308141D01*
X202499031Y-60215244D01*
X202304417Y-60152009D01*
X202102317Y-60120000D01*
X201897683Y-60120000D01*
X201695582Y-60152009D01*
X201500968Y-60215244D01*
X201318644Y-60308143D01*
X201274077Y-60340523D01*
X201274077Y-60340524D01*
X201953554Y-61020000D01*
X201947339Y-61020000D01*
X201845606Y-61047259D01*
X201754394Y-61099920D01*
X201679920Y-61174394D01*
X201627259Y-61265606D01*
X201600000Y-61367339D01*
X201600000Y-61373553D01*
X200920524Y-60694077D01*
X200920523Y-60694077D01*
X200888143Y-60738644D01*
X200795244Y-60920968D01*
X200732009Y-61115582D01*
X200700000Y-61317682D01*
X200700000Y-61522317D01*
X200732009Y-61724417D01*
X200795244Y-61919031D01*
X200888141Y-62101350D01*
X200888147Y-62101359D01*
X200920523Y-62145921D01*
X200920524Y-62145922D01*
X201600000Y-61466446D01*
X201600000Y-61472661D01*
X201627259Y-61574394D01*
X201679920Y-61665606D01*
X201754394Y-61740080D01*
X201845606Y-61792741D01*
X201947339Y-61820000D01*
X201953553Y-61820000D01*
X201274076Y-62499474D01*
X201318652Y-62531861D01*
X201411628Y-62579234D01*
X201462425Y-62627208D01*
X201479220Y-62695029D01*
X201456683Y-62761164D01*
X201411630Y-62800203D01*
X201318388Y-62847713D01*
X201152786Y-62968028D01*
X201008028Y-63112786D01*
X200887715Y-63278386D01*
X200794781Y-63460776D01*
X200731522Y-63655465D01*
X200699500Y-63857648D01*
X200699500Y-64062351D01*
X200731522Y-64264530D01*
X200731522Y-64264534D01*
X200794781Y-64459223D01*
X200850351Y-64568284D01*
X200887598Y-64641385D01*
X200887715Y-64641613D01*
X201008028Y-64807213D01*
X201152786Y-64951971D01*
X201260577Y-65030284D01*
X201318390Y-65072287D01*
X201388901Y-65108214D01*
X201411080Y-65119515D01*
X201461876Y-65167490D01*
X201478671Y-65235311D01*
X201456134Y-65301446D01*
X201411080Y-65340485D01*
X201318386Y-65387715D01*
X201152786Y-65508028D01*
X201008028Y-65652786D01*
X200887715Y-65818386D01*
X200794781Y-66000776D01*
X200731522Y-66195465D01*
X200699500Y-66397648D01*
X200699500Y-66602351D01*
X200731522Y-66804534D01*
X200794781Y-66999223D01*
X200842772Y-67093409D01*
X200887598Y-67181385D01*
X200887715Y-67181613D01*
X201008028Y-67347213D01*
X201152786Y-67491971D01*
X201274596Y-67580469D01*
X201318390Y-67612287D01*
X201400906Y-67654331D01*
X201411080Y-67659515D01*
X201461876Y-67707490D01*
X201478671Y-67775311D01*
X201456134Y-67841446D01*
X201411080Y-67880485D01*
X201318386Y-67927715D01*
X201152786Y-68048028D01*
X201008028Y-68192786D01*
X200887715Y-68358386D01*
X200794781Y-68540776D01*
X200731522Y-68735465D01*
X200699500Y-68937648D01*
X200699500Y-69142351D01*
X200731522Y-69344534D01*
X200794781Y-69539223D01*
X200858691Y-69664653D01*
X200887598Y-69721385D01*
X200887715Y-69721613D01*
X201008028Y-69887213D01*
X201152786Y-70031971D01*
X201307749Y-70144556D01*
X201318390Y-70152287D01*
X201409840Y-70198883D01*
X201411080Y-70199515D01*
X201461876Y-70247490D01*
X201478671Y-70315311D01*
X201456134Y-70381446D01*
X201411080Y-70420485D01*
X201318386Y-70467715D01*
X201152786Y-70588028D01*
X201008028Y-70732786D01*
X200887715Y-70898386D01*
X200794781Y-71080776D01*
X200731522Y-71275465D01*
X200699500Y-71477648D01*
X200699500Y-71682351D01*
X200731522Y-71884534D01*
X200794781Y-72079223D01*
X200858691Y-72204653D01*
X200887598Y-72261385D01*
X200887715Y-72261613D01*
X201008028Y-72427213D01*
X201152786Y-72571971D01*
X201273226Y-72659474D01*
X201318390Y-72692287D01*
X201395393Y-72731522D01*
X201411080Y-72739515D01*
X201461876Y-72787490D01*
X201478671Y-72855311D01*
X201456134Y-72921446D01*
X201411080Y-72960485D01*
X201318386Y-73007715D01*
X201152786Y-73128028D01*
X201008028Y-73272786D01*
X200887715Y-73438386D01*
X200794781Y-73620776D01*
X200731522Y-73815465D01*
X200699500Y-74017648D01*
X200699500Y-74222351D01*
X200731522Y-74424534D01*
X200794781Y-74619223D01*
X200853008Y-74733497D01*
X200887598Y-74801385D01*
X200887715Y-74801613D01*
X201008028Y-74967213D01*
X201152786Y-75111971D01*
X201286880Y-75209394D01*
X201318390Y-75232287D01*
X201388667Y-75268095D01*
X201411080Y-75279515D01*
X201461876Y-75327490D01*
X201478671Y-75395311D01*
X201456134Y-75461446D01*
X201411080Y-75500485D01*
X201318386Y-75547715D01*
X201152786Y-75668028D01*
X201008028Y-75812786D01*
X200887715Y-75978386D01*
X200794781Y-76160776D01*
X200731522Y-76355465D01*
X200699500Y-76557648D01*
X200699500Y-76762351D01*
X200731522Y-76964534D01*
X200794781Y-77159223D01*
X200857604Y-77282518D01*
X200887598Y-77341385D01*
X200887715Y-77341613D01*
X201008028Y-77507213D01*
X201008034Y-77507219D01*
X201152781Y-77651966D01*
X201246452Y-77720021D01*
X201289117Y-77775350D01*
X201295096Y-77844963D01*
X201262491Y-77906759D01*
X201212571Y-77938045D01*
X201130666Y-77965186D01*
X201130663Y-77965187D01*
X200981342Y-78057289D01*
X200857289Y-78181342D01*
X200765187Y-78330663D01*
X200765185Y-78330668D01*
X200757858Y-78352781D01*
X200710001Y-78497203D01*
X200710001Y-78497204D01*
X200710000Y-78497204D01*
X200699500Y-78599983D01*
X200699500Y-78599991D01*
X200699500Y-79136819D01*
X200699501Y-79576500D01*
X200679817Y-79643539D01*
X200627013Y-79689294D01*
X200575501Y-79700500D01*
X198321098Y-79700500D01*
X198254059Y-79680815D01*
X198233417Y-79664181D01*
X195674077Y-77104842D01*
X195640592Y-77043519D01*
X195643828Y-76978841D01*
X195643900Y-76978620D01*
X195648477Y-76964534D01*
X195680500Y-76762352D01*
X195680500Y-76557648D01*
X195680464Y-76557420D01*
X195648477Y-76355465D01*
X195619127Y-76265137D01*
X195585220Y-76160781D01*
X195585218Y-76160778D01*
X195585218Y-76160776D01*
X195551503Y-76094607D01*
X195492287Y-75978390D01*
X195484556Y-75967749D01*
X195371971Y-75812786D01*
X195227213Y-75668028D01*
X195061614Y-75547715D01*
X194985111Y-75508735D01*
X194968917Y-75500483D01*
X194918123Y-75452511D01*
X194901328Y-75384690D01*
X194923865Y-75318555D01*
X194968917Y-75279516D01*
X195061610Y-75232287D01*
X195213699Y-75121789D01*
X195227213Y-75111971D01*
X195227215Y-75111968D01*
X195227219Y-75111966D01*
X195371966Y-74967219D01*
X195371968Y-74967215D01*
X195371971Y-74967213D01*
X195459150Y-74847219D01*
X195492287Y-74801610D01*
X195585220Y-74619219D01*
X195648477Y-74424534D01*
X195680500Y-74222352D01*
X195680500Y-74017648D01*
X195665868Y-73925265D01*
X195648477Y-73815465D01*
X195609486Y-73695465D01*
X195585220Y-73620781D01*
X195585218Y-73620778D01*
X195585218Y-73620776D01*
X195536501Y-73525165D01*
X195492287Y-73438390D01*
X195472445Y-73411080D01*
X195371971Y-73272786D01*
X195227213Y-73128028D01*
X195061611Y-73007713D01*
X194968369Y-72960203D01*
X194917574Y-72912229D01*
X194900779Y-72844407D01*
X194923317Y-72778273D01*
X194968371Y-72739234D01*
X195061346Y-72691861D01*
X195061347Y-72691861D01*
X195105921Y-72659474D01*
X194426447Y-71980000D01*
X194432661Y-71980000D01*
X194534394Y-71952741D01*
X194625606Y-71900080D01*
X194700080Y-71825606D01*
X194752741Y-71734394D01*
X194780000Y-71632661D01*
X194780000Y-71626447D01*
X195459474Y-72305921D01*
X195491859Y-72261349D01*
X195584755Y-72079031D01*
X195647990Y-71884417D01*
X195680000Y-71682317D01*
X195680000Y-71477682D01*
X195647990Y-71275582D01*
X195584755Y-71080968D01*
X195491859Y-70898650D01*
X195459474Y-70854077D01*
X195459474Y-70854076D01*
X194780000Y-71533551D01*
X194780000Y-71527339D01*
X194752741Y-71425606D01*
X194700080Y-71334394D01*
X194625606Y-71259920D01*
X194534394Y-71207259D01*
X194432661Y-71180000D01*
X194426446Y-71180000D01*
X195105922Y-70500524D01*
X195105921Y-70500523D01*
X195061359Y-70468147D01*
X195061350Y-70468141D01*
X194968369Y-70420765D01*
X194917573Y-70372790D01*
X194900778Y-70304969D01*
X194923315Y-70238835D01*
X194968370Y-70199795D01*
X194969367Y-70199287D01*
X195061610Y-70152287D01*
X195138632Y-70096328D01*
X195227213Y-70031971D01*
X195227215Y-70031968D01*
X195227219Y-70031966D01*
X195371966Y-69887219D01*
X195371968Y-69887215D01*
X195371971Y-69887213D01*
X195452341Y-69776591D01*
X195492287Y-69721610D01*
X195584627Y-69540383D01*
X195585218Y-69539223D01*
X195585218Y-69539222D01*
X195585220Y-69539219D01*
X195648477Y-69344534D01*
X195680500Y-69142352D01*
X195680500Y-68937648D01*
X195672329Y-68886057D01*
X195648477Y-68735465D01*
X195618920Y-68644500D01*
X195585220Y-68540781D01*
X195585218Y-68540778D01*
X195585218Y-68540776D01*
X195529792Y-68431998D01*
X195492287Y-68358390D01*
X195464095Y-68319587D01*
X195371971Y-68192786D01*
X195227213Y-68048028D01*
X195061614Y-67927715D01*
X194985111Y-67888735D01*
X194968917Y-67880483D01*
X194918123Y-67832511D01*
X194901328Y-67764690D01*
X194923865Y-67698555D01*
X194968917Y-67659516D01*
X195061610Y-67612287D01*
X195105404Y-67580469D01*
X195227213Y-67491971D01*
X195227215Y-67491968D01*
X195227219Y-67491966D01*
X195371966Y-67347219D01*
X195371968Y-67347215D01*
X195371971Y-67347213D01*
X195441591Y-67251388D01*
X195492287Y-67181610D01*
X195585220Y-66999219D01*
X195648477Y-66804534D01*
X195680500Y-66602352D01*
X195680500Y-66397648D01*
X195661604Y-66278344D01*
X195648477Y-66195465D01*
X195617426Y-66099901D01*
X195585220Y-66000781D01*
X195585218Y-66000778D01*
X195585218Y-66000776D01*
X195546959Y-65925690D01*
X195492287Y-65818390D01*
X195461126Y-65775500D01*
X195371971Y-65652786D01*
X195227213Y-65508028D01*
X195061614Y-65387715D01*
X195055006Y-65384348D01*
X194968917Y-65340483D01*
X194918123Y-65292511D01*
X194901328Y-65224690D01*
X194923865Y-65158555D01*
X194968917Y-65119516D01*
X195061610Y-65072287D01*
X195119423Y-65030284D01*
X195227213Y-64951971D01*
X195227215Y-64951968D01*
X195227219Y-64951966D01*
X195371966Y-64807219D01*
X195371968Y-64807215D01*
X195371971Y-64807213D01*
X195441591Y-64711388D01*
X195492287Y-64641610D01*
X195585220Y-64459219D01*
X195648477Y-64264534D01*
X195655288Y-64221536D01*
X195680500Y-64062351D01*
X195680500Y-63857648D01*
X195648477Y-63655465D01*
X195619127Y-63565137D01*
X195585220Y-63460781D01*
X195585218Y-63460778D01*
X195585218Y-63460776D01*
X195529792Y-63351998D01*
X195492287Y-63278390D01*
X195452010Y-63222953D01*
X195371971Y-63112786D01*
X195227213Y-62968028D01*
X195061614Y-62847715D01*
X195055006Y-62844348D01*
X194968917Y-62800483D01*
X194918123Y-62752511D01*
X194901328Y-62684690D01*
X194923865Y-62618555D01*
X194968917Y-62579516D01*
X195061610Y-62532287D01*
X195108154Y-62498471D01*
X195227213Y-62411971D01*
X195227215Y-62411968D01*
X195227219Y-62411966D01*
X195371966Y-62267219D01*
X195371968Y-62267215D01*
X195371971Y-62267213D01*
X195424732Y-62194590D01*
X195492287Y-62101610D01*
X195585220Y-61919219D01*
X195648477Y-61724534D01*
X195680500Y-61522352D01*
X195680500Y-61317648D01*
X195680464Y-61317420D01*
X195648477Y-61115465D01*
X195592304Y-60942584D01*
X195585220Y-60920781D01*
X195585218Y-60920778D01*
X195585218Y-60920776D01*
X195533749Y-60819764D01*
X195492287Y-60738390D01*
X195460092Y-60694077D01*
X195371971Y-60572786D01*
X195227213Y-60428028D01*
X195061613Y-60307715D01*
X195061612Y-60307714D01*
X195061610Y-60307713D01*
X195001450Y-60277060D01*
X194879223Y-60214781D01*
X194684534Y-60151522D01*
X194509995Y-60123878D01*
X194482352Y-60119500D01*
X194277648Y-60119500D01*
X194253329Y-60123351D01*
X194075465Y-60151522D01*
X193880776Y-60214781D01*
X193698386Y-60307715D01*
X193532786Y-60428028D01*
X193388028Y-60572786D01*
X193267715Y-60738386D01*
X193174781Y-60920776D01*
X193111522Y-61115465D01*
X193079536Y-61317420D01*
X193079500Y-61317648D01*
X193079500Y-61522352D01*
X193079791Y-61524190D01*
X193111522Y-61724534D01*
X193174781Y-61919223D01*
X193228603Y-62024852D01*
X193267598Y-62101385D01*
X193267715Y-62101613D01*
X193388028Y-62267213D01*
X193532786Y-62411971D01*
X193672437Y-62513431D01*
X193698390Y-62532287D01*
X193787704Y-62577795D01*
X193791080Y-62579515D01*
X193841876Y-62627490D01*
X193858671Y-62695311D01*
X193836134Y-62761446D01*
X193791080Y-62800485D01*
X193698386Y-62847715D01*
X193532786Y-62968028D01*
X193388028Y-63112786D01*
X193267715Y-63278386D01*
X193174781Y-63460776D01*
X193111522Y-63655465D01*
X193079500Y-63857648D01*
X193079500Y-64062351D01*
X193111522Y-64264530D01*
X193111521Y-64264530D01*
X193116173Y-64278848D01*
X193118165Y-64348690D01*
X193085921Y-64404842D01*
X192631286Y-64859478D01*
X192519481Y-64971282D01*
X192519475Y-64971290D01*
X192485417Y-65030282D01*
X192485417Y-65030284D01*
X192440423Y-65108214D01*
X192434803Y-65129187D01*
X192399499Y-65260943D01*
X192399499Y-65260945D01*
X192399499Y-65429046D01*
X192399500Y-65429059D01*
X192399500Y-66213902D01*
X192390855Y-66243342D01*
X192384332Y-66273329D01*
X192380577Y-66278344D01*
X192379815Y-66280941D01*
X192363185Y-66301578D01*
X192267344Y-66397420D01*
X192199260Y-66465504D01*
X192137937Y-66498988D01*
X192068245Y-66494004D01*
X192012312Y-66452132D01*
X191993194Y-66414714D01*
X191968478Y-66335394D01*
X191880472Y-66189815D01*
X191880470Y-66189813D01*
X191880469Y-66189811D01*
X191778339Y-66087681D01*
X191744854Y-66026358D01*
X191749838Y-65956666D01*
X191778339Y-65912319D01*
X191880468Y-65810189D01*
X191880469Y-65810188D01*
X191880472Y-65810185D01*
X191968478Y-65664606D01*
X192019086Y-65502196D01*
X192025500Y-65431616D01*
X192025500Y-64918384D01*
X192019086Y-64847804D01*
X191968478Y-64685394D01*
X191880472Y-64539815D01*
X191880470Y-64539813D01*
X191880469Y-64539811D01*
X191760188Y-64419530D01*
X191738746Y-64406568D01*
X191614606Y-64331522D01*
X191452196Y-64280914D01*
X191452194Y-64280913D01*
X191452192Y-64280913D01*
X191402778Y-64276423D01*
X191381616Y-64274500D01*
X190718384Y-64274500D01*
X190699145Y-64276248D01*
X190647807Y-64280913D01*
X190485393Y-64331522D01*
X190339811Y-64419530D01*
X190339810Y-64419531D01*
X190221161Y-64538181D01*
X190194233Y-64552884D01*
X190168415Y-64569477D01*
X190162214Y-64570368D01*
X190159838Y-64571666D01*
X190133480Y-64574500D01*
X190015097Y-64574500D01*
X189948058Y-64554815D01*
X189927416Y-64538181D01*
X189450953Y-64061718D01*
X189417468Y-64000395D01*
X189420703Y-63935719D01*
X189464722Y-63800245D01*
X189500500Y-63574354D01*
X189500500Y-63345646D01*
X189464722Y-63119755D01*
X189464721Y-63119751D01*
X189464721Y-63119750D01*
X189394049Y-62902244D01*
X189342084Y-62800257D01*
X189290217Y-62698462D01*
X189155786Y-62513434D01*
X188994066Y-62351714D01*
X188809038Y-62217283D01*
X188793547Y-62209390D01*
X188605255Y-62113450D01*
X188387748Y-62042778D01*
X188215647Y-62015520D01*
X188161854Y-62007000D01*
X187838146Y-62007000D01*
X187784347Y-62015521D01*
X187612253Y-62042778D01*
X187612250Y-62042778D01*
X187394744Y-62113450D01*
X187190961Y-62217283D01*
X187118768Y-62269735D01*
X187005934Y-62351714D01*
X187005932Y-62351716D01*
X187005931Y-62351716D01*
X186844216Y-62513431D01*
X186844216Y-62513432D01*
X186844214Y-62513434D01*
X186808577Y-62562484D01*
X186709781Y-62698463D01*
X186708669Y-62700280D01*
X186708065Y-62700826D01*
X186706919Y-62702404D01*
X186706587Y-62702163D01*
X186656862Y-62747160D01*
X186602936Y-62759500D01*
X164950097Y-62759500D01*
X164883058Y-62739815D01*
X164862416Y-62723181D01*
X163461819Y-61322584D01*
X163428334Y-61261261D01*
X163425500Y-61234903D01*
X163425500Y-60416519D01*
X163445185Y-60349480D01*
X163461814Y-60328842D01*
X163580472Y-60210185D01*
X163668478Y-60064606D01*
X163719086Y-59902196D01*
X163725500Y-59831616D01*
X163725500Y-59168384D01*
X163719086Y-59097804D01*
X163668478Y-58935394D01*
X163580472Y-58789815D01*
X163580470Y-58789813D01*
X163580469Y-58789811D01*
X163461819Y-58671161D01*
X163428334Y-58609838D01*
X163425500Y-58583480D01*
X163425500Y-56701424D01*
X163445185Y-56634385D01*
X163497989Y-56588630D01*
X163525309Y-56579807D01*
X163549092Y-56575076D01*
X163569127Y-56571091D01*
X163755756Y-56493786D01*
X163923718Y-56381558D01*
X164066558Y-56238718D01*
X164178786Y-56070756D01*
X164256091Y-55884127D01*
X164295500Y-55686003D01*
X164295500Y-55033997D01*
X164256091Y-54835873D01*
X164178786Y-54649244D01*
X164178783Y-54649239D01*
X164178779Y-54649232D01*
X164090686Y-54517390D01*
X164069808Y-54450713D01*
X164088293Y-54383333D01*
X164140272Y-54336643D01*
X164193788Y-54324500D01*
X168025500Y-54324500D01*
X168092539Y-54344185D01*
X168138294Y-54396989D01*
X168149500Y-54448500D01*
X168149500Y-55775001D01*
X168149501Y-55775018D01*
X168160000Y-55877796D01*
X168160001Y-55877799D01*
X168215185Y-56044331D01*
X168215187Y-56044336D01*
X168230604Y-56069331D01*
X168307288Y-56193656D01*
X168431344Y-56317712D01*
X168580666Y-56409814D01*
X168747203Y-56464999D01*
X168849991Y-56475500D01*
X170150008Y-56475499D01*
X170252797Y-56464999D01*
X170419334Y-56409814D01*
X170568656Y-56317712D01*
X170692712Y-56193656D01*
X170784814Y-56044334D01*
X170784814Y-56044331D01*
X170788178Y-56038879D01*
X170840126Y-55992154D01*
X170909088Y-55980931D01*
X170973170Y-56008774D01*
X170981398Y-56016294D01*
X171120213Y-56155109D01*
X171292179Y-56280048D01*
X171292181Y-56280049D01*
X171292184Y-56280051D01*
X171481588Y-56376557D01*
X171683757Y-56442246D01*
X171893713Y-56475500D01*
X171893714Y-56475500D01*
X172106286Y-56475500D01*
X172106287Y-56475500D01*
X172316243Y-56442246D01*
X172518412Y-56376557D01*
X172707816Y-56280051D01*
X172729789Y-56264086D01*
X172879786Y-56155109D01*
X172879788Y-56155106D01*
X172879792Y-56155104D01*
X173030104Y-56004792D01*
X173149683Y-55840204D01*
X173205011Y-55797540D01*
X173274624Y-55791561D01*
X173336420Y-55824166D01*
X173350313Y-55840199D01*
X173452560Y-55980931D01*
X173469896Y-56004792D01*
X173620213Y-56155109D01*
X173792179Y-56280048D01*
X173792181Y-56280049D01*
X173792184Y-56280051D01*
X173981588Y-56376557D01*
X174183757Y-56442246D01*
X174393713Y-56475500D01*
X174393714Y-56475500D01*
X174606286Y-56475500D01*
X174606287Y-56475500D01*
X174816243Y-56442246D01*
X175018412Y-56376557D01*
X175207816Y-56280051D01*
X175229789Y-56264086D01*
X175379786Y-56155109D01*
X175379788Y-56155106D01*
X175379792Y-56155104D01*
X175530104Y-56004792D01*
X175649683Y-55840204D01*
X175705011Y-55797540D01*
X175774624Y-55791561D01*
X175836420Y-55824166D01*
X175850313Y-55840199D01*
X175952560Y-55980931D01*
X175969896Y-56004792D01*
X176120213Y-56155109D01*
X176292179Y-56280048D01*
X176292181Y-56280049D01*
X176292184Y-56280051D01*
X176481588Y-56376557D01*
X176683757Y-56442246D01*
X176893713Y-56475500D01*
X176893714Y-56475500D01*
X177106286Y-56475500D01*
X177106287Y-56475500D01*
X177316243Y-56442246D01*
X177518412Y-56376557D01*
X177707816Y-56280051D01*
X177729789Y-56264086D01*
X177879786Y-56155109D01*
X177879788Y-56155106D01*
X177879792Y-56155104D01*
X178030104Y-56004792D01*
X178149683Y-55840204D01*
X178205011Y-55797540D01*
X178274624Y-55791561D01*
X178336420Y-55824166D01*
X178350313Y-55840199D01*
X178452560Y-55980931D01*
X178469896Y-56004792D01*
X178620213Y-56155109D01*
X178792179Y-56280048D01*
X178792181Y-56280049D01*
X178792184Y-56280051D01*
X178981588Y-56376557D01*
X179183757Y-56442246D01*
X179393713Y-56475500D01*
X179393714Y-56475500D01*
X179606286Y-56475500D01*
X179606287Y-56475500D01*
X179816243Y-56442246D01*
X180018412Y-56376557D01*
X180207816Y-56280051D01*
X180229789Y-56264086D01*
X180379786Y-56155109D01*
X180379788Y-56155106D01*
X180379792Y-56155104D01*
X180530104Y-56004792D01*
X180530106Y-56004788D01*
X180530109Y-56004786D01*
X180655048Y-55832820D01*
X180655047Y-55832820D01*
X180655051Y-55832816D01*
X180751557Y-55643412D01*
X180817246Y-55441243D01*
X180850500Y-55231287D01*
X180850500Y-54768713D01*
X180817246Y-54558757D01*
X180751557Y-54356588D01*
X180671778Y-54200013D01*
X186150000Y-54200013D01*
X186150000Y-54750000D01*
X187095854Y-54750000D01*
X187057370Y-54816657D01*
X187025000Y-54937465D01*
X187025000Y-55062535D01*
X187057370Y-55183343D01*
X187095854Y-55250000D01*
X186150001Y-55250000D01*
X186150001Y-55799986D01*
X186160494Y-55902697D01*
X186215641Y-56069119D01*
X186215643Y-56069124D01*
X186307684Y-56218345D01*
X186431654Y-56342315D01*
X186580875Y-56434356D01*
X186580880Y-56434358D01*
X186747302Y-56489505D01*
X186747309Y-56489506D01*
X186850019Y-56499999D01*
X187249999Y-56499999D01*
X187250000Y-56499998D01*
X187250000Y-55404145D01*
X187316657Y-55442630D01*
X187437465Y-55475000D01*
X187562535Y-55475000D01*
X187683343Y-55442630D01*
X187750000Y-55404145D01*
X187750000Y-56499999D01*
X188149972Y-56499999D01*
X188149986Y-56499998D01*
X188252697Y-56489505D01*
X188419119Y-56434358D01*
X188419124Y-56434356D01*
X188568345Y-56342315D01*
X188692317Y-56218343D01*
X188787815Y-56063516D01*
X188839763Y-56016791D01*
X188908725Y-56005568D01*
X188972808Y-56033412D01*
X188981035Y-56040931D01*
X189120213Y-56180109D01*
X189292179Y-56305048D01*
X189292181Y-56305049D01*
X189292184Y-56305051D01*
X189481588Y-56401557D01*
X189683757Y-56467246D01*
X189893713Y-56500500D01*
X189893714Y-56500500D01*
X190106286Y-56500500D01*
X190106287Y-56500500D01*
X190316243Y-56467246D01*
X190518412Y-56401557D01*
X190707816Y-56305051D01*
X190742230Y-56280048D01*
X190879786Y-56180109D01*
X190879788Y-56180106D01*
X190879792Y-56180104D01*
X191030104Y-56029792D01*
X191030106Y-56029788D01*
X191030109Y-56029786D01*
X191155048Y-55857820D01*
X191155047Y-55857820D01*
X191155051Y-55857816D01*
X191251557Y-55668412D01*
X191317246Y-55466243D01*
X191350500Y-55256287D01*
X191350500Y-54743713D01*
X191346224Y-54716717D01*
X191355178Y-54647426D01*
X191381013Y-54609642D01*
X193253838Y-52736819D01*
X193315161Y-52703334D01*
X193341519Y-52700500D01*
X221658481Y-52700500D01*
X221725520Y-52720185D01*
X221746162Y-52736819D01*
X223018805Y-54009462D01*
X223052290Y-54070785D01*
X223047306Y-54140477D01*
X223018811Y-54184819D01*
X223007291Y-54196339D01*
X222915187Y-54345663D01*
X222915185Y-54345668D01*
X222907895Y-54367669D01*
X222860001Y-54512203D01*
X222860001Y-54512204D01*
X222860000Y-54512204D01*
X222849500Y-54614983D01*
X222849500Y-57565001D01*
X222849501Y-57565018D01*
X222860000Y-57667796D01*
X222860001Y-57667799D01*
X222915185Y-57834331D01*
X222915186Y-57834334D01*
X223007288Y-57983656D01*
X223131344Y-58107712D01*
X223203096Y-58151968D01*
X223249821Y-58203915D01*
X223262000Y-58257507D01*
X223262000Y-58832491D01*
X223242315Y-58899530D01*
X223203098Y-58938029D01*
X223131344Y-58982287D01*
X223007289Y-59106342D01*
X222915187Y-59255663D01*
X222915186Y-59255666D01*
X222860001Y-59422203D01*
X222860001Y-59422204D01*
X222860000Y-59422204D01*
X222849500Y-59524983D01*
X222849500Y-62475001D01*
X222849501Y-62475018D01*
X222860000Y-62577796D01*
X222860001Y-62577799D01*
X222915185Y-62744331D01*
X222915187Y-62744336D01*
X222921488Y-62754552D01*
X223007288Y-62893656D01*
X223131344Y-63017712D01*
X223203096Y-63061968D01*
X223249821Y-63113915D01*
X223262000Y-63167507D01*
X223262000Y-63742491D01*
X223242315Y-63809530D01*
X223203098Y-63848029D01*
X223131344Y-63892287D01*
X223007289Y-64016342D01*
X222915187Y-64165663D01*
X222915185Y-64165668D01*
X222897393Y-64219361D01*
X222860001Y-64332203D01*
X222860001Y-64332204D01*
X222860000Y-64332204D01*
X222849500Y-64434983D01*
X222849500Y-67385001D01*
X222849501Y-67385018D01*
X222860000Y-67487796D01*
X222860001Y-67487799D01*
X222915185Y-67654331D01*
X222915187Y-67654336D01*
X222923909Y-67668477D01*
X223007288Y-67803656D01*
X223131344Y-67927712D01*
X223203096Y-67971968D01*
X223249821Y-68023915D01*
X223262000Y-68077507D01*
X223262000Y-68652491D01*
X223242315Y-68719530D01*
X223203098Y-68758029D01*
X223131344Y-68802287D01*
X223007289Y-68926342D01*
X222915187Y-69075663D01*
X222915185Y-69075668D01*
X222893951Y-69139748D01*
X222860001Y-69242203D01*
X222860001Y-69242204D01*
X222860000Y-69242204D01*
X222849500Y-69344983D01*
X222849500Y-72295001D01*
X222849501Y-72295018D01*
X222860000Y-72397796D01*
X222860001Y-72397799D01*
X222915185Y-72564331D01*
X222915187Y-72564336D01*
X222934004Y-72594843D01*
X223007288Y-72713656D01*
X223131344Y-72837712D01*
X223203096Y-72881968D01*
X223249821Y-72933915D01*
X223262000Y-72987507D01*
X223262000Y-73562491D01*
X223242315Y-73629530D01*
X223203098Y-73668029D01*
X223131344Y-73712287D01*
X223007289Y-73836342D01*
X222915187Y-73985663D01*
X222915185Y-73985668D01*
X222891024Y-74058583D01*
X222860001Y-74152203D01*
X222860001Y-74152204D01*
X222860000Y-74152204D01*
X222849500Y-74254983D01*
X222849500Y-77205001D01*
X222849501Y-77205018D01*
X222860000Y-77307796D01*
X222860001Y-77307799D01*
X222915185Y-77474331D01*
X222915187Y-77474336D01*
X222947362Y-77526500D01*
X223007288Y-77623656D01*
X223131344Y-77747712D01*
X223203096Y-77791968D01*
X223249821Y-77843915D01*
X223262000Y-77897507D01*
X223262000Y-78472491D01*
X223242315Y-78539530D01*
X223203098Y-78578029D01*
X223131344Y-78622287D01*
X223007289Y-78746342D01*
X222915187Y-78895663D01*
X222915186Y-78895666D01*
X222860001Y-79062203D01*
X222860001Y-79062204D01*
X222860000Y-79062204D01*
X222849500Y-79164983D01*
X222849500Y-82115001D01*
X222849501Y-82115018D01*
X222860000Y-82217796D01*
X222860001Y-82217799D01*
X222915185Y-82384331D01*
X222915187Y-82384336D01*
X222921420Y-82394441D01*
X223007288Y-82533656D01*
X223131344Y-82657712D01*
X223203096Y-82701968D01*
X223249821Y-82753915D01*
X223262000Y-82807507D01*
X223262000Y-83382491D01*
X223242315Y-83449530D01*
X223203098Y-83488029D01*
X223131344Y-83532287D01*
X223007289Y-83656342D01*
X222915187Y-83805663D01*
X222915185Y-83805668D01*
X222909452Y-83822970D01*
X222860001Y-83972203D01*
X222860001Y-83972204D01*
X222860000Y-83972204D01*
X222849500Y-84074983D01*
X222849500Y-87025001D01*
X222849501Y-87025018D01*
X222860000Y-87127796D01*
X222860001Y-87127799D01*
X222915185Y-87294331D01*
X222915186Y-87294334D01*
X223007288Y-87443656D01*
X223131344Y-87567712D01*
X223203096Y-87611968D01*
X223249821Y-87663915D01*
X223262000Y-87717507D01*
X223262000Y-88292491D01*
X223242315Y-88359530D01*
X223203098Y-88398029D01*
X223131344Y-88442287D01*
X223007289Y-88566342D01*
X222915187Y-88715663D01*
X222915186Y-88715666D01*
X222860001Y-88882203D01*
X222860001Y-88882204D01*
X222860000Y-88882204D01*
X222849500Y-88984983D01*
X222849500Y-91935001D01*
X222849501Y-91935018D01*
X222860000Y-92037796D01*
X222860001Y-92037799D01*
X222915185Y-92204331D01*
X222915186Y-92204334D01*
X223007288Y-92353656D01*
X223131344Y-92477712D01*
X223280666Y-92569814D01*
X223447203Y-92624999D01*
X223549991Y-92635500D01*
X224375008Y-92635499D01*
X224375016Y-92635498D01*
X224375019Y-92635498D01*
X224431302Y-92629748D01*
X224477797Y-92624999D01*
X224644334Y-92569814D01*
X224793656Y-92477712D01*
X224917712Y-92353656D01*
X225009814Y-92204334D01*
X225064999Y-92037797D01*
X225075500Y-91935009D01*
X225075499Y-88984992D01*
X225064999Y-88882203D01*
X225009814Y-88715666D01*
X224917712Y-88566344D01*
X224793656Y-88442288D01*
X224793655Y-88442287D01*
X224721902Y-88398029D01*
X224675178Y-88346081D01*
X224663000Y-88292491D01*
X224663000Y-87717507D01*
X224682685Y-87650468D01*
X224721903Y-87611968D01*
X224793656Y-87567712D01*
X224917712Y-87443656D01*
X225009814Y-87294334D01*
X225064999Y-87127797D01*
X225075500Y-87025009D01*
X225075499Y-84074992D01*
X225064999Y-83972203D01*
X225009814Y-83805666D01*
X224917712Y-83656344D01*
X224793656Y-83532288D01*
X224793655Y-83532287D01*
X224721902Y-83488029D01*
X224675178Y-83436081D01*
X224663000Y-83382491D01*
X224663000Y-82807507D01*
X224682685Y-82740468D01*
X224721903Y-82701968D01*
X224793656Y-82657712D01*
X224917712Y-82533656D01*
X225009814Y-82384334D01*
X225064999Y-82217797D01*
X225075500Y-82115009D01*
X225075499Y-79164992D01*
X225064999Y-79062203D01*
X225009814Y-78895666D01*
X224917712Y-78746344D01*
X224793656Y-78622288D01*
X224793655Y-78622287D01*
X224721902Y-78578029D01*
X224675178Y-78526081D01*
X224663000Y-78472491D01*
X224663000Y-77897507D01*
X224682685Y-77830468D01*
X224721903Y-77791968D01*
X224793656Y-77747712D01*
X224917712Y-77623656D01*
X225009814Y-77474334D01*
X225064999Y-77307797D01*
X225075500Y-77205009D01*
X225075499Y-74254992D01*
X225064999Y-74152203D01*
X225009814Y-73985666D01*
X224917712Y-73836344D01*
X224793656Y-73712288D01*
X224793655Y-73712287D01*
X224721902Y-73668029D01*
X224675178Y-73616081D01*
X224663000Y-73562491D01*
X224663000Y-72987507D01*
X224682685Y-72920468D01*
X224721903Y-72881968D01*
X224793656Y-72837712D01*
X224917712Y-72713656D01*
X225009814Y-72564334D01*
X225064999Y-72397797D01*
X225075500Y-72295009D01*
X225075499Y-69344992D01*
X225064999Y-69242203D01*
X225009814Y-69075666D01*
X224917712Y-68926344D01*
X224793656Y-68802288D01*
X224793655Y-68802287D01*
X224721902Y-68758029D01*
X224675178Y-68706081D01*
X224663000Y-68652491D01*
X224663000Y-68077507D01*
X224682685Y-68010468D01*
X224721903Y-67971968D01*
X224793656Y-67927712D01*
X224917712Y-67803656D01*
X225009814Y-67654334D01*
X225064999Y-67487797D01*
X225075500Y-67385009D01*
X225075499Y-64434992D01*
X225072595Y-64406568D01*
X225064999Y-64332203D01*
X225064998Y-64332200D01*
X225044215Y-64269481D01*
X225009814Y-64165666D01*
X224917712Y-64016344D01*
X224793656Y-63892288D01*
X224793655Y-63892287D01*
X224721902Y-63848029D01*
X224675178Y-63796081D01*
X224663000Y-63742491D01*
X224663000Y-63167507D01*
X224682685Y-63100468D01*
X224721903Y-63061968D01*
X224793656Y-63017712D01*
X224917712Y-62893656D01*
X225009814Y-62744334D01*
X225064999Y-62577797D01*
X225075500Y-62475009D01*
X225075499Y-59524992D01*
X225064999Y-59422203D01*
X225009814Y-59255666D01*
X224917712Y-59106344D01*
X224793656Y-58982288D01*
X224793655Y-58982287D01*
X224721902Y-58938029D01*
X224675178Y-58886081D01*
X224663000Y-58832491D01*
X224663000Y-58257507D01*
X224682685Y-58190468D01*
X224721903Y-58151968D01*
X224793656Y-58107712D01*
X224917712Y-57983656D01*
X225009814Y-57834334D01*
X225064999Y-57667797D01*
X225075500Y-57565009D01*
X225075499Y-54614992D01*
X225064999Y-54512203D01*
X225009814Y-54345666D01*
X224917712Y-54196344D01*
X224793656Y-54072288D01*
X224793655Y-54072287D01*
X224721902Y-54028029D01*
X224675178Y-53976081D01*
X224663000Y-53922491D01*
X224663000Y-53893504D01*
X224636081Y-53758177D01*
X224636080Y-53758176D01*
X224636080Y-53758172D01*
X224636078Y-53758167D01*
X224583276Y-53630691D01*
X224583275Y-53630689D01*
X224556212Y-53590186D01*
X224506614Y-53515957D01*
X224506612Y-53515954D01*
X222446545Y-51455887D01*
X222331807Y-51379222D01*
X222204332Y-51326421D01*
X222204322Y-51326418D01*
X222068996Y-51299500D01*
X222068994Y-51299500D01*
X222068993Y-51299500D01*
X193068994Y-51299500D01*
X192931006Y-51299500D01*
X192931004Y-51299500D01*
X192795677Y-51326418D01*
X192795667Y-51326421D01*
X192668192Y-51379222D01*
X192553454Y-51455887D01*
X190490996Y-53518345D01*
X190429673Y-53551830D01*
X190364997Y-53548595D01*
X190316243Y-53532754D01*
X190106287Y-53499500D01*
X189893713Y-53499500D01*
X189845042Y-53507208D01*
X189683760Y-53532753D01*
X189481585Y-53598444D01*
X189292179Y-53694951D01*
X189120215Y-53819889D01*
X188981035Y-53959069D01*
X188919712Y-53992553D01*
X188850020Y-53987569D01*
X188794087Y-53945697D01*
X188787815Y-53936484D01*
X188692315Y-53781654D01*
X188568345Y-53657684D01*
X188419124Y-53565643D01*
X188419119Y-53565641D01*
X188252697Y-53510494D01*
X188252690Y-53510493D01*
X188149986Y-53500000D01*
X187750000Y-53500000D01*
X187750000Y-54595854D01*
X187683343Y-54557370D01*
X187562535Y-54525000D01*
X187437465Y-54525000D01*
X187316657Y-54557370D01*
X187250000Y-54595854D01*
X187250000Y-53500000D01*
X186850028Y-53500000D01*
X186850012Y-53500001D01*
X186747302Y-53510494D01*
X186580880Y-53565641D01*
X186580875Y-53565643D01*
X186431654Y-53657684D01*
X186307684Y-53781654D01*
X186215643Y-53930875D01*
X186215641Y-53930880D01*
X186160494Y-54097302D01*
X186160493Y-54097309D01*
X186150000Y-54200013D01*
X180671778Y-54200013D01*
X180655051Y-54167184D01*
X180655049Y-54167181D01*
X180655048Y-54167179D01*
X180530109Y-53995213D01*
X180379786Y-53844890D01*
X180207820Y-53719951D01*
X180018414Y-53623444D01*
X180018413Y-53623443D01*
X180018412Y-53623443D01*
X179816243Y-53557754D01*
X179816241Y-53557753D01*
X179816240Y-53557753D01*
X179654957Y-53532208D01*
X179606287Y-53524500D01*
X179393713Y-53524500D01*
X179345042Y-53532208D01*
X179183760Y-53557753D01*
X178981585Y-53623444D01*
X178792179Y-53719951D01*
X178620213Y-53844890D01*
X178469894Y-53995209D01*
X178469890Y-53995214D01*
X178350318Y-54159793D01*
X178294989Y-54202459D01*
X178225375Y-54208438D01*
X178163580Y-54175833D01*
X178149682Y-54159793D01*
X178030109Y-53995214D01*
X178030105Y-53995209D01*
X177879786Y-53844890D01*
X177707820Y-53719951D01*
X177518414Y-53623444D01*
X177518413Y-53623443D01*
X177518412Y-53623443D01*
X177316243Y-53557754D01*
X177316241Y-53557753D01*
X177316240Y-53557753D01*
X177154957Y-53532208D01*
X177106287Y-53524500D01*
X176893713Y-53524500D01*
X176845042Y-53532208D01*
X176683760Y-53557753D01*
X176481585Y-53623444D01*
X176292179Y-53719951D01*
X176120213Y-53844890D01*
X175969894Y-53995209D01*
X175969890Y-53995214D01*
X175850318Y-54159793D01*
X175794989Y-54202459D01*
X175725375Y-54208438D01*
X175663580Y-54175833D01*
X175649682Y-54159793D01*
X175530109Y-53995214D01*
X175530105Y-53995209D01*
X175379786Y-53844890D01*
X175207820Y-53719951D01*
X175018414Y-53623444D01*
X175018413Y-53623443D01*
X175018412Y-53623443D01*
X174816243Y-53557754D01*
X174816241Y-53557753D01*
X174816240Y-53557753D01*
X174654957Y-53532208D01*
X174606287Y-53524500D01*
X174393713Y-53524500D01*
X174345042Y-53532208D01*
X174183760Y-53557753D01*
X174183757Y-53557754D01*
X174047129Y-53602147D01*
X173977290Y-53604142D01*
X173921132Y-53571897D01*
X173711590Y-53362355D01*
X173711588Y-53362352D01*
X173592717Y-53243481D01*
X173592716Y-53243480D01*
X173505904Y-53193360D01*
X173505904Y-53193359D01*
X173505900Y-53193358D01*
X173455785Y-53164423D01*
X173303057Y-53123499D01*
X173144943Y-53123499D01*
X173137347Y-53123499D01*
X173137331Y-53123500D01*
X162061940Y-53123500D01*
X162021019Y-53134464D01*
X162021019Y-53134465D01*
X161983751Y-53144451D01*
X161909214Y-53164423D01*
X161909209Y-53164426D01*
X161772290Y-53243475D01*
X161772282Y-53243481D01*
X161660478Y-53355286D01*
X160942582Y-54073181D01*
X160881259Y-54106666D01*
X160854901Y-54109500D01*
X160157129Y-54109500D01*
X160157123Y-54109501D01*
X160097516Y-54115908D01*
X159962671Y-54166202D01*
X159962664Y-54166206D01*
X159847455Y-54252452D01*
X159847452Y-54252455D01*
X159761206Y-54367664D01*
X159761202Y-54367671D01*
X159710908Y-54502517D01*
X159704501Y-54562116D01*
X159704500Y-54562135D01*
X159704500Y-56157870D01*
X159704501Y-56157876D01*
X159710908Y-56217483D01*
X159761202Y-56352328D01*
X159761206Y-56352335D01*
X159847452Y-56467544D01*
X159847455Y-56467547D01*
X159962664Y-56553793D01*
X159962671Y-56553797D01*
X160097517Y-56604091D01*
X160097516Y-56604091D01*
X160104444Y-56604835D01*
X160157127Y-56610500D01*
X160740903Y-56610499D01*
X160762146Y-56616736D01*
X160784233Y-56618316D01*
X160795016Y-56626388D01*
X160807941Y-56630183D01*
X160822441Y-56646917D01*
X160840167Y-56660186D01*
X160844874Y-56672806D01*
X160853696Y-56682987D01*
X160856847Y-56704903D01*
X160864586Y-56725650D01*
X160861722Y-56738813D01*
X160863640Y-56752146D01*
X160854442Y-56772286D01*
X160849736Y-56793923D01*
X160836464Y-56811651D01*
X160834615Y-56815702D01*
X160828585Y-56822178D01*
X160806288Y-56844476D01*
X160806286Y-56844478D01*
X160694481Y-56956282D01*
X160694477Y-56956287D01*
X160673244Y-56993066D01*
X160668941Y-57000520D01*
X160615423Y-57093215D01*
X160574499Y-57245943D01*
X160574499Y-57245945D01*
X160574499Y-57414046D01*
X160574500Y-57414059D01*
X160574500Y-58583480D01*
X160554815Y-58650519D01*
X160538181Y-58671161D01*
X160419531Y-58789810D01*
X160419530Y-58789811D01*
X160331522Y-58935393D01*
X160280913Y-59097807D01*
X160274500Y-59168386D01*
X160274500Y-59831613D01*
X160280913Y-59902192D01*
X160280913Y-59902194D01*
X160280914Y-59902196D01*
X160331522Y-60064606D01*
X160419528Y-60210185D01*
X160538182Y-60328839D01*
X160571666Y-60390160D01*
X160574500Y-60416519D01*
X160574500Y-60838330D01*
X160574499Y-60838348D01*
X160574499Y-61004054D01*
X160574498Y-61004054D01*
X160606194Y-61122342D01*
X160615423Y-61156785D01*
X160633438Y-61187987D01*
X160660525Y-61234903D01*
X160694479Y-61293715D01*
X160915426Y-61514662D01*
X160948911Y-61575985D01*
X160949362Y-61578151D01*
X160980261Y-61733491D01*
X160980264Y-61733501D01*
X161040602Y-61879172D01*
X161040609Y-61879185D01*
X161128210Y-62010288D01*
X161128213Y-62010292D01*
X161239707Y-62121786D01*
X161239711Y-62121789D01*
X161370814Y-62209390D01*
X161370827Y-62209397D01*
X161512261Y-62267980D01*
X161516503Y-62269737D01*
X161662285Y-62298735D01*
X161671153Y-62300499D01*
X161671156Y-62300500D01*
X161671158Y-62300500D01*
X161828844Y-62300500D01*
X161828845Y-62300499D01*
X161983497Y-62269737D01*
X162129179Y-62209394D01*
X162260289Y-62121789D01*
X162323742Y-62058335D01*
X162385061Y-62024852D01*
X162454753Y-62029836D01*
X162499102Y-62058337D01*
X162988584Y-62547819D01*
X163022069Y-62609142D01*
X163017085Y-62678834D01*
X162975213Y-62734767D01*
X162909749Y-62759184D01*
X162900903Y-62759500D01*
X158950097Y-62759500D01*
X158883058Y-62739815D01*
X158862416Y-62723181D01*
X157691819Y-61552584D01*
X157658334Y-61491261D01*
X157655500Y-61464903D01*
X157655500Y-60416519D01*
X157675185Y-60349480D01*
X157691814Y-60328842D01*
X157810472Y-60210185D01*
X157898478Y-60064606D01*
X157949086Y-59902196D01*
X157955500Y-59831616D01*
X157955500Y-59168384D01*
X157949086Y-59097804D01*
X157898478Y-58935394D01*
X157810472Y-58789815D01*
X157810470Y-58789813D01*
X157810469Y-58789811D01*
X157691819Y-58671161D01*
X157658334Y-58609838D01*
X157655500Y-58583480D01*
X157655500Y-56701424D01*
X157675185Y-56634385D01*
X157727989Y-56588630D01*
X157755309Y-56579807D01*
X157779092Y-56575076D01*
X157799127Y-56571091D01*
X157985756Y-56493786D01*
X158153718Y-56381558D01*
X158296558Y-56238718D01*
X158408786Y-56070756D01*
X158486091Y-55884127D01*
X158525500Y-55686003D01*
X158525500Y-55033997D01*
X158486091Y-54835873D01*
X158408786Y-54649244D01*
X158408784Y-54649241D01*
X158408782Y-54649237D01*
X158296558Y-54481281D01*
X158153718Y-54338441D01*
X157985762Y-54226217D01*
X157985752Y-54226212D01*
X157799127Y-54148909D01*
X157799119Y-54148907D01*
X157601007Y-54109500D01*
X157601003Y-54109500D01*
X157398997Y-54109500D01*
X157398992Y-54109500D01*
X157200880Y-54148907D01*
X157200872Y-54148909D01*
X157014244Y-54226213D01*
X156933891Y-54279904D01*
X156867213Y-54300782D01*
X156799833Y-54282297D01*
X156796109Y-54279904D01*
X156715755Y-54226213D01*
X156529127Y-54148909D01*
X156529119Y-54148907D01*
X156331007Y-54109500D01*
X156331003Y-54109500D01*
X156128997Y-54109500D01*
X156128992Y-54109500D01*
X155930880Y-54148907D01*
X155930868Y-54148910D01*
X155850198Y-54182325D01*
X155780729Y-54189794D01*
X155735342Y-54170036D01*
X155735114Y-54170454D01*
X155730447Y-54167905D01*
X155728432Y-54167028D01*
X155727331Y-54166204D01*
X155727330Y-54166203D01*
X155727328Y-54166202D01*
X155592482Y-54115908D01*
X155592483Y-54115908D01*
X155532883Y-54109501D01*
X155532881Y-54109500D01*
X155532873Y-54109500D01*
X155532864Y-54109500D01*
X154387129Y-54109500D01*
X154387123Y-54109501D01*
X154327516Y-54115908D01*
X154192671Y-54166202D01*
X154192664Y-54166206D01*
X154077455Y-54252452D01*
X154077452Y-54252455D01*
X153991206Y-54367664D01*
X153991202Y-54367671D01*
X153940908Y-54502517D01*
X153934501Y-54562116D01*
X153934500Y-54562135D01*
X153934500Y-56157870D01*
X153934501Y-56157876D01*
X153940908Y-56217483D01*
X153991202Y-56352328D01*
X153991206Y-56352335D01*
X154077452Y-56467544D01*
X154077455Y-56467547D01*
X154192664Y-56553793D01*
X154192671Y-56553797D01*
X154327517Y-56604091D01*
X154327516Y-56604091D01*
X154334444Y-56604835D01*
X154387127Y-56610500D01*
X154990903Y-56610499D01*
X155012149Y-56616737D01*
X155034234Y-56618317D01*
X155045015Y-56626387D01*
X155057941Y-56630183D01*
X155072441Y-56646917D01*
X155090168Y-56660187D01*
X155094875Y-56672807D01*
X155103696Y-56682987D01*
X155106847Y-56704903D01*
X155114586Y-56725651D01*
X155111722Y-56738813D01*
X155113640Y-56752146D01*
X155104441Y-56772287D01*
X155099735Y-56793925D01*
X155086464Y-56811651D01*
X155084615Y-56815702D01*
X155078585Y-56822178D01*
X155078584Y-56822179D01*
X155036287Y-56864477D01*
X155036286Y-56864478D01*
X154924481Y-56976282D01*
X154924475Y-56976290D01*
X154876391Y-57059576D01*
X154876391Y-57059577D01*
X154845423Y-57113215D01*
X154804499Y-57265943D01*
X154804499Y-57265945D01*
X154804499Y-57434046D01*
X154804500Y-57434059D01*
X154804500Y-58583480D01*
X154784815Y-58650519D01*
X154768181Y-58671161D01*
X154649531Y-58789810D01*
X154649530Y-58789811D01*
X154561522Y-58935393D01*
X154510913Y-59097807D01*
X154504500Y-59168386D01*
X154504500Y-59831613D01*
X154510913Y-59902192D01*
X154510913Y-59902194D01*
X154510914Y-59902196D01*
X154561522Y-60064606D01*
X154649528Y-60210185D01*
X154768182Y-60328839D01*
X154801666Y-60390160D01*
X154804500Y-60416519D01*
X154804500Y-61068330D01*
X154804499Y-61068348D01*
X154804499Y-61234054D01*
X154804498Y-61234054D01*
X154807795Y-61246357D01*
X154845423Y-61386785D01*
X154870954Y-61431006D01*
X154924477Y-61523712D01*
X154924481Y-61523717D01*
X155043349Y-61642585D01*
X155043355Y-61642590D01*
X155665425Y-62264660D01*
X155698910Y-62325983D01*
X155699361Y-62328149D01*
X155730261Y-62483491D01*
X155730263Y-62483497D01*
X155769918Y-62579234D01*
X155773569Y-62588047D01*
X155781038Y-62657517D01*
X155749763Y-62719996D01*
X155689674Y-62755648D01*
X155659008Y-62759500D01*
X134475021Y-62759500D01*
X134471806Y-62758556D01*
X134468547Y-62759331D01*
X134438513Y-62748780D01*
X134407982Y-62739815D01*
X134405788Y-62737283D01*
X134402627Y-62736173D01*
X134383064Y-62711058D01*
X134362227Y-62687011D01*
X134361138Y-62682909D01*
X134359691Y-62681052D01*
X134357274Y-62668358D01*
X134351529Y-62646715D01*
X134351021Y-62641121D01*
X134351021Y-62556679D01*
X134336909Y-62485738D01*
X134336316Y-62479201D01*
X134341866Y-62451106D01*
X134344418Y-62422586D01*
X134348830Y-62415853D01*
X134349857Y-62410656D01*
X134357315Y-62402906D01*
X134372125Y-62380307D01*
X138843713Y-57908720D01*
X138843716Y-57908719D01*
X138955520Y-57796915D01*
X139005639Y-57710103D01*
X139034577Y-57659984D01*
X139075501Y-57507256D01*
X139075501Y-57349142D01*
X139075501Y-57341547D01*
X139075500Y-57341529D01*
X139075500Y-56595284D01*
X139095185Y-56528245D01*
X139147989Y-56482490D01*
X139217147Y-56472546D01*
X139218780Y-56472793D01*
X139393713Y-56500500D01*
X139393714Y-56500500D01*
X139606286Y-56500500D01*
X139606287Y-56500500D01*
X139816243Y-56467246D01*
X140018412Y-56401557D01*
X140207816Y-56305051D01*
X140242230Y-56280048D01*
X140379786Y-56180109D01*
X140379788Y-56180106D01*
X140379792Y-56180104D01*
X140530104Y-56029792D01*
X140530106Y-56029788D01*
X140530109Y-56029786D01*
X140655048Y-55857820D01*
X140655047Y-55857820D01*
X140655051Y-55857816D01*
X140751557Y-55668412D01*
X140817246Y-55466243D01*
X140850500Y-55256287D01*
X140850500Y-54743713D01*
X140817246Y-54533757D01*
X140751557Y-54331588D01*
X140684501Y-54199983D01*
X145149500Y-54199983D01*
X145149500Y-55800001D01*
X145149501Y-55800018D01*
X145160000Y-55902796D01*
X145160001Y-55902799D01*
X145215185Y-56069331D01*
X145215187Y-56069336D01*
X145216063Y-56070756D01*
X145307288Y-56218656D01*
X145431344Y-56342712D01*
X145580666Y-56434814D01*
X145747203Y-56489999D01*
X145849991Y-56500500D01*
X147150008Y-56500499D01*
X147252797Y-56489999D01*
X147419334Y-56434814D01*
X147568656Y-56342712D01*
X147692712Y-56218656D01*
X147784814Y-56069334D01*
X147784814Y-56069331D01*
X147788178Y-56063879D01*
X147840126Y-56017154D01*
X147909088Y-56005931D01*
X147973170Y-56033774D01*
X147981398Y-56041294D01*
X148120213Y-56180109D01*
X148292179Y-56305048D01*
X148292181Y-56305049D01*
X148292184Y-56305051D01*
X148481588Y-56401557D01*
X148683757Y-56467246D01*
X148893713Y-56500500D01*
X148893714Y-56500500D01*
X149106286Y-56500500D01*
X149106287Y-56500500D01*
X149316243Y-56467246D01*
X149518412Y-56401557D01*
X149707816Y-56305051D01*
X149742230Y-56280048D01*
X149879786Y-56180109D01*
X149879788Y-56180106D01*
X149879792Y-56180104D01*
X150030104Y-56029792D01*
X150030106Y-56029788D01*
X150030109Y-56029786D01*
X150155048Y-55857820D01*
X150155047Y-55857820D01*
X150155051Y-55857816D01*
X150251557Y-55668412D01*
X150317246Y-55466243D01*
X150350500Y-55256287D01*
X150350500Y-54743713D01*
X150317246Y-54533757D01*
X150251557Y-54331588D01*
X150155051Y-54142184D01*
X150155049Y-54142181D01*
X150155048Y-54142179D01*
X150030109Y-53970213D01*
X149879786Y-53819890D01*
X149707820Y-53694951D01*
X149518414Y-53598444D01*
X149518413Y-53598443D01*
X149518412Y-53598443D01*
X149316243Y-53532754D01*
X149316241Y-53532753D01*
X149316240Y-53532753D01*
X149154957Y-53507208D01*
X149106287Y-53499500D01*
X148893713Y-53499500D01*
X148845042Y-53507208D01*
X148683760Y-53532753D01*
X148481585Y-53598444D01*
X148292179Y-53694951D01*
X148120215Y-53819889D01*
X147981398Y-53958706D01*
X147920075Y-53992190D01*
X147850383Y-53987206D01*
X147794450Y-53945334D01*
X147788178Y-53936120D01*
X147692712Y-53781344D01*
X147568657Y-53657289D01*
X147568656Y-53657288D01*
X147430505Y-53572076D01*
X147419336Y-53565187D01*
X147419331Y-53565185D01*
X147417862Y-53564698D01*
X147252797Y-53510001D01*
X147252795Y-53510000D01*
X147150010Y-53499500D01*
X145849998Y-53499500D01*
X145849981Y-53499501D01*
X145747203Y-53510000D01*
X145747200Y-53510001D01*
X145580668Y-53565185D01*
X145580663Y-53565187D01*
X145431342Y-53657289D01*
X145307289Y-53781342D01*
X145215187Y-53930663D01*
X145215185Y-53930668D01*
X145193797Y-53995213D01*
X145160001Y-54097203D01*
X145160001Y-54097204D01*
X145160000Y-54097204D01*
X145149500Y-54199983D01*
X140684501Y-54199983D01*
X140655051Y-54142184D01*
X140655049Y-54142181D01*
X140655048Y-54142179D01*
X140530109Y-53970213D01*
X140379786Y-53819890D01*
X140207820Y-53694951D01*
X140018414Y-53598444D01*
X140018413Y-53598443D01*
X140018412Y-53598443D01*
X139816243Y-53532754D01*
X139816241Y-53532753D01*
X139816240Y-53532753D01*
X139654957Y-53507208D01*
X139606287Y-53499500D01*
X139393713Y-53499500D01*
X139345042Y-53507208D01*
X139183760Y-53532753D01*
X138981585Y-53598444D01*
X138792179Y-53694951D01*
X138620215Y-53819889D01*
X138481398Y-53958706D01*
X138420075Y-53992190D01*
X138350383Y-53987206D01*
X138294450Y-53945334D01*
X138288178Y-53936120D01*
X138192712Y-53781344D01*
X138068657Y-53657289D01*
X138068656Y-53657288D01*
X137930505Y-53572076D01*
X137919336Y-53565187D01*
X137919331Y-53565185D01*
X137917862Y-53564698D01*
X137752797Y-53510001D01*
X137752795Y-53510000D01*
X137650010Y-53499500D01*
X136349998Y-53499500D01*
X136349981Y-53499501D01*
X136247203Y-53510000D01*
X136247200Y-53510001D01*
X136080668Y-53565185D01*
X136080663Y-53565187D01*
X135931342Y-53657289D01*
X135807289Y-53781342D01*
X135715187Y-53930663D01*
X135715185Y-53930668D01*
X135693797Y-53995213D01*
X135660001Y-54097203D01*
X135660001Y-54097204D01*
X135660000Y-54097204D01*
X135649500Y-54199983D01*
X135649500Y-55800001D01*
X135649501Y-55800018D01*
X135660000Y-55902796D01*
X135660001Y-55902799D01*
X135715185Y-56069331D01*
X135715187Y-56069336D01*
X135716063Y-56070756D01*
X135807288Y-56218656D01*
X135931344Y-56342712D01*
X136080666Y-56434814D01*
X136247203Y-56489999D01*
X136349991Y-56500500D01*
X137300500Y-56500499D01*
X137367539Y-56520183D01*
X137413294Y-56572987D01*
X137424500Y-56624499D01*
X137424500Y-56941703D01*
X137404815Y-57008742D01*
X137388181Y-57029384D01*
X133204692Y-61212872D01*
X133143369Y-61246357D01*
X133092820Y-61246808D01*
X133028325Y-61233979D01*
X133028321Y-61233979D01*
X132870637Y-61233979D01*
X132870634Y-61233979D01*
X132715989Y-61264740D01*
X132715977Y-61264743D01*
X132570306Y-61325081D01*
X132570293Y-61325088D01*
X132439190Y-61412689D01*
X132439186Y-61412692D01*
X132327692Y-61524186D01*
X132327689Y-61524190D01*
X132240088Y-61655293D01*
X132240081Y-61655306D01*
X132179743Y-61800977D01*
X132179740Y-61800989D01*
X132148979Y-61955632D01*
X132148979Y-62113325D01*
X132179740Y-62267968D01*
X132179743Y-62267980D01*
X132240081Y-62413651D01*
X132240088Y-62413664D01*
X132327689Y-62544767D01*
X132327692Y-62544771D01*
X132330740Y-62547819D01*
X132364225Y-62609142D01*
X132359241Y-62678834D01*
X132317369Y-62734767D01*
X132251905Y-62759184D01*
X132243059Y-62759500D01*
X129301519Y-62759500D01*
X129234480Y-62739815D01*
X129213838Y-62723181D01*
X127736819Y-61246162D01*
X127703334Y-61184839D01*
X127700500Y-61158481D01*
X127700500Y-56596869D01*
X127720185Y-56529830D01*
X127772989Y-56484075D01*
X127785486Y-56479166D01*
X127919334Y-56434814D01*
X128068656Y-56342712D01*
X128192712Y-56218656D01*
X128284814Y-56069334D01*
X128284814Y-56069331D01*
X128288448Y-56063441D01*
X128340395Y-56016716D01*
X128409358Y-56005493D01*
X128473440Y-56033336D01*
X128481668Y-56040856D01*
X128620535Y-56179723D01*
X128620540Y-56179727D01*
X128792442Y-56304620D01*
X128981782Y-56401095D01*
X129183871Y-56466757D01*
X129250000Y-56477231D01*
X129250000Y-55404145D01*
X129316657Y-55442630D01*
X129437465Y-55475000D01*
X129562535Y-55475000D01*
X129683343Y-55442630D01*
X129750000Y-55404145D01*
X129750000Y-56477230D01*
X129816126Y-56466757D01*
X129816129Y-56466757D01*
X130018217Y-56401095D01*
X130207557Y-56304620D01*
X130379459Y-56179727D01*
X130379464Y-56179723D01*
X130529723Y-56029464D01*
X130529727Y-56029459D01*
X130654620Y-55857557D01*
X130751095Y-55668217D01*
X130816757Y-55466130D01*
X130816757Y-55466127D01*
X130850000Y-55256246D01*
X130850000Y-55250000D01*
X129904146Y-55250000D01*
X129942630Y-55183343D01*
X129975000Y-55062535D01*
X129975000Y-54937465D01*
X129942630Y-54816657D01*
X129904146Y-54750000D01*
X130850000Y-54750000D01*
X130850000Y-54743753D01*
X130816757Y-54533872D01*
X130816757Y-54533869D01*
X130751095Y-54331782D01*
X130654620Y-54142442D01*
X130529727Y-53970540D01*
X130529723Y-53970535D01*
X130379464Y-53820276D01*
X130379459Y-53820272D01*
X130207557Y-53695379D01*
X130018215Y-53598903D01*
X129816124Y-53533241D01*
X129750000Y-53522768D01*
X129750000Y-54595854D01*
X129683343Y-54557370D01*
X129562535Y-54525000D01*
X129437465Y-54525000D01*
X129316657Y-54557370D01*
X129250000Y-54595854D01*
X129250000Y-53522768D01*
X129249999Y-53522768D01*
X129183875Y-53533241D01*
X128981784Y-53598903D01*
X128792442Y-53695379D01*
X128620541Y-53820271D01*
X128481668Y-53959144D01*
X128420345Y-53992628D01*
X128350653Y-53987644D01*
X128294720Y-53945772D01*
X128288448Y-53936558D01*
X128279771Y-53922491D01*
X128192712Y-53781344D01*
X128068656Y-53657288D01*
X127930505Y-53572076D01*
X127919336Y-53565187D01*
X127919331Y-53565185D01*
X127917862Y-53564698D01*
X127752797Y-53510001D01*
X127752795Y-53510000D01*
X127650010Y-53499500D01*
X126349998Y-53499500D01*
X126349981Y-53499501D01*
X126247203Y-53510000D01*
X126247200Y-53510001D01*
X126080668Y-53565185D01*
X126080663Y-53565187D01*
X125931342Y-53657289D01*
X125807289Y-53781342D01*
X125715187Y-53930663D01*
X125715185Y-53930668D01*
X125693797Y-53995213D01*
X125660001Y-54097203D01*
X125660001Y-54097204D01*
X125660000Y-54097204D01*
X125649500Y-54199983D01*
X125649500Y-55800001D01*
X125649501Y-55800018D01*
X125660000Y-55902796D01*
X125660001Y-55902799D01*
X125715185Y-56069331D01*
X125715187Y-56069336D01*
X125716063Y-56070756D01*
X125807288Y-56218656D01*
X125931344Y-56342712D01*
X126080666Y-56434814D01*
X126214505Y-56479164D01*
X126271949Y-56518936D01*
X126298772Y-56583451D01*
X126299500Y-56596869D01*
X126299500Y-61431006D01*
X126299500Y-61568994D01*
X126299500Y-61568996D01*
X126299499Y-61568996D01*
X126326418Y-61704322D01*
X126326421Y-61704332D01*
X126379222Y-61831807D01*
X126455887Y-61946545D01*
X128447161Y-63937819D01*
X128480646Y-63999142D01*
X128475662Y-64068834D01*
X128433790Y-64124767D01*
X128368326Y-64149184D01*
X128359480Y-64149500D01*
X125804907Y-64149500D01*
X125646792Y-64149500D01*
X125494065Y-64190423D01*
X125494064Y-64190423D01*
X125494062Y-64190424D01*
X125494059Y-64190425D01*
X125443946Y-64219359D01*
X125443945Y-64219360D01*
X125440173Y-64221538D01*
X125357135Y-64269479D01*
X125357132Y-64269481D01*
X119418481Y-70208132D01*
X119418477Y-70208137D01*
X119397070Y-70245218D01*
X119397069Y-70245220D01*
X119339423Y-70345065D01*
X119298499Y-70497793D01*
X119298499Y-70497795D01*
X119298499Y-70665896D01*
X119298500Y-70665909D01*
X119298500Y-104241911D01*
X119298499Y-104241929D01*
X119298499Y-104407635D01*
X119298498Y-104407635D01*
X119000500Y-104407635D01*
X119000500Y-50624500D01*
X119020185Y-50557461D01*
X119072989Y-50511706D01*
X119124500Y-50500500D01*
X226875500Y-50500500D01*
X226942539Y-50520185D01*
G37*
%TD.AperFunction*%
%TD*%
M02*
