%TF.GenerationSoftware,KiCad,Pcbnew,9.0.7*%
%TF.CreationDate,2026-04-27T22:22:21-04:00*%
%TF.ProjectId,Hyundai_Dash_V1.1,4879756e-6461-4695-9f44-6173685f5631,rev?*%
%TF.SameCoordinates,Original*%
%TF.FileFunction,Soldermask,Top*%
%TF.FilePolarity,Negative*%
%FSLAX46Y46*%
G04 Gerber Fmt 4.6, Leading zero omitted, Abs format (unit mm)*
G04 Created by KiCad (PCBNEW 9.0.7) date 2026-04-27 22:22:21*
%MOMM*%
%LPD*%
G01*
G04 APERTURE LIST*
G04 Aperture macros list*
%AMRoundRect*
0 Rectangle with rounded corners*
0 $1 Rounding radius*
0 $2 $3 $4 $5 $6 $7 $8 $9 X,Y pos of 4 corners*
0 Add a 4 corners polygon primitive as box body*
4,1,4,$2,$3,$4,$5,$6,$7,$8,$9,$2,$3,0*
0 Add four circle primitives for the rounded corners*
1,1,$1+$1,$2,$3*
1,1,$1+$1,$4,$5*
1,1,$1+$1,$6,$7*
1,1,$1+$1,$8,$9*
0 Add four rect primitives between the rounded corners*
20,1,$1+$1,$2,$3,$4,$5,0*
20,1,$1+$1,$4,$5,$6,$7,0*
20,1,$1+$1,$6,$7,$8,$9,0*
20,1,$1+$1,$8,$9,$2,$3,0*%
G04 Aperture macros list end*
%ADD10R,1.700000X1.700000*%
%ADD11C,1.700000*%
%ADD12RoundRect,0.200000X-0.275000X0.200000X-0.275000X-0.200000X0.275000X-0.200000X0.275000X0.200000X0*%
%ADD13RoundRect,0.250000X-0.600000X-0.750000X0.600000X-0.750000X0.600000X0.750000X-0.600000X0.750000X0*%
%ADD14O,1.700000X2.000000*%
%ADD15RoundRect,0.250000X-0.362500X-1.425000X0.362500X-1.425000X0.362500X1.425000X-0.362500X1.425000X0*%
%ADD16RoundRect,0.225000X-0.225000X-0.250000X0.225000X-0.250000X0.225000X0.250000X-0.225000X0.250000X0*%
%ADD17R,2.000000X1.905000*%
%ADD18O,2.000000X1.905000*%
%ADD19RoundRect,0.250000X-0.550000X-0.550000X0.550000X-0.550000X0.550000X0.550000X-0.550000X0.550000X0*%
%ADD20C,1.600000*%
%ADD21RoundRect,0.250000X0.550000X-0.550000X0.550000X0.550000X-0.550000X0.550000X-0.550000X-0.550000X0*%
%ADD22R,1.600000X1.600000*%
%ADD23O,1.600000X1.600000*%
%ADD24R,1.050000X1.500000*%
%ADD25O,1.050000X1.500000*%
%ADD26RoundRect,0.250000X-0.600000X-0.725000X0.600000X-0.725000X0.600000X0.725000X-0.600000X0.725000X0*%
%ADD27O,1.700000X1.950000*%
%ADD28R,2.000000X2.000000*%
%ADD29C,2.000000*%
%ADD30RoundRect,0.200000X0.200000X0.275000X-0.200000X0.275000X-0.200000X-0.275000X0.200000X-0.275000X0*%
%ADD31RoundRect,0.250000X0.550000X0.550000X-0.550000X0.550000X-0.550000X-0.550000X0.550000X-0.550000X0*%
G04 APERTURE END LIST*
D10*
%TO.C,J3*%
X151603325Y-98827152D03*
D11*
X151603325Y-101367152D03*
%TD*%
D12*
%TO.C,R1*%
X191050000Y-65175000D03*
X191050000Y-66825000D03*
%TD*%
D13*
%TO.C,J7*%
X146500000Y-55000000D03*
D14*
X149000000Y-55000000D03*
%TD*%
D15*
%TO.C,R7*%
X218037500Y-70820000D03*
X223962500Y-70820000D03*
%TD*%
D16*
%TO.C,C1*%
X194450000Y-83000000D03*
X196000000Y-83000000D03*
%TD*%
D17*
%TO.C,Q1*%
X188000000Y-68540000D03*
D18*
X188000000Y-66000000D03*
X188000000Y-63460000D03*
%TD*%
D15*
%TO.C,R9*%
X218037500Y-80640000D03*
X223962500Y-80640000D03*
%TD*%
D10*
%TO.C,J6*%
X193374731Y-98738587D03*
D11*
X193374731Y-101278587D03*
%TD*%
D15*
%TO.C,R4*%
X218037500Y-56090000D03*
X223962500Y-56090000D03*
%TD*%
D19*
%TO.C,U2*%
X205501824Y-61419772D03*
D20*
X205501824Y-63959772D03*
X205501824Y-66499772D03*
X205501824Y-69039772D03*
X205501824Y-71579772D03*
X205501824Y-74119772D03*
X205501824Y-76659772D03*
X205501824Y-79199772D03*
X205501824Y-81739772D03*
X213121824Y-81739772D03*
X213121824Y-79199772D03*
X213121824Y-76659772D03*
X213121824Y-74119772D03*
X213121824Y-71579772D03*
X213121824Y-69039772D03*
X213121824Y-66499772D03*
X213121824Y-63959772D03*
X213121824Y-61419772D03*
%TD*%
D15*
%TO.C,R10*%
X218037500Y-85550000D03*
X223962500Y-85550000D03*
%TD*%
D13*
%TO.C,J9*%
X187500000Y-55000000D03*
D14*
X190000000Y-55000000D03*
%TD*%
D13*
%TO.C,J1*%
X127000000Y-55000000D03*
D14*
X129500000Y-55000000D03*
%TD*%
D21*
%TO.C,U1*%
X169260000Y-81620000D03*
D20*
X171800000Y-81620000D03*
X174340000Y-81620000D03*
X176880000Y-81620000D03*
X179420000Y-81620000D03*
X181960000Y-81620000D03*
X184500000Y-81620000D03*
X187040000Y-81620000D03*
X189580000Y-81620000D03*
X189580000Y-74000000D03*
X187040000Y-74000000D03*
X184500000Y-74000000D03*
X181960000Y-74000000D03*
X179420000Y-74000000D03*
X176880000Y-74000000D03*
X174340000Y-74000000D03*
X171800000Y-74000000D03*
X169260000Y-74000000D03*
%TD*%
D15*
%TO.C,R8*%
X218037500Y-75730000D03*
X223962500Y-75730000D03*
%TD*%
D22*
%TO.C,A1*%
X161660000Y-66500000D03*
D23*
X159120000Y-66500000D03*
X156580000Y-66500000D03*
X154040000Y-66500000D03*
X151500000Y-66500000D03*
X148960000Y-66500000D03*
X146420000Y-66500000D03*
X143880000Y-66500000D03*
X141340000Y-66500000D03*
X138800000Y-66500000D03*
X136260000Y-66500000D03*
X133720000Y-66500000D03*
X131180000Y-66500000D03*
X128640000Y-66500000D03*
X126100000Y-66500000D03*
X126100000Y-81740000D03*
X128640000Y-81740000D03*
X131180000Y-81740000D03*
X133720000Y-81740000D03*
X136260000Y-81740000D03*
X138800000Y-81740000D03*
X141340000Y-81740000D03*
X143880000Y-81740000D03*
X146420000Y-81740000D03*
X148960000Y-81740000D03*
X151500000Y-81740000D03*
X154040000Y-81740000D03*
X156580000Y-81740000D03*
X159120000Y-81740000D03*
X161660000Y-81740000D03*
%TD*%
D10*
%TO.C,J8*%
X165000000Y-92380000D03*
D11*
X165000000Y-94920000D03*
X165000000Y-97460000D03*
X165000000Y-100000000D03*
X165000000Y-102540000D03*
X165000000Y-105080000D03*
X165000000Y-107620000D03*
%TD*%
D15*
%TO.C,R11*%
X218037500Y-90460000D03*
X223962500Y-90460000D03*
%TD*%
D13*
%TO.C,J4*%
X137000000Y-55000000D03*
D14*
X139500000Y-55000000D03*
%TD*%
D24*
%TO.C,Q2*%
X154960000Y-55360000D03*
D25*
X156230000Y-55360000D03*
X157500000Y-55360000D03*
%TD*%
D10*
%TO.C,J5*%
X123116614Y-92306195D03*
D11*
X123116614Y-94846195D03*
X123116614Y-97386195D03*
X123116614Y-99926195D03*
X123116614Y-102466195D03*
X123116614Y-105006195D03*
X123116614Y-107546195D03*
%TD*%
D26*
%TO.C,J2*%
X169500000Y-55000000D03*
D27*
X172000000Y-55000000D03*
X174500000Y-55000000D03*
X177000000Y-55000000D03*
X179500000Y-55000000D03*
%TD*%
D15*
%TO.C,R5*%
X218037500Y-61000000D03*
X223962500Y-61000000D03*
%TD*%
D24*
%TO.C,Q3*%
X160730000Y-55360000D03*
D25*
X162000000Y-55360000D03*
X163270000Y-55360000D03*
%TD*%
D28*
%TO.C,BZ1*%
X208700000Y-101000000D03*
D29*
X216300000Y-101000000D03*
%TD*%
D15*
%TO.C,R6*%
X218037500Y-65910000D03*
X223962500Y-65910000D03*
%TD*%
D30*
%TO.C,R2*%
X157055000Y-59500000D03*
X155405000Y-59500000D03*
%TD*%
D31*
%TO.C,U3*%
X202000000Y-79200000D03*
D20*
X202000000Y-76660000D03*
X202000000Y-74120000D03*
X202000000Y-71580000D03*
X202000000Y-69040000D03*
X202000000Y-66500000D03*
X202000000Y-63960000D03*
X202000000Y-61420000D03*
X194380000Y-61420000D03*
X194380000Y-63960000D03*
X194380000Y-66500000D03*
X194380000Y-69040000D03*
X194380000Y-71580000D03*
X194380000Y-74120000D03*
X194380000Y-76660000D03*
X194380000Y-79200000D03*
%TD*%
D30*
%TO.C,R3*%
X162825000Y-59500000D03*
X161175000Y-59500000D03*
%TD*%
M02*
