%TF.GenerationSoftware,KiCad,Pcbnew,9.0.7*%
%TF.CreationDate,2026-04-16T21:56:48-04:00*%
%TF.ProjectId,Soul_PS_Dash_V1,536f756c-5f50-4535-9f44-6173685f5631,rev?*%
%TF.SameCoordinates,Original*%
%TF.FileFunction,Copper,L1,Top*%
%TF.FilePolarity,Positive*%
%FSLAX46Y46*%
G04 Gerber Fmt 4.6, Leading zero omitted, Abs format (unit mm)*
G04 Created by KiCad (PCBNEW 9.0.7) date 2026-04-16 21:56:48*
%MOMM*%
%LPD*%
G01*
G04 APERTURE LIST*
G04 Aperture macros list*
%AMRoundRect*
0 Rectangle with rounded corners*
0 $1 Rounding radius*
0 $2 $3 $4 $5 $6 $7 $8 $9 X,Y pos of 4 corners*
0 Add a 4 corners polygon primitive as box body*
4,1,4,$2,$3,$4,$5,$6,$7,$8,$9,$2,$3,0*
0 Add four circle primitives for the rounded corners*
1,1,$1+$1,$2,$3*
1,1,$1+$1,$4,$5*
1,1,$1+$1,$6,$7*
1,1,$1+$1,$8,$9*
0 Add four rect primitives between the rounded corners*
20,1,$1+$1,$2,$3,$4,$5,0*
20,1,$1+$1,$4,$5,$6,$7,0*
20,1,$1+$1,$6,$7,$8,$9,0*
20,1,$1+$1,$8,$9,$2,$3,0*%
G04 Aperture macros list end*
%TA.AperFunction,ComponentPad*%
%ADD10R,1.700000X1.700000*%
%TD*%
%TA.AperFunction,ComponentPad*%
%ADD11C,1.700000*%
%TD*%
%TA.AperFunction,SMDPad,CuDef*%
%ADD12RoundRect,0.200000X-0.275000X0.200000X-0.275000X-0.200000X0.275000X-0.200000X0.275000X0.200000X0*%
%TD*%
%TA.AperFunction,SMDPad,CuDef*%
%ADD13RoundRect,0.250000X-0.362500X-1.425000X0.362500X-1.425000X0.362500X1.425000X-0.362500X1.425000X0*%
%TD*%
%TA.AperFunction,SMDPad,CuDef*%
%ADD14RoundRect,0.225000X-0.225000X-0.250000X0.225000X-0.250000X0.225000X0.250000X-0.225000X0.250000X0*%
%TD*%
%TA.AperFunction,ComponentPad*%
%ADD15R,2.000000X1.905000*%
%TD*%
%TA.AperFunction,ComponentPad*%
%ADD16O,2.000000X1.905000*%
%TD*%
%TA.AperFunction,ComponentPad*%
%ADD17RoundRect,0.250000X-0.550000X-0.550000X0.550000X-0.550000X0.550000X0.550000X-0.550000X0.550000X0*%
%TD*%
%TA.AperFunction,ComponentPad*%
%ADD18C,1.600000*%
%TD*%
%TA.AperFunction,ComponentPad*%
%ADD19RoundRect,0.250000X-0.600000X-0.750000X0.600000X-0.750000X0.600000X0.750000X-0.600000X0.750000X0*%
%TD*%
%TA.AperFunction,ComponentPad*%
%ADD20O,1.700000X2.000000*%
%TD*%
%TA.AperFunction,ComponentPad*%
%ADD21RoundRect,0.250000X0.550000X-0.550000X0.550000X0.550000X-0.550000X0.550000X-0.550000X-0.550000X0*%
%TD*%
%TA.AperFunction,ComponentPad*%
%ADD22R,1.600000X1.600000*%
%TD*%
%TA.AperFunction,ComponentPad*%
%ADD23O,1.600000X1.600000*%
%TD*%
%TA.AperFunction,ComponentPad*%
%ADD24R,1.050000X1.500000*%
%TD*%
%TA.AperFunction,ComponentPad*%
%ADD25O,1.050000X1.500000*%
%TD*%
%TA.AperFunction,ComponentPad*%
%ADD26RoundRect,0.250000X-0.600000X-0.725000X0.600000X-0.725000X0.600000X0.725000X-0.600000X0.725000X0*%
%TD*%
%TA.AperFunction,ComponentPad*%
%ADD27O,1.700000X1.950000*%
%TD*%
%TA.AperFunction,SMDPad,CuDef*%
%ADD28RoundRect,0.200000X0.200000X0.275000X-0.200000X0.275000X-0.200000X-0.275000X0.200000X-0.275000X0*%
%TD*%
%TA.AperFunction,ComponentPad*%
%ADD29RoundRect,0.250000X0.550000X0.550000X-0.550000X0.550000X-0.550000X-0.550000X0.550000X-0.550000X0*%
%TD*%
%TA.AperFunction,ViaPad*%
%ADD30C,0.600000*%
%TD*%
%TA.AperFunction,Conductor*%
%ADD31C,0.400000*%
%TD*%
%TA.AperFunction,Conductor*%
%ADD32C,0.200000*%
%TD*%
G04 APERTURE END LIST*
D10*
%TO.P,J3,1,Pin_1*%
%TO.N,/C-CAN_P*%
X151603325Y-98827152D03*
D11*
%TO.P,J3,2,Pin_2*%
%TO.N,/C-CAN_N*%
X151603325Y-101367152D03*
%TD*%
D12*
%TO.P,R1,1*%
%TO.N,/12V*%
X191050000Y-65175000D03*
%TO.P,R1,2*%
%TO.N,Net-(Q1-G)*%
X191050000Y-66825000D03*
%TD*%
D13*
%TO.P,R7,1*%
%TO.N,Net-(U2-O4)*%
X218037500Y-70820000D03*
%TO.P,R7,2*%
%TO.N,Net-(J6-Pin_2)*%
X223962500Y-70820000D03*
%TD*%
D14*
%TO.P,C1,1*%
%TO.N,+5V*%
X194225000Y-82000000D03*
%TO.P,C1,2*%
%TO.N,GND*%
X195775000Y-82000000D03*
%TD*%
D15*
%TO.P,Q1,1,G*%
%TO.N,Net-(Q1-G)*%
X188000000Y-68540000D03*
D16*
%TO.P,Q1,2,D*%
%TO.N,Net-(J2-Pin_1)*%
X188000000Y-66000000D03*
%TO.P,Q1,3,S*%
%TO.N,/12V*%
X188000000Y-63460000D03*
%TD*%
D13*
%TO.P,R9,1*%
%TO.N,Net-(U2-O6)*%
X218037500Y-80640000D03*
%TO.P,R9,2*%
%TO.N,Net-(J6-Pin_2)*%
X223962500Y-80640000D03*
%TD*%
%TO.P,R4,1*%
%TO.N,Net-(U2-O1)*%
X218037500Y-56090000D03*
%TO.P,R4,2*%
%TO.N,Net-(J6-Pin_2)*%
X223962500Y-56090000D03*
%TD*%
D17*
%TO.P,U2,1,I1*%
%TO.N,Net-(U2-I1)*%
X205501824Y-61419772D03*
D18*
%TO.P,U2,2,I2*%
%TO.N,Net-(U2-I2)*%
X205501824Y-63959772D03*
%TO.P,U2,3,I3*%
%TO.N,Net-(U2-I3)*%
X205501824Y-66499772D03*
%TO.P,U2,4,I4*%
%TO.N,Net-(U2-I4)*%
X205501824Y-69039772D03*
%TO.P,U2,5,I5*%
%TO.N,Net-(U2-I5)*%
X205501824Y-71579772D03*
%TO.P,U2,6,I6*%
%TO.N,Net-(U2-I6)*%
X205501824Y-74119772D03*
%TO.P,U2,7,I7*%
%TO.N,Net-(U2-I7)*%
X205501824Y-76659772D03*
%TO.P,U2,8,I8*%
%TO.N,Net-(U2-I8)*%
X205501824Y-79199772D03*
%TO.P,U2,9,GND*%
%TO.N,GND*%
X205501824Y-81739772D03*
%TO.P,U2,10,COM*%
%TO.N,unconnected-(U2-COM-Pad10)*%
X213121824Y-81739772D03*
%TO.P,U2,11,O8*%
%TO.N,Net-(U2-O8)*%
X213121824Y-79199772D03*
%TO.P,U2,12,O7*%
%TO.N,Net-(U2-O7)*%
X213121824Y-76659772D03*
%TO.P,U2,13,O6*%
%TO.N,Net-(U2-O6)*%
X213121824Y-74119772D03*
%TO.P,U2,14,O5*%
%TO.N,Net-(U2-O5)*%
X213121824Y-71579772D03*
%TO.P,U2,15,O4*%
%TO.N,Net-(U2-O4)*%
X213121824Y-69039772D03*
%TO.P,U2,16,O3*%
%TO.N,Net-(U2-O3)*%
X213121824Y-66499772D03*
%TO.P,U2,17,O2*%
%TO.N,Net-(U2-O2)*%
X213121824Y-63959772D03*
%TO.P,U2,18,O1*%
%TO.N,Net-(U2-O1)*%
X213121824Y-61419772D03*
%TD*%
D13*
%TO.P,R10,1*%
%TO.N,Net-(U2-O7)*%
X218037500Y-85550000D03*
%TO.P,R10,2*%
%TO.N,Net-(J6-Pin_2)*%
X223962500Y-85550000D03*
%TD*%
D19*
%TO.P,J6,1,Pin_1*%
%TO.N,GND*%
X188000000Y-55000000D03*
D20*
%TO.P,J6,2,Pin_2*%
%TO.N,Net-(J6-Pin_2)*%
X190500000Y-55000000D03*
%TD*%
D19*
%TO.P,J1,1,Pin_1*%
%TO.N,/12V*%
X127000000Y-55000000D03*
D20*
%TO.P,J1,2,Pin_2*%
%TO.N,GND*%
X129500000Y-55000000D03*
%TD*%
D21*
%TO.P,U1,1,I1*%
%TO.N,Net-(A1-A4)*%
X169260000Y-81620000D03*
D18*
%TO.P,U1,2,I2*%
%TO.N,Net-(A1-A3)*%
X171800000Y-81620000D03*
%TO.P,U1,3,I3*%
%TO.N,Net-(A1-A2)*%
X174340000Y-81620000D03*
%TO.P,U1,4,I4*%
%TO.N,Net-(A1-A1)*%
X176880000Y-81620000D03*
%TO.P,U1,5,I5*%
%TO.N,Net-(A1-A0)*%
X179420000Y-81620000D03*
%TO.P,U1,6,I6*%
%TO.N,unconnected-(U1-I6-Pad6)*%
X181960000Y-81620000D03*
%TO.P,U1,7,I7*%
%TO.N,unconnected-(U1-I7-Pad7)*%
X184500000Y-81620000D03*
%TO.P,U1,8,I8*%
%TO.N,unconnected-(U1-I8-Pad8)*%
X187040000Y-81620000D03*
%TO.P,U1,9,GND*%
%TO.N,GND*%
X189580000Y-81620000D03*
%TO.P,U1,10,COM*%
%TO.N,unconnected-(U1-COM-Pad10)*%
X189580000Y-74000000D03*
%TO.P,U1,11,O8*%
%TO.N,unconnected-(U1-O8-Pad11)*%
X187040000Y-74000000D03*
%TO.P,U1,12,O7*%
%TO.N,unconnected-(U1-O7-Pad12)*%
X184500000Y-74000000D03*
%TO.P,U1,13,O6*%
%TO.N,unconnected-(U1-O6-Pad13)*%
X181960000Y-74000000D03*
%TO.P,U1,14,O5*%
%TO.N,Net-(J2-Pin_5)*%
X179420000Y-74000000D03*
%TO.P,U1,15,O4*%
%TO.N,Net-(J2-Pin_4)*%
X176880000Y-74000000D03*
%TO.P,U1,16,O3*%
%TO.N,Net-(Q3-G)*%
X174340000Y-74000000D03*
%TO.P,U1,17,O2*%
%TO.N,Net-(Q2-G)*%
X171800000Y-74000000D03*
%TO.P,U1,18,O1*%
%TO.N,Net-(Q1-G)*%
X169260000Y-74000000D03*
%TD*%
D13*
%TO.P,R8,1*%
%TO.N,Net-(U2-O5)*%
X218037500Y-75730000D03*
%TO.P,R8,2*%
%TO.N,Net-(J6-Pin_2)*%
X223962500Y-75730000D03*
%TD*%
D22*
%TO.P,A1,1,D1/TX*%
%TO.N,unconnected-(A1-D1{slash}TX-Pad1)*%
X161660000Y-66500000D03*
D23*
%TO.P,A1,2,D0/RX*%
%TO.N,unconnected-(A1-D0{slash}RX-Pad2)*%
X159120000Y-66500000D03*
%TO.P,A1,3,~{RESET}*%
%TO.N,unconnected-(A1-~{RESET}-Pad3)*%
X156580000Y-66500000D03*
%TO.P,A1,4,GND*%
%TO.N,GND*%
X154040000Y-66500000D03*
%TO.P,A1,5,D2*%
%TO.N,/CAN_INT*%
X151500000Y-66500000D03*
%TO.P,A1,6,D3*%
%TO.N,/Serial Data*%
X148960000Y-66500000D03*
%TO.P,A1,7,D4*%
%TO.N,/Latch Clock*%
X146420000Y-66500000D03*
%TO.P,A1,8,D5*%
%TO.N,/Shift Clock*%
X143880000Y-66500000D03*
%TO.P,A1,9,D6*%
%TO.N,/Master Reset*%
X141340000Y-66500000D03*
%TO.P,A1,10,D7*%
%TO.N,unconnected-(A1-D7-Pad10)*%
X138800000Y-66500000D03*
%TO.P,A1,11,D8*%
%TO.N,/CAN_CS_C*%
X136260000Y-66500000D03*
%TO.P,A1,12,D9*%
%TO.N,unconnected-(A1-D9-Pad12)*%
X133720000Y-66500000D03*
%TO.P,A1,13,D10*%
%TO.N,unconnected-(A1-D10-Pad13)*%
X131180000Y-66500000D03*
%TO.P,A1,14,D11*%
%TO.N,/MOSI*%
X128640000Y-66500000D03*
%TO.P,A1,15,D12*%
%TO.N,/MISO*%
X126100000Y-66500000D03*
%TO.P,A1,16,D13*%
%TO.N,/SCK*%
X126100000Y-81740000D03*
%TO.P,A1,17,3V3*%
%TO.N,unconnected-(A1-3V3-Pad17)*%
X128640000Y-81740000D03*
%TO.P,A1,18,AREF*%
%TO.N,unconnected-(A1-AREF-Pad18)*%
X131180000Y-81740000D03*
%TO.P,A1,19,A0*%
%TO.N,Net-(A1-A0)*%
X133720000Y-81740000D03*
%TO.P,A1,20,A1*%
%TO.N,Net-(A1-A1)*%
X136260000Y-81740000D03*
%TO.P,A1,21,A2*%
%TO.N,Net-(A1-A2)*%
X138800000Y-81740000D03*
%TO.P,A1,22,A3*%
%TO.N,Net-(A1-A3)*%
X141340000Y-81740000D03*
%TO.P,A1,23,A4*%
%TO.N,Net-(A1-A4)*%
X143880000Y-81740000D03*
%TO.P,A1,24,A5*%
%TO.N,unconnected-(A1-A5-Pad24)*%
X146420000Y-81740000D03*
%TO.P,A1,25,A6*%
%TO.N,unconnected-(A1-A6-Pad25)*%
X148960000Y-81740000D03*
%TO.P,A1,26,A7*%
%TO.N,unconnected-(A1-A7-Pad26)*%
X151500000Y-81740000D03*
%TO.P,A1,27,+5V*%
%TO.N,+5V*%
X154040000Y-81740000D03*
%TO.P,A1,28,~{RESET}*%
%TO.N,unconnected-(A1-~{RESET}-Pad28)*%
X156580000Y-81740000D03*
%TO.P,A1,29,GND*%
%TO.N,GND*%
X159120000Y-81740000D03*
%TO.P,A1,30,VIN*%
%TO.N,unconnected-(A1-VIN-Pad30)*%
X161660000Y-81740000D03*
%TD*%
D13*
%TO.P,R11,1*%
%TO.N,Net-(U2-O8)*%
X218037500Y-90460000D03*
%TO.P,R11,2*%
%TO.N,Net-(J6-Pin_2)*%
X223962500Y-90460000D03*
%TD*%
D19*
%TO.P,J4,1,Pin_1*%
%TO.N,/C-CAN_P*%
X137000000Y-55000000D03*
D20*
%TO.P,J4,2,Pin_2*%
%TO.N,/C-CAN_N*%
X139500000Y-55000000D03*
%TD*%
D24*
%TO.P,Q2,1,D*%
%TO.N,Net-(J2-Pin_2)*%
X149960000Y-55360000D03*
D25*
%TO.P,Q2,2,G*%
%TO.N,Net-(Q2-G)*%
X151230000Y-55360000D03*
%TO.P,Q2,3,S*%
%TO.N,/12V*%
X152500000Y-55360000D03*
%TD*%
D10*
%TO.P,J5,1,Pin_1*%
%TO.N,+5V*%
X123116614Y-92306195D03*
D11*
%TO.P,J5,2,Pin_2*%
%TO.N,GND*%
X123116614Y-94846195D03*
%TO.P,J5,3,Pin_3*%
%TO.N,/CAN_CS_C*%
X123116614Y-97386195D03*
%TO.P,J5,4,Pin_4*%
%TO.N,/MISO*%
X123116614Y-99926195D03*
%TO.P,J5,5,Pin_5*%
%TO.N,/MOSI*%
X123116614Y-102466195D03*
%TO.P,J5,6,Pin_6*%
%TO.N,/SCK*%
X123116614Y-105006195D03*
%TO.P,J5,7,Pin_7*%
%TO.N,/CAN_INT*%
X123116614Y-107546195D03*
%TD*%
D26*
%TO.P,J2,1,Pin_1*%
%TO.N,Net-(J2-Pin_1)*%
X169500000Y-55000000D03*
D27*
%TO.P,J2,2,Pin_2*%
%TO.N,Net-(J2-Pin_2)*%
X172000000Y-55000000D03*
%TO.P,J2,3,Pin_3*%
%TO.N,Net-(J2-Pin_3)*%
X174500000Y-55000000D03*
%TO.P,J2,4,Pin_4*%
%TO.N,Net-(J2-Pin_4)*%
X177000000Y-55000000D03*
%TO.P,J2,5,Pin_5*%
%TO.N,Net-(J2-Pin_5)*%
X179500000Y-55000000D03*
%TD*%
D13*
%TO.P,R5,1*%
%TO.N,Net-(U2-O2)*%
X218037500Y-61000000D03*
%TO.P,R5,2*%
%TO.N,Net-(J6-Pin_2)*%
X223962500Y-61000000D03*
%TD*%
D24*
%TO.P,Q3,1,D*%
%TO.N,Net-(J2-Pin_3)*%
X155730000Y-55360000D03*
D25*
%TO.P,Q3,2,G*%
%TO.N,Net-(Q3-G)*%
X157000000Y-55360000D03*
%TO.P,Q3,3,S*%
%TO.N,/12V*%
X158270000Y-55360000D03*
%TD*%
D13*
%TO.P,R6,1*%
%TO.N,Net-(U2-O3)*%
X218037500Y-65910000D03*
%TO.P,R6,2*%
%TO.N,Net-(J6-Pin_2)*%
X223962500Y-65910000D03*
%TD*%
D28*
%TO.P,R2,1*%
%TO.N,/12V*%
X152055000Y-59500000D03*
%TO.P,R2,2*%
%TO.N,Net-(Q2-G)*%
X150405000Y-59500000D03*
%TD*%
D29*
%TO.P,U3,1,QB*%
%TO.N,Net-(U2-I7)*%
X202000000Y-79200000D03*
D18*
%TO.P,U3,2,QC*%
%TO.N,Net-(U2-I6)*%
X202000000Y-76660000D03*
%TO.P,U3,3,QD*%
%TO.N,Net-(U2-I5)*%
X202000000Y-74120000D03*
%TO.P,U3,4,QE*%
%TO.N,Net-(U2-I4)*%
X202000000Y-71580000D03*
%TO.P,U3,5,QF*%
%TO.N,Net-(U2-I3)*%
X202000000Y-69040000D03*
%TO.P,U3,6,QG*%
%TO.N,Net-(U2-I2)*%
X202000000Y-66500000D03*
%TO.P,U3,7,QH*%
%TO.N,Net-(U2-I1)*%
X202000000Y-63960000D03*
%TO.P,U3,8,GND*%
%TO.N,GND*%
X202000000Y-61420000D03*
%TO.P,U3,9,QH'*%
%TO.N,unconnected-(U3-QH'-Pad9)*%
X194380000Y-61420000D03*
%TO.P,U3,10,~{SRCLR}*%
%TO.N,/Master Reset*%
X194380000Y-63960000D03*
%TO.P,U3,11,SRCLK*%
%TO.N,/Shift Clock*%
X194380000Y-66500000D03*
%TO.P,U3,12,RCLK*%
%TO.N,/Latch Clock*%
X194380000Y-69040000D03*
%TO.P,U3,13,~{OE}*%
%TO.N,GND*%
X194380000Y-71580000D03*
%TO.P,U3,14,SER*%
%TO.N,/Serial Data*%
X194380000Y-74120000D03*
%TO.P,U3,15,QA*%
%TO.N,Net-(U2-I8)*%
X194380000Y-76660000D03*
%TO.P,U3,16,VCC*%
%TO.N,+5V*%
X194380000Y-79200000D03*
%TD*%
D28*
%TO.P,R3,1*%
%TO.N,/12V*%
X157825000Y-59500000D03*
%TO.P,R3,2*%
%TO.N,Net-(Q3-G)*%
X156175000Y-59500000D03*
%TD*%
D30*
%TO.N,/CAN_CS_C*%
X123500000Y-89000000D03*
%TO.N,/CAN_INT*%
X130250000Y-76500000D03*
X149750000Y-64500000D03*
X119750000Y-80500000D03*
%TO.N,/Latch Clock*%
X146500000Y-74500000D03*
%TO.N,/SCK*%
X120500000Y-86500000D03*
%TO.N,/Serial Data*%
X151500000Y-77500000D03*
%TO.N,/Shift Clock*%
X143995735Y-70004265D03*
%TO.N,Net-(J2-Pin_1)*%
X174000000Y-65500000D03*
%TO.N,Net-(Q2-G)*%
X170750000Y-69750000D03*
%TO.N,Net-(Q3-G)*%
X171489106Y-69443852D03*
%TO.N,/C-CAN_P*%
X163250000Y-65175000D03*
X149750000Y-62675000D03*
X163825000Y-74975000D03*
%TO.N,/C-CAN_N*%
X164675000Y-74975000D03*
X163250000Y-64325000D03*
X149750000Y-61825000D03*
%TD*%
D31*
%TO.N,+5V*%
X123116614Y-92306195D02*
X143473805Y-92306195D01*
D32*
X123116614Y-92306195D02*
X123193805Y-92306195D01*
X193225000Y-83000000D02*
X155300000Y-83000000D01*
X194380000Y-79200000D02*
X194380000Y-81845000D01*
D31*
X143473805Y-92306195D02*
X154040000Y-81740000D01*
D32*
X194380000Y-81845000D02*
X194225000Y-82000000D01*
X194225000Y-82000000D02*
X193225000Y-83000000D01*
X155300000Y-83000000D02*
X154040000Y-81740000D01*
X123193805Y-92306195D02*
X123267610Y-92380000D01*
%TO.N,/MOSI*%
X123190419Y-102540000D02*
X123116614Y-102466195D01*
X121564614Y-100914195D02*
X123116614Y-102466195D01*
X121564614Y-69478336D02*
X121564614Y-100914195D01*
X125643950Y-65399000D02*
X121564614Y-69478336D01*
X127539000Y-65399000D02*
X125643950Y-65399000D01*
X128640000Y-66500000D02*
X127539000Y-65399000D01*
%TO.N,/CAN_CS_C*%
X123500000Y-79260000D02*
X123500000Y-89000000D01*
X136260000Y-66500000D02*
X123500000Y-79260000D01*
%TO.N,/Master Reset*%
X191826000Y-74174000D02*
X190000000Y-76000000D01*
X150840000Y-76000000D02*
X141340000Y-66500000D01*
X191826000Y-66514000D02*
X191826000Y-74174000D01*
X194380000Y-63960000D02*
X191826000Y-66514000D01*
X190000000Y-76000000D02*
X150840000Y-76000000D01*
%TO.N,Net-(A1-A0)*%
X136960000Y-78500000D02*
X176300000Y-78500000D01*
X133720000Y-81740000D02*
X136960000Y-78500000D01*
X176300000Y-78500000D02*
X179420000Y-81620000D01*
%TO.N,Net-(A1-A3)*%
X141340000Y-81740000D02*
X143080000Y-80000000D01*
X143080000Y-80000000D02*
X170180000Y-80000000D01*
X170180000Y-80000000D02*
X171800000Y-81620000D01*
%TO.N,/MISO*%
X123190419Y-100000000D02*
X123116614Y-99926195D01*
X121965614Y-98775195D02*
X123116614Y-99926195D01*
X121965614Y-70634386D02*
X121965614Y-98775195D01*
X126100000Y-66500000D02*
X121965614Y-70634386D01*
%TO.N,/CAN_INT*%
X123116614Y-107546195D02*
X119750000Y-104179581D01*
X130250000Y-76500000D02*
X137699000Y-69051000D01*
X137699000Y-69051000D02*
X137699000Y-66043950D01*
X119750000Y-104179581D02*
X119750000Y-80500000D01*
X139242950Y-64500000D02*
X149750000Y-64500000D01*
X137699000Y-66043950D02*
X139242950Y-64500000D01*
X123190419Y-107620000D02*
X123116614Y-107546195D01*
%TO.N,/Latch Clock*%
X148802000Y-76802000D02*
X146500000Y-74500000D01*
X194380000Y-69040000D02*
X192628000Y-70792000D01*
X192628000Y-74506200D02*
X190332200Y-76802000D01*
X192628000Y-70792000D02*
X192628000Y-74506200D01*
X190332200Y-76802000D02*
X148802000Y-76802000D01*
%TO.N,/SCK*%
X123116614Y-105006195D02*
X120500000Y-102389581D01*
X120500000Y-102389581D02*
X120500000Y-86500000D01*
X123190419Y-105080000D02*
X123116614Y-105006195D01*
%TO.N,Net-(A1-A1)*%
X139000000Y-79000000D02*
X174260000Y-79000000D01*
X174260000Y-79000000D02*
X176880000Y-81620000D01*
X136260000Y-81740000D02*
X139000000Y-79000000D01*
%TO.N,/Serial Data*%
X151500000Y-77500000D02*
X191000000Y-77500000D01*
X191000000Y-77500000D02*
X194380000Y-74120000D01*
%TO.N,/Shift Clock*%
X150392470Y-76401000D02*
X143995735Y-70004265D01*
X190166100Y-76401000D02*
X150392470Y-76401000D01*
X192227000Y-74340100D02*
X190166100Y-76401000D01*
X192227000Y-68653000D02*
X192227000Y-74340100D01*
X194380000Y-66500000D02*
X192227000Y-68653000D01*
%TO.N,Net-(A1-A2)*%
X141040000Y-79500000D02*
X172220000Y-79500000D01*
X138800000Y-81740000D02*
X141040000Y-79500000D01*
X172220000Y-79500000D02*
X174340000Y-81620000D01*
%TO.N,Net-(J2-Pin_2)*%
X170724000Y-53724000D02*
X172000000Y-55000000D01*
X151371000Y-53724000D02*
X170724000Y-53724000D01*
X149960000Y-55360000D02*
X149960000Y-55135000D01*
X149960000Y-55135000D02*
X151371000Y-53724000D01*
%TO.N,Net-(Q1-G)*%
X189715000Y-66825000D02*
X188000000Y-68540000D01*
X169260000Y-70240000D02*
X169260000Y-74000000D01*
X170960000Y-68540000D02*
X169260000Y-70240000D01*
X188000000Y-68540000D02*
X170960000Y-68540000D01*
X191050000Y-66825000D02*
X189715000Y-66825000D01*
D31*
%TO.N,Net-(J2-Pin_1)*%
X188000000Y-66000000D02*
X174500000Y-66000000D01*
X174500000Y-66000000D02*
X174000000Y-65500000D01*
%TO.N,Net-(U2-O1)*%
X218037500Y-56504096D02*
X218037500Y-56090000D01*
X213121824Y-61419772D02*
X218037500Y-56504096D01*
%TO.N,/12V*%
X159250000Y-63460000D02*
X158750000Y-63460000D01*
D32*
X191050000Y-65175000D02*
X189715000Y-65175000D01*
X152055000Y-62265000D02*
X153250000Y-63460000D01*
X157825000Y-59500000D02*
X157825000Y-55805000D01*
X157825000Y-55805000D02*
X158270000Y-55360000D01*
D31*
X158750000Y-63460000D02*
X153250000Y-63460000D01*
D32*
X152055000Y-59500000D02*
X152055000Y-62265000D01*
X152055000Y-55805000D02*
X152500000Y-55360000D01*
D31*
X128960000Y-63460000D02*
X127000000Y-61500000D01*
D32*
X157825000Y-59500000D02*
X157825000Y-62035000D01*
X189715000Y-65175000D02*
X188000000Y-63460000D01*
X152055000Y-59500000D02*
X152055000Y-55805000D01*
X157825000Y-62035000D02*
X159250000Y-63460000D01*
D31*
X153250000Y-63460000D02*
X128960000Y-63460000D01*
X127000000Y-61500000D02*
X127000000Y-55000000D01*
X164750000Y-63460000D02*
X159250000Y-63460000D01*
X188000000Y-63460000D02*
X164750000Y-63460000D01*
%TO.N,Net-(U2-O2)*%
X215077728Y-63959772D02*
X218037500Y-61000000D01*
X213121824Y-63959772D02*
X215077728Y-63959772D01*
%TO.N,Net-(U2-O3)*%
X213121824Y-66499772D02*
X217447728Y-66499772D01*
X217447728Y-66499772D02*
X218037500Y-65910000D01*
%TO.N,Net-(U2-O4)*%
X216257272Y-69039772D02*
X218037500Y-70820000D01*
X213121824Y-69039772D02*
X216257272Y-69039772D01*
%TO.N,Net-(U2-O5)*%
X213121824Y-71579772D02*
X217272052Y-75730000D01*
D32*
X217272052Y-75730000D02*
X218037500Y-75730000D01*
X213887272Y-71579772D02*
X213121824Y-71579772D01*
D31*
%TO.N,Net-(U2-O6)*%
X213121824Y-74119772D02*
X218037500Y-79035448D01*
X218037500Y-79035448D02*
X218037500Y-80640000D01*
%TO.N,Net-(U2-O7)*%
X213121824Y-76659772D02*
X214322824Y-77860772D01*
X214322824Y-77860772D02*
X214322824Y-81835324D01*
X214322824Y-81835324D02*
X218037500Y-85550000D01*
%TO.N,Net-(U2-O8)*%
X213121824Y-79199772D02*
X211920824Y-80400772D01*
X211920824Y-84343324D02*
X218037500Y-90460000D01*
X211920824Y-80400772D02*
X211920824Y-84343324D01*
D32*
%TO.N,Net-(U2-I7)*%
X202000000Y-79200000D02*
X202961596Y-79200000D01*
X202961596Y-79200000D02*
X205501824Y-76659772D01*
%TO.N,Net-(U2-I2)*%
X202000000Y-66500000D02*
X204540228Y-63959772D01*
X204540228Y-63959772D02*
X205501824Y-63959772D01*
%TO.N,Net-(U2-I8)*%
X194380000Y-76660000D02*
X198021000Y-80301000D01*
X204400596Y-80301000D02*
X205501824Y-79199772D01*
X198021000Y-80301000D02*
X204400596Y-80301000D01*
%TO.N,Net-(U2-I5)*%
X204540228Y-71579772D02*
X205501824Y-71579772D01*
X202000000Y-74120000D02*
X204540228Y-71579772D01*
%TO.N,Net-(U2-I6)*%
X202000000Y-76660000D02*
X204540228Y-74119772D01*
X204540228Y-74119772D02*
X205501824Y-74119772D01*
%TO.N,Net-(U2-I3)*%
X204540228Y-66499772D02*
X205501824Y-66499772D01*
X202000000Y-69040000D02*
X204540228Y-66499772D01*
%TO.N,Net-(U2-I4)*%
X204540228Y-69039772D02*
X205501824Y-69039772D01*
X202000000Y-71580000D02*
X204540228Y-69039772D01*
%TO.N,Net-(U2-I1)*%
X202000000Y-63960000D02*
X204540228Y-61419772D01*
X204540228Y-61419772D02*
X205501824Y-61419772D01*
%TO.N,Net-(A1-A4)*%
X144981000Y-80639000D02*
X168279000Y-80639000D01*
X143880000Y-81740000D02*
X144981000Y-80639000D01*
X168279000Y-80639000D02*
X169260000Y-81620000D01*
%TO.N,Net-(Q2-G)*%
X151230000Y-58675000D02*
X150405000Y-59500000D01*
X151230000Y-55360000D02*
X151230000Y-58675000D01*
X171800000Y-74000000D02*
X171800000Y-70800000D01*
X171800000Y-70800000D02*
X170750000Y-69750000D01*
%TO.N,Net-(Q3-G)*%
X156175000Y-59500000D02*
X157000000Y-58675000D01*
X174340000Y-72294746D02*
X171489106Y-69443852D01*
X157000000Y-58675000D02*
X157000000Y-55360000D01*
X174340000Y-74000000D02*
X174340000Y-72294746D01*
%TO.N,/C-CAN_P*%
X163463603Y-65175000D02*
X164024999Y-65736396D01*
X164024999Y-65736396D02*
X164024999Y-74775001D01*
X144475000Y-62475000D02*
X147000000Y-62475000D01*
X163250000Y-65175000D02*
X163463603Y-65175000D01*
X164024999Y-74775001D02*
X163825000Y-74975000D01*
X147000001Y-62475001D02*
X149550001Y-62475001D01*
X147000000Y-62475000D02*
X147000001Y-62475001D01*
X149550001Y-62475001D02*
X149750000Y-62675000D01*
X137000000Y-55000000D02*
X144475000Y-62475000D01*
%TO.N,/C-CAN_N*%
X147000001Y-62024999D02*
X149550001Y-62024999D01*
X147000000Y-62025000D02*
X147000001Y-62024999D01*
X164475001Y-65550001D02*
X164475001Y-74775001D01*
X149550001Y-62024999D02*
X149750000Y-61825000D01*
X139500000Y-56863603D02*
X144661397Y-62025000D01*
X144661397Y-62025000D02*
X147000000Y-62025000D01*
X163250000Y-64325000D02*
X164475001Y-65550001D01*
X139500000Y-55000000D02*
X139500000Y-56863603D01*
X164475001Y-74775001D02*
X164675000Y-74975000D01*
D31*
%TO.N,Net-(J6-Pin_2)*%
X223962500Y-65910000D02*
X223962500Y-70820000D01*
X223962500Y-70820000D02*
X223962500Y-75730000D01*
X223962500Y-56090000D02*
X223962500Y-61000000D01*
X223962500Y-80640000D02*
X223962500Y-85550000D01*
X223962500Y-75730000D02*
X223962500Y-80640000D01*
X223962500Y-85550000D02*
X223962500Y-90460000D01*
X190500000Y-54500000D02*
X193000000Y-52000000D01*
X223962500Y-53962500D02*
X222000000Y-52000000D01*
D32*
X190500000Y-55000000D02*
X190500000Y-54500000D01*
D31*
X223962500Y-61000000D02*
X223962500Y-65910000D01*
X222000000Y-52000000D02*
X193000000Y-52000000D01*
X223962500Y-53962500D02*
X223962500Y-56090000D01*
%TD*%
%TA.AperFunction,Conductor*%
%TO.N,GND*%
G36*
X226942539Y-50520185D02*
G01*
X226988294Y-50572989D01*
X226999500Y-50624500D01*
X226999500Y-113375500D01*
X226979815Y-113442539D01*
X226927011Y-113488294D01*
X226875500Y-113499500D01*
X119124500Y-113499500D01*
X119057461Y-113479815D01*
X119011706Y-113427011D01*
X119000500Y-113375500D01*
X119000500Y-104545183D01*
X119020185Y-104478144D01*
X119072989Y-104432389D01*
X119142147Y-104422445D01*
X119205703Y-104451470D01*
X119231885Y-104483180D01*
X119254108Y-104521671D01*
X119269479Y-104548296D01*
X119388349Y-104667166D01*
X119388355Y-104667171D01*
X121782855Y-107061671D01*
X121816340Y-107122994D01*
X121813106Y-107187668D01*
X121799367Y-107229952D01*
X121766114Y-107439908D01*
X121766114Y-107652481D01*
X121799367Y-107862434D01*
X121865058Y-108064609D01*
X121961565Y-108254015D01*
X122086504Y-108425981D01*
X122236827Y-108576304D01*
X122408793Y-108701243D01*
X122408795Y-108701244D01*
X122408798Y-108701246D01*
X122598202Y-108797752D01*
X122800371Y-108863441D01*
X123010327Y-108896695D01*
X123010328Y-108896695D01*
X123222900Y-108896695D01*
X123222901Y-108896695D01*
X123432857Y-108863441D01*
X123635026Y-108797752D01*
X123824430Y-108701246D01*
X123846403Y-108685281D01*
X123996400Y-108576304D01*
X123996402Y-108576301D01*
X123996406Y-108576299D01*
X124146718Y-108425987D01*
X124146720Y-108425983D01*
X124146723Y-108425981D01*
X124271662Y-108254015D01*
X124271661Y-108254015D01*
X124271665Y-108254011D01*
X124368171Y-108064607D01*
X124433860Y-107862438D01*
X124467114Y-107652482D01*
X124467114Y-107439908D01*
X124433860Y-107229952D01*
X124368171Y-107027783D01*
X124271665Y-106838379D01*
X124271663Y-106838376D01*
X124271662Y-106838374D01*
X124146723Y-106666408D01*
X123996400Y-106516085D01*
X123824434Y-106391146D01*
X123823729Y-106390786D01*
X123815668Y-106386680D01*
X123764873Y-106338707D01*
X123748077Y-106270887D01*
X123770613Y-106204751D01*
X123815668Y-106165710D01*
X123824430Y-106161246D01*
X123846403Y-106145281D01*
X123996400Y-106036304D01*
X123996402Y-106036301D01*
X123996406Y-106036299D01*
X124146718Y-105885987D01*
X124146720Y-105885983D01*
X124146723Y-105885981D01*
X124271662Y-105714015D01*
X124271661Y-105714015D01*
X124271665Y-105714011D01*
X124368171Y-105524607D01*
X124433860Y-105322438D01*
X124467114Y-105112482D01*
X124467114Y-104899908D01*
X124433860Y-104689952D01*
X124368171Y-104487783D01*
X124271665Y-104298379D01*
X124271663Y-104298376D01*
X124271662Y-104298374D01*
X124146723Y-104126408D01*
X123996400Y-103976085D01*
X123824434Y-103851146D01*
X123823729Y-103850786D01*
X123815668Y-103846680D01*
X123764873Y-103798707D01*
X123748077Y-103730887D01*
X123770613Y-103664751D01*
X123815668Y-103625710D01*
X123824430Y-103621246D01*
X123846403Y-103605281D01*
X123996400Y-103496304D01*
X123996402Y-103496301D01*
X123996406Y-103496299D01*
X124146718Y-103345987D01*
X124146720Y-103345983D01*
X124146723Y-103345981D01*
X124271662Y-103174015D01*
X124271661Y-103174015D01*
X124271665Y-103174011D01*
X124368171Y-102984607D01*
X124433860Y-102782438D01*
X124467114Y-102572482D01*
X124467114Y-102359908D01*
X124433860Y-102149952D01*
X124368171Y-101947783D01*
X124271665Y-101758379D01*
X124271663Y-101758376D01*
X124271662Y-101758374D01*
X124146723Y-101586408D01*
X123996400Y-101436085D01*
X123824434Y-101311146D01*
X123823729Y-101310786D01*
X123815668Y-101306680D01*
X123764873Y-101258707D01*
X123748077Y-101190887D01*
X123770613Y-101124751D01*
X123815668Y-101085710D01*
X123824430Y-101081246D01*
X123846403Y-101065281D01*
X123996400Y-100956304D01*
X123996402Y-100956301D01*
X123996406Y-100956299D01*
X124146718Y-100805987D01*
X124146720Y-100805983D01*
X124146723Y-100805981D01*
X124271662Y-100634015D01*
X124271661Y-100634015D01*
X124271665Y-100634011D01*
X124368171Y-100444607D01*
X124433860Y-100242438D01*
X124467114Y-100032482D01*
X124467114Y-99819908D01*
X124433860Y-99609952D01*
X124368171Y-99407783D01*
X124271665Y-99218379D01*
X124271663Y-99218376D01*
X124271662Y-99218374D01*
X124146723Y-99046408D01*
X123996400Y-98896085D01*
X123824434Y-98771146D01*
X123823729Y-98770786D01*
X123815668Y-98766680D01*
X123764873Y-98718707D01*
X123748077Y-98650887D01*
X123770613Y-98584751D01*
X123815668Y-98545710D01*
X123824430Y-98541246D01*
X123846403Y-98525281D01*
X123996400Y-98416304D01*
X123996402Y-98416301D01*
X123996406Y-98416299D01*
X124146718Y-98265987D01*
X124146720Y-98265983D01*
X124146723Y-98265981D01*
X124271662Y-98094015D01*
X124271661Y-98094015D01*
X124271665Y-98094011D01*
X124355596Y-97929287D01*
X150252825Y-97929287D01*
X150252825Y-99725022D01*
X150252826Y-99725028D01*
X150259233Y-99784635D01*
X150309527Y-99919480D01*
X150309531Y-99919487D01*
X150395777Y-100034696D01*
X150395780Y-100034699D01*
X150510989Y-100120945D01*
X150510996Y-100120949D01*
X150642407Y-100169962D01*
X150698341Y-100211833D01*
X150722758Y-100277297D01*
X150707907Y-100345570D01*
X150686756Y-100373825D01*
X150573214Y-100487367D01*
X150448276Y-100659331D01*
X150351769Y-100848737D01*
X150286078Y-101050912D01*
X150263068Y-101196195D01*
X150252825Y-101260865D01*
X150252825Y-101473439D01*
X150286079Y-101683395D01*
X150310441Y-101758374D01*
X150351769Y-101885566D01*
X150448276Y-102074972D01*
X150573215Y-102246938D01*
X150723538Y-102397261D01*
X150895504Y-102522200D01*
X150895506Y-102522201D01*
X150895509Y-102522203D01*
X151084913Y-102618709D01*
X151287082Y-102684398D01*
X151497038Y-102717652D01*
X151497039Y-102717652D01*
X151709611Y-102717652D01*
X151709612Y-102717652D01*
X151919568Y-102684398D01*
X152121737Y-102618709D01*
X152311141Y-102522203D01*
X152333114Y-102506238D01*
X152483111Y-102397261D01*
X152483113Y-102397258D01*
X152483117Y-102397256D01*
X152633429Y-102246944D01*
X152633431Y-102246940D01*
X152633434Y-102246938D01*
X152758373Y-102074972D01*
X152758372Y-102074972D01*
X152758376Y-102074968D01*
X152854882Y-101885564D01*
X152920571Y-101683395D01*
X152953825Y-101473439D01*
X152953825Y-101260865D01*
X152920571Y-101050909D01*
X152854882Y-100848740D01*
X152758376Y-100659336D01*
X152758374Y-100659333D01*
X152758373Y-100659331D01*
X152633434Y-100487365D01*
X152519894Y-100373825D01*
X152486409Y-100312502D01*
X152491393Y-100242810D01*
X152533265Y-100186877D01*
X152564240Y-100169962D01*
X152695656Y-100120948D01*
X152810871Y-100034698D01*
X152897121Y-99919483D01*
X152947416Y-99784635D01*
X152953825Y-99725025D01*
X152953824Y-97929280D01*
X152947416Y-97869669D01*
X152897121Y-97734821D01*
X152897120Y-97734820D01*
X152897118Y-97734816D01*
X152810872Y-97619607D01*
X152810869Y-97619604D01*
X152695660Y-97533358D01*
X152695653Y-97533354D01*
X152560807Y-97483060D01*
X152560808Y-97483060D01*
X152501208Y-97476653D01*
X152501206Y-97476652D01*
X152501198Y-97476652D01*
X152501189Y-97476652D01*
X150705454Y-97476652D01*
X150705448Y-97476653D01*
X150645841Y-97483060D01*
X150510996Y-97533354D01*
X150510989Y-97533358D01*
X150395780Y-97619604D01*
X150395777Y-97619607D01*
X150309531Y-97734816D01*
X150309527Y-97734823D01*
X150259233Y-97869669D01*
X150252826Y-97929268D01*
X150252826Y-97929275D01*
X150252825Y-97929287D01*
X124355596Y-97929287D01*
X124368171Y-97904607D01*
X124379524Y-97869668D01*
X124423337Y-97734823D01*
X124433860Y-97702438D01*
X124467114Y-97492482D01*
X124467114Y-97279908D01*
X124433860Y-97069952D01*
X124368171Y-96867783D01*
X124271665Y-96678379D01*
X124271663Y-96678376D01*
X124271662Y-96678374D01*
X124146723Y-96506408D01*
X123996400Y-96356085D01*
X123824431Y-96231144D01*
X123815118Y-96226399D01*
X123764321Y-96178425D01*
X123747526Y-96110604D01*
X123770063Y-96044469D01*
X123815121Y-96005427D01*
X123824169Y-96000817D01*
X123878330Y-95961465D01*
X123878331Y-95961465D01*
X123246023Y-95329157D01*
X123309607Y-95312120D01*
X123423621Y-95246294D01*
X123516713Y-95153202D01*
X123582539Y-95039188D01*
X123599576Y-94975604D01*
X124231884Y-95607912D01*
X124231884Y-95607911D01*
X124271236Y-95553749D01*
X124367709Y-95364412D01*
X124433371Y-95162325D01*
X124433371Y-95162322D01*
X124466614Y-94952441D01*
X124466614Y-94739948D01*
X124433371Y-94530067D01*
X124433371Y-94530064D01*
X124367709Y-94327977D01*
X124271238Y-94138644D01*
X124231884Y-94084477D01*
X124231883Y-94084477D01*
X123599576Y-94716785D01*
X123582539Y-94653202D01*
X123516713Y-94539188D01*
X123423621Y-94446096D01*
X123309607Y-94380270D01*
X123246021Y-94363231D01*
X123916241Y-93693013D01*
X123977564Y-93659528D01*
X124003922Y-93656694D01*
X124014485Y-93656694D01*
X124014486Y-93656694D01*
X124074097Y-93650286D01*
X124208945Y-93599991D01*
X124324160Y-93513741D01*
X124410410Y-93398526D01*
X124460705Y-93263678D01*
X124467114Y-93204068D01*
X124467114Y-93130695D01*
X124486799Y-93063656D01*
X124539603Y-93017901D01*
X124591114Y-93006695D01*
X143542801Y-93006695D01*
X143633845Y-92988584D01*
X143678133Y-92979775D01*
X143741874Y-92953372D01*
X143805612Y-92926972D01*
X143805613Y-92926971D01*
X143805616Y-92926970D01*
X143920348Y-92850309D01*
X152358335Y-84412320D01*
X211220323Y-84412320D01*
X211247242Y-84547646D01*
X211247245Y-84547656D01*
X211300046Y-84675131D01*
X211376711Y-84789869D01*
X211376712Y-84789870D01*
X216888181Y-90301338D01*
X216921666Y-90362661D01*
X216924500Y-90389019D01*
X216924500Y-91935001D01*
X216924501Y-91935018D01*
X216935000Y-92037796D01*
X216935001Y-92037799D01*
X216990185Y-92204331D01*
X216990186Y-92204334D01*
X217082288Y-92353656D01*
X217206344Y-92477712D01*
X217355666Y-92569814D01*
X217522203Y-92624999D01*
X217624991Y-92635500D01*
X218450008Y-92635499D01*
X218450016Y-92635498D01*
X218450019Y-92635498D01*
X218506302Y-92629748D01*
X218552797Y-92624999D01*
X218719334Y-92569814D01*
X218868656Y-92477712D01*
X218992712Y-92353656D01*
X219084814Y-92204334D01*
X219139999Y-92037797D01*
X219150500Y-91935009D01*
X219150499Y-88984992D01*
X219139999Y-88882203D01*
X219084814Y-88715666D01*
X218992712Y-88566344D01*
X218868656Y-88442288D01*
X218719334Y-88350186D01*
X218552797Y-88295001D01*
X218552795Y-88295000D01*
X218450010Y-88284500D01*
X217624998Y-88284500D01*
X217624980Y-88284501D01*
X217522203Y-88295000D01*
X217522200Y-88295001D01*
X217355668Y-88350185D01*
X217355663Y-88350187D01*
X217206339Y-88442291D01*
X217196069Y-88452561D01*
X217134743Y-88486042D01*
X217065052Y-88481053D01*
X217020712Y-88452555D01*
X212657643Y-84089486D01*
X212624158Y-84028163D01*
X212621324Y-84001805D01*
X212621324Y-83115247D01*
X212641009Y-83048208D01*
X212693813Y-83002453D01*
X212762971Y-82992509D01*
X212783644Y-82997317D01*
X212817282Y-83008247D01*
X212817285Y-83008247D01*
X212817290Y-83008249D01*
X213019472Y-83040272D01*
X213019473Y-83040272D01*
X213224175Y-83040272D01*
X213224176Y-83040272D01*
X213426358Y-83008249D01*
X213621043Y-82944992D01*
X213803434Y-82852059D01*
X213938519Y-82753915D01*
X213969037Y-82731743D01*
X213969039Y-82731740D01*
X213969043Y-82731738D01*
X214011131Y-82689650D01*
X214072454Y-82656165D01*
X214142146Y-82661149D01*
X214186493Y-82689650D01*
X216888181Y-85391338D01*
X216921666Y-85452661D01*
X216924500Y-85479019D01*
X216924500Y-87025001D01*
X216924501Y-87025018D01*
X216935000Y-87127796D01*
X216935001Y-87127799D01*
X216990185Y-87294331D01*
X216990186Y-87294334D01*
X217082288Y-87443656D01*
X217206344Y-87567712D01*
X217355666Y-87659814D01*
X217522203Y-87714999D01*
X217624991Y-87725500D01*
X218450008Y-87725499D01*
X218450016Y-87725498D01*
X218450019Y-87725498D01*
X218528245Y-87717507D01*
X218552797Y-87714999D01*
X218719334Y-87659814D01*
X218868656Y-87567712D01*
X218992712Y-87443656D01*
X219084814Y-87294334D01*
X219139999Y-87127797D01*
X219150500Y-87025009D01*
X219150499Y-84074992D01*
X219139999Y-83972203D01*
X219084814Y-83805666D01*
X218992712Y-83656344D01*
X218868656Y-83532288D01*
X218719334Y-83440186D01*
X218552797Y-83385001D01*
X218552795Y-83385000D01*
X218450010Y-83374500D01*
X217624998Y-83374500D01*
X217624980Y-83374501D01*
X217522203Y-83385000D01*
X217522200Y-83385001D01*
X217355668Y-83440185D01*
X217355663Y-83440187D01*
X217206339Y-83532291D01*
X217196069Y-83542561D01*
X217134743Y-83576042D01*
X217065052Y-83571053D01*
X217020712Y-83542555D01*
X215059643Y-81581486D01*
X215026158Y-81520163D01*
X215023324Y-81493805D01*
X215023324Y-77791776D01*
X215023323Y-77791774D01*
X214996406Y-77656451D01*
X214996404Y-77656447D01*
X214996404Y-77656444D01*
X214994549Y-77651966D01*
X214958141Y-77564069D01*
X214943599Y-77528961D01*
X214943598Y-77528959D01*
X214943597Y-77528957D01*
X214866939Y-77414231D01*
X214855208Y-77402500D01*
X214769366Y-77316658D01*
X214438629Y-76985921D01*
X214437560Y-76983964D01*
X214435641Y-76982828D01*
X214420897Y-76953448D01*
X214405144Y-76924598D01*
X214404989Y-76921748D01*
X214404303Y-76920380D01*
X214404142Y-76906096D01*
X214403007Y-76885110D01*
X214403340Y-76881974D01*
X214422324Y-76762124D01*
X214422324Y-76703706D01*
X214423021Y-76697161D01*
X214433946Y-76670708D01*
X214442009Y-76643252D01*
X214447114Y-76638827D01*
X214449694Y-76632583D01*
X214473187Y-76616235D01*
X214494813Y-76597497D01*
X214501499Y-76596535D01*
X214507046Y-76592676D01*
X214535646Y-76591625D01*
X214563971Y-76587553D01*
X214570117Y-76590359D01*
X214576868Y-76590112D01*
X214601492Y-76604688D01*
X214627527Y-76616578D01*
X214634005Y-76622610D01*
X216915413Y-78904018D01*
X216948898Y-78965341D01*
X216945439Y-79030701D01*
X216935001Y-79062202D01*
X216924500Y-79164983D01*
X216924500Y-82115001D01*
X216924501Y-82115018D01*
X216935000Y-82217796D01*
X216935001Y-82217799D01*
X216988689Y-82379815D01*
X216990186Y-82384334D01*
X217082288Y-82533656D01*
X217206344Y-82657712D01*
X217355666Y-82749814D01*
X217522203Y-82804999D01*
X217624991Y-82815500D01*
X218450008Y-82815499D01*
X218450016Y-82815498D01*
X218450019Y-82815498D01*
X218528245Y-82807507D01*
X218552797Y-82804999D01*
X218719334Y-82749814D01*
X218868656Y-82657712D01*
X218992712Y-82533656D01*
X219084814Y-82384334D01*
X219139999Y-82217797D01*
X219150500Y-82115009D01*
X219150499Y-79164992D01*
X219139999Y-79062203D01*
X219084814Y-78895666D01*
X218992712Y-78746344D01*
X218868656Y-78622288D01*
X218719334Y-78530186D01*
X218683036Y-78518158D01*
X218552798Y-78475001D01*
X218552790Y-78475000D01*
X218501912Y-78469802D01*
X218437220Y-78443405D01*
X218426834Y-78434125D01*
X218109889Y-78117180D01*
X218076404Y-78055857D01*
X218081388Y-77986165D01*
X218123260Y-77930232D01*
X218188724Y-77905815D01*
X218197570Y-77905499D01*
X218450002Y-77905499D01*
X218450008Y-77905499D01*
X218552797Y-77894999D01*
X218719334Y-77839814D01*
X218868656Y-77747712D01*
X218992712Y-77623656D01*
X219084814Y-77474334D01*
X219139999Y-77307797D01*
X219150500Y-77205009D01*
X219150499Y-74254992D01*
X219139999Y-74152203D01*
X219084814Y-73985666D01*
X218992712Y-73836344D01*
X218868656Y-73712288D01*
X218750245Y-73639252D01*
X218719336Y-73620187D01*
X218719331Y-73620185D01*
X218706946Y-73616081D01*
X218552797Y-73565001D01*
X218552795Y-73565000D01*
X218450010Y-73554500D01*
X217624998Y-73554500D01*
X217624980Y-73554501D01*
X217522203Y-73565000D01*
X217522200Y-73565001D01*
X217355668Y-73620185D01*
X217355663Y-73620187D01*
X217206342Y-73712289D01*
X217082289Y-73836342D01*
X216990187Y-73985663D01*
X216990186Y-73985666D01*
X216935990Y-74149218D01*
X216896217Y-74206662D01*
X216831701Y-74233485D01*
X216762925Y-74221170D01*
X216730603Y-74197894D01*
X214475389Y-71942680D01*
X214441904Y-71881357D01*
X214446304Y-71819824D01*
X214444745Y-71819407D01*
X214447294Y-71809895D01*
X214487772Y-71658829D01*
X214487772Y-71500715D01*
X214446849Y-71347988D01*
X214378091Y-71228895D01*
X214367549Y-71205216D01*
X214363031Y-71191312D01*
X214344786Y-71135156D01*
X214327046Y-71080557D01*
X214310832Y-71048735D01*
X214234111Y-70898162D01*
X214189884Y-70837288D01*
X214113795Y-70732558D01*
X213969037Y-70587800D01*
X213803438Y-70467487D01*
X213787560Y-70459397D01*
X213710741Y-70420255D01*
X213659947Y-70372283D01*
X213643152Y-70304462D01*
X213665689Y-70238327D01*
X213710741Y-70199288D01*
X213803434Y-70152059D01*
X213898334Y-70083111D01*
X213969037Y-70031743D01*
X213969039Y-70031740D01*
X213969043Y-70031738D01*
X214113790Y-69886991D01*
X214183249Y-69791387D01*
X214238579Y-69748721D01*
X214283568Y-69740272D01*
X215915753Y-69740272D01*
X215982792Y-69759957D01*
X216003434Y-69776591D01*
X216888181Y-70661338D01*
X216921666Y-70722661D01*
X216924500Y-70749019D01*
X216924500Y-72295001D01*
X216924501Y-72295018D01*
X216935000Y-72397796D01*
X216935001Y-72397799D01*
X216990185Y-72564331D01*
X216990187Y-72564336D01*
X217009004Y-72594843D01*
X217082288Y-72713656D01*
X217206344Y-72837712D01*
X217355666Y-72929814D01*
X217522203Y-72984999D01*
X217624991Y-72995500D01*
X218450008Y-72995499D01*
X218450016Y-72995498D01*
X218450019Y-72995498D01*
X218528245Y-72987507D01*
X218552797Y-72984999D01*
X218719334Y-72929814D01*
X218868656Y-72837712D01*
X218992712Y-72713656D01*
X219084814Y-72564334D01*
X219139999Y-72397797D01*
X219150500Y-72295009D01*
X219150499Y-69344992D01*
X219144144Y-69282785D01*
X219139999Y-69242203D01*
X219139998Y-69242200D01*
X219130318Y-69212989D01*
X219084814Y-69075666D01*
X218992712Y-68926344D01*
X218868656Y-68802288D01*
X218719334Y-68710186D01*
X218552797Y-68655001D01*
X218552795Y-68655000D01*
X218450010Y-68644500D01*
X217624998Y-68644500D01*
X217624980Y-68644501D01*
X217522203Y-68655000D01*
X217522200Y-68655001D01*
X217355668Y-68710185D01*
X217355663Y-68710187D01*
X217289653Y-68750903D01*
X217206344Y-68802288D01*
X217206342Y-68802289D01*
X217206337Y-68802293D01*
X217196072Y-68812558D01*
X217134748Y-68846041D01*
X217065057Y-68841054D01*
X217020713Y-68812555D01*
X216703817Y-68495659D01*
X216589079Y-68418994D01*
X216461604Y-68366193D01*
X216461594Y-68366190D01*
X216326268Y-68339272D01*
X216326266Y-68339272D01*
X216326265Y-68339272D01*
X214283568Y-68339272D01*
X214216529Y-68319587D01*
X214183249Y-68288156D01*
X214113793Y-68192556D01*
X213969037Y-68047800D01*
X213803438Y-67927487D01*
X213796830Y-67924120D01*
X213710741Y-67880255D01*
X213659947Y-67832283D01*
X213643152Y-67764462D01*
X213665689Y-67698327D01*
X213710741Y-67659288D01*
X213803434Y-67612059D01*
X213899402Y-67542335D01*
X213969037Y-67491743D01*
X213969039Y-67491740D01*
X213969043Y-67491738D01*
X214113790Y-67346991D01*
X214113861Y-67346894D01*
X214183249Y-67251388D01*
X214238579Y-67208721D01*
X214283568Y-67200272D01*
X216800501Y-67200272D01*
X216867540Y-67219957D01*
X216913295Y-67272761D01*
X216924501Y-67324272D01*
X216924501Y-67385018D01*
X216935000Y-67487796D01*
X216935001Y-67487799D01*
X216990185Y-67654331D01*
X216990187Y-67654336D01*
X217017321Y-67698327D01*
X217082288Y-67803656D01*
X217206344Y-67927712D01*
X217355666Y-68019814D01*
X217522203Y-68074999D01*
X217624991Y-68085500D01*
X218450008Y-68085499D01*
X218450016Y-68085498D01*
X218450019Y-68085498D01*
X218528245Y-68077507D01*
X218552797Y-68074999D01*
X218719334Y-68019814D01*
X218868656Y-67927712D01*
X218992712Y-67803656D01*
X219084814Y-67654334D01*
X219139999Y-67487797D01*
X219150500Y-67385009D01*
X219150499Y-64434992D01*
X219147595Y-64406568D01*
X219139999Y-64332203D01*
X219139998Y-64332200D01*
X219118228Y-64266503D01*
X219084814Y-64165666D01*
X218992712Y-64016344D01*
X218868656Y-63892288D01*
X218719430Y-63800245D01*
X218719336Y-63800187D01*
X218719331Y-63800185D01*
X218706946Y-63796081D01*
X218552797Y-63745001D01*
X218552795Y-63745000D01*
X218450010Y-63734500D01*
X217624998Y-63734500D01*
X217624980Y-63734501D01*
X217522203Y-63745000D01*
X217522200Y-63745001D01*
X217355668Y-63800185D01*
X217355663Y-63800187D01*
X217206342Y-63892289D01*
X217082289Y-64016342D01*
X216990187Y-64165663D01*
X216990185Y-64165668D01*
X216972978Y-64217596D01*
X216935001Y-64332203D01*
X216935001Y-64332204D01*
X216935000Y-64332204D01*
X216924500Y-64434983D01*
X216924500Y-65675272D01*
X216904815Y-65742311D01*
X216852011Y-65788066D01*
X216800500Y-65799272D01*
X214283568Y-65799272D01*
X214216529Y-65779587D01*
X214183249Y-65748156D01*
X214179002Y-65742311D01*
X214166593Y-65725230D01*
X214113793Y-65652556D01*
X213969037Y-65507800D01*
X213803438Y-65387487D01*
X213734446Y-65352334D01*
X213710741Y-65340255D01*
X213659947Y-65292283D01*
X213643152Y-65224462D01*
X213665689Y-65158327D01*
X213710741Y-65119288D01*
X213803434Y-65072059D01*
X213829073Y-65053431D01*
X213969037Y-64951743D01*
X213969039Y-64951740D01*
X213969043Y-64951738D01*
X214113790Y-64806991D01*
X214120721Y-64797452D01*
X214183249Y-64711388D01*
X214238579Y-64668721D01*
X214283568Y-64660272D01*
X215146724Y-64660272D01*
X215241687Y-64641382D01*
X215282056Y-64633352D01*
X215345797Y-64606949D01*
X215409535Y-64580549D01*
X215409536Y-64580548D01*
X215409539Y-64580547D01*
X215524271Y-64503886D01*
X217020713Y-63007442D01*
X217082036Y-62973958D01*
X217151727Y-62978942D01*
X217196075Y-63007443D01*
X217206344Y-63017712D01*
X217355666Y-63109814D01*
X217522203Y-63164999D01*
X217624991Y-63175500D01*
X218450008Y-63175499D01*
X218450016Y-63175498D01*
X218450019Y-63175498D01*
X218528245Y-63167507D01*
X218552797Y-63164999D01*
X218719334Y-63109814D01*
X218868656Y-63017712D01*
X218992712Y-62893656D01*
X219084814Y-62744334D01*
X219139999Y-62577797D01*
X219150500Y-62475009D01*
X219150499Y-59524992D01*
X219139999Y-59422203D01*
X219084814Y-59255666D01*
X218992712Y-59106344D01*
X218868656Y-58982288D01*
X218719334Y-58890186D01*
X218552797Y-58835001D01*
X218552795Y-58835000D01*
X218450010Y-58824500D01*
X217624998Y-58824500D01*
X217624980Y-58824501D01*
X217522203Y-58835000D01*
X217522200Y-58835001D01*
X217355668Y-58890185D01*
X217355663Y-58890187D01*
X217206342Y-58982289D01*
X217082289Y-59106342D01*
X216990187Y-59255663D01*
X216990186Y-59255666D01*
X216935001Y-59422203D01*
X216935001Y-59422204D01*
X216935000Y-59422204D01*
X216924500Y-59524983D01*
X216924500Y-61070980D01*
X216904815Y-61138019D01*
X216888181Y-61158661D01*
X214823890Y-63222953D01*
X214762567Y-63256438D01*
X214736209Y-63259272D01*
X214283568Y-63259272D01*
X214216529Y-63239587D01*
X214183249Y-63208156D01*
X214113793Y-63112556D01*
X213969037Y-62967800D01*
X213803438Y-62847487D01*
X213796830Y-62844120D01*
X213710741Y-62800255D01*
X213659947Y-62752283D01*
X213643152Y-62684462D01*
X213665689Y-62618327D01*
X213710741Y-62579288D01*
X213803434Y-62532059D01*
X213832688Y-62510805D01*
X213969037Y-62411743D01*
X213969039Y-62411740D01*
X213969043Y-62411738D01*
X214113790Y-62266991D01*
X214113792Y-62266987D01*
X214113795Y-62266985D01*
X214201751Y-62145922D01*
X214234111Y-62101382D01*
X214327044Y-61918991D01*
X214390301Y-61724306D01*
X214422324Y-61522124D01*
X214422324Y-61317420D01*
X214404235Y-61203213D01*
X214403837Y-61200701D01*
X214412791Y-61131408D01*
X214438626Y-61093625D01*
X217284138Y-58248113D01*
X217345459Y-58214630D01*
X217410818Y-58218089D01*
X217522203Y-58254999D01*
X217624991Y-58265500D01*
X218450008Y-58265499D01*
X218450016Y-58265498D01*
X218450019Y-58265498D01*
X218528245Y-58257507D01*
X218552797Y-58254999D01*
X218719334Y-58199814D01*
X218868656Y-58107712D01*
X218992712Y-57983656D01*
X219084814Y-57834334D01*
X219139999Y-57667797D01*
X219150500Y-57565009D01*
X219150499Y-54614992D01*
X219148957Y-54599901D01*
X219139999Y-54512203D01*
X219139998Y-54512200D01*
X219129753Y-54481282D01*
X219084814Y-54345666D01*
X218992712Y-54196344D01*
X218868656Y-54072288D01*
X218766798Y-54009462D01*
X218719336Y-53980187D01*
X218719331Y-53980185D01*
X218690209Y-53970535D01*
X218552797Y-53925001D01*
X218552795Y-53925000D01*
X218450010Y-53914500D01*
X217624998Y-53914500D01*
X217624980Y-53914501D01*
X217522203Y-53925000D01*
X217522200Y-53925001D01*
X217355668Y-53980185D01*
X217355663Y-53980187D01*
X217206342Y-54072289D01*
X217082289Y-54196342D01*
X216990187Y-54345663D01*
X216990185Y-54345668D01*
X216982895Y-54367669D01*
X216935001Y-54512203D01*
X216935001Y-54512204D01*
X216935000Y-54512204D01*
X216924500Y-54614983D01*
X216924500Y-56575076D01*
X216904815Y-56642115D01*
X216888181Y-56662757D01*
X213447971Y-60102966D01*
X213386648Y-60136451D01*
X213340892Y-60137758D01*
X213290470Y-60129772D01*
X213224176Y-60119272D01*
X213019472Y-60119272D01*
X213014876Y-60120000D01*
X212817289Y-60151294D01*
X212622600Y-60214553D01*
X212440210Y-60307487D01*
X212274610Y-60427800D01*
X212129852Y-60572558D01*
X212009539Y-60738158D01*
X211916605Y-60920548D01*
X211853346Y-61115237D01*
X211821324Y-61317420D01*
X211821324Y-61522123D01*
X211853346Y-61724306D01*
X211916605Y-61918995D01*
X211967959Y-62019781D01*
X212009525Y-62101359D01*
X212009539Y-62101385D01*
X212129852Y-62266985D01*
X212274610Y-62411743D01*
X212417444Y-62515516D01*
X212440214Y-62532059D01*
X212529976Y-62577795D01*
X212532904Y-62579287D01*
X212583700Y-62627262D01*
X212600495Y-62695083D01*
X212577958Y-62761218D01*
X212532904Y-62800257D01*
X212440210Y-62847487D01*
X212274610Y-62967800D01*
X212129852Y-63112558D01*
X212009539Y-63278158D01*
X211916605Y-63460548D01*
X211853346Y-63655237D01*
X211821324Y-63857420D01*
X211821324Y-64062123D01*
X211853346Y-64264306D01*
X211916605Y-64458995D01*
X211974015Y-64571666D01*
X212005444Y-64633350D01*
X212009539Y-64641385D01*
X212129852Y-64806985D01*
X212274610Y-64951743D01*
X212429573Y-65064328D01*
X212440214Y-65072059D01*
X212518642Y-65112020D01*
X212532904Y-65119287D01*
X212583700Y-65167262D01*
X212600495Y-65235083D01*
X212577958Y-65301218D01*
X212532904Y-65340257D01*
X212440210Y-65387487D01*
X212274610Y-65507800D01*
X212129852Y-65652558D01*
X212009539Y-65818158D01*
X211916605Y-66000548D01*
X211853346Y-66195237D01*
X211821324Y-66397420D01*
X211821324Y-66602123D01*
X211853346Y-66804306D01*
X211916605Y-66998995D01*
X211964712Y-67093409D01*
X212009520Y-67181349D01*
X212009539Y-67181385D01*
X212129852Y-67346985D01*
X212274610Y-67491743D01*
X212429485Y-67604264D01*
X212440214Y-67612059D01*
X212523183Y-67654334D01*
X212532904Y-67659287D01*
X212583700Y-67707262D01*
X212600495Y-67775083D01*
X212577958Y-67841218D01*
X212532904Y-67880257D01*
X212440210Y-67927487D01*
X212274610Y-68047800D01*
X212129852Y-68192558D01*
X212009539Y-68358158D01*
X211916605Y-68540548D01*
X211853346Y-68735237D01*
X211821324Y-68937420D01*
X211821324Y-69142123D01*
X211853346Y-69344306D01*
X211916605Y-69538995D01*
X212009539Y-69721385D01*
X212129852Y-69886985D01*
X212274610Y-70031743D01*
X212429573Y-70144328D01*
X212440214Y-70152059D01*
X212531664Y-70198655D01*
X212532904Y-70199287D01*
X212583700Y-70247262D01*
X212600495Y-70315083D01*
X212577958Y-70381218D01*
X212532904Y-70420257D01*
X212440210Y-70467487D01*
X212274610Y-70587800D01*
X212129852Y-70732558D01*
X212009539Y-70898158D01*
X211916605Y-71080548D01*
X211853346Y-71275237D01*
X211821324Y-71477420D01*
X211821324Y-71682123D01*
X211853346Y-71884306D01*
X211916605Y-72078995D01*
X211980515Y-72204425D01*
X212009520Y-72261349D01*
X212009539Y-72261385D01*
X212129852Y-72426985D01*
X212274610Y-72571743D01*
X212395364Y-72659474D01*
X212440214Y-72692059D01*
X212531664Y-72738655D01*
X212532904Y-72739287D01*
X212583700Y-72787262D01*
X212600495Y-72855083D01*
X212577958Y-72921218D01*
X212532904Y-72960257D01*
X212440210Y-73007487D01*
X212274610Y-73127800D01*
X212129852Y-73272558D01*
X212009539Y-73438158D01*
X211916605Y-73620548D01*
X211853346Y-73815237D01*
X211833437Y-73940941D01*
X211821324Y-74017420D01*
X211821324Y-74222124D01*
X211825702Y-74249767D01*
X211853346Y-74424306D01*
X211916605Y-74618995D01*
X212009539Y-74801385D01*
X212129852Y-74966985D01*
X212274610Y-75111743D01*
X212429573Y-75224328D01*
X212440214Y-75232059D01*
X212514161Y-75269737D01*
X212532904Y-75279287D01*
X212583700Y-75327262D01*
X212600495Y-75395083D01*
X212577958Y-75461218D01*
X212532904Y-75500257D01*
X212440210Y-75547487D01*
X212274610Y-75667800D01*
X212129852Y-75812558D01*
X212009539Y-75978158D01*
X211916605Y-76160548D01*
X211853346Y-76355237D01*
X211821324Y-76557420D01*
X211821324Y-76762123D01*
X211853346Y-76964306D01*
X211916605Y-77158995D01*
X211979544Y-77282518D01*
X211996939Y-77316658D01*
X212009539Y-77341385D01*
X212129852Y-77506985D01*
X212274610Y-77651743D01*
X212406703Y-77747712D01*
X212440214Y-77772059D01*
X212531664Y-77818655D01*
X212532904Y-77819287D01*
X212583700Y-77867262D01*
X212600495Y-77935083D01*
X212577958Y-78001218D01*
X212532904Y-78040257D01*
X212440210Y-78087487D01*
X212274610Y-78207800D01*
X212129852Y-78352558D01*
X212009539Y-78518158D01*
X211916605Y-78700548D01*
X211853346Y-78895237D01*
X211821324Y-79097420D01*
X211821324Y-79302123D01*
X211839810Y-79418840D01*
X211830855Y-79488134D01*
X211805018Y-79525919D01*
X211376711Y-79954226D01*
X211300046Y-80068964D01*
X211247245Y-80196439D01*
X211247242Y-80196451D01*
X211221403Y-80326349D01*
X211221399Y-80326372D01*
X211220678Y-80330001D01*
X211220324Y-80331779D01*
X211220324Y-84274330D01*
X211220324Y-84412318D01*
X211220324Y-84412320D01*
X211220323Y-84412320D01*
X152358335Y-84412320D01*
X153713852Y-83056803D01*
X153775173Y-83023320D01*
X153820929Y-83022013D01*
X153875395Y-83030639D01*
X153937648Y-83040500D01*
X153937649Y-83040500D01*
X154142351Y-83040500D01*
X154142352Y-83040500D01*
X154344534Y-83008477D01*
X154358842Y-83003827D01*
X154428682Y-83001831D01*
X154484842Y-83034077D01*
X154815139Y-83364374D01*
X154815149Y-83364385D01*
X154819479Y-83368715D01*
X154819480Y-83368716D01*
X154931284Y-83480520D01*
X155018095Y-83530639D01*
X155018097Y-83530641D01*
X155056151Y-83552611D01*
X155068215Y-83559577D01*
X155220943Y-83600500D01*
X155379057Y-83600500D01*
X193138331Y-83600500D01*
X193138347Y-83600501D01*
X193145943Y-83600501D01*
X193304054Y-83600501D01*
X193304057Y-83600501D01*
X193456785Y-83559577D01*
X193506904Y-83530639D01*
X193593716Y-83480520D01*
X193705520Y-83368716D01*
X193705520Y-83368714D01*
X193715728Y-83358507D01*
X193715730Y-83358504D01*
X194062416Y-83011818D01*
X194123739Y-82978333D01*
X194150097Y-82975499D01*
X194498338Y-82975499D01*
X194498344Y-82975499D01*
X194498352Y-82975498D01*
X194498355Y-82975498D01*
X194552760Y-82969940D01*
X194597708Y-82965349D01*
X194758697Y-82912003D01*
X194903044Y-82822968D01*
X194912668Y-82813343D01*
X194973987Y-82779856D01*
X195043679Y-82784835D01*
X195088034Y-82813339D01*
X195097267Y-82822572D01*
X195097271Y-82822575D01*
X195241507Y-82911542D01*
X195241518Y-82911547D01*
X195402393Y-82964855D01*
X195501683Y-82974999D01*
X196025000Y-82974999D01*
X196048308Y-82974999D01*
X196048322Y-82974998D01*
X196147607Y-82964855D01*
X196308481Y-82911547D01*
X196308492Y-82911542D01*
X196452728Y-82822575D01*
X196452732Y-82822572D01*
X196572572Y-82702732D01*
X196572576Y-82702727D01*
X196661542Y-82558492D01*
X196661547Y-82558481D01*
X196714855Y-82397606D01*
X196724999Y-82298322D01*
X196725000Y-82298309D01*
X196725000Y-82250000D01*
X196025000Y-82250000D01*
X196025000Y-82974999D01*
X195501683Y-82974999D01*
X195525000Y-82974998D01*
X195525000Y-81750000D01*
X196025000Y-81750000D01*
X196724999Y-81750000D01*
X196724999Y-81701692D01*
X196724998Y-81701677D01*
X196714855Y-81602392D01*
X196661547Y-81441518D01*
X196661542Y-81441507D01*
X196572575Y-81297271D01*
X196572572Y-81297267D01*
X196452732Y-81177427D01*
X196452728Y-81177424D01*
X196308492Y-81088457D01*
X196308481Y-81088452D01*
X196147606Y-81035144D01*
X196048322Y-81025000D01*
X196025000Y-81025000D01*
X196025000Y-81750000D01*
X195525000Y-81750000D01*
X195525000Y-81024999D01*
X195501693Y-81025000D01*
X195501674Y-81025001D01*
X195402392Y-81035144D01*
X195241518Y-81088452D01*
X195241507Y-81088457D01*
X195169597Y-81132813D01*
X195102205Y-81151254D01*
X195035541Y-81130332D01*
X194990772Y-81076690D01*
X194980500Y-81027275D01*
X194980500Y-80429601D01*
X195000185Y-80362562D01*
X195048206Y-80319116D01*
X195061610Y-80312287D01*
X195227219Y-80191966D01*
X195371966Y-80047219D01*
X195371968Y-80047215D01*
X195371971Y-80047213D01*
X195424732Y-79974590D01*
X195492287Y-79881610D01*
X195585220Y-79699219D01*
X195648477Y-79504534D01*
X195680500Y-79302352D01*
X195680500Y-79109098D01*
X195700185Y-79042059D01*
X195752989Y-78996304D01*
X195822147Y-78986360D01*
X195885703Y-79015385D01*
X195892181Y-79021417D01*
X197652284Y-80781520D01*
X197652286Y-80781521D01*
X197652290Y-80781524D01*
X197789209Y-80860573D01*
X197789216Y-80860577D01*
X197941943Y-80901501D01*
X197941945Y-80901501D01*
X198107654Y-80901501D01*
X198107670Y-80901500D01*
X204267571Y-80901500D01*
X204334610Y-80921185D01*
X204380365Y-80973989D01*
X204390309Y-81043147D01*
X204378056Y-81081795D01*
X204297068Y-81240740D01*
X204233833Y-81435354D01*
X204201824Y-81637454D01*
X204201824Y-81842089D01*
X204233833Y-82044189D01*
X204297068Y-82238803D01*
X204389965Y-82421122D01*
X204389971Y-82421131D01*
X204422347Y-82465693D01*
X204422348Y-82465694D01*
X205101824Y-81786218D01*
X205101824Y-81792433D01*
X205129083Y-81894166D01*
X205181744Y-81985378D01*
X205256218Y-82059852D01*
X205347430Y-82112513D01*
X205449163Y-82139772D01*
X205455377Y-82139772D01*
X204775900Y-82819246D01*
X204820474Y-82851631D01*
X205002792Y-82944527D01*
X205197406Y-83007762D01*
X205399507Y-83039772D01*
X205604141Y-83039772D01*
X205806241Y-83007762D01*
X206000855Y-82944527D01*
X206183173Y-82851631D01*
X206227745Y-82819246D01*
X205548271Y-82139772D01*
X205554485Y-82139772D01*
X205656218Y-82112513D01*
X205747430Y-82059852D01*
X205821904Y-81985378D01*
X205874565Y-81894166D01*
X205901824Y-81792433D01*
X205901824Y-81786219D01*
X206581298Y-82465693D01*
X206613683Y-82421121D01*
X206706579Y-82238803D01*
X206769814Y-82044189D01*
X206801824Y-81842089D01*
X206801824Y-81637454D01*
X206769814Y-81435354D01*
X206706579Y-81240740D01*
X206613683Y-81058422D01*
X206581298Y-81013849D01*
X206581298Y-81013848D01*
X205901824Y-81693323D01*
X205901824Y-81687111D01*
X205874565Y-81585378D01*
X205821904Y-81494166D01*
X205747430Y-81419692D01*
X205656218Y-81367031D01*
X205554485Y-81339772D01*
X205548270Y-81339772D01*
X206227746Y-80660296D01*
X206227745Y-80660295D01*
X206183183Y-80627919D01*
X206183174Y-80627913D01*
X206090193Y-80580537D01*
X206039397Y-80532562D01*
X206022602Y-80464741D01*
X206045139Y-80398607D01*
X206090194Y-80359567D01*
X206092948Y-80358164D01*
X206183434Y-80312059D01*
X206298012Y-80228814D01*
X206302762Y-80225363D01*
X206302764Y-80225362D01*
X206348729Y-80191966D01*
X206349043Y-80191738D01*
X206493790Y-80046991D01*
X206493792Y-80046987D01*
X206493795Y-80046985D01*
X206575707Y-79934241D01*
X206614111Y-79881382D01*
X206707044Y-79698991D01*
X206770301Y-79504306D01*
X206802324Y-79302124D01*
X206802324Y-79097420D01*
X206793556Y-79042059D01*
X206770301Y-78895237D01*
X206721922Y-78746342D01*
X206707044Y-78700553D01*
X206707042Y-78700550D01*
X206707042Y-78700548D01*
X206667165Y-78622287D01*
X206614111Y-78518162D01*
X206582753Y-78475001D01*
X206493795Y-78352558D01*
X206349037Y-78207800D01*
X206183438Y-78087487D01*
X206176830Y-78084120D01*
X206090741Y-78040255D01*
X206039947Y-77992283D01*
X206023152Y-77924462D01*
X206045689Y-77858327D01*
X206090741Y-77819288D01*
X206183434Y-77772059D01*
X206228490Y-77739324D01*
X206349037Y-77651743D01*
X206349039Y-77651740D01*
X206349043Y-77651738D01*
X206493790Y-77506991D01*
X206493792Y-77506987D01*
X206493795Y-77506985D01*
X206556151Y-77421158D01*
X206614111Y-77341382D01*
X206707044Y-77158991D01*
X206770301Y-76964306D01*
X206802324Y-76762124D01*
X206802324Y-76557420D01*
X206770301Y-76355238D01*
X206765433Y-76340257D01*
X206740951Y-76264909D01*
X206707044Y-76160553D01*
X206707042Y-76160550D01*
X206707042Y-76160548D01*
X206673327Y-76094379D01*
X206614111Y-75978162D01*
X206606380Y-75967521D01*
X206493795Y-75812558D01*
X206349037Y-75667800D01*
X206183438Y-75547487D01*
X206176830Y-75544120D01*
X206090741Y-75500255D01*
X206039947Y-75452283D01*
X206023152Y-75384462D01*
X206045689Y-75318327D01*
X206090741Y-75279288D01*
X206183434Y-75232059D01*
X206214630Y-75209394D01*
X206349037Y-75111743D01*
X206349039Y-75111740D01*
X206349043Y-75111738D01*
X206493790Y-74966991D01*
X206493792Y-74966987D01*
X206493795Y-74966985D01*
X206557584Y-74879185D01*
X206614111Y-74801382D01*
X206707044Y-74618991D01*
X206770301Y-74424306D01*
X206802324Y-74222124D01*
X206802324Y-74017420D01*
X206783354Y-73897648D01*
X206770301Y-73815237D01*
X206736851Y-73712289D01*
X206707044Y-73620553D01*
X206707042Y-73620550D01*
X206707042Y-73620548D01*
X206658441Y-73525165D01*
X206614111Y-73438162D01*
X206594435Y-73411080D01*
X206493795Y-73272558D01*
X206349037Y-73127800D01*
X206183438Y-73007487D01*
X206144225Y-72987507D01*
X206090741Y-72960255D01*
X206039947Y-72912283D01*
X206023152Y-72844462D01*
X206045689Y-72778327D01*
X206090741Y-72739288D01*
X206183434Y-72692059D01*
X206228284Y-72659474D01*
X206349037Y-72571743D01*
X206349039Y-72571740D01*
X206349043Y-72571738D01*
X206493790Y-72426991D01*
X206493792Y-72426987D01*
X206493795Y-72426985D01*
X206555810Y-72341627D01*
X206614111Y-72261382D01*
X206707044Y-72078991D01*
X206770301Y-71884306D01*
X206802324Y-71682124D01*
X206802324Y-71477420D01*
X206779671Y-71334394D01*
X206770301Y-71275237D01*
X206739356Y-71180000D01*
X206707044Y-71080553D01*
X206707042Y-71080550D01*
X206707042Y-71080548D01*
X206651732Y-70971998D01*
X206614111Y-70898162D01*
X206569884Y-70837288D01*
X206493795Y-70732558D01*
X206349037Y-70587800D01*
X206183438Y-70467487D01*
X206167560Y-70459397D01*
X206090741Y-70420255D01*
X206039947Y-70372283D01*
X206023152Y-70304462D01*
X206045689Y-70238327D01*
X206090741Y-70199288D01*
X206183434Y-70152059D01*
X206278334Y-70083111D01*
X206349037Y-70031743D01*
X206349039Y-70031740D01*
X206349043Y-70031738D01*
X206493790Y-69886991D01*
X206493792Y-69886987D01*
X206493795Y-69886985D01*
X206563249Y-69791388D01*
X206614111Y-69721382D01*
X206707044Y-69538991D01*
X206770301Y-69344306D01*
X206802324Y-69142124D01*
X206802324Y-68937420D01*
X206783400Y-68817942D01*
X206770301Y-68735237D01*
X206740818Y-68644500D01*
X206707044Y-68540553D01*
X206707042Y-68540550D01*
X206707042Y-68540548D01*
X206645108Y-68418997D01*
X206614111Y-68358162D01*
X206586085Y-68319587D01*
X206493795Y-68192558D01*
X206349037Y-68047800D01*
X206183438Y-67927487D01*
X206176830Y-67924120D01*
X206090741Y-67880255D01*
X206039947Y-67832283D01*
X206023152Y-67764462D01*
X206045689Y-67698327D01*
X206090741Y-67659288D01*
X206183434Y-67612059D01*
X206279402Y-67542335D01*
X206349037Y-67491743D01*
X206349039Y-67491740D01*
X206349043Y-67491738D01*
X206493790Y-67346991D01*
X206493792Y-67346987D01*
X206493795Y-67346985D01*
X206578821Y-67229955D01*
X206614111Y-67181382D01*
X206707044Y-66998991D01*
X206770301Y-66804306D01*
X206802324Y-66602124D01*
X206802324Y-66397420D01*
X206772543Y-66209394D01*
X206770301Y-66195237D01*
X206725934Y-66058690D01*
X206707044Y-66000553D01*
X206707042Y-66000550D01*
X206707042Y-66000548D01*
X206651732Y-65891998D01*
X206614111Y-65818162D01*
X206586085Y-65779587D01*
X206493795Y-65652558D01*
X206349037Y-65507800D01*
X206183438Y-65387487D01*
X206114446Y-65352334D01*
X206090741Y-65340255D01*
X206039947Y-65292283D01*
X206023152Y-65224462D01*
X206045689Y-65158327D01*
X206090741Y-65119288D01*
X206183434Y-65072059D01*
X206209073Y-65053431D01*
X206349037Y-64951743D01*
X206349039Y-64951740D01*
X206349043Y-64951738D01*
X206493790Y-64806991D01*
X206493792Y-64806987D01*
X206493795Y-64806985D01*
X206563249Y-64711388D01*
X206614111Y-64641382D01*
X206707044Y-64458991D01*
X206770301Y-64264306D01*
X206802324Y-64062124D01*
X206802324Y-63857420D01*
X206770301Y-63655238D01*
X206707044Y-63460553D01*
X206707042Y-63460550D01*
X206707042Y-63460548D01*
X206651732Y-63351998D01*
X206614111Y-63278162D01*
X206574000Y-63222953D01*
X206493795Y-63112558D01*
X206349043Y-62967806D01*
X206349035Y-62967800D01*
X206255371Y-62899750D01*
X206212706Y-62844421D01*
X206206727Y-62774808D01*
X206239332Y-62713012D01*
X206289250Y-62681727D01*
X206371158Y-62654586D01*
X206520480Y-62562484D01*
X206644536Y-62438428D01*
X206736638Y-62289106D01*
X206791823Y-62122569D01*
X206802324Y-62019781D01*
X206802323Y-60819764D01*
X206791823Y-60716975D01*
X206736638Y-60550438D01*
X206644536Y-60401116D01*
X206520480Y-60277060D01*
X206419509Y-60214781D01*
X206371160Y-60184959D01*
X206371155Y-60184957D01*
X206369686Y-60184470D01*
X206204621Y-60129773D01*
X206204619Y-60129772D01*
X206101834Y-60119272D01*
X204901822Y-60119272D01*
X204901805Y-60119273D01*
X204799027Y-60129772D01*
X204799024Y-60129773D01*
X204632492Y-60184957D01*
X204632487Y-60184959D01*
X204483166Y-60277061D01*
X204359113Y-60401114D01*
X204267011Y-60550435D01*
X204267009Y-60550440D01*
X204239173Y-60634442D01*
X204211825Y-60716975D01*
X204211825Y-60716976D01*
X204211824Y-60716976D01*
X204201324Y-60819755D01*
X204201324Y-60858078D01*
X204192679Y-60887518D01*
X204186156Y-60917505D01*
X204182401Y-60922520D01*
X204181639Y-60925117D01*
X204165005Y-60945759D01*
X204059706Y-61051058D01*
X203511681Y-61599082D01*
X203450358Y-61632567D01*
X203380666Y-61627583D01*
X203324733Y-61585711D01*
X203300316Y-61520247D01*
X203300000Y-61511401D01*
X203300000Y-61317682D01*
X203267990Y-61115582D01*
X203204755Y-60920968D01*
X203111859Y-60738650D01*
X203079474Y-60694077D01*
X203079474Y-60694076D01*
X202400000Y-61373553D01*
X202400000Y-61367339D01*
X202372741Y-61265606D01*
X202320080Y-61174394D01*
X202245606Y-61099920D01*
X202154394Y-61047259D01*
X202052661Y-61020000D01*
X202046446Y-61020000D01*
X202725922Y-60340524D01*
X202725921Y-60340523D01*
X202681359Y-60308147D01*
X202681350Y-60308141D01*
X202499031Y-60215244D01*
X202304417Y-60152009D01*
X202102317Y-60120000D01*
X201897683Y-60120000D01*
X201695582Y-60152009D01*
X201500968Y-60215244D01*
X201318644Y-60308143D01*
X201274077Y-60340523D01*
X201274077Y-60340524D01*
X201953554Y-61020000D01*
X201947339Y-61020000D01*
X201845606Y-61047259D01*
X201754394Y-61099920D01*
X201679920Y-61174394D01*
X201627259Y-61265606D01*
X201600000Y-61367339D01*
X201600000Y-61373553D01*
X200920524Y-60694077D01*
X200920523Y-60694077D01*
X200888143Y-60738644D01*
X200795244Y-60920968D01*
X200732009Y-61115582D01*
X200700000Y-61317682D01*
X200700000Y-61522317D01*
X200732009Y-61724417D01*
X200795244Y-61919031D01*
X200888141Y-62101350D01*
X200888147Y-62101359D01*
X200920523Y-62145921D01*
X200920524Y-62145922D01*
X201600000Y-61466446D01*
X201600000Y-61472661D01*
X201627259Y-61574394D01*
X201679920Y-61665606D01*
X201754394Y-61740080D01*
X201845606Y-61792741D01*
X201947339Y-61820000D01*
X201953553Y-61820000D01*
X201274076Y-62499474D01*
X201318652Y-62531861D01*
X201411628Y-62579234D01*
X201462425Y-62627208D01*
X201479220Y-62695029D01*
X201456683Y-62761164D01*
X201411630Y-62800203D01*
X201318388Y-62847713D01*
X201152786Y-62968028D01*
X201008028Y-63112786D01*
X200887715Y-63278386D01*
X200794781Y-63460776D01*
X200731522Y-63655465D01*
X200699500Y-63857648D01*
X200699500Y-64062351D01*
X200731522Y-64264534D01*
X200794781Y-64459223D01*
X200845365Y-64558497D01*
X200887598Y-64641385D01*
X200887715Y-64641613D01*
X201008028Y-64807213D01*
X201152786Y-64951971D01*
X201292437Y-65053431D01*
X201318390Y-65072287D01*
X201409840Y-65118883D01*
X201411080Y-65119515D01*
X201461876Y-65167490D01*
X201478671Y-65235311D01*
X201456134Y-65301446D01*
X201411080Y-65340485D01*
X201318386Y-65387715D01*
X201152786Y-65508028D01*
X201008028Y-65652786D01*
X200887715Y-65818386D01*
X200794781Y-66000776D01*
X200731522Y-66195465D01*
X200699500Y-66397648D01*
X200699500Y-66602351D01*
X200731522Y-66804534D01*
X200794781Y-66999223D01*
X200842772Y-67093409D01*
X200887598Y-67181385D01*
X200887715Y-67181613D01*
X201008028Y-67347213D01*
X201152786Y-67491971D01*
X201274596Y-67580469D01*
X201318390Y-67612287D01*
X201400906Y-67654331D01*
X201411080Y-67659515D01*
X201461876Y-67707490D01*
X201478671Y-67775311D01*
X201456134Y-67841446D01*
X201411080Y-67880485D01*
X201318386Y-67927715D01*
X201152786Y-68048028D01*
X201008028Y-68192786D01*
X200887715Y-68358386D01*
X200794781Y-68540776D01*
X200731522Y-68735465D01*
X200699500Y-68937648D01*
X200699500Y-69142351D01*
X200731522Y-69344534D01*
X200794781Y-69539223D01*
X200858691Y-69664653D01*
X200887598Y-69721385D01*
X200887715Y-69721613D01*
X201008028Y-69887213D01*
X201152786Y-70031971D01*
X201307749Y-70144556D01*
X201318390Y-70152287D01*
X201409840Y-70198883D01*
X201411080Y-70199515D01*
X201461876Y-70247490D01*
X201478671Y-70315311D01*
X201456134Y-70381446D01*
X201411080Y-70420485D01*
X201318386Y-70467715D01*
X201152786Y-70588028D01*
X201008028Y-70732786D01*
X200887715Y-70898386D01*
X200794781Y-71080776D01*
X200731522Y-71275465D01*
X200699500Y-71477648D01*
X200699500Y-71682351D01*
X200731522Y-71884534D01*
X200794781Y-72079223D01*
X200858691Y-72204653D01*
X200887598Y-72261385D01*
X200887715Y-72261613D01*
X201008028Y-72427213D01*
X201152786Y-72571971D01*
X201273226Y-72659474D01*
X201318390Y-72692287D01*
X201395393Y-72731522D01*
X201411080Y-72739515D01*
X201461876Y-72787490D01*
X201478671Y-72855311D01*
X201456134Y-72921446D01*
X201411080Y-72960485D01*
X201318386Y-73007715D01*
X201152786Y-73128028D01*
X201008028Y-73272786D01*
X200887715Y-73438386D01*
X200794781Y-73620776D01*
X200731522Y-73815465D01*
X200699500Y-74017648D01*
X200699500Y-74222351D01*
X200731522Y-74424534D01*
X200794781Y-74619223D01*
X200853008Y-74733497D01*
X200887598Y-74801385D01*
X200887715Y-74801613D01*
X201008028Y-74967213D01*
X201152786Y-75111971D01*
X201286880Y-75209394D01*
X201318390Y-75232287D01*
X201389417Y-75268477D01*
X201411080Y-75279515D01*
X201461876Y-75327490D01*
X201478671Y-75395311D01*
X201456134Y-75461446D01*
X201411080Y-75500485D01*
X201318386Y-75547715D01*
X201152786Y-75668028D01*
X201008028Y-75812786D01*
X200887715Y-75978386D01*
X200794781Y-76160776D01*
X200731522Y-76355465D01*
X200699500Y-76557648D01*
X200699500Y-76762351D01*
X200731522Y-76964534D01*
X200794781Y-77159223D01*
X200851091Y-77269735D01*
X200887598Y-77341385D01*
X200887715Y-77341613D01*
X201008028Y-77507213D01*
X201008034Y-77507219D01*
X201152781Y-77651966D01*
X201246452Y-77720021D01*
X201289117Y-77775350D01*
X201295096Y-77844963D01*
X201262491Y-77906759D01*
X201212571Y-77938045D01*
X201130666Y-77965186D01*
X201130663Y-77965187D01*
X200981342Y-78057289D01*
X200857289Y-78181342D01*
X200765187Y-78330663D01*
X200765185Y-78330668D01*
X200757858Y-78352781D01*
X200710001Y-78497203D01*
X200710001Y-78497204D01*
X200710000Y-78497204D01*
X200699500Y-78599983D01*
X200699500Y-78599991D01*
X200699500Y-79136819D01*
X200699501Y-79576500D01*
X200679817Y-79643539D01*
X200627013Y-79689294D01*
X200575501Y-79700500D01*
X198321098Y-79700500D01*
X198254059Y-79680815D01*
X198233417Y-79664181D01*
X195674077Y-77104842D01*
X195640592Y-77043519D01*
X195643828Y-76978841D01*
X195643900Y-76978620D01*
X195648477Y-76964534D01*
X195680500Y-76762352D01*
X195680500Y-76557648D01*
X195673691Y-76514660D01*
X195648477Y-76355465D01*
X195619127Y-76265137D01*
X195585220Y-76160781D01*
X195585218Y-76160778D01*
X195585218Y-76160776D01*
X195551503Y-76094607D01*
X195492287Y-75978390D01*
X195484556Y-75967749D01*
X195371971Y-75812786D01*
X195227213Y-75668028D01*
X195061614Y-75547715D01*
X195055006Y-75544348D01*
X194968917Y-75500483D01*
X194918123Y-75452511D01*
X194901328Y-75384690D01*
X194923865Y-75318555D01*
X194968917Y-75279516D01*
X195061610Y-75232287D01*
X195213699Y-75121789D01*
X195227213Y-75111971D01*
X195227215Y-75111968D01*
X195227219Y-75111966D01*
X195371966Y-74967219D01*
X195371968Y-74967215D01*
X195371971Y-74967213D01*
X195459150Y-74847219D01*
X195492287Y-74801610D01*
X195585220Y-74619219D01*
X195648477Y-74424534D01*
X195680500Y-74222352D01*
X195680500Y-74017648D01*
X195665868Y-73925265D01*
X195648477Y-73815465D01*
X195609486Y-73695465D01*
X195585220Y-73620781D01*
X195585218Y-73620778D01*
X195585218Y-73620776D01*
X195536501Y-73525165D01*
X195492287Y-73438390D01*
X195472445Y-73411080D01*
X195371971Y-73272786D01*
X195227213Y-73128028D01*
X195061611Y-73007713D01*
X194968369Y-72960203D01*
X194917574Y-72912229D01*
X194900779Y-72844407D01*
X194923317Y-72778273D01*
X194968371Y-72739234D01*
X195061346Y-72691861D01*
X195061347Y-72691861D01*
X195105921Y-72659474D01*
X194426447Y-71980000D01*
X194432661Y-71980000D01*
X194534394Y-71952741D01*
X194625606Y-71900080D01*
X194700080Y-71825606D01*
X194752741Y-71734394D01*
X194780000Y-71632661D01*
X194780000Y-71626447D01*
X195459474Y-72305921D01*
X195491859Y-72261349D01*
X195584755Y-72079031D01*
X195647990Y-71884417D01*
X195680000Y-71682317D01*
X195680000Y-71477682D01*
X195647990Y-71275582D01*
X195584755Y-71080968D01*
X195491859Y-70898650D01*
X195459474Y-70854077D01*
X195459474Y-70854076D01*
X194780000Y-71533551D01*
X194780000Y-71527339D01*
X194752741Y-71425606D01*
X194700080Y-71334394D01*
X194625606Y-71259920D01*
X194534394Y-71207259D01*
X194432661Y-71180000D01*
X194426446Y-71180000D01*
X195105922Y-70500524D01*
X195105921Y-70500523D01*
X195061359Y-70468147D01*
X195061350Y-70468141D01*
X194968369Y-70420765D01*
X194917573Y-70372790D01*
X194900778Y-70304969D01*
X194923315Y-70238835D01*
X194968370Y-70199795D01*
X194969367Y-70199287D01*
X195061610Y-70152287D01*
X195111144Y-70116298D01*
X195227213Y-70031971D01*
X195227215Y-70031968D01*
X195227219Y-70031966D01*
X195371966Y-69887219D01*
X195371968Y-69887215D01*
X195371971Y-69887213D01*
X195452341Y-69776591D01*
X195492287Y-69721610D01*
X195584627Y-69540383D01*
X195585218Y-69539223D01*
X195585218Y-69539222D01*
X195585220Y-69539219D01*
X195648477Y-69344534D01*
X195680500Y-69142352D01*
X195680500Y-68937648D01*
X195672329Y-68886057D01*
X195648477Y-68735465D01*
X195618920Y-68644500D01*
X195585220Y-68540781D01*
X195585218Y-68540778D01*
X195585218Y-68540776D01*
X195551359Y-68474325D01*
X195492287Y-68358390D01*
X195464095Y-68319587D01*
X195371971Y-68192786D01*
X195227213Y-68048028D01*
X195061614Y-67927715D01*
X194985111Y-67888735D01*
X194968917Y-67880483D01*
X194918123Y-67832511D01*
X194901328Y-67764690D01*
X194923865Y-67698555D01*
X194968917Y-67659516D01*
X195061610Y-67612287D01*
X195105404Y-67580469D01*
X195227213Y-67491971D01*
X195227215Y-67491968D01*
X195227219Y-67491966D01*
X195371966Y-67347219D01*
X195371968Y-67347215D01*
X195371971Y-67347213D01*
X195441591Y-67251388D01*
X195492287Y-67181610D01*
X195585220Y-66999219D01*
X195648477Y-66804534D01*
X195680500Y-66602352D01*
X195680500Y-66397648D01*
X195680464Y-66397420D01*
X195648477Y-66195465D01*
X195617296Y-66099500D01*
X195585220Y-66000781D01*
X195585218Y-66000778D01*
X195585218Y-66000776D01*
X195544844Y-65921539D01*
X195492287Y-65818390D01*
X195461126Y-65775500D01*
X195371971Y-65652786D01*
X195227213Y-65508028D01*
X195061614Y-65387715D01*
X195048127Y-65380843D01*
X194968917Y-65340483D01*
X194918123Y-65292511D01*
X194901328Y-65224690D01*
X194923865Y-65158555D01*
X194968917Y-65119516D01*
X195061610Y-65072287D01*
X195119423Y-65030284D01*
X195227213Y-64951971D01*
X195227215Y-64951968D01*
X195227219Y-64951966D01*
X195371966Y-64807219D01*
X195371968Y-64807215D01*
X195371971Y-64807213D01*
X195446828Y-64704179D01*
X195492287Y-64641610D01*
X195585220Y-64459219D01*
X195648477Y-64264534D01*
X195680500Y-64062352D01*
X195680500Y-63857648D01*
X195671408Y-63800245D01*
X195648477Y-63655465D01*
X195619127Y-63565137D01*
X195585220Y-63460781D01*
X195585218Y-63460778D01*
X195585218Y-63460776D01*
X195529792Y-63351998D01*
X195492287Y-63278390D01*
X195452010Y-63222953D01*
X195371971Y-63112786D01*
X195227213Y-62968028D01*
X195061614Y-62847715D01*
X195055006Y-62844348D01*
X194968917Y-62800483D01*
X194918123Y-62752511D01*
X194901328Y-62684690D01*
X194923865Y-62618555D01*
X194968917Y-62579516D01*
X195061610Y-62532287D01*
X195084688Y-62515520D01*
X195227213Y-62411971D01*
X195227215Y-62411968D01*
X195227219Y-62411966D01*
X195371966Y-62267219D01*
X195371968Y-62267215D01*
X195371971Y-62267213D01*
X195436547Y-62178330D01*
X195492287Y-62101610D01*
X195585220Y-61919219D01*
X195648477Y-61724534D01*
X195680500Y-61522352D01*
X195680500Y-61317648D01*
X195659465Y-61184839D01*
X195648477Y-61115465D01*
X195593336Y-60945759D01*
X195585220Y-60920781D01*
X195585218Y-60920778D01*
X195585218Y-60920776D01*
X195533749Y-60819764D01*
X195492287Y-60738390D01*
X195460092Y-60694077D01*
X195371971Y-60572786D01*
X195227213Y-60428028D01*
X195061613Y-60307715D01*
X195061612Y-60307714D01*
X195061610Y-60307713D01*
X195001450Y-60277060D01*
X194879223Y-60214781D01*
X194684534Y-60151522D01*
X194509995Y-60123878D01*
X194482352Y-60119500D01*
X194277648Y-60119500D01*
X194253329Y-60123351D01*
X194075465Y-60151522D01*
X193880776Y-60214781D01*
X193698386Y-60307715D01*
X193532786Y-60428028D01*
X193388028Y-60572786D01*
X193267715Y-60738386D01*
X193174781Y-60920776D01*
X193111522Y-61115465D01*
X193079500Y-61317648D01*
X193079500Y-61522351D01*
X193111522Y-61724534D01*
X193174781Y-61919223D01*
X193237737Y-62042778D01*
X193267598Y-62101385D01*
X193267715Y-62101613D01*
X193388028Y-62267213D01*
X193532786Y-62411971D01*
X193685036Y-62522585D01*
X193698390Y-62532287D01*
X193779277Y-62573501D01*
X193791080Y-62579515D01*
X193841876Y-62627490D01*
X193858671Y-62695311D01*
X193836134Y-62761446D01*
X193791080Y-62800485D01*
X193698386Y-62847715D01*
X193532786Y-62968028D01*
X193388028Y-63112786D01*
X193267715Y-63278386D01*
X193174781Y-63460776D01*
X193111522Y-63655465D01*
X193079500Y-63857648D01*
X193079500Y-64062351D01*
X193111522Y-64264534D01*
X193116173Y-64278848D01*
X193118165Y-64348690D01*
X193085921Y-64404842D01*
X192237181Y-65253583D01*
X192175858Y-65287068D01*
X192106167Y-65282084D01*
X192050233Y-65240212D01*
X192025816Y-65174748D01*
X192025500Y-65165902D01*
X192025500Y-64918386D01*
X192025500Y-64918384D01*
X192019086Y-64847804D01*
X191968478Y-64685394D01*
X191880472Y-64539815D01*
X191880470Y-64539813D01*
X191880469Y-64539811D01*
X191760188Y-64419530D01*
X191738746Y-64406568D01*
X191614606Y-64331522D01*
X191452196Y-64280914D01*
X191452194Y-64280913D01*
X191452192Y-64280913D01*
X191401038Y-64276265D01*
X191381616Y-64274500D01*
X190718384Y-64274500D01*
X190699145Y-64276248D01*
X190647807Y-64280913D01*
X190485393Y-64331522D01*
X190339811Y-64419530D01*
X190339810Y-64419531D01*
X190221161Y-64538181D01*
X190194233Y-64552884D01*
X190168415Y-64569477D01*
X190162214Y-64570368D01*
X190159838Y-64571666D01*
X190133480Y-64574500D01*
X190015097Y-64574500D01*
X189948058Y-64554815D01*
X189927416Y-64538181D01*
X189450953Y-64061718D01*
X189417468Y-64000395D01*
X189420703Y-63935719D01*
X189464722Y-63800245D01*
X189500500Y-63574354D01*
X189500500Y-63345646D01*
X189464722Y-63119755D01*
X189464721Y-63119751D01*
X189464721Y-63119750D01*
X189394049Y-62902244D01*
X189342084Y-62800257D01*
X189290217Y-62698462D01*
X189155786Y-62513434D01*
X188994066Y-62351714D01*
X188809038Y-62217283D01*
X188732624Y-62178348D01*
X188605255Y-62113450D01*
X188387748Y-62042778D01*
X188218326Y-62015944D01*
X188161854Y-62007000D01*
X187838146Y-62007000D01*
X187779650Y-62016265D01*
X187612253Y-62042778D01*
X187612250Y-62042778D01*
X187394744Y-62113450D01*
X187190961Y-62217283D01*
X187122828Y-62266785D01*
X187005934Y-62351714D01*
X187005932Y-62351716D01*
X187005931Y-62351716D01*
X186844216Y-62513431D01*
X186844216Y-62513432D01*
X186844214Y-62513434D01*
X186808577Y-62562484D01*
X186709781Y-62698463D01*
X186708669Y-62700280D01*
X186708065Y-62700826D01*
X186706919Y-62702404D01*
X186706587Y-62702163D01*
X186656862Y-62747160D01*
X186602936Y-62759500D01*
X159450097Y-62759500D01*
X159383058Y-62739815D01*
X159362416Y-62723181D01*
X158461819Y-61822584D01*
X158428334Y-61761261D01*
X158425500Y-61734903D01*
X158425500Y-60416519D01*
X158445185Y-60349480D01*
X158461814Y-60328842D01*
X158580472Y-60210185D01*
X158668478Y-60064606D01*
X158719086Y-59902196D01*
X158725500Y-59831616D01*
X158725500Y-59168384D01*
X158719086Y-59097804D01*
X158668478Y-58935394D01*
X158580472Y-58789815D01*
X158580470Y-58789813D01*
X158580469Y-58789811D01*
X158461819Y-58671161D01*
X158428334Y-58609838D01*
X158425500Y-58583480D01*
X158425500Y-56701424D01*
X158445185Y-56634385D01*
X158497989Y-56588630D01*
X158525309Y-56579807D01*
X158549092Y-56575076D01*
X158569127Y-56571091D01*
X158755756Y-56493786D01*
X158923718Y-56381558D01*
X159066558Y-56238718D01*
X159178786Y-56070756D01*
X159256091Y-55884127D01*
X159295500Y-55686003D01*
X159295500Y-55033997D01*
X159256091Y-54835873D01*
X159178786Y-54649244D01*
X159178783Y-54649239D01*
X159178779Y-54649232D01*
X159090686Y-54517390D01*
X159069808Y-54450713D01*
X159088293Y-54383333D01*
X159140272Y-54336643D01*
X159193788Y-54324500D01*
X168025500Y-54324500D01*
X168092539Y-54344185D01*
X168138294Y-54396989D01*
X168149500Y-54448500D01*
X168149500Y-55775001D01*
X168149501Y-55775018D01*
X168160000Y-55877796D01*
X168160001Y-55877799D01*
X168215185Y-56044331D01*
X168215187Y-56044336D01*
X168230604Y-56069331D01*
X168307288Y-56193656D01*
X168431344Y-56317712D01*
X168580666Y-56409814D01*
X168747203Y-56464999D01*
X168849991Y-56475500D01*
X170150008Y-56475499D01*
X170252797Y-56464999D01*
X170419334Y-56409814D01*
X170568656Y-56317712D01*
X170692712Y-56193656D01*
X170784814Y-56044334D01*
X170784814Y-56044331D01*
X170788178Y-56038879D01*
X170840126Y-55992154D01*
X170909088Y-55980931D01*
X170973170Y-56008774D01*
X170981398Y-56016294D01*
X171120213Y-56155109D01*
X171292179Y-56280048D01*
X171292181Y-56280049D01*
X171292184Y-56280051D01*
X171481588Y-56376557D01*
X171683757Y-56442246D01*
X171893713Y-56475500D01*
X171893714Y-56475500D01*
X172106286Y-56475500D01*
X172106287Y-56475500D01*
X172316243Y-56442246D01*
X172518412Y-56376557D01*
X172707816Y-56280051D01*
X172729789Y-56264086D01*
X172879786Y-56155109D01*
X172879788Y-56155106D01*
X172879792Y-56155104D01*
X173030104Y-56004792D01*
X173149683Y-55840204D01*
X173205011Y-55797540D01*
X173274624Y-55791561D01*
X173336420Y-55824166D01*
X173350313Y-55840199D01*
X173452560Y-55980931D01*
X173469896Y-56004792D01*
X173620213Y-56155109D01*
X173792179Y-56280048D01*
X173792181Y-56280049D01*
X173792184Y-56280051D01*
X173981588Y-56376557D01*
X174183757Y-56442246D01*
X174393713Y-56475500D01*
X174393714Y-56475500D01*
X174606286Y-56475500D01*
X174606287Y-56475500D01*
X174816243Y-56442246D01*
X175018412Y-56376557D01*
X175207816Y-56280051D01*
X175229789Y-56264086D01*
X175379786Y-56155109D01*
X175379788Y-56155106D01*
X175379792Y-56155104D01*
X175530104Y-56004792D01*
X175649683Y-55840204D01*
X175705011Y-55797540D01*
X175774624Y-55791561D01*
X175836420Y-55824166D01*
X175850313Y-55840199D01*
X175952560Y-55980931D01*
X175969896Y-56004792D01*
X176120213Y-56155109D01*
X176292179Y-56280048D01*
X176292181Y-56280049D01*
X176292184Y-56280051D01*
X176481588Y-56376557D01*
X176683757Y-56442246D01*
X176893713Y-56475500D01*
X176893714Y-56475500D01*
X177106286Y-56475500D01*
X177106287Y-56475500D01*
X177316243Y-56442246D01*
X177518412Y-56376557D01*
X177707816Y-56280051D01*
X177729789Y-56264086D01*
X177879786Y-56155109D01*
X177879788Y-56155106D01*
X177879792Y-56155104D01*
X178030104Y-56004792D01*
X178149683Y-55840204D01*
X178205011Y-55797540D01*
X178274624Y-55791561D01*
X178336420Y-55824166D01*
X178350313Y-55840199D01*
X178452560Y-55980931D01*
X178469896Y-56004792D01*
X178620213Y-56155109D01*
X178792179Y-56280048D01*
X178792181Y-56280049D01*
X178792184Y-56280051D01*
X178981588Y-56376557D01*
X179183757Y-56442246D01*
X179393713Y-56475500D01*
X179393714Y-56475500D01*
X179606286Y-56475500D01*
X179606287Y-56475500D01*
X179816243Y-56442246D01*
X180018412Y-56376557D01*
X180207816Y-56280051D01*
X180229789Y-56264086D01*
X180379786Y-56155109D01*
X180379788Y-56155106D01*
X180379792Y-56155104D01*
X180530104Y-56004792D01*
X180530106Y-56004788D01*
X180530109Y-56004786D01*
X180655048Y-55832820D01*
X180655047Y-55832820D01*
X180655051Y-55832816D01*
X180751557Y-55643412D01*
X180817246Y-55441243D01*
X180850500Y-55231287D01*
X180850500Y-54768713D01*
X180817246Y-54558757D01*
X180751557Y-54356588D01*
X180671778Y-54200013D01*
X186650000Y-54200013D01*
X186650000Y-54750000D01*
X187566988Y-54750000D01*
X187534075Y-54807007D01*
X187500000Y-54934174D01*
X187500000Y-55065826D01*
X187534075Y-55192993D01*
X187566988Y-55250000D01*
X186650001Y-55250000D01*
X186650001Y-55799986D01*
X186660494Y-55902697D01*
X186715641Y-56069119D01*
X186715643Y-56069124D01*
X186807684Y-56218345D01*
X186931654Y-56342315D01*
X187080875Y-56434356D01*
X187080880Y-56434358D01*
X187247302Y-56489505D01*
X187247309Y-56489506D01*
X187350019Y-56499999D01*
X187749999Y-56499999D01*
X187750000Y-56499998D01*
X187750000Y-55433012D01*
X187807007Y-55465925D01*
X187934174Y-55500000D01*
X188065826Y-55500000D01*
X188192993Y-55465925D01*
X188250000Y-55433012D01*
X188250000Y-56499999D01*
X188649972Y-56499999D01*
X188649986Y-56499998D01*
X188752697Y-56489505D01*
X188919119Y-56434358D01*
X188919124Y-56434356D01*
X189068345Y-56342315D01*
X189192317Y-56218343D01*
X189287815Y-56063516D01*
X189339763Y-56016791D01*
X189408725Y-56005568D01*
X189472808Y-56033412D01*
X189481035Y-56040931D01*
X189620213Y-56180109D01*
X189792179Y-56305048D01*
X189792181Y-56305049D01*
X189792184Y-56305051D01*
X189981588Y-56401557D01*
X190183757Y-56467246D01*
X190393713Y-56500500D01*
X190393714Y-56500500D01*
X190606286Y-56500500D01*
X190606287Y-56500500D01*
X190816243Y-56467246D01*
X191018412Y-56401557D01*
X191207816Y-56305051D01*
X191242230Y-56280048D01*
X191379786Y-56180109D01*
X191379788Y-56180106D01*
X191379792Y-56180104D01*
X191530104Y-56029792D01*
X191530106Y-56029788D01*
X191530109Y-56029786D01*
X191655048Y-55857820D01*
X191655047Y-55857820D01*
X191655051Y-55857816D01*
X191751557Y-55668412D01*
X191817246Y-55466243D01*
X191850500Y-55256287D01*
X191850500Y-54743713D01*
X191817246Y-54533757D01*
X191752355Y-54334046D01*
X191750361Y-54264207D01*
X191782604Y-54208051D01*
X193253838Y-52736819D01*
X193315161Y-52703334D01*
X193341519Y-52700500D01*
X221658481Y-52700500D01*
X221725520Y-52720185D01*
X221746162Y-52736819D01*
X223018805Y-54009462D01*
X223052290Y-54070785D01*
X223047306Y-54140477D01*
X223018811Y-54184819D01*
X223007291Y-54196339D01*
X222915187Y-54345663D01*
X222915185Y-54345668D01*
X222907895Y-54367669D01*
X222860001Y-54512203D01*
X222860001Y-54512204D01*
X222860000Y-54512204D01*
X222849500Y-54614983D01*
X222849500Y-57565001D01*
X222849501Y-57565018D01*
X222860000Y-57667796D01*
X222860001Y-57667799D01*
X222915185Y-57834331D01*
X222915186Y-57834334D01*
X223007288Y-57983656D01*
X223131344Y-58107712D01*
X223203096Y-58151968D01*
X223249821Y-58203915D01*
X223262000Y-58257507D01*
X223262000Y-58832491D01*
X223242315Y-58899530D01*
X223203098Y-58938029D01*
X223131344Y-58982287D01*
X223007289Y-59106342D01*
X222915187Y-59255663D01*
X222915186Y-59255666D01*
X222860001Y-59422203D01*
X222860001Y-59422204D01*
X222860000Y-59422204D01*
X222849500Y-59524983D01*
X222849500Y-62475001D01*
X222849501Y-62475018D01*
X222860000Y-62577796D01*
X222860001Y-62577799D01*
X222915185Y-62744331D01*
X222915187Y-62744336D01*
X222921488Y-62754552D01*
X223007288Y-62893656D01*
X223131344Y-63017712D01*
X223203096Y-63061968D01*
X223249821Y-63113915D01*
X223262000Y-63167507D01*
X223262000Y-63742491D01*
X223242315Y-63809530D01*
X223203098Y-63848029D01*
X223131344Y-63892287D01*
X223007289Y-64016342D01*
X222915187Y-64165663D01*
X222915185Y-64165668D01*
X222897978Y-64217596D01*
X222860001Y-64332203D01*
X222860001Y-64332204D01*
X222860000Y-64332204D01*
X222849500Y-64434983D01*
X222849500Y-67385001D01*
X222849501Y-67385018D01*
X222860000Y-67487796D01*
X222860001Y-67487799D01*
X222915185Y-67654331D01*
X222915187Y-67654336D01*
X222942321Y-67698327D01*
X223007288Y-67803656D01*
X223131344Y-67927712D01*
X223203096Y-67971968D01*
X223249821Y-68023915D01*
X223262000Y-68077507D01*
X223262000Y-68652491D01*
X223242315Y-68719530D01*
X223203098Y-68758029D01*
X223131344Y-68802287D01*
X223007289Y-68926342D01*
X222915187Y-69075663D01*
X222915185Y-69075668D01*
X222893951Y-69139748D01*
X222860001Y-69242203D01*
X222860001Y-69242204D01*
X222860000Y-69242204D01*
X222849500Y-69344983D01*
X222849500Y-72295001D01*
X222849501Y-72295018D01*
X222860000Y-72397796D01*
X222860001Y-72397799D01*
X222915185Y-72564331D01*
X222915187Y-72564336D01*
X222934004Y-72594843D01*
X223007288Y-72713656D01*
X223131344Y-72837712D01*
X223203096Y-72881968D01*
X223249821Y-72933915D01*
X223262000Y-72987507D01*
X223262000Y-73562491D01*
X223242315Y-73629530D01*
X223203098Y-73668029D01*
X223131344Y-73712287D01*
X223007289Y-73836342D01*
X222915187Y-73985663D01*
X222915185Y-73985668D01*
X222891024Y-74058583D01*
X222860001Y-74152203D01*
X222860001Y-74152204D01*
X222860000Y-74152204D01*
X222849500Y-74254983D01*
X222849500Y-77205001D01*
X222849501Y-77205018D01*
X222860000Y-77307796D01*
X222860001Y-77307799D01*
X222915185Y-77474331D01*
X222915187Y-77474336D01*
X222947362Y-77526500D01*
X223007288Y-77623656D01*
X223131344Y-77747712D01*
X223203096Y-77791968D01*
X223249821Y-77843915D01*
X223262000Y-77897507D01*
X223262000Y-78472491D01*
X223242315Y-78539530D01*
X223203098Y-78578029D01*
X223131344Y-78622287D01*
X223007289Y-78746342D01*
X222915187Y-78895663D01*
X222915186Y-78895666D01*
X222860001Y-79062203D01*
X222860001Y-79062204D01*
X222860000Y-79062204D01*
X222849500Y-79164983D01*
X222849500Y-82115001D01*
X222849501Y-82115018D01*
X222860000Y-82217796D01*
X222860001Y-82217799D01*
X222913689Y-82379815D01*
X222915186Y-82384334D01*
X223007288Y-82533656D01*
X223131344Y-82657712D01*
X223203096Y-82701968D01*
X223249821Y-82753915D01*
X223262000Y-82807507D01*
X223262000Y-83382491D01*
X223242315Y-83449530D01*
X223203098Y-83488029D01*
X223131344Y-83532287D01*
X223007289Y-83656342D01*
X222915187Y-83805663D01*
X222915186Y-83805666D01*
X222860001Y-83972203D01*
X222860001Y-83972204D01*
X222860000Y-83972204D01*
X222849500Y-84074983D01*
X222849500Y-87025001D01*
X222849501Y-87025018D01*
X222860000Y-87127796D01*
X222860001Y-87127799D01*
X222915185Y-87294331D01*
X222915186Y-87294334D01*
X223007288Y-87443656D01*
X223131344Y-87567712D01*
X223203096Y-87611968D01*
X223249821Y-87663915D01*
X223262000Y-87717507D01*
X223262000Y-88292491D01*
X223242315Y-88359530D01*
X223203098Y-88398029D01*
X223131344Y-88442287D01*
X223007289Y-88566342D01*
X222915187Y-88715663D01*
X222915186Y-88715666D01*
X222860001Y-88882203D01*
X222860001Y-88882204D01*
X222860000Y-88882204D01*
X222849500Y-88984983D01*
X222849500Y-91935001D01*
X222849501Y-91935018D01*
X222860000Y-92037796D01*
X222860001Y-92037799D01*
X222915185Y-92204331D01*
X222915186Y-92204334D01*
X223007288Y-92353656D01*
X223131344Y-92477712D01*
X223280666Y-92569814D01*
X223447203Y-92624999D01*
X223549991Y-92635500D01*
X224375008Y-92635499D01*
X224375016Y-92635498D01*
X224375019Y-92635498D01*
X224431302Y-92629748D01*
X224477797Y-92624999D01*
X224644334Y-92569814D01*
X224793656Y-92477712D01*
X224917712Y-92353656D01*
X225009814Y-92204334D01*
X225064999Y-92037797D01*
X225075500Y-91935009D01*
X225075499Y-88984992D01*
X225064999Y-88882203D01*
X225009814Y-88715666D01*
X224917712Y-88566344D01*
X224793656Y-88442288D01*
X224793655Y-88442287D01*
X224721902Y-88398029D01*
X224675178Y-88346081D01*
X224663000Y-88292491D01*
X224663000Y-87717507D01*
X224682685Y-87650468D01*
X224721903Y-87611968D01*
X224793656Y-87567712D01*
X224917712Y-87443656D01*
X225009814Y-87294334D01*
X225064999Y-87127797D01*
X225075500Y-87025009D01*
X225075499Y-84074992D01*
X225064999Y-83972203D01*
X225009814Y-83805666D01*
X224917712Y-83656344D01*
X224793656Y-83532288D01*
X224793655Y-83532287D01*
X224721902Y-83488029D01*
X224675178Y-83436081D01*
X224663000Y-83382491D01*
X224663000Y-82807507D01*
X224682685Y-82740468D01*
X224721903Y-82701968D01*
X224793656Y-82657712D01*
X224917712Y-82533656D01*
X225009814Y-82384334D01*
X225064999Y-82217797D01*
X225075500Y-82115009D01*
X225075499Y-79164992D01*
X225064999Y-79062203D01*
X225009814Y-78895666D01*
X224917712Y-78746344D01*
X224793656Y-78622288D01*
X224793655Y-78622287D01*
X224721902Y-78578029D01*
X224675178Y-78526081D01*
X224663000Y-78472491D01*
X224663000Y-77897507D01*
X224682685Y-77830468D01*
X224721903Y-77791968D01*
X224793656Y-77747712D01*
X224917712Y-77623656D01*
X225009814Y-77474334D01*
X225064999Y-77307797D01*
X225075500Y-77205009D01*
X225075499Y-74254992D01*
X225064999Y-74152203D01*
X225009814Y-73985666D01*
X224917712Y-73836344D01*
X224793656Y-73712288D01*
X224793655Y-73712287D01*
X224721902Y-73668029D01*
X224675178Y-73616081D01*
X224663000Y-73562491D01*
X224663000Y-72987507D01*
X224682685Y-72920468D01*
X224721903Y-72881968D01*
X224793656Y-72837712D01*
X224917712Y-72713656D01*
X225009814Y-72564334D01*
X225064999Y-72397797D01*
X225075500Y-72295009D01*
X225075499Y-69344992D01*
X225069144Y-69282785D01*
X225064999Y-69242203D01*
X225064998Y-69242200D01*
X225055318Y-69212989D01*
X225009814Y-69075666D01*
X224917712Y-68926344D01*
X224793656Y-68802288D01*
X224793655Y-68802287D01*
X224721902Y-68758029D01*
X224675178Y-68706081D01*
X224663000Y-68652491D01*
X224663000Y-68077507D01*
X224682685Y-68010468D01*
X224721903Y-67971968D01*
X224793656Y-67927712D01*
X224917712Y-67803656D01*
X225009814Y-67654334D01*
X225064999Y-67487797D01*
X225075500Y-67385009D01*
X225075499Y-64434992D01*
X225072595Y-64406568D01*
X225064999Y-64332203D01*
X225064998Y-64332200D01*
X225043228Y-64266503D01*
X225009814Y-64165666D01*
X224917712Y-64016344D01*
X224793656Y-63892288D01*
X224793655Y-63892287D01*
X224721902Y-63848029D01*
X224675178Y-63796081D01*
X224663000Y-63742491D01*
X224663000Y-63167507D01*
X224682685Y-63100468D01*
X224721903Y-63061968D01*
X224793656Y-63017712D01*
X224917712Y-62893656D01*
X225009814Y-62744334D01*
X225064999Y-62577797D01*
X225075500Y-62475009D01*
X225075499Y-59524992D01*
X225064999Y-59422203D01*
X225009814Y-59255666D01*
X224917712Y-59106344D01*
X224793656Y-58982288D01*
X224793655Y-58982287D01*
X224721902Y-58938029D01*
X224675178Y-58886081D01*
X224663000Y-58832491D01*
X224663000Y-58257507D01*
X224682685Y-58190468D01*
X224721903Y-58151968D01*
X224793656Y-58107712D01*
X224917712Y-57983656D01*
X225009814Y-57834334D01*
X225064999Y-57667797D01*
X225075500Y-57565009D01*
X225075499Y-54614992D01*
X225073957Y-54599901D01*
X225064999Y-54512203D01*
X225064998Y-54512200D01*
X225054753Y-54481282D01*
X225009814Y-54345666D01*
X224917712Y-54196344D01*
X224793656Y-54072288D01*
X224793655Y-54072287D01*
X224721902Y-54028029D01*
X224675178Y-53976081D01*
X224663000Y-53922491D01*
X224663000Y-53893504D01*
X224636081Y-53758177D01*
X224636080Y-53758176D01*
X224636080Y-53758172D01*
X224636078Y-53758167D01*
X224583276Y-53630691D01*
X224583275Y-53630689D01*
X224556212Y-53590186D01*
X224506614Y-53515957D01*
X224506612Y-53515954D01*
X222446545Y-51455887D01*
X222331807Y-51379222D01*
X222204332Y-51326421D01*
X222204322Y-51326418D01*
X222068996Y-51299500D01*
X222068994Y-51299500D01*
X222068993Y-51299500D01*
X193068994Y-51299500D01*
X192931006Y-51299500D01*
X192931004Y-51299500D01*
X192795677Y-51326418D01*
X192795667Y-51326421D01*
X192668192Y-51379222D01*
X192553454Y-51455887D01*
X192553453Y-51455888D01*
X190546162Y-53463181D01*
X190484839Y-53496666D01*
X190458481Y-53499500D01*
X190393713Y-53499500D01*
X190345042Y-53507208D01*
X190183760Y-53532753D01*
X189981585Y-53598444D01*
X189792179Y-53694951D01*
X189620215Y-53819889D01*
X189481035Y-53959069D01*
X189419712Y-53992553D01*
X189350020Y-53987569D01*
X189294087Y-53945697D01*
X189287815Y-53936484D01*
X189192315Y-53781654D01*
X189068345Y-53657684D01*
X188919124Y-53565643D01*
X188919119Y-53565641D01*
X188752697Y-53510494D01*
X188752690Y-53510493D01*
X188649986Y-53500000D01*
X188250000Y-53500000D01*
X188250000Y-54566988D01*
X188192993Y-54534075D01*
X188065826Y-54500000D01*
X187934174Y-54500000D01*
X187807007Y-54534075D01*
X187750000Y-54566988D01*
X187750000Y-53500000D01*
X187350028Y-53500000D01*
X187350012Y-53500001D01*
X187247302Y-53510494D01*
X187080880Y-53565641D01*
X187080875Y-53565643D01*
X186931654Y-53657684D01*
X186807684Y-53781654D01*
X186715643Y-53930875D01*
X186715641Y-53930880D01*
X186660494Y-54097302D01*
X186660493Y-54097309D01*
X186650000Y-54200013D01*
X180671778Y-54200013D01*
X180655051Y-54167184D01*
X180655049Y-54167181D01*
X180655048Y-54167179D01*
X180530109Y-53995213D01*
X180379786Y-53844890D01*
X180207820Y-53719951D01*
X180018414Y-53623444D01*
X180018413Y-53623443D01*
X180018412Y-53623443D01*
X179816243Y-53557754D01*
X179816241Y-53557753D01*
X179816240Y-53557753D01*
X179654957Y-53532208D01*
X179606287Y-53524500D01*
X179393713Y-53524500D01*
X179345042Y-53532208D01*
X179183760Y-53557753D01*
X178981585Y-53623444D01*
X178792179Y-53719951D01*
X178620213Y-53844890D01*
X178469894Y-53995209D01*
X178469890Y-53995214D01*
X178350318Y-54159793D01*
X178294989Y-54202459D01*
X178225375Y-54208438D01*
X178163580Y-54175833D01*
X178149682Y-54159793D01*
X178030109Y-53995214D01*
X178030105Y-53995209D01*
X177879786Y-53844890D01*
X177707820Y-53719951D01*
X177518414Y-53623444D01*
X177518413Y-53623443D01*
X177518412Y-53623443D01*
X177316243Y-53557754D01*
X177316241Y-53557753D01*
X177316240Y-53557753D01*
X177154957Y-53532208D01*
X177106287Y-53524500D01*
X176893713Y-53524500D01*
X176845042Y-53532208D01*
X176683760Y-53557753D01*
X176481585Y-53623444D01*
X176292179Y-53719951D01*
X176120213Y-53844890D01*
X175969894Y-53995209D01*
X175969890Y-53995214D01*
X175850318Y-54159793D01*
X175794989Y-54202459D01*
X175725375Y-54208438D01*
X175663580Y-54175833D01*
X175649682Y-54159793D01*
X175530109Y-53995214D01*
X175530105Y-53995209D01*
X175379786Y-53844890D01*
X175207820Y-53719951D01*
X175018414Y-53623444D01*
X175018413Y-53623443D01*
X175018412Y-53623443D01*
X174816243Y-53557754D01*
X174816241Y-53557753D01*
X174816240Y-53557753D01*
X174654957Y-53532208D01*
X174606287Y-53524500D01*
X174393713Y-53524500D01*
X174345042Y-53532208D01*
X174183760Y-53557753D01*
X173981585Y-53623444D01*
X173792179Y-53719951D01*
X173620213Y-53844890D01*
X173469894Y-53995209D01*
X173469890Y-53995214D01*
X173350318Y-54159793D01*
X173294989Y-54202459D01*
X173225375Y-54208438D01*
X173163580Y-54175833D01*
X173149682Y-54159793D01*
X173030109Y-53995214D01*
X173030105Y-53995209D01*
X172879786Y-53844890D01*
X172707820Y-53719951D01*
X172518414Y-53623444D01*
X172518413Y-53623443D01*
X172518412Y-53623443D01*
X172316243Y-53557754D01*
X172316241Y-53557753D01*
X172316240Y-53557753D01*
X172154957Y-53532208D01*
X172106287Y-53524500D01*
X171893713Y-53524500D01*
X171845042Y-53532208D01*
X171683760Y-53557753D01*
X171683757Y-53557754D01*
X171547129Y-53602147D01*
X171477290Y-53604142D01*
X171421132Y-53571897D01*
X171211590Y-53362355D01*
X171211588Y-53362352D01*
X171092717Y-53243481D01*
X171092716Y-53243480D01*
X171005904Y-53193360D01*
X171005904Y-53193359D01*
X171005900Y-53193358D01*
X170955785Y-53164423D01*
X170803057Y-53123499D01*
X170644943Y-53123499D01*
X170637347Y-53123499D01*
X170637331Y-53123500D01*
X151291940Y-53123500D01*
X151251019Y-53134464D01*
X151251019Y-53134465D01*
X151213751Y-53144451D01*
X151139214Y-53164423D01*
X151139209Y-53164426D01*
X151002290Y-53243475D01*
X151002282Y-53243481D01*
X150890478Y-53355286D01*
X150172582Y-54073181D01*
X150111259Y-54106666D01*
X150084901Y-54109500D01*
X149387129Y-54109500D01*
X149387123Y-54109501D01*
X149327516Y-54115908D01*
X149192671Y-54166202D01*
X149192664Y-54166206D01*
X149077455Y-54252452D01*
X149077452Y-54252455D01*
X148991206Y-54367664D01*
X148991202Y-54367671D01*
X148940908Y-54502517D01*
X148934501Y-54562116D01*
X148934500Y-54562135D01*
X148934500Y-56157870D01*
X148934501Y-56157876D01*
X148940908Y-56217483D01*
X148991202Y-56352328D01*
X148991206Y-56352335D01*
X149077452Y-56467544D01*
X149077455Y-56467547D01*
X149192664Y-56553793D01*
X149192671Y-56553797D01*
X149327517Y-56604091D01*
X149327516Y-56604091D01*
X149334444Y-56604835D01*
X149387127Y-56610500D01*
X150505500Y-56610499D01*
X150572539Y-56630184D01*
X150618294Y-56682987D01*
X150629500Y-56734499D01*
X150629500Y-58374903D01*
X150620855Y-58404343D01*
X150614332Y-58434330D01*
X150610577Y-58439345D01*
X150609815Y-58441942D01*
X150593181Y-58462584D01*
X150567584Y-58488181D01*
X150506261Y-58521666D01*
X150479903Y-58524500D01*
X150148384Y-58524500D01*
X150129145Y-58526248D01*
X150077807Y-58530913D01*
X149915393Y-58581522D01*
X149769811Y-58669530D01*
X149649530Y-58789811D01*
X149561522Y-58935393D01*
X149510913Y-59097807D01*
X149504500Y-59168386D01*
X149504500Y-59831613D01*
X149510913Y-59902192D01*
X149510913Y-59902194D01*
X149510914Y-59902196D01*
X149561522Y-60064606D01*
X149643272Y-60199837D01*
X149649530Y-60210188D01*
X149769811Y-60330469D01*
X149769813Y-60330470D01*
X149769815Y-60330472D01*
X149915394Y-60418478D01*
X150077804Y-60469086D01*
X150148384Y-60475500D01*
X150148387Y-60475500D01*
X150661613Y-60475500D01*
X150661616Y-60475500D01*
X150732196Y-60469086D01*
X150894606Y-60418478D01*
X151040185Y-60330472D01*
X151142320Y-60228336D01*
X151150265Y-60223998D01*
X151155690Y-60216752D01*
X151180446Y-60207518D01*
X151203641Y-60194853D01*
X151212671Y-60195498D01*
X151221154Y-60192335D01*
X151246974Y-60197951D01*
X151273333Y-60199837D01*
X151282386Y-60205655D01*
X151289427Y-60207187D01*
X151317681Y-60228338D01*
X151418181Y-60328838D01*
X151451666Y-60390161D01*
X151454500Y-60416519D01*
X151454500Y-62178330D01*
X151454499Y-62178348D01*
X151454499Y-62344054D01*
X151454498Y-62344054D01*
X151495423Y-62496786D01*
X151498185Y-62501569D01*
X151506240Y-62515520D01*
X151524888Y-62547819D01*
X151539715Y-62573501D01*
X151556186Y-62641401D01*
X151533334Y-62707428D01*
X151478412Y-62750618D01*
X151432327Y-62759500D01*
X150674500Y-62759500D01*
X150607461Y-62739815D01*
X150561706Y-62687011D01*
X150550500Y-62635500D01*
X150550500Y-62596155D01*
X150550499Y-62596153D01*
X150546848Y-62577797D01*
X150519737Y-62441503D01*
X150507505Y-62411971D01*
X150460070Y-62297452D01*
X150452601Y-62227983D01*
X150460070Y-62202548D01*
X150501972Y-62101385D01*
X150519737Y-62058497D01*
X150550500Y-61903842D01*
X150550500Y-61746158D01*
X150550500Y-61746153D01*
X150526914Y-61627583D01*
X150519737Y-61591503D01*
X150512650Y-61574394D01*
X150459397Y-61445827D01*
X150459390Y-61445814D01*
X150371789Y-61314711D01*
X150371786Y-61314707D01*
X150260292Y-61203213D01*
X150260288Y-61203210D01*
X150129185Y-61115609D01*
X150129172Y-61115602D01*
X149983501Y-61055264D01*
X149983489Y-61055261D01*
X149828845Y-61024500D01*
X149828842Y-61024500D01*
X149671158Y-61024500D01*
X149671155Y-61024500D01*
X149516510Y-61055261D01*
X149516498Y-61055264D01*
X149370827Y-61115602D01*
X149370814Y-61115609D01*
X149239711Y-61203210D01*
X149239707Y-61203213D01*
X149128212Y-61314708D01*
X149106339Y-61347443D01*
X149091675Y-61369390D01*
X149038065Y-61414194D01*
X148988574Y-61424499D01*
X146913347Y-61424499D01*
X146913331Y-61424500D01*
X144961495Y-61424500D01*
X144894456Y-61404815D01*
X144873814Y-61388181D01*
X140136819Y-56651186D01*
X140122115Y-56624258D01*
X140105523Y-56598440D01*
X140104631Y-56592239D01*
X140103334Y-56589863D01*
X140100500Y-56563505D01*
X140100500Y-56435718D01*
X140120185Y-56368679D01*
X140168207Y-56325233D01*
X140207815Y-56305052D01*
X140207815Y-56305051D01*
X140207816Y-56305051D01*
X140326728Y-56218657D01*
X140379786Y-56180109D01*
X140379788Y-56180106D01*
X140379792Y-56180104D01*
X140530104Y-56029792D01*
X140530106Y-56029788D01*
X140530109Y-56029786D01*
X140655048Y-55857820D01*
X140655047Y-55857820D01*
X140655051Y-55857816D01*
X140751557Y-55668412D01*
X140817246Y-55466243D01*
X140850500Y-55256287D01*
X140850500Y-54743713D01*
X140817246Y-54533757D01*
X140751557Y-54331588D01*
X140655051Y-54142184D01*
X140655049Y-54142181D01*
X140655048Y-54142179D01*
X140530109Y-53970213D01*
X140379786Y-53819890D01*
X140207820Y-53694951D01*
X140018414Y-53598444D01*
X140018413Y-53598443D01*
X140018412Y-53598443D01*
X139816243Y-53532754D01*
X139816241Y-53532753D01*
X139816240Y-53532753D01*
X139654957Y-53507208D01*
X139606287Y-53499500D01*
X139393713Y-53499500D01*
X139345042Y-53507208D01*
X139183760Y-53532753D01*
X138981585Y-53598444D01*
X138792179Y-53694951D01*
X138620215Y-53819889D01*
X138481398Y-53958706D01*
X138420075Y-53992190D01*
X138350383Y-53987206D01*
X138294450Y-53945334D01*
X138288178Y-53936120D01*
X138192712Y-53781344D01*
X138068657Y-53657289D01*
X138068656Y-53657288D01*
X137959866Y-53590186D01*
X137919336Y-53565187D01*
X137919331Y-53565185D01*
X137917862Y-53564698D01*
X137752797Y-53510001D01*
X137752795Y-53510000D01*
X137650010Y-53499500D01*
X136349998Y-53499500D01*
X136349981Y-53499501D01*
X136247203Y-53510000D01*
X136247200Y-53510001D01*
X136080668Y-53565185D01*
X136080663Y-53565187D01*
X135931342Y-53657289D01*
X135807289Y-53781342D01*
X135715187Y-53930663D01*
X135715185Y-53930668D01*
X135693797Y-53995213D01*
X135660001Y-54097203D01*
X135660001Y-54097204D01*
X135660000Y-54097204D01*
X135649500Y-54199983D01*
X135649500Y-55800001D01*
X135649501Y-55800018D01*
X135660000Y-55902796D01*
X135660001Y-55902799D01*
X135715185Y-56069331D01*
X135715187Y-56069336D01*
X135716063Y-56070756D01*
X135807288Y-56218656D01*
X135931344Y-56342712D01*
X136080666Y-56434814D01*
X136247203Y-56489999D01*
X136349991Y-56500500D01*
X137599902Y-56500499D01*
X137666941Y-56520184D01*
X137687583Y-56536818D01*
X143698584Y-62547819D01*
X143732069Y-62609142D01*
X143727085Y-62678834D01*
X143685213Y-62734767D01*
X143619749Y-62759184D01*
X143610903Y-62759500D01*
X129301519Y-62759500D01*
X129234480Y-62739815D01*
X129213838Y-62723181D01*
X127736819Y-61246162D01*
X127703334Y-61184839D01*
X127700500Y-61158481D01*
X127700500Y-56596869D01*
X127720185Y-56529830D01*
X127772989Y-56484075D01*
X127785486Y-56479166D01*
X127919334Y-56434814D01*
X128068656Y-56342712D01*
X128192712Y-56218656D01*
X128284814Y-56069334D01*
X128284814Y-56069331D01*
X128288448Y-56063441D01*
X128340395Y-56016716D01*
X128409358Y-56005493D01*
X128473440Y-56033336D01*
X128481668Y-56040856D01*
X128620535Y-56179723D01*
X128620540Y-56179727D01*
X128792442Y-56304620D01*
X128981782Y-56401095D01*
X129183871Y-56466757D01*
X129250000Y-56477231D01*
X129250000Y-55433012D01*
X129307007Y-55465925D01*
X129434174Y-55500000D01*
X129565826Y-55500000D01*
X129692993Y-55465925D01*
X129750000Y-55433012D01*
X129750000Y-56477230D01*
X129816126Y-56466757D01*
X129816129Y-56466757D01*
X130018217Y-56401095D01*
X130207557Y-56304620D01*
X130379459Y-56179727D01*
X130379464Y-56179723D01*
X130529723Y-56029464D01*
X130529727Y-56029459D01*
X130654620Y-55857557D01*
X130751095Y-55668217D01*
X130816757Y-55466130D01*
X130816757Y-55466127D01*
X130850000Y-55256246D01*
X130850000Y-55250000D01*
X129933012Y-55250000D01*
X129965925Y-55192993D01*
X130000000Y-55065826D01*
X130000000Y-54934174D01*
X129965925Y-54807007D01*
X129933012Y-54750000D01*
X130850000Y-54750000D01*
X130850000Y-54743753D01*
X130816757Y-54533872D01*
X130816757Y-54533869D01*
X130751095Y-54331782D01*
X130654620Y-54142442D01*
X130529727Y-53970540D01*
X130529723Y-53970535D01*
X130379464Y-53820276D01*
X130379459Y-53820272D01*
X130207557Y-53695379D01*
X130018215Y-53598903D01*
X129816124Y-53533241D01*
X129750000Y-53522768D01*
X129750000Y-54566988D01*
X129692993Y-54534075D01*
X129565826Y-54500000D01*
X129434174Y-54500000D01*
X129307007Y-54534075D01*
X129250000Y-54566988D01*
X129250000Y-53522768D01*
X129249999Y-53522768D01*
X129183875Y-53533241D01*
X128981784Y-53598903D01*
X128792442Y-53695379D01*
X128620541Y-53820271D01*
X128481668Y-53959144D01*
X128420345Y-53992628D01*
X128350653Y-53987644D01*
X128294720Y-53945772D01*
X128288448Y-53936558D01*
X128279771Y-53922491D01*
X128192712Y-53781344D01*
X128068656Y-53657288D01*
X127959866Y-53590186D01*
X127919336Y-53565187D01*
X127919331Y-53565185D01*
X127917862Y-53564698D01*
X127752797Y-53510001D01*
X127752795Y-53510000D01*
X127650010Y-53499500D01*
X126349998Y-53499500D01*
X126349981Y-53499501D01*
X126247203Y-53510000D01*
X126247200Y-53510001D01*
X126080668Y-53565185D01*
X126080663Y-53565187D01*
X125931342Y-53657289D01*
X125807289Y-53781342D01*
X125715187Y-53930663D01*
X125715185Y-53930668D01*
X125693797Y-53995213D01*
X125660001Y-54097203D01*
X125660001Y-54097204D01*
X125660000Y-54097204D01*
X125649500Y-54199983D01*
X125649500Y-55800001D01*
X125649501Y-55800018D01*
X125660000Y-55902796D01*
X125660001Y-55902799D01*
X125715185Y-56069331D01*
X125715187Y-56069336D01*
X125716063Y-56070756D01*
X125807288Y-56218656D01*
X125931344Y-56342712D01*
X126080666Y-56434814D01*
X126214505Y-56479164D01*
X126271949Y-56518936D01*
X126298772Y-56583451D01*
X126299500Y-56596869D01*
X126299500Y-61431006D01*
X126299500Y-61568994D01*
X126299500Y-61568996D01*
X126299499Y-61568996D01*
X126326418Y-61704322D01*
X126326421Y-61704332D01*
X126379222Y-61831807D01*
X126455887Y-61946545D01*
X128513454Y-64004112D01*
X128628192Y-64080777D01*
X128755667Y-64133578D01*
X128755672Y-64133580D01*
X128755676Y-64133580D01*
X128755677Y-64133581D01*
X128891003Y-64160500D01*
X128891006Y-64160500D01*
X128891007Y-64160500D01*
X138433853Y-64160500D01*
X138500892Y-64180185D01*
X138546647Y-64232989D01*
X138556591Y-64302147D01*
X138527566Y-64365703D01*
X138521534Y-64372181D01*
X137334130Y-65559583D01*
X137272807Y-65593068D01*
X137203115Y-65588084D01*
X137158768Y-65559583D01*
X137107213Y-65508028D01*
X136941613Y-65387715D01*
X136941612Y-65387714D01*
X136941610Y-65387713D01*
X136872175Y-65352334D01*
X136759223Y-65294781D01*
X136564534Y-65231522D01*
X136367693Y-65200346D01*
X136362352Y-65199500D01*
X136157648Y-65199500D01*
X136152307Y-65200346D01*
X135955465Y-65231522D01*
X135760776Y-65294781D01*
X135578386Y-65387715D01*
X135412786Y-65508028D01*
X135268028Y-65652786D01*
X135147715Y-65818386D01*
X135100485Y-65911080D01*
X135052510Y-65961876D01*
X134984689Y-65978671D01*
X134918554Y-65956134D01*
X134879515Y-65911080D01*
X134869792Y-65891998D01*
X134832287Y-65818390D01*
X134801126Y-65775500D01*
X134711971Y-65652786D01*
X134567213Y-65508028D01*
X134401613Y-65387715D01*
X134401612Y-65387714D01*
X134401610Y-65387713D01*
X134332175Y-65352334D01*
X134219223Y-65294781D01*
X134024534Y-65231522D01*
X133827693Y-65200346D01*
X133822352Y-65199500D01*
X133617648Y-65199500D01*
X133612307Y-65200346D01*
X133415465Y-65231522D01*
X133220776Y-65294781D01*
X133038386Y-65387715D01*
X132872786Y-65508028D01*
X132728028Y-65652786D01*
X132607715Y-65818386D01*
X132560485Y-65911080D01*
X132512510Y-65961876D01*
X132444689Y-65978671D01*
X132378554Y-65956134D01*
X132339515Y-65911080D01*
X132329792Y-65891998D01*
X132292287Y-65818390D01*
X132261126Y-65775500D01*
X132171971Y-65652786D01*
X132027213Y-65508028D01*
X131861613Y-65387715D01*
X131861612Y-65387714D01*
X131861610Y-65387713D01*
X131792175Y-65352334D01*
X131679223Y-65294781D01*
X131484534Y-65231522D01*
X131287693Y-65200346D01*
X131282352Y-65199500D01*
X131077648Y-65199500D01*
X131072307Y-65200346D01*
X130875465Y-65231522D01*
X130680776Y-65294781D01*
X130498386Y-65387715D01*
X130332786Y-65508028D01*
X130188028Y-65652786D01*
X130067715Y-65818386D01*
X130020485Y-65911080D01*
X129972510Y-65961876D01*
X129904689Y-65978671D01*
X129838554Y-65956134D01*
X129799515Y-65911080D01*
X129789792Y-65891998D01*
X129752287Y-65818390D01*
X129721126Y-65775500D01*
X129631971Y-65652786D01*
X129487213Y-65508028D01*
X129321613Y-65387715D01*
X129321612Y-65387714D01*
X129321610Y-65387713D01*
X129252175Y-65352334D01*
X129139223Y-65294781D01*
X128944534Y-65231522D01*
X128747693Y-65200346D01*
X128742352Y-65199500D01*
X128537648Y-65199500D01*
X128499599Y-65205526D01*
X128335468Y-65231522D01*
X128326717Y-65234365D01*
X128321154Y-65236173D01*
X128305941Y-65236607D01*
X128291684Y-65241925D01*
X128271729Y-65237584D01*
X128251313Y-65238167D01*
X128237226Y-65230078D01*
X128223411Y-65227073D01*
X128195157Y-65205922D01*
X128026590Y-65037355D01*
X128026588Y-65037352D01*
X127907717Y-64918481D01*
X127907716Y-64918480D01*
X127806896Y-64860272D01*
X127770785Y-64839423D01*
X127618057Y-64798499D01*
X127459943Y-64798499D01*
X127452347Y-64798499D01*
X127452331Y-64798500D01*
X125564892Y-64798500D01*
X125412163Y-64839423D01*
X125376054Y-64860272D01*
X125376053Y-64860272D01*
X125275237Y-64918477D01*
X125275232Y-64918481D01*
X121084095Y-69109618D01*
X121084093Y-69109621D01*
X121072295Y-69130057D01*
X121047193Y-69173535D01*
X121005037Y-69246551D01*
X120964113Y-69399279D01*
X120964113Y-69399281D01*
X120964113Y-69567382D01*
X120964114Y-69567395D01*
X120964114Y-85640208D01*
X120944429Y-85707247D01*
X120891625Y-85753002D01*
X120822467Y-85762946D01*
X120792663Y-85754770D01*
X120733497Y-85730263D01*
X120733492Y-85730262D01*
X120733489Y-85730261D01*
X120578845Y-85699500D01*
X120578842Y-85699500D01*
X120474500Y-85699500D01*
X120407461Y-85679815D01*
X120361706Y-85627011D01*
X120350500Y-85575500D01*
X120350500Y-81079765D01*
X120370185Y-81012726D01*
X120371398Y-81010874D01*
X120459390Y-80879185D01*
X120459390Y-80879184D01*
X120459394Y-80879179D01*
X120519737Y-80733497D01*
X120550500Y-80578842D01*
X120550500Y-80421158D01*
X120550500Y-80421155D01*
X120550499Y-80421153D01*
X120537970Y-80358167D01*
X120519737Y-80266503D01*
X120517992Y-80262290D01*
X120459397Y-80120827D01*
X120459390Y-80120814D01*
X120371789Y-79989711D01*
X120371786Y-79989707D01*
X120260292Y-79878213D01*
X120260288Y-79878210D01*
X120129185Y-79790609D01*
X120129172Y-79790602D01*
X119983501Y-79730264D01*
X119983489Y-79730261D01*
X119828845Y-79699500D01*
X119828842Y-79699500D01*
X119671158Y-79699500D01*
X119671155Y-79699500D01*
X119516510Y-79730261D01*
X119516498Y-79730264D01*
X119370827Y-79790602D01*
X119370814Y-79790609D01*
X119239711Y-79878210D01*
X119239707Y-79878213D01*
X119212181Y-79905740D01*
X119150858Y-79939225D01*
X119081166Y-79934241D01*
X119025233Y-79892369D01*
X119000816Y-79826905D01*
X119000500Y-79818059D01*
X119000500Y-50624500D01*
X119020185Y-50557461D01*
X119072989Y-50511706D01*
X119124500Y-50500500D01*
X226875500Y-50500500D01*
X226942539Y-50520185D01*
G37*
%TD.AperFunction*%
%TA.AperFunction,Conductor*%
G36*
X192998834Y-76452914D02*
G01*
X193054767Y-76494786D01*
X193079184Y-76560250D01*
X193079500Y-76569096D01*
X193079500Y-76762351D01*
X193111522Y-76964534D01*
X193174781Y-77159223D01*
X193231091Y-77269735D01*
X193267598Y-77341385D01*
X193267715Y-77341613D01*
X193388028Y-77507213D01*
X193532786Y-77651971D01*
X193664565Y-77747712D01*
X193698390Y-77772287D01*
X193789840Y-77818883D01*
X193791080Y-77819515D01*
X193841876Y-77867490D01*
X193858671Y-77935311D01*
X193836134Y-78001446D01*
X193791080Y-78040485D01*
X193698386Y-78087715D01*
X193532786Y-78208028D01*
X193388028Y-78352786D01*
X193267715Y-78518386D01*
X193174781Y-78700776D01*
X193111522Y-78895465D01*
X193079500Y-79097648D01*
X193079500Y-79302351D01*
X193111522Y-79504534D01*
X193174781Y-79699223D01*
X193229036Y-79805703D01*
X193267598Y-79881385D01*
X193267715Y-79881613D01*
X193388028Y-80047213D01*
X193388034Y-80047219D01*
X193532781Y-80191966D01*
X193698390Y-80312287D01*
X193711793Y-80319116D01*
X193762589Y-80367088D01*
X193779500Y-80429601D01*
X193779500Y-80969230D01*
X193759815Y-81036269D01*
X193707011Y-81082024D01*
X193694509Y-81086934D01*
X193691309Y-81087994D01*
X193691297Y-81087999D01*
X193546956Y-81177031D01*
X193427032Y-81296955D01*
X193427029Y-81296959D01*
X193338001Y-81441294D01*
X193337996Y-81441305D01*
X193284651Y-81602290D01*
X193274500Y-81701647D01*
X193274500Y-82049900D01*
X193254815Y-82116939D01*
X193238182Y-82137581D01*
X193052968Y-82322797D01*
X193012584Y-82363181D01*
X192951261Y-82396666D01*
X192924902Y-82399500D01*
X190844199Y-82399500D01*
X190777160Y-82379815D01*
X190731405Y-82327011D01*
X190721461Y-82257853D01*
X190733714Y-82219205D01*
X190784755Y-82119031D01*
X190847990Y-81924417D01*
X190880000Y-81722317D01*
X190880000Y-81517682D01*
X190847990Y-81315582D01*
X190784755Y-81120968D01*
X190691859Y-80938650D01*
X190659474Y-80894077D01*
X190659474Y-80894076D01*
X189980000Y-81573551D01*
X189980000Y-81567339D01*
X189952741Y-81465606D01*
X189900080Y-81374394D01*
X189825606Y-81299920D01*
X189734394Y-81247259D01*
X189632661Y-81220000D01*
X189626446Y-81220000D01*
X190305922Y-80540524D01*
X190305921Y-80540523D01*
X190261359Y-80508147D01*
X190261350Y-80508141D01*
X190079031Y-80415244D01*
X189884417Y-80352009D01*
X189682317Y-80320000D01*
X189477683Y-80320000D01*
X189275582Y-80352009D01*
X189080968Y-80415244D01*
X188898644Y-80508143D01*
X188854077Y-80540523D01*
X188854077Y-80540524D01*
X189533554Y-81220000D01*
X189527339Y-81220000D01*
X189425606Y-81247259D01*
X189334394Y-81299920D01*
X189259920Y-81374394D01*
X189207259Y-81465606D01*
X189180000Y-81567339D01*
X189180000Y-81573553D01*
X188500524Y-80894077D01*
X188500523Y-80894077D01*
X188468143Y-80938644D01*
X188420765Y-81031630D01*
X188372790Y-81082426D01*
X188304969Y-81099221D01*
X188238834Y-81076683D01*
X188199795Y-81031630D01*
X188197576Y-81027275D01*
X188152287Y-80938390D01*
X188152285Y-80938387D01*
X188152284Y-80938385D01*
X188031971Y-80772786D01*
X187887213Y-80628028D01*
X187721613Y-80507715D01*
X187721612Y-80507714D01*
X187721610Y-80507713D01*
X187650583Y-80471523D01*
X187539223Y-80414781D01*
X187344534Y-80351522D01*
X187169995Y-80323878D01*
X187142352Y-80319500D01*
X186937648Y-80319500D01*
X186913329Y-80323351D01*
X186735465Y-80351522D01*
X186540776Y-80414781D01*
X186358386Y-80507715D01*
X186192786Y-80628028D01*
X186048028Y-80772786D01*
X185927715Y-80938386D01*
X185880485Y-81031080D01*
X185832510Y-81081876D01*
X185764689Y-81098671D01*
X185698554Y-81076134D01*
X185659515Y-81031080D01*
X185648921Y-81010289D01*
X185612287Y-80938390D01*
X185580092Y-80894077D01*
X185491971Y-80772786D01*
X185347213Y-80628028D01*
X185181613Y-80507715D01*
X185181612Y-80507714D01*
X185181610Y-80507713D01*
X185110583Y-80471523D01*
X184999223Y-80414781D01*
X184804534Y-80351522D01*
X184629995Y-80323878D01*
X184602352Y-80319500D01*
X184397648Y-80319500D01*
X184373329Y-80323351D01*
X184195465Y-80351522D01*
X184000776Y-80414781D01*
X183818386Y-80507715D01*
X183652786Y-80628028D01*
X183508028Y-80772786D01*
X183387715Y-80938386D01*
X183340485Y-81031080D01*
X183292510Y-81081876D01*
X183224689Y-81098671D01*
X183158554Y-81076134D01*
X183119515Y-81031080D01*
X183108921Y-81010289D01*
X183072287Y-80938390D01*
X183040092Y-80894077D01*
X182951971Y-80772786D01*
X182807213Y-80628028D01*
X182641613Y-80507715D01*
X182641612Y-80507714D01*
X182641610Y-80507713D01*
X182570583Y-80471523D01*
X182459223Y-80414781D01*
X182264534Y-80351522D01*
X182089995Y-80323878D01*
X182062352Y-80319500D01*
X181857648Y-80319500D01*
X181833329Y-80323351D01*
X181655465Y-80351522D01*
X181460776Y-80414781D01*
X181278386Y-80507715D01*
X181112786Y-80628028D01*
X180968028Y-80772786D01*
X180847715Y-80938386D01*
X180800485Y-81031080D01*
X180752510Y-81081876D01*
X180684689Y-81098671D01*
X180618554Y-81076134D01*
X180579515Y-81031080D01*
X180568921Y-81010289D01*
X180532287Y-80938390D01*
X180500092Y-80894077D01*
X180411971Y-80772786D01*
X180267213Y-80628028D01*
X180101613Y-80507715D01*
X180101612Y-80507714D01*
X180101610Y-80507713D01*
X180030583Y-80471523D01*
X179919223Y-80414781D01*
X179724534Y-80351522D01*
X179549995Y-80323878D01*
X179522352Y-80319500D01*
X179317648Y-80319500D01*
X179279599Y-80325526D01*
X179115468Y-80351522D01*
X179109030Y-80353614D01*
X179101154Y-80356173D01*
X179031313Y-80358167D01*
X178975157Y-80325922D01*
X176961416Y-78312181D01*
X176927931Y-78250858D01*
X176932915Y-78181166D01*
X176974787Y-78125233D01*
X177040251Y-78100816D01*
X177049097Y-78100500D01*
X190913331Y-78100500D01*
X190913347Y-78100501D01*
X190920943Y-78100501D01*
X191079054Y-78100501D01*
X191079057Y-78100501D01*
X191231785Y-78059577D01*
X191301233Y-78019481D01*
X191368716Y-77980520D01*
X191480520Y-77868716D01*
X191480520Y-77868714D01*
X191490724Y-77858511D01*
X191490728Y-77858506D01*
X192867819Y-76481415D01*
X192929142Y-76447930D01*
X192998834Y-76452914D01*
G37*
%TD.AperFunction*%
%TA.AperFunction,Conductor*%
G36*
X163100893Y-65961523D02*
G01*
X163171158Y-65975500D01*
X163304751Y-65975500D01*
X163308981Y-65975790D01*
X163337938Y-65986493D01*
X163367538Y-65995185D01*
X163370405Y-65998494D01*
X163374517Y-66000014D01*
X163393093Y-66024678D01*
X163413293Y-66047989D01*
X163414365Y-66052920D01*
X163416553Y-66055824D01*
X163417362Y-66066696D01*
X163424499Y-66099500D01*
X163424499Y-74213573D01*
X163404814Y-74280612D01*
X163369391Y-74316674D01*
X163314711Y-74353211D01*
X163314704Y-74353217D01*
X163203213Y-74464707D01*
X163203210Y-74464711D01*
X163115609Y-74595814D01*
X163115602Y-74595827D01*
X163055264Y-74741498D01*
X163055261Y-74741510D01*
X163024500Y-74896153D01*
X163024500Y-75053846D01*
X163055261Y-75208489D01*
X163055264Y-75208501D01*
X163063361Y-75228048D01*
X163070830Y-75297517D01*
X163039555Y-75359996D01*
X162979466Y-75395648D01*
X162948800Y-75399500D01*
X151140097Y-75399500D01*
X151073058Y-75379815D01*
X151052416Y-75363181D01*
X143701416Y-68012181D01*
X143667931Y-67950858D01*
X143672915Y-67881166D01*
X143714787Y-67825233D01*
X143780251Y-67800816D01*
X143789097Y-67800500D01*
X143982351Y-67800500D01*
X143982352Y-67800500D01*
X144184534Y-67768477D01*
X144379219Y-67705220D01*
X144379667Y-67704992D01*
X144392747Y-67698327D01*
X144561610Y-67612287D01*
X144661634Y-67539616D01*
X144727213Y-67491971D01*
X144727215Y-67491968D01*
X144727219Y-67491966D01*
X144871966Y-67347219D01*
X144871968Y-67347215D01*
X144871971Y-67347213D01*
X144992284Y-67181614D01*
X144992286Y-67181611D01*
X144992287Y-67181610D01*
X145039516Y-67088917D01*
X145087489Y-67038123D01*
X145155310Y-67021328D01*
X145221445Y-67043865D01*
X145260483Y-67088917D01*
X145288399Y-67143704D01*
X145307715Y-67181614D01*
X145428028Y-67347213D01*
X145572786Y-67491971D01*
X145694596Y-67580469D01*
X145738390Y-67612287D01*
X145820906Y-67654331D01*
X145920776Y-67705218D01*
X145920778Y-67705218D01*
X145920781Y-67705220D01*
X146011502Y-67734697D01*
X146115465Y-67768477D01*
X146216557Y-67784488D01*
X146317648Y-67800500D01*
X146317649Y-67800500D01*
X146522351Y-67800500D01*
X146522352Y-67800500D01*
X146724534Y-67768477D01*
X146919219Y-67705220D01*
X146919667Y-67704992D01*
X146932747Y-67698327D01*
X147101610Y-67612287D01*
X147201634Y-67539616D01*
X147267213Y-67491971D01*
X147267215Y-67491968D01*
X147267219Y-67491966D01*
X147411966Y-67347219D01*
X147411968Y-67347215D01*
X147411971Y-67347213D01*
X147532284Y-67181614D01*
X147532286Y-67181611D01*
X147532287Y-67181610D01*
X147579516Y-67088917D01*
X147627489Y-67038123D01*
X147695310Y-67021328D01*
X147761445Y-67043865D01*
X147800483Y-67088917D01*
X147828399Y-67143704D01*
X147847715Y-67181614D01*
X147968028Y-67347213D01*
X148112786Y-67491971D01*
X148234596Y-67580469D01*
X148278390Y-67612287D01*
X148360906Y-67654331D01*
X148460776Y-67705218D01*
X148460778Y-67705218D01*
X148460781Y-67705220D01*
X148551502Y-67734697D01*
X148655465Y-67768477D01*
X148756557Y-67784488D01*
X148857648Y-67800500D01*
X148857649Y-67800500D01*
X149062351Y-67800500D01*
X149062352Y-67800500D01*
X149264534Y-67768477D01*
X149459219Y-67705220D01*
X149459667Y-67704992D01*
X149472747Y-67698327D01*
X149641610Y-67612287D01*
X149741634Y-67539616D01*
X149807213Y-67491971D01*
X149807215Y-67491968D01*
X149807219Y-67491966D01*
X149951966Y-67347219D01*
X149951968Y-67347215D01*
X149951971Y-67347213D01*
X150072284Y-67181614D01*
X150072286Y-67181611D01*
X150072287Y-67181610D01*
X150119516Y-67088917D01*
X150167489Y-67038123D01*
X150235310Y-67021328D01*
X150301445Y-67043865D01*
X150340483Y-67088917D01*
X150368399Y-67143704D01*
X150387715Y-67181614D01*
X150508028Y-67347213D01*
X150652786Y-67491971D01*
X150774596Y-67580469D01*
X150818390Y-67612287D01*
X150900906Y-67654331D01*
X151000776Y-67705218D01*
X151000778Y-67705218D01*
X151000781Y-67705220D01*
X151091502Y-67734697D01*
X151195465Y-67768477D01*
X151296557Y-67784488D01*
X151397648Y-67800500D01*
X151397649Y-67800500D01*
X151602351Y-67800500D01*
X151602352Y-67800500D01*
X151804534Y-67768477D01*
X151999219Y-67705220D01*
X151999667Y-67704992D01*
X152012747Y-67698327D01*
X152181610Y-67612287D01*
X152281634Y-67539616D01*
X152347213Y-67491971D01*
X152347215Y-67491968D01*
X152347219Y-67491966D01*
X152491966Y-67347219D01*
X152491968Y-67347215D01*
X152491971Y-67347213D01*
X152612284Y-67181614D01*
X152612286Y-67181611D01*
X152612287Y-67181610D01*
X152659795Y-67088369D01*
X152707770Y-67037574D01*
X152775591Y-67020779D01*
X152841725Y-67043316D01*
X152880765Y-67088370D01*
X152928140Y-67181349D01*
X153048417Y-67346894D01*
X153048417Y-67346895D01*
X153193104Y-67491582D01*
X153358650Y-67611859D01*
X153540968Y-67704754D01*
X153735578Y-67767988D01*
X153790000Y-67776607D01*
X153790000Y-66933012D01*
X153847007Y-66965925D01*
X153974174Y-67000000D01*
X154105826Y-67000000D01*
X154232993Y-66965925D01*
X154290000Y-66933012D01*
X154290000Y-67776606D01*
X154344421Y-67767988D01*
X154539031Y-67704754D01*
X154721349Y-67611859D01*
X154886894Y-67491582D01*
X154886895Y-67491582D01*
X155031582Y-67346895D01*
X155031582Y-67346894D01*
X155151861Y-67181347D01*
X155199234Y-67088371D01*
X155247208Y-67037575D01*
X155315028Y-67020779D01*
X155381164Y-67043316D01*
X155420203Y-67088369D01*
X155467713Y-67181611D01*
X155588028Y-67347213D01*
X155732786Y-67491971D01*
X155854596Y-67580469D01*
X155898390Y-67612287D01*
X155980906Y-67654331D01*
X156080776Y-67705218D01*
X156080778Y-67705218D01*
X156080781Y-67705220D01*
X156171502Y-67734697D01*
X156275465Y-67768477D01*
X156376557Y-67784488D01*
X156477648Y-67800500D01*
X156477649Y-67800500D01*
X156682351Y-67800500D01*
X156682352Y-67800500D01*
X156884534Y-67768477D01*
X157079219Y-67705220D01*
X157079667Y-67704992D01*
X157092747Y-67698327D01*
X157261610Y-67612287D01*
X157361634Y-67539616D01*
X157427213Y-67491971D01*
X157427215Y-67491968D01*
X157427219Y-67491966D01*
X157571966Y-67347219D01*
X157571968Y-67347215D01*
X157571971Y-67347213D01*
X157692284Y-67181614D01*
X157692286Y-67181611D01*
X157692287Y-67181610D01*
X157739516Y-67088917D01*
X157787489Y-67038123D01*
X157855310Y-67021328D01*
X157921445Y-67043865D01*
X157960483Y-67088917D01*
X157988399Y-67143704D01*
X158007715Y-67181614D01*
X158128028Y-67347213D01*
X158272786Y-67491971D01*
X158394596Y-67580469D01*
X158438390Y-67612287D01*
X158520906Y-67654331D01*
X158620776Y-67705218D01*
X158620778Y-67705218D01*
X158620781Y-67705220D01*
X158711502Y-67734697D01*
X158815465Y-67768477D01*
X158916557Y-67784488D01*
X159017648Y-67800500D01*
X159017649Y-67800500D01*
X159222351Y-67800500D01*
X159222352Y-67800500D01*
X159424534Y-67768477D01*
X159619219Y-67705220D01*
X159619667Y-67704992D01*
X159632747Y-67698327D01*
X159801610Y-67612287D01*
X159901634Y-67539616D01*
X159967213Y-67491971D01*
X159967215Y-67491968D01*
X159967219Y-67491966D01*
X160111966Y-67347219D01*
X160138330Y-67310930D01*
X160193658Y-67268265D01*
X160263271Y-67262284D01*
X160325067Y-67294889D01*
X160359426Y-67355726D01*
X160361938Y-67370559D01*
X160365907Y-67407480D01*
X160416202Y-67542328D01*
X160416206Y-67542335D01*
X160502452Y-67657544D01*
X160502455Y-67657547D01*
X160617664Y-67743793D01*
X160617671Y-67743797D01*
X160752517Y-67794091D01*
X160752516Y-67794091D01*
X160759444Y-67794835D01*
X160812127Y-67800500D01*
X162507872Y-67800499D01*
X162567483Y-67794091D01*
X162702331Y-67743796D01*
X162817546Y-67657546D01*
X162903796Y-67542331D01*
X162954091Y-67407483D01*
X162960500Y-67347873D01*
X162960499Y-66084690D01*
X162964242Y-66071941D01*
X162963256Y-66058690D01*
X162973895Y-66039068D01*
X162980184Y-66017652D01*
X162990226Y-66008950D01*
X162996560Y-65997269D01*
X163016117Y-65986514D01*
X163032987Y-65971897D01*
X163047504Y-65969255D01*
X163057784Y-65963603D01*
X163079829Y-65963373D01*
X163092981Y-65960981D01*
X163100893Y-65961523D01*
G37*
%TD.AperFunction*%
%TA.AperFunction,Conductor*%
G36*
X193980000Y-71632661D02*
G01*
X194007259Y-71734394D01*
X194059920Y-71825606D01*
X194134394Y-71900080D01*
X194225606Y-71952741D01*
X194327339Y-71980000D01*
X194333553Y-71980000D01*
X193654076Y-72659474D01*
X193698652Y-72691861D01*
X193791628Y-72739234D01*
X193842425Y-72787208D01*
X193859220Y-72855029D01*
X193836683Y-72921164D01*
X193791630Y-72960203D01*
X193698388Y-73007713D01*
X193532786Y-73128028D01*
X193532782Y-73128032D01*
X193440181Y-73220634D01*
X193378858Y-73254119D01*
X193309166Y-73249135D01*
X193253233Y-73207263D01*
X193228816Y-73141799D01*
X193228500Y-73132953D01*
X193228500Y-72429308D01*
X193248185Y-72362269D01*
X193264819Y-72341627D01*
X193980000Y-71626446D01*
X193980000Y-71632661D01*
G37*
%TD.AperFunction*%
%TA.AperFunction,Conductor*%
G36*
X162392539Y-64180185D02*
G01*
X162438294Y-64232989D01*
X162449500Y-64284500D01*
X162449500Y-64403846D01*
X162480261Y-64558489D01*
X162480264Y-64558501D01*
X162539930Y-64702548D01*
X162547399Y-64772017D01*
X162539930Y-64797452D01*
X162480264Y-64941498D01*
X162480261Y-64941508D01*
X162448796Y-65099692D01*
X162416411Y-65161603D01*
X162355695Y-65196177D01*
X162327179Y-65199500D01*
X160812129Y-65199500D01*
X160812123Y-65199501D01*
X160752516Y-65205908D01*
X160617671Y-65256202D01*
X160617664Y-65256206D01*
X160502455Y-65342452D01*
X160502452Y-65342455D01*
X160416206Y-65457664D01*
X160416202Y-65457671D01*
X160365908Y-65592516D01*
X160361939Y-65629440D01*
X160335201Y-65693991D01*
X160277809Y-65733839D01*
X160207983Y-65736332D01*
X160147895Y-65700679D01*
X160138332Y-65689070D01*
X160111967Y-65652782D01*
X159967213Y-65508028D01*
X159801613Y-65387715D01*
X159801612Y-65387714D01*
X159801610Y-65387713D01*
X159732175Y-65352334D01*
X159619223Y-65294781D01*
X159424534Y-65231522D01*
X159227693Y-65200346D01*
X159222352Y-65199500D01*
X159017648Y-65199500D01*
X159012307Y-65200346D01*
X158815465Y-65231522D01*
X158620776Y-65294781D01*
X158438386Y-65387715D01*
X158272786Y-65508028D01*
X158128028Y-65652786D01*
X158007715Y-65818386D01*
X157960485Y-65911080D01*
X157912510Y-65961876D01*
X157844689Y-65978671D01*
X157778554Y-65956134D01*
X157739515Y-65911080D01*
X157729792Y-65891998D01*
X157692287Y-65818390D01*
X157661126Y-65775500D01*
X157571971Y-65652786D01*
X157427213Y-65508028D01*
X157261613Y-65387715D01*
X157261612Y-65387714D01*
X157261610Y-65387713D01*
X157192175Y-65352334D01*
X157079223Y-65294781D01*
X156884534Y-65231522D01*
X156687693Y-65200346D01*
X156682352Y-65199500D01*
X156477648Y-65199500D01*
X156472307Y-65200346D01*
X156275465Y-65231522D01*
X156080776Y-65294781D01*
X155898386Y-65387715D01*
X155732786Y-65508028D01*
X155588028Y-65652786D01*
X155467713Y-65818388D01*
X155420203Y-65911630D01*
X155372228Y-65962426D01*
X155304407Y-65979220D01*
X155238272Y-65956682D01*
X155199234Y-65911628D01*
X155151861Y-65818652D01*
X155031582Y-65653105D01*
X155031582Y-65653104D01*
X154886895Y-65508417D01*
X154721349Y-65388140D01*
X154539029Y-65295244D01*
X154344413Y-65232009D01*
X154290000Y-65223390D01*
X154290000Y-66066988D01*
X154232993Y-66034075D01*
X154105826Y-66000000D01*
X153974174Y-66000000D01*
X153847007Y-66034075D01*
X153790000Y-66066988D01*
X153790000Y-65223390D01*
X153735586Y-65232009D01*
X153540970Y-65295244D01*
X153358650Y-65388140D01*
X153193105Y-65508417D01*
X153193104Y-65508417D01*
X153048417Y-65653104D01*
X153048417Y-65653105D01*
X152928140Y-65818650D01*
X152880765Y-65911629D01*
X152832790Y-65962425D01*
X152764969Y-65979220D01*
X152698834Y-65956682D01*
X152659795Y-65911629D01*
X152646556Y-65885646D01*
X152612287Y-65818390D01*
X152581126Y-65775500D01*
X152491971Y-65652786D01*
X152347213Y-65508028D01*
X152181613Y-65387715D01*
X152181612Y-65387714D01*
X152181610Y-65387713D01*
X152112175Y-65352334D01*
X151999223Y-65294781D01*
X151804534Y-65231522D01*
X151607693Y-65200346D01*
X151602352Y-65199500D01*
X151397648Y-65199500D01*
X151392307Y-65200346D01*
X151195465Y-65231522D01*
X151000776Y-65294781D01*
X150818386Y-65387715D01*
X150652786Y-65508028D01*
X150508028Y-65652786D01*
X150387715Y-65818386D01*
X150340485Y-65911080D01*
X150292510Y-65961876D01*
X150224689Y-65978671D01*
X150158554Y-65956134D01*
X150119515Y-65911080D01*
X150109792Y-65891998D01*
X150072287Y-65818390D01*
X150041126Y-65775500D01*
X149951971Y-65652786D01*
X149803774Y-65504589D01*
X149804869Y-65503493D01*
X149770417Y-65450711D01*
X149769922Y-65380843D01*
X149807279Y-65321799D01*
X149864953Y-65293317D01*
X149870151Y-65292283D01*
X149983497Y-65269737D01*
X150129179Y-65209394D01*
X150260289Y-65121789D01*
X150371789Y-65010289D01*
X150459394Y-64879179D01*
X150459873Y-64878024D01*
X150485389Y-64816421D01*
X150519737Y-64733497D01*
X150550500Y-64578842D01*
X150550500Y-64421158D01*
X150550500Y-64421155D01*
X150528129Y-64308692D01*
X150534356Y-64239100D01*
X150577219Y-64183923D01*
X150643108Y-64160678D01*
X150649746Y-64160500D01*
X153181007Y-64160500D01*
X158681007Y-64160500D01*
X159181007Y-64160500D01*
X162325500Y-64160500D01*
X162392539Y-64180185D01*
G37*
%TD.AperFunction*%
%TD*%
M02*
