M48
; DRILL file {KiCad 9.0.7} date 2026-04-16T21:56:55-0400
; FORMAT={-:-/ absolute / metric / decimal}
; #@! TF.CreationDate,2026-04-16T21:56:55-04:00
; #@! TF.GenerationSoftware,Kicad,Pcbnew,9.0.7
; #@! TF.FileFunction,Plated,1,2,PTH
FMAT,2
METRIC
; #@! TA.AperFunction,Plated,PTH,ViaDrill
T1C0.300
; #@! TA.AperFunction,Plated,PTH,ComponentDrill
T2C0.750
; #@! TA.AperFunction,Plated,PTH,ComponentDrill
T3C0.800
; #@! TA.AperFunction,Plated,PTH,ComponentDrill
T4C0.950
; #@! TA.AperFunction,Plated,PTH,ComponentDrill
T5C1.000
; #@! TA.AperFunction,Plated,PTH,ComponentDrill
T6C1.100
%
G90
G05
T1
X119.75Y-80.5
X120.5Y-86.5
X123.5Y-89.0
X130.25Y-76.5
X143.996Y-70.004
X146.5Y-74.5
X149.75Y-61.825
X149.75Y-62.675
X149.75Y-64.5
X151.5Y-77.5
X163.25Y-64.325
X163.25Y-65.175
X163.825Y-74.975
X164.675Y-74.975
X170.75Y-69.75
X171.489Y-69.444
X174.0Y-65.5
T2
X149.96Y-55.36
X151.23Y-55.36
X152.5Y-55.36
X155.73Y-55.36
X157.0Y-55.36
X158.27Y-55.36
T3
X169.26Y-74.0
X169.26Y-81.62
X171.8Y-74.0
X171.8Y-81.62
X174.34Y-74.0
X174.34Y-81.62
X176.88Y-74.0
X176.88Y-81.62
X179.42Y-74.0
X179.42Y-81.62
X181.96Y-74.0
X181.96Y-81.62
X184.5Y-74.0
X184.5Y-81.62
X187.04Y-74.0
X187.04Y-81.62
X189.58Y-74.0
X189.58Y-81.62
X194.38Y-61.42
X194.38Y-63.96
X194.38Y-66.5
X194.38Y-69.04
X194.38Y-71.58
X194.38Y-74.12
X194.38Y-76.66
X194.38Y-79.2
X202.0Y-61.42
X202.0Y-63.96
X202.0Y-66.5
X202.0Y-69.04
X202.0Y-71.58
X202.0Y-74.12
X202.0Y-76.66
X202.0Y-79.2
X205.502Y-61.42
X205.502Y-63.96
X205.502Y-66.5
X205.502Y-69.04
X205.502Y-71.58
X205.502Y-74.12
X205.502Y-76.66
X205.502Y-79.2
X205.502Y-81.74
X213.122Y-61.42
X213.122Y-63.96
X213.122Y-66.5
X213.122Y-69.04
X213.122Y-71.58
X213.122Y-74.12
X213.122Y-76.66
X213.122Y-79.2
X213.122Y-81.74
T4
X169.5Y-55.0
X172.0Y-55.0
X174.5Y-55.0
X177.0Y-55.0
X179.5Y-55.0
T5
X123.117Y-92.306
X123.117Y-94.846
X123.117Y-97.386
X123.117Y-99.926
X123.117Y-102.466
X123.117Y-105.006
X123.117Y-107.546
X126.1Y-66.5
X126.1Y-81.74
X127.0Y-55.0
X128.64Y-66.5
X128.64Y-81.74
X129.5Y-55.0
X131.18Y-66.5
X131.18Y-81.74
X133.72Y-66.5
X133.72Y-81.74
X136.26Y-66.5
X136.26Y-81.74
X137.0Y-55.0
X138.8Y-66.5
X138.8Y-81.74
X139.5Y-55.0
X141.34Y-66.5
X141.34Y-81.74
X143.88Y-66.5
X143.88Y-81.74
X146.42Y-66.5
X146.42Y-81.74
X148.96Y-66.5
X148.96Y-81.74
X151.5Y-66.5
X151.5Y-81.74
X151.603Y-98.827
X151.603Y-101.367
X154.04Y-66.5
X154.04Y-81.74
X156.58Y-66.5
X156.58Y-81.74
X159.12Y-66.5
X159.12Y-81.74
X161.66Y-66.5
X161.66Y-81.74
X188.0Y-55.0
X190.5Y-55.0
T6
X188.0Y-63.46
X188.0Y-66.0
X188.0Y-68.54
M30
