%TF.GenerationSoftware,KiCad,Pcbnew,9.0.7*%
%TF.CreationDate,2026-04-16T21:56:48-04:00*%
%TF.ProjectId,Soul_PS_Dash_V1,536f756c-5f50-4535-9f44-6173685f5631,rev?*%
%TF.SameCoordinates,Original*%
%TF.FileFunction,Soldermask,Bot*%
%TF.FilePolarity,Negative*%
%FSLAX46Y46*%
G04 Gerber Fmt 4.6, Leading zero omitted, Abs format (unit mm)*
G04 Created by KiCad (PCBNEW 9.0.7) date 2026-04-16 21:56:48*
%MOMM*%
%LPD*%
G01*
G04 APERTURE LIST*
G04 Aperture macros list*
%AMRoundRect*
0 Rectangle with rounded corners*
0 $1 Rounding radius*
0 $2 $3 $4 $5 $6 $7 $8 $9 X,Y pos of 4 corners*
0 Add a 4 corners polygon primitive as box body*
4,1,4,$2,$3,$4,$5,$6,$7,$8,$9,$2,$3,0*
0 Add four circle primitives for the rounded corners*
1,1,$1+$1,$2,$3*
1,1,$1+$1,$4,$5*
1,1,$1+$1,$6,$7*
1,1,$1+$1,$8,$9*
0 Add four rect primitives between the rounded corners*
20,1,$1+$1,$2,$3,$4,$5,0*
20,1,$1+$1,$4,$5,$6,$7,0*
20,1,$1+$1,$6,$7,$8,$9,0*
20,1,$1+$1,$8,$9,$2,$3,0*%
G04 Aperture macros list end*
%ADD10R,1.700000X1.700000*%
%ADD11C,1.700000*%
%ADD12R,2.000000X1.905000*%
%ADD13O,2.000000X1.905000*%
%ADD14RoundRect,0.250000X-0.550000X-0.550000X0.550000X-0.550000X0.550000X0.550000X-0.550000X0.550000X0*%
%ADD15C,1.600000*%
%ADD16RoundRect,0.250000X-0.600000X-0.750000X0.600000X-0.750000X0.600000X0.750000X-0.600000X0.750000X0*%
%ADD17O,1.700000X2.000000*%
%ADD18RoundRect,0.250000X0.550000X-0.550000X0.550000X0.550000X-0.550000X0.550000X-0.550000X-0.550000X0*%
%ADD19R,1.600000X1.600000*%
%ADD20O,1.600000X1.600000*%
%ADD21R,1.050000X1.500000*%
%ADD22O,1.050000X1.500000*%
%ADD23RoundRect,0.250000X-0.600000X-0.725000X0.600000X-0.725000X0.600000X0.725000X-0.600000X0.725000X0*%
%ADD24O,1.700000X1.950000*%
%ADD25RoundRect,0.250000X0.550000X0.550000X-0.550000X0.550000X-0.550000X-0.550000X0.550000X-0.550000X0*%
G04 APERTURE END LIST*
D10*
%TO.C,J3*%
X151603325Y-98827152D03*
D11*
X151603325Y-101367152D03*
%TD*%
D12*
%TO.C,Q1*%
X188000000Y-68540000D03*
D13*
X188000000Y-66000000D03*
X188000000Y-63460000D03*
%TD*%
D14*
%TO.C,U2*%
X205501824Y-61419772D03*
D15*
X205501824Y-63959772D03*
X205501824Y-66499772D03*
X205501824Y-69039772D03*
X205501824Y-71579772D03*
X205501824Y-74119772D03*
X205501824Y-76659772D03*
X205501824Y-79199772D03*
X205501824Y-81739772D03*
X213121824Y-81739772D03*
X213121824Y-79199772D03*
X213121824Y-76659772D03*
X213121824Y-74119772D03*
X213121824Y-71579772D03*
X213121824Y-69039772D03*
X213121824Y-66499772D03*
X213121824Y-63959772D03*
X213121824Y-61419772D03*
%TD*%
D16*
%TO.C,J6*%
X188000000Y-55000000D03*
D17*
X190500000Y-55000000D03*
%TD*%
D16*
%TO.C,J1*%
X127000000Y-55000000D03*
D17*
X129500000Y-55000000D03*
%TD*%
D18*
%TO.C,U1*%
X169260000Y-81620000D03*
D15*
X171800000Y-81620000D03*
X174340000Y-81620000D03*
X176880000Y-81620000D03*
X179420000Y-81620000D03*
X181960000Y-81620000D03*
X184500000Y-81620000D03*
X187040000Y-81620000D03*
X189580000Y-81620000D03*
X189580000Y-74000000D03*
X187040000Y-74000000D03*
X184500000Y-74000000D03*
X181960000Y-74000000D03*
X179420000Y-74000000D03*
X176880000Y-74000000D03*
X174340000Y-74000000D03*
X171800000Y-74000000D03*
X169260000Y-74000000D03*
%TD*%
D19*
%TO.C,A1*%
X161660000Y-66500000D03*
D20*
X159120000Y-66500000D03*
X156580000Y-66500000D03*
X154040000Y-66500000D03*
X151500000Y-66500000D03*
X148960000Y-66500000D03*
X146420000Y-66500000D03*
X143880000Y-66500000D03*
X141340000Y-66500000D03*
X138800000Y-66500000D03*
X136260000Y-66500000D03*
X133720000Y-66500000D03*
X131180000Y-66500000D03*
X128640000Y-66500000D03*
X126100000Y-66500000D03*
X126100000Y-81740000D03*
X128640000Y-81740000D03*
X131180000Y-81740000D03*
X133720000Y-81740000D03*
X136260000Y-81740000D03*
X138800000Y-81740000D03*
X141340000Y-81740000D03*
X143880000Y-81740000D03*
X146420000Y-81740000D03*
X148960000Y-81740000D03*
X151500000Y-81740000D03*
X154040000Y-81740000D03*
X156580000Y-81740000D03*
X159120000Y-81740000D03*
X161660000Y-81740000D03*
%TD*%
D16*
%TO.C,J4*%
X137000000Y-55000000D03*
D17*
X139500000Y-55000000D03*
%TD*%
D21*
%TO.C,Q2*%
X149960000Y-55360000D03*
D22*
X151230000Y-55360000D03*
X152500000Y-55360000D03*
%TD*%
D10*
%TO.C,J5*%
X123116614Y-92306195D03*
D11*
X123116614Y-94846195D03*
X123116614Y-97386195D03*
X123116614Y-99926195D03*
X123116614Y-102466195D03*
X123116614Y-105006195D03*
X123116614Y-107546195D03*
%TD*%
D23*
%TO.C,J2*%
X169500000Y-55000000D03*
D24*
X172000000Y-55000000D03*
X174500000Y-55000000D03*
X177000000Y-55000000D03*
X179500000Y-55000000D03*
%TD*%
D21*
%TO.C,Q3*%
X155730000Y-55360000D03*
D22*
X157000000Y-55360000D03*
X158270000Y-55360000D03*
%TD*%
D25*
%TO.C,U3*%
X202000000Y-79200000D03*
D15*
X202000000Y-76660000D03*
X202000000Y-74120000D03*
X202000000Y-71580000D03*
X202000000Y-69040000D03*
X202000000Y-66500000D03*
X202000000Y-63960000D03*
X202000000Y-61420000D03*
X194380000Y-61420000D03*
X194380000Y-63960000D03*
X194380000Y-66500000D03*
X194380000Y-69040000D03*
X194380000Y-71580000D03*
X194380000Y-74120000D03*
X194380000Y-76660000D03*
X194380000Y-79200000D03*
%TD*%
M02*
