%TF.GenerationSoftware,KiCad,Pcbnew,9.0.7*%
%TF.CreationDate,2026-04-16T21:56:48-04:00*%
%TF.ProjectId,Soul_PS_Dash_V1,536f756c-5f50-4535-9f44-6173685f5631,rev?*%
%TF.SameCoordinates,Original*%
%TF.FileFunction,Legend,Bot*%
%TF.FilePolarity,Positive*%
%FSLAX46Y46*%
G04 Gerber Fmt 4.6, Leading zero omitted, Abs format (unit mm)*
G04 Created by KiCad (PCBNEW 9.0.7) date 2026-04-16 21:56:48*
%MOMM*%
%LPD*%
G01*
G04 APERTURE LIST*
%ADD10C,0.200000*%
G04 APERTURE END LIST*
D10*
X192594612Y-93367219D02*
X192594612Y-94081504D01*
X192594612Y-94081504D02*
X192642231Y-94224361D01*
X192642231Y-94224361D02*
X192737469Y-94319600D01*
X192737469Y-94319600D02*
X192880326Y-94367219D01*
X192880326Y-94367219D02*
X192975564Y-94367219D01*
X191642231Y-94367219D02*
X192118421Y-94367219D01*
X192118421Y-94367219D02*
X192118421Y-93367219D01*
X190737469Y-94271980D02*
X190785088Y-94319600D01*
X190785088Y-94319600D02*
X190927945Y-94367219D01*
X190927945Y-94367219D02*
X191023183Y-94367219D01*
X191023183Y-94367219D02*
X191166040Y-94319600D01*
X191166040Y-94319600D02*
X191261278Y-94224361D01*
X191261278Y-94224361D02*
X191308897Y-94129123D01*
X191308897Y-94129123D02*
X191356516Y-93938647D01*
X191356516Y-93938647D02*
X191356516Y-93795790D01*
X191356516Y-93795790D02*
X191308897Y-93605314D01*
X191308897Y-93605314D02*
X191261278Y-93510076D01*
X191261278Y-93510076D02*
X191166040Y-93414838D01*
X191166040Y-93414838D02*
X191023183Y-93367219D01*
X191023183Y-93367219D02*
X190927945Y-93367219D01*
X190927945Y-93367219D02*
X190785088Y-93414838D01*
X190785088Y-93414838D02*
X190737469Y-93462457D01*
X190023183Y-93367219D02*
X190023183Y-94081504D01*
X190023183Y-94081504D02*
X190070802Y-94224361D01*
X190070802Y-94224361D02*
X190166040Y-94319600D01*
X190166040Y-94319600D02*
X190308897Y-94367219D01*
X190308897Y-94367219D02*
X190404135Y-94367219D01*
X189070802Y-94367219D02*
X189546992Y-94367219D01*
X189546992Y-94367219D02*
X189546992Y-93367219D01*
X188166040Y-94271980D02*
X188213659Y-94319600D01*
X188213659Y-94319600D02*
X188356516Y-94367219D01*
X188356516Y-94367219D02*
X188451754Y-94367219D01*
X188451754Y-94367219D02*
X188594611Y-94319600D01*
X188594611Y-94319600D02*
X188689849Y-94224361D01*
X188689849Y-94224361D02*
X188737468Y-94129123D01*
X188737468Y-94129123D02*
X188785087Y-93938647D01*
X188785087Y-93938647D02*
X188785087Y-93795790D01*
X188785087Y-93795790D02*
X188737468Y-93605314D01*
X188737468Y-93605314D02*
X188689849Y-93510076D01*
X188689849Y-93510076D02*
X188594611Y-93414838D01*
X188594611Y-93414838D02*
X188451754Y-93367219D01*
X188451754Y-93367219D02*
X188356516Y-93367219D01*
X188356516Y-93367219D02*
X188213659Y-93414838D01*
X188213659Y-93414838D02*
X188166040Y-93462457D01*
X187451754Y-93367219D02*
X187451754Y-94081504D01*
X187451754Y-94081504D02*
X187499373Y-94224361D01*
X187499373Y-94224361D02*
X187594611Y-94319600D01*
X187594611Y-94319600D02*
X187737468Y-94367219D01*
X187737468Y-94367219D02*
X187832706Y-94367219D01*
X186499373Y-94367219D02*
X186975563Y-94367219D01*
X186975563Y-94367219D02*
X186975563Y-93367219D01*
X185594611Y-94271980D02*
X185642230Y-94319600D01*
X185642230Y-94319600D02*
X185785087Y-94367219D01*
X185785087Y-94367219D02*
X185880325Y-94367219D01*
X185880325Y-94367219D02*
X186023182Y-94319600D01*
X186023182Y-94319600D02*
X186118420Y-94224361D01*
X186118420Y-94224361D02*
X186166039Y-94129123D01*
X186166039Y-94129123D02*
X186213658Y-93938647D01*
X186213658Y-93938647D02*
X186213658Y-93795790D01*
X186213658Y-93795790D02*
X186166039Y-93605314D01*
X186166039Y-93605314D02*
X186118420Y-93510076D01*
X186118420Y-93510076D02*
X186023182Y-93414838D01*
X186023182Y-93414838D02*
X185880325Y-93367219D01*
X185880325Y-93367219D02*
X185785087Y-93367219D01*
X185785087Y-93367219D02*
X185642230Y-93414838D01*
X185642230Y-93414838D02*
X185594611Y-93462457D01*
X184880325Y-93367219D02*
X184880325Y-94081504D01*
X184880325Y-94081504D02*
X184927944Y-94224361D01*
X184927944Y-94224361D02*
X185023182Y-94319600D01*
X185023182Y-94319600D02*
X185166039Y-94367219D01*
X185166039Y-94367219D02*
X185261277Y-94367219D01*
X183927944Y-94367219D02*
X184404134Y-94367219D01*
X184404134Y-94367219D02*
X184404134Y-93367219D01*
X183023182Y-94271980D02*
X183070801Y-94319600D01*
X183070801Y-94319600D02*
X183213658Y-94367219D01*
X183213658Y-94367219D02*
X183308896Y-94367219D01*
X183308896Y-94367219D02*
X183451753Y-94319600D01*
X183451753Y-94319600D02*
X183546991Y-94224361D01*
X183546991Y-94224361D02*
X183594610Y-94129123D01*
X183594610Y-94129123D02*
X183642229Y-93938647D01*
X183642229Y-93938647D02*
X183642229Y-93795790D01*
X183642229Y-93795790D02*
X183594610Y-93605314D01*
X183594610Y-93605314D02*
X183546991Y-93510076D01*
X183546991Y-93510076D02*
X183451753Y-93414838D01*
X183451753Y-93414838D02*
X183308896Y-93367219D01*
X183308896Y-93367219D02*
X183213658Y-93367219D01*
X183213658Y-93367219D02*
X183070801Y-93414838D01*
X183070801Y-93414838D02*
X183023182Y-93462457D01*
M02*
